<mxfile host="app.diagrams.net" modified="2021-01-13T11:26:49.703Z" agent="5.0 (Windows NT 10.0; Win64; x64) AppleWebKit/537.36 (KHTML, like Gecko) Chrome/87.0.4280.141 Safari/537.36" etag="zixR16DZ6jcPHzx9pmBx" version="14.1.8" type="github">
  <diagram id="Zjd_Aa48r1gfdgYG4FF7" name="Page-1">
    <mxGraphModel dx="1422" dy="839" grid="1" gridSize="10" guides="1" tooltips="1" connect="1" arrows="1" fold="1" page="1" pageScale="1" pageWidth="2339" pageHeight="3300" math="0" shadow="0">
      <root>
        <mxCell id="0" />
        <mxCell id="1" parent="0" />
        <mxCell id="kEirQazwxM-ynIQ75gN8-25" value="" style="rounded=1;whiteSpace=wrap;html=1;fillColor=#fff2cc;strokeColor=#d6b656;dashed=1;" vertex="1" parent="1">
          <mxGeometry x="380" y="580" width="220" height="110" as="geometry" />
        </mxCell>
        <mxCell id="kEirQazwxM-ynIQ75gN8-23" value="" style="rounded=1;whiteSpace=wrap;html=1;dashed=1;fillColor=#fff2cc;strokeColor=#d6b656;" vertex="1" parent="1">
          <mxGeometry x="380" y="420" width="500" height="150" as="geometry" />
        </mxCell>
        <mxCell id="kEirQazwxM-ynIQ75gN8-1" value="ATS-职位详情：绑定网申申请表、微官网网申申请表" style="shape=image;verticalLabelPosition=bottom;labelBackgroundColor=#ffffff;verticalAlign=top;aspect=fixed;imageAspect=0;image=data:image/png,iVBORw0KGgoAAAANSUhEUgAABDoAAAISCAYAAAAtAq/YAAAgAElEQVR4AezdfbAn2V3f960t8Y//CuGPKZIq80+ySYpKpRL/kYpTFVN2IuKykWPGsiUItixmzINMCRsIQkQEiZ1lJDEaERZh0AzCRLo7MJerAmFf6RoPj/dKeNezRrqWRsCKB63mYWdXDyuttFohndTndH9Pf/v06f71vXN/j/2+VTO//vXD6T6vPr++3Z97un/3BX4QQAABBBBAAAEEEEAAAQQQQACBDRG4b0PqQTUQQAABBBBAAAEEEEAAAQQQQACBQNBBI0AAAQQQQAABBBBAAAEEEEAAgY0RIOjYmF1JRRBAAAEEEEAAAQQQQAABBBBAgKCDNoAAAggggAACCCCAAAIIIIAAAhsjQNCxMbuSiiCAAAIIIIAAAggggAACCCCAAEEHbQABBBBAAAEEEEAAAQQQQAABBDZGgKBjY3YlFUEAAQQQQAABBBBAAAEEEEAAAYIO2gACCCCAAAIIIIAAAggggAACCGyMAEHHxuxKKoIAAggggAACCCCAAAIIIIAAAgQdtAEEEEAAAQQQQAABBBBAAAEEENgYAYKOjdmVVAQBBBBAAAEEEEAAAQQQQAABBI4VdFx9z/vCf/FX//eZ/970tstReMz8Nq/tks989nPh7e+6Gv72P/yuuJ7/+n/52+Gl/+Sfhffs/Wb44gsv2GxhTNnaVl/+k7fuhO/9kR8PX/8NLwl/5Rv/Xnjdm34q3Ln7dCrTBj78h0+E73rN64PWrfke/Ml/Ee4+80mbHF+/8pWvhD/48EfDme//kVie5n3F9742jtM0//OpT38mXHz7L4b/6ZteHuv0f/zj7wm/9f5Hw5e/3J7PL8MwAggggAACCCCAAAIIIIAAAgiMFzhW0PHoHxyGt779F9O//+vBC/HCXa9+/Pt+az9uicKI/+5//bvh//mJh1vTS/NqgaeefiZ8y6t+IAYH3/mDr4/LKKhQMKDQ4oceuhie+/znY9lH3ZY/e/Jm+Jvf+h3h9JlXh19737XwyLv/Vfgbf/+V4du+5wfD05/8VJL7w4/9afjf/sG3x9BC9bD5tF3aPvvZf/TxGIIo6NB8+qegQ8GIptmP1UnrUlm/uf/74fte/6YYovzrf/s7Nttavr5777fCw//f1c62a5ym+R+9/7bv+9Ej/cvL8OWt2rC3+Hd/8OHk8slPPxve8FOXg171U7LR+Hy+oXljQWv03+e/8Hx489vfGf74z54MGpZHX1v4jh/+8TifnPJ5fFtTOXpvrp6jtGxelr33ZfoybNj2q233OrVJq4Nef+K3PxNOveHjnX8/9/ufDf/DT97sjNe4m8/+RSri2ee/HF6+dTf8+ye/mMZp+L9/683WuDRxjQdmtR9rM2p73/tjFzvt1NqWvaq9q/1swo99HvrqUrIzLy0z9LnNy9RxdJPs8vrxvl/gKMdbtUn7rPnX9/7OB4qfT31m7feGfYZ9G7WtKrV12y6/HpV3+Zd/rbgNms+vz8pe5dfSZ9jXtzQsK/1+l0Pfj+x0HqDP9Q+9+W1x/r5512l8qZ0cZfvVBv054qxl/fnlrHlXeXrps1RqWzYu/12Qu1t58un7KVlrfvsMq8yxP5r3KPOPLXcZ8+V2Q8eAWcezVXI5VtCR74Dfv/7BGEDotfSjoOOvffM/DH/8J39emtwZ985feU8nKNBM6vmgkEC9Jn77/Y92ltOIoW1RD4uf/oVHwkte8apw885TafmPPvEncfu0Xv288MKXwg+ff2t4+Xcr1Gh6cBze+KPwV1/yreHdu78R51PY8t0/9GOxd4gFL5rw7Gc/F3uCaJqNV9kKThSg2I96przmobfEMmw+m7ZOr3aS4D/sGi6dNJTqlX+4SvOs0zjVW7/I9Uv8E7fvDl7Q6+DtD8iy3Pq198WTJfPTq7ddJwu/rdrPFnT48apfbmAnQP4Xkk6gtLyNs198/nVeB19rz6rDk7efivt0HfeJgopvesed8J4PV0HxP/mVZ2L4oTBD432ooQDjr/2L261xWk7zqRz/o3n/yzd+IpXrp63DsNrgUDvSvu7b32qP1l776mptV+1nE35UZ33W/OfW18s+o3q1uts472zDQ59brSM/udW61vm4aL/zrP56VX3yH9Xd5vnlf/0b6XfJkFdexrq/n9XWrH5mam3S2oe1O73aj9qkPrMaZ8uZs3999Y+9JSh09+M0bO1Ry/rfafZ7Quvx7ba0DbYt6/Tq3Ya22+xL83izseWVylm1cUN1HrOtR20j1m77fi+NWecqzGP1sM/t0DbZ7xIto5+SmTzyz6v/zObLqQwdT/VP5+sK6fRP77WcHWttvlLZpXG23FB9Vm1avi/62rT/3PrfUSWH0rgx+/okbVYy6FDvDfW4+OSnP9Op6+2nng7f9I++O7ztXz7SmaYRQ0GHbof5R69+bfiJn3lH8LeVWLDxz370jfGX3qc/82x41WsfDD/3zl9urePjN2+Fb/yWs/F2GU3480/citt55Vd3W/PpzaWt7VQHW+8v/NK7O/Ot64i+g0mpUds4fWhKP/5DU5q+buPyg4W2Pz8glw4g+YmRDpQaV5p33UxUB2sHerVfAnLJLxL9OO9mv+Q0TuXpVdal4eMefE+yXa/iPrrXoEPByCOPfy6GHaWeIX6ceo+s00/pc6vt13h/MZPXybfXfJq9t7arstbt56ifJX2Gjvu5lY2sSheXdvzQ8UL/9Llfxx+rX779em/HRauXxslTP1rOLs5t+lRex9Q9//yanW+L5uXL8+5q62p7H/roEylU0jgbr+X8T35sGPr9ke9bX866DKt+1h6Htlnmdv6Sz5eb5dPX8b21vTE2ffUrtVObd6hd2XHRv6pNr8uP2Wn79TnTj14tTNR7m0d/BNTvYr3Xj1w0r7U31VvllJa1fWPzmJdCDc2vMqxMm3don8SZ622w+W3cOr7mLjKRdalu+f4p1VfLlZYtzTvvcSsZdLzn3/xW7NGh20CO+vyKoaDjY3/+ZPjrL/3HKajwuAoh/u4rv6d1+4pNVyiiHiB6lod6ZTzxp8M9U6ynhkIVhRzqyaIeLbqVRXX7W9/2nbFXSt+zPGy96/Y65qCgOtlByQ40fa92+8I6OdgB+TVv/unWiXhuo4NKfhDQSZQOLvLw0zSv/QJYJ4t8W2XjLxitHfi6ahl/EmrzWBuxX0jmZOPt1U4m+w7EWle+PttnQ8ZaRvth3X8s6MgDiTE9Ojb1FhXbp3k7UHuwdpW/WjvTsnkbzee192qzWse6/fR9lobqkZuM/dyWyvTrt32i11k/+n3/z3/0ja1elH4Z3fb6Pf/3uaBndi3qx9pYfgyy9esYo382n7Wd7/6RN7Xaoi1vHjafd1E5ujDQ79F1/F1qJnq19jR0DM7NZCInLWvtz8r0v2M0LB8zHPNqzlqn/53mf09oHvvMl7bBtmVVX0ueQzZWV6uP6qy/kOtYObScpg3tVytvlV/HtM/8szrLxLv4diUH2zfWDlfZZta2WV10i5l9TtUe9LnSP023z6vq68fZLVLysRBE8+q9laXXvH35z6PtO3mrrapMlaXlbJzmOc7+W7f9Y/vCtltustSPXn2btXk0TfP5aUPDctV6FvmzsKBj1sNL/W0vuo3jDRd/Jt4Oowd3vuEtbwu/8bvvjw8M9T0xSlBDQYcPHPJl+26vUa8S9S7R9v/Pf+dbg06OZv3YczvsVhgto9tt1BNFzxnRs0He+5u/G172Xd8fAx1f91llr9J0f4AYatj5SZaWy/+Kn9drzDz5MqvwXgcD/dP26wOtg8Gsk6j8g68DtbrM6lU/Ooj4g8oq1PM426CDm50UmovVMT+I6r1+zFGvmlfLa1gmelWZpWHbPq3H2qac9QtMZfsDs63Llsn9NV7z5O1YZeTLWhmr+mpBx1FvXbHldHuKAg8FI3p+h5Xj66teH/q3bj/5L3m1nfyzqTqpffi/rKsdzjqeWdtd9C/4k9gHJYfcwOzs8yAT2enV6q7h0mfVf4a1vH1ex76qzNLPF57/Yjj/8KX4R4ZH/8OH0iw6h/g3v3MQ/se/9bKg39F/8RfNM2jSTHMakIU/tueryV39MSafpv3iA7e8bC3rp+frWqf3qqvchuysDWpe/Zidb4tWZ2+pYbt4sul9r/k69N5+p2kZtV9rj/5zU9qGvnWsyvi8buZp21eqq86X9bnXZ7d07NSyuaGVt86vakM6Pzju583ah/+94j3MWvtg1nHxuNvg17fIYd8e7DNjvztUb/unuvvPqsabhX3m/HbbdL3mP+atVz+s+Wx9GvbTbNu0vfrJ32sbrM37OsWZ1+S/fLtVp5LfmOp4xzHzz3OehQUdsx5G+rE/+3irnurJ8ZE/eiKc+8mfDd9w+hUxaFDYoN4QQ99UMhR0fOSPPhafsVEKFvqCjmc+9en4PJBf/43fDv/nP/3B4rND/Ib/h/94I/b6+IEfe3N6Podt0z/4zn/e+nYXfQuLen34Z3n4slZ92B8E+rZV8+QXAaVx+lD4g1Vpnr51rOJ4+8Wng+G9/OQHnnspa9nLWl30y8nv66Ht8m3MfsnZOPsl519P6pe81qGybP+pfWo9+kWmbs06qdGwtmmdfiywsIBi7DM6dBuKHjjqHzqqcXmgMRSArLqTtU/b5/5Extqe5tGwPyEdc6zyy6+6Q7595mB/5ZJBbqX6+YtQ+4zq1epu4/zn1YaHPrdav+Y7zgmXQgyFGQo11JtSt6n697P+cJJb3Ot71WWornlb8ieavt3l/rZd/veolh17nLXlV/HV6qq6+frl22rzyVg/ZmftTq/24y2tfSqwsPZYerWLL71qHSrfz6f9qr8G+3F+eGi/23at0qs8fYiT11d1s/YlD7loGf2Yqb3P66XlbD/l09bxvepj/45aL3M2Q99OzcK3+/wYYfOs66vqb58pG7Z2Ze/tj0x5u9J0/V7Sq/1oHgudZKphtVW/X+yYoF4k+szqs+k/q37YPre2f/p6Kdk2aztsu/06bftW+dW2W/XXPhk6JpqL6u29xgx7q0V4LCzoOMrDSEsV1y0gv/fv/n38Glf1jtj+9fe1nrNhy1ioUAozjtOjw8rVqz1kVN/Qoud4+B+dMGn71ANFX12rEMN+bJtKzxXR8z10O4262a7bjw4WQwcIa/B2kLL6lQ7U/kCu+Urz2PKr/mrbrhN/HejswGse/lX11o9e/fgxw4s+WNyLux0MfVsYqrOdNOVtzMbP2hZb3xhHm2eobG2rDvqaR/Ov2y8w87Kgo3TrytC3rnzfr38y9t7Qw0nVo0M/eh37sFJb/yq/2i9527d6tTbhT7A0nAcdY46DVtYqG5S2TQ76PNlxTfXXj8bpn368ld4f93MbC6svlOwE1T6f+aut25bpe9XvZoUcCjt0e6r+cOJ7ePQtN4/xcrITxFL5JWP7HeHbXe7rbczF75/SutZlnDfLfXwd7PPrLWTXZ5XvB3mZtS9Xw3n7tulapw8DtLz5+2W0Dfr863VdfvK65T59dVX97Hhp9fb7RO6y6LNeFx/bTtXR/phn9ZbdmB9rs2orZlVqI97a74d8H41Z56rNkxuoffjPpupuvztzX1n4tqVhm9fXU8vp94l9Nm05e+/n1frGtk0tb+vz9fDlrcuwmchQ7VE/GqcgSXW0cRqf74e8jlpOAZJe5bLsn7UJOgxKaPoaW/WOyMMGzWOhQinoOO4zOmzdelUwkYc26n2i4OXrv+El8Zab/BtU/uNH/zieZKnXSP7T15Mkn28V3w8dmG17/S+BoXH5waW0nC2/yq92sFN99CHXqw4K/sLItj+vs433r+vq4Otgw7LpOym0efTqD6K+jdn4oZS57xedyvVl+fUNDWuddsFlB20d9O2X29CyqzjNgo6j9uhQXdRbwwcdeVmax3qIrGLdZ22TfXbtF7pebT9b29M8Gvaf5zGfUb/8rO1YtelyUNvXjx3TNOx9/HhN8581q/uYz+1P/sIvxRPXWbcp2PE1btTI/3QL6atf91DvMztGFnNPs8nC93zJC8vblnf10+SriwFrq3k5eq9l9W+df/LPpOri252vWz6v2fm2aPN7Sxun+fOLJv/ejgU2v161Tv87zU/r204/zyoP53Ur+Vj7yusqX7moDP3kZY0591llG79tMjAHjdew6jfrJ/8Ml9qplWFetoxvl/mwDwls+VV+VdvQZ0ttyCzNUPXV71odM2Xg25XmV931aj9DPvb5Vdn+eSAq087xcku9L+1LjcvXrW2w9a/bPjA/vy80zvZD/vm28bacf5WNpuvHD9v+sml+mXkPr1zQoTDixS8/G4a+oeThn39X+kaTHGgo6LBvP+n71hWdBH3+C18If/rxT8S//OivQPmPtsv3wFDX2Le/azv8t3/978TX0v2+9k0x+XpVtsrTszs0z7r92Ie6dHDw43QQ0cHEfuzgZeOsHH9AyeexZVf91R8AVB/9GzqQ+jrndbODjixzw3zedXhfOtkpHfTkZSdJagf6BaXXvvF9dZetb4dDw/l+0HZpfvvlqOl+W226/yXbtx2rND4PJ44STORBh+rlb18pTV+lus/alvzzZn/J0Hi//9UOpxR0qO72+fAnPHLQCahOGvOL93v53Go/aXmdLA59Zv3ncda+XZXp1sbMM98u1cnXS8M2r293s8pRuXlZ+brW4b3qYMdg296+utt4OyZ7O1t26PWo86ssrdOCDlv/UJu1bRvajlWZ5uumbcp91C41Tj/+uKD39rta3fwfec9eyymf3+bV+tbtR/XOL2p17NLvB9Wr70d2+TmdP2bmy+X2Nj3fRzZ+nV7tc6Pft/Z7xAz1XsZ27NOwnRuW6thnmLfPfD5bn99nGrbtsXXZtg59xm1aftyyMlb51eonL/34dqdhe1+qmy2bt2stIxO9Lutn5YIO9YbQMyv07SbXP/Thzu0pf/bkzRhyvOahtwR9u0n+MxR0qAvrT//CI+Elr3hV/BYVW/ajT/xJ7KVhDw+1QOS7XvP6eLuKzffU08+Eb3nVD6Rnaqg89eRQyNF3K42WVfjx0P/7c7FOf/ixP7Xi4vM61DOlry5pxhUdyA8Wpc0sHUD8fPbhsA+RPhClD5FfZl2G7aBgB2lZ+B/9srOTWD9ew1pGBww7ONj7dbbRvraTQtXRnyj5+quu9stMZvkFjwzsORn2S8Vevacv37dVa3N2MNd8tpxeVZZNs+3yZdk42zbbRzZ+lV990KGQwm5hUQ8P/3wNvf+md9wJmt9+SkGGv31Fy+TP7LBlV/1V+zA/9tjJkW9rmi//PKsdzDqx9W161S389uWflVJdhz4b9rk0W2/pp9nnz9ZdWo9N02tpnX76Kg/bsTw/buh9ftGkcWaTtzu1T39SafvK5tey+TpW2SXfNtUj97B57Njrj9NWf43Tsta+9N7Pr/el36OysmX6XvPtsXVq/nxa33qsDqv+qrr539e+LWrbZWztK6+r2qq+eU7tU/PlZfnPt5a1clbdxG+ftlv7Xa/5j8b5z6ZN7/vsa7pM1C716n/MTmWqjfW1TT9+nTz9Z0htxX40nL9Xe7RzQ5tPdbXP3xP1NxfmhrLzn/mStcbJV/NqvaX959dp2+bL1rask73Vx15tX6hO+lFdrJ42LT/OaT7NLy/9fvfHDCt3lqfNN6/XhQUdsx5G+o4r7w6fe+7zsZ4KAxR06OGj+paSN73tcnjr238xfOcPvj7eHqJpPjDwOENBh+bTV8NqefWi0LefPPLufxX+xt9/ZQwwFGTYj31zypnv/5Ggr7nVvPr2Fb9uhS5/81u/I45788/8fNxGbaf9K9VJ69I67VtXfHm27nV5tQODP8CWhksHDPvQaH77IFm99aGxA1d+wLJ5Vv3VbFQX++VWsumre8lMddb8JbNV99D2aZ/7g6DVpeRiv5R0oLUDqxzzX3K+3prXDtBmZb90tD/sJMLans2r7cj3gy83Lyuftk7vfbhhvTH06kMOq4/G+7CjFHTYvD5AsXGb8Kr2o/bp20r++bPPeqkd+3HWptfJRfUe2u78s2R1u5fPrcoYY2qfbVvnOr2am28fpfponB2bdPzzPYlU3/wYavNqmpYtlbkOTtpuO+73ba/9XrU6ewsNm521JfsMm1verm3+ofWZv99/fcazPjt961mV8b6Ovp32DXtP1V3z2b7Jy9J0uemfDa9Kvcdsh+rVd45my+cGqutQmy59vlWWyvG2Vr5e5erPqfy0dRm2tqF6zvrx54Dm65ezz3qpjXpDzaf3erUf2w4t27dv7Rhj7VrL2v5RWfpn8/j12TpW/dUMzFRtVvVRvdR2VSe1N+9jn2PVzdqjltf8fccALbPIn4UFHbO+XlYhgr6ayn7uPvPJ8NPv2IpBhx4+quX1ELGLb//FoGl9P7OCDi3355+4FR8Yqmdq/JVv/HvhdW/6qda3oWge9db4gw9/NLzie18bvxpW8/3w+bfGZW3du9d+N30bTKl+eZ2evHUnlqGytO5XvfbBGLxYeev2qsafHyzyOmge/9dONfChA4lf3k5k7EPnp63qsLbVDrL2Ye77BaYDiB0wbbkxB0c7GNmyq2rht0vbKhf/i17jzMjP63+ZjRmveczEtxVfvm+rNq+6SuqAre3yy9k67eBu+7M0j827rq/qgaEHjfZ9VayFIaqfBR3quVF6cKn1DrFXH5Ksm48dp0qfMWs/1nbzY1yprn1tujTvqoyzeqrd27HYPgtDr+Zi9Riqu1+Hza/XWab+s+2XY3j9BdR+xvwetHai3yl5m9M0jbNvVCgdu/M2pPmH2rWm+d9fubTKm7X82HrlZS/jvT6bYy+i5evrJgv9s8+3XPx01cdPK+2fZdR5zDpPqn1qXaq3bzN5OzajPp+j7KMxdVvGPLPqmJ+H5UZ+mzWv2ple/Y9vn/Y51Xz+G1T8xbttk+0bzavnR1kbzqerzPxH2zm0rfn8y35vLv4Yp+2XgbfRdto+yetn5wm+jGXXS+s/kaBjFSrCNiCAwGYL5BdMdrD1v4z0C4gfBBBYHQE+t6uzL9gSBBBAAAEEpiRA0DGlvU1dEUAAAQQQQAABBBBAAAEEENhwAYKODd/BVA8BBBBAAAEEEEAAAQQQQACBKQkQdExpb1NXBBBAAAEEEEAAAQQQQAABBDZcgKBjw3cw1UMAAQQQQAABBBBAAAEEEEBgSgIEHVPa29QVAQQQQAABBBBAAAEEEEAAgQ0XIOjY8B1M9RBAAAEEEEAAAQQQQAABBBCYkgBBx5T2NnVFAAEEEEAAAQQQQAABBBBAYMMFCDo2fAdTPQQQQAABBBBAAAEEEEAAAQSmJEDQMaW9TV0RQAABBBBAAAEEEEAAAQQQ2HABgo4N38FUDwEEEEAAAQQQQAABBBBAAIEpCRB0TGlvU1cEEEAAAQQQQAABBBBAAAEENlyAoGPDdzDVQwABBBBAAAEEEEAAAQQQQGBKAgQdU9rb1BUBBBBAAAEEEEAAAQQQQACBDRcg6NjwHUz1EEAAAQQQQAABBBBAAAEEEJiSAEHHlPY2dUUAAQQQQAABBBBAAAEEEEBgwwUIOjZ8B1M9BBBAAAEEEEAAAQQQQAABBKYkQNAxpb1NXRFAYCMFvvHSnXDqDR9f63+qAz8IIIAAAggggAACCJyEAEHHSShSBgIIILBEAYKOJeKzagQQQAABBBBAAIGVE7jv1u07oe/fzVu3Q/p381b4xM2b4clP3AxPP/00/zCgDdAGaAO0AdoAbYA2QBugDdAGaAO0AdoAbWDl2sB9z3zyU6Hv39PPfDLYv7tPPxOeuvt0uPPU3fDss8/yDwPaAG2ANkAboA3QBmgDtAHaAG2ANkAboA3QBlauDdz32c89F/r+PfvZzwX795lnPxs+/Zlnw6c+/Znw/PPP8w8D2gBtgDZAG6AN0AZoA7QB2gBtgDZAG6AN0AZWrg3c9/kvPB/6/j33+S8E+/e55z4fAxEFH1/60pf4hwFtgDZAG6AN0AZoA7QB2gBtgDZAG6AN0AZoAyvXBu57/osvhL5/X3j+i8H+KQxR6KHA48tf/jL/MKAN0AZoA7QB2gBtgDZAG6AN0AZoA7QB2gBtYOXawH1ffOFLoe+fD0AUeFjY8ZWvfCXwDwPaAG2ANkAboA3QBmgDtAHaAG2ANkAboA3QBlatDdz3wpf+IvT98wGIQg8LO1buu2PYIAQQQAABBBBAAAEEEEAAAQQQQCCEQNBBM0AAAQQQQAABBBBAAAEEEEAAgY0RIOjYmF1JRRBAAAEEEEAAAQQQQAABBBBAgKCDNoAAAggggAACCCCAAAIIIIAAAhsjQNCxMbuSiiCAAAIIIIAAAggggAACCCCAAEEHbQABBBBAAAEEEEAAAQQQQAABBDZGgKBjY3YlFUEAAQQQQAABBBBAAAEEEEAAAYIO2gACCCCAAAIIIIAAAggggAACCGyMAEHHxuxKKoIAAggggAACCCCAAAIIIIAAAgQdtAEEEEAAAQQQQAABBBBAAAEEENgYAYKOjdmVVAQBBBBAAAEEEEAAAQQQQAABBAg6aAMIIIAAAggggAACCCCAAAIIILAxAgQdG7MrqQgCCCCAAAIIIIAAAggggAACCBB00AYQQAABBBBAAAEEEEAAAQQQQGBjBAg6NmZXUhEEEEAAAQQQQAABBBBAAAEEECDooA0ggAACCCCAAAIIIIAAAggggMDGCBB0bMyupCIIIIAAAggggAACCCCAAAIIIEDQQRtAAAEEEEAAAQQQQAABBBBAAIGNESDo2JhdSUUQQAABBBBAAAEEEEAAAQQQQICgw9rA3f1w+cp+uGPv69fD3a1w8VL1b/tGCP69jb98sB+263ls3MVLO+Ha3RCCyr20Fw5TuYdhu/U+TXADh2G7tS23w7UrdXlurhMdfOx8uP/C9brIu2HrzNmwdXPkGm5eDadPnQ8Hs2Z/7Hw4vSOU6ufgwoh1aLvOXA23QggHFx4I5x6zpf3r9XCunsePvbVztmd+m58MO6wAACAASURBVOt6OHfqgXD/KW2H6nw+HMS69K3HLVdYn0092qttg7bD/smy3h4rzO+fehub+W05/5rZZvYhlM1sdbwigAACCCCAAAIIIIAAAusqQNBR77k7Bzvh8sHtTpChcKP940KIG3vh4q4iDDcuzpwFEy7sKAUlFo4068rK03o6QYoPT9pbWH6XXVC3LtSzi+oQgkKC0zvXw9YZd/Ecg5CsnHRx7uZL44YvtgeDDl3YqxytUxf2Luyw4KNVTx8E1BPKQYfqatvqw5m2gUIVH8q01jWHkKAJceRr21UPq/4phGpvSXxXqHtnLoKODgkjEEAAAQQQQAABBBBAYDMFCDriflUw0Q0OFH404YM1ABdCjA06tOiNvXB5V/9c347drar81JtE29H0IFG40fQWabZP21UFLLZNI15vXg3nUm+K+mLfLp79NAsY6rCi3IOiCkJi4NAKIRRsVEFIMSTILraLQYf1Vqi3TQGABRspfLB5TrV7XuTllYMOs2oHGyHvQWGz6TUz6etJkayOMn/fvGfOhtMpMLJgJguObBszVxtdvebB1PmwtXPW9R6pyi7ur3ZBvEMAAQQQQAABBBBAAAEE1kKAoEO7SYFF61aRat/1Bh2+d8WIHh2xF8eV/XB493bdKHT7yla4eGUnXL5Uhx2+uaTgI4RmG+pltJwLS/xiRxlWCFDdqnI3bF2obg1pxqkkBQF2Ya2L5Xq4DhnShXEn6Ki2IpaVBREKDNJy8VYUK7+85VZGJ1ho9UYpL6uxWj6FDzZbX7DQCRWqAKCzfCzn5G/7aEKauheHbe+Y3iOZa1rUD+TzuP2W7xe/GMMIIIAAAggggAACCCCAwLoJEHSEuhfFUYIOm3dEjw6FHLolJv6kW1Ca3hkan25nqQOM2GOjDlPisvHWF/X02Avb8Zkh7eWP3uiqHh3xIt71jrg/3TJRl5hCAbuVoh7fWsZ6G7RffaCRti+72G4u7tMcRx9I29ju3aGCOkFJKyDJe3ToGSDDwUuzcScZdOQ9LuTYPCukHfJoP5Tmb9s3y7j9Zk5nzodzZx4Ipy+cb26HyfZLU0+GEEAAAQQQQAABBBBAAIH1E5h80KFQId4eovAiBQrt20fS8zFiwNFz64rv5RGH/cNDXW+MznxVgOFuaAnbu3vpYaRVCJIHG3V5x+jZEW8FsWdfuPZaXeRXAUi6UNbtI3aBPONWFldU/XyP5qGjaVp2Qd0XLKRttF4WZ66GLd3CYu/jazuU0DJ574tij460Md26+vljSGK39qRlbOAkgw6VOVTe0DQt2w1sbCur1yYY8eFTFQLVQUi9XzTOz9Muh3cIIIAAAggggAACCCCAwHoITD7oONxViODCC7ffmttG3EjN68OKEbeudB9W6strPx+kWqffnmx9tm7rVeKLOsJw60JeF7pnquc25GFBucjm4rkdPjRhROmCWev05fcFHfHCP/UusQt9rbPpoZAvOzroaPVGacqL9awv+GPQYr0/WvM39eurt69f2a4wNguTqm+Bsfms/vY+e9WyCmS0nbbN2SzxrQuZ4r7XvLFude+RC9fLt/qUymIcAggggAACCCCAAAIIILDCApMPOqp944OFZm/1Bh0WMqRbV5plykPt8qteJPa8jnbQcXigr7j18yvoKPTosG0or3D2WF0gxwtj9QhQAFH3wOhcdPuL+zoYmHVRXVx7tR7/lbW9YcXNu+GWXcD73g5uvb3LunXnwYqbVO4JES/86296ac/s3ilwafcmcROPMahnpOjBoxa61PvjQveBoQpX2kGKM3U27Y3QPNU+1LKtECfNaPPYNqQJDCCAAAIIIIAAAggggAACaydA0BF3mQ8Wmn04HHQ0PS2qZ3BYGQou/G0rKs+mVWXrdpTm21zaQUc9R7p1JS57AkFHftEfL3izWzPiX/rjOF341he9ridAkhkMQywYaV80N2WnUrJnYlQX2+lCPoUOeqZE9bDU6jYNlX8+nMuep2E9OuxVa8nr3KxZQ66Ored5NCFGd/k85Mjft9cw6l38xpurrreKtqvZhv7bWiqv1HOmEHTkYdCo7WEmBBBAAAEEEEAAAQQQQGDNBQg64g5sBxG2T0tBR3pwqMKH1KMjDzdKvTB0bb0fv2Xl4hU9g8OeA5L31tDa/fY0gUp6VohuXzlqjw4LDuw5Fyk8aL4+1S6aW6GECzrGXzhnt1vEYKQdfKiWPpSoblfRBX51Ad88GLUq6yB+JWoTAOTbEoMb1c2FN92gwvasXuugo3axusdnkrieLk0PlPatM/mzS9LyubN5F1+tPirbAiK92nhtZ2YZq1DNn9apcZ2go66fpsk/1cl6hVTOVbB0AoFN3C7+QwABBBBAAAEEEEAAAQSWL0DQEfeBBQs9oYI9FyN/+GcMOvYLPTjqUENhRPqmlfyho7bzm3U2vTxsezRPKTTx062cY77qAjmFA9XFb+cCOl2Ed8OKaq35hbpdTNcX4Om2jGwb854haTtsufriP42vtq96PobfFo2vwoEY0qTt9eFBNaxbdOxWjuriP9sm37sjhUHd+vlARSVovS23brEDY1S+1aepS7VAFnTEIMUHIVasq5fVP26/LzsLRFrhSL5eK5dXBBBAAAEEEEAAAQQQQGC9BAg61mt/sbUIIIAAAggggAACCCCAAAIIIDAgQNAxgMMkBBBAAAEEEEAAAQQQQAABBBBYLwGCjvXaX2wtAggggAACCCCAAAIIIIAAAggMCBB0DOAwCQEEEEAAAQQQQAABBBBAAAEE1kuAoGO99hdbiwACCCCAAAIIIIAAAggggAACAwIEHQM4TEIAAQQQQAABBBBAAAEEEEAAgfUSIOhYr/3F1iKAAAIIIIAAAggggAACCCCAwIAAQccADpMQQAABBBBAAAEEEEAAAQQQQGC9BAg61mt/jdra555/IfAPA9oAbYA2QBugDdAGaAO0AdoAbYA2QBuYYhsg6BgVHTATAggggAACCCCAAAIIIIAAAgisgwBBxzrsJbYRAQQQQAABBBBAAAEEEEAAAQRGCRB0jGJiJgQQQAABBBBAAAEEEEAAAQQQWAcBgo512EtsIwIIIIAAAggggAACCCCAAAIIjBIg6BjFxEwIIIAAAggggAACCCCAAAIIILAOAgQd67CX2EYEEEAAAQQQQAABBBBAAAEEEBglQNAxiomZEEAAAQQQQAABBBBAAAEEEEBgHQQIOtZhL7GNCCCAAAIIIIAAAggggAACCCAwSoCgYxQTMyGAAAIIIIAAAggggAACCCCAwDoIEHSsw15iGxFAAAEEEEAAAQQQQAABBBBAYJQAQccoJmZCAAEEEEAAAQQQQAABBBBAAIF1ECDoWIe9xDYigAACCCCAAAIIIIAAAggggMAoAYKOUUzMhAACCCCAAAIIIIAAAggggAAC6yBA0LEOe4ltRAABBBBAAAEEEEAAAQQQQACBUQIEHaOYmAkBBBBAAAEEEEAAAQQQQAABBNZBgKBjHfYS24gAAggggAACCCCAAAIIIIAAAqMECDpGMTETAggggAACCCCAAAIIIIAAAgisgwBBxzrsJbYRAQQQQAABBBBAAAEEEEAAAQRGCRB0jGJiJgQQQAABBBBAAAEEEEAAAQQQWAcBgo512EtsIwIIIIAAAggggAACCCCAAAIIjBIg6BjFxEwIIIAAAggggAACCCCAAAIIILAOAgQd67CX2EYEEEAAAQQQQAABBBBAAAEEEBglQNAxiomZEEAAAQQQQAABBBBAAAEEEEBgHQQIOtZhL7GNCCCAAAIIIIAAAggggAACCCAwSoCgYxQTMyGAAAIIIIAAAggggAACCCCAwDoIEHSsw15iGxFAAAEEEEAAAQQQQAABBBBAYJQAQccoJmZCAAEEEEAAAQQQQAABBBBAAIF1ECDoWIe9xDYigAACCCCAAAIIIIAAAggggMAoAYKOUUzMhAACCCCAAAIIIIAAAggggAAC6yBA0LEOe4ltRAABBBBAAAEEEEAAAQQQQACBUQIEHaOYmAkBBBBAAAEEEEAAAQQQQAABBNZBgKBjHfYS24gAAggggAACCCCAAAIIIIAAAqMECDpGMTETAggggAACCCCAAAIIIIAAAgisgwBBxzrsJbYRAQQQQAABBBBAAAEEEEAAAQRGCRB0hMOwfWkrXJz5by8cetIbe+Hywe045s7BThr2s6Thu/vh8pX9cCeNqAa03PaNbOSMt1rGtvWoy+ZFH1x4INx/6nw4yCeEEKppmt78O71zNZxz76tpZ8PWzUIBjEIAAQQQQAABBBBAYN4COs/erc7SD3f7z+m3b9wO165k0/35uSuntck39sLFSzvh2t1q7OFuMxzidUT+PlvHpa3sfF/bkV1XtFZYfnNr52w4vVNvhJtF48895kb0DGq++08NnLffvBpOX7gely5dB9g1wbnH7oatM831QRx/5mq4Zet15dgoXhFYhgBBR0F9ZnARQmgOcjpY+QNcocAs6NBBWCFFX9AxdJC2cKWwliONigc7HZQeOx/u9wenVMr1cM7Ga5544HPj4nw60A0cMFNZDCCAAAIIIIAAAgggMAeBQkDRnKdX67Nz7+DmtXnK593tc/v4h8Y6FLHlqpBjK1w+OAx3Uv5wGLZ9eBLc+b4CkxjIHC/oCEHn3d0/UI4JOtJ5f7gezvWFHYWA4uBC+zxfAUgMVdy8Nk85HGkvP4e9T5EI9AoQdBRoZgYdPriIKW83uY29LuxAp/nVYyQe3NSDpEpxh4KOvLfGzG0q1KM8qk5h68Q2zqMgo9Ozw4UaBB1lSsYigAACCCCAAAIILE0gDymq8+fmXNs2bDjoqHtXFEIQW96/NkGHH2vD8wk62iFCO+yYFXTEZf15v0KKLOxol1+HGTEUaa9L8/UHHfW8hRDEdHhFYJECBB0F7VmhgqY3oUXdHc3dytIqUuN39+KtK4cHe2F7t7n1xG5BsVfrrREPxrvqJtcToNTjbf7W+obexEDDDl7ZjPGg94DrEqfE13VLo0dHBsZbBBBAAAEEEEAAgaULuIAihOr2lPY5sut9bX98jOfSVa+NPCypzr+HppXPz6t1lm+JjwHMPffoCCHofP3M1XAQb0Nx5+nunD3dxtI5t/d7qv7Dp/Xe1iQXUFS9R/x1gWZwPbnrsv1t7HlY4qf5NTOMwKIECDoK0sNBR30A2z2Mt56kA2lP0KGytg/qZ3TEg2tzT16cVnhGR0qd3bYNb5ObsWewSnOvdu+pcwdG9erY0oEzHvTo0dFDyWgEEEAAAQQQQACBVRFIQUcVcliv6FaAUT/Do3zrypgeHdX5v877U7lWZsuh6tFx6J7Dl8737znoqMKJFGTU6y316GjfqlIOROJt6fGPoPXtJSnoaK+nFWBYz5A0r57rVy1/cIEeHa2mwJulCxB0FHbBUKgQD1YKLvKDW+EWluqhRzvh2o2jPYzUusRpXb29OvL1F+oxa5QOgqWHGlXL9QQdrWBEB07uvZvlzHQEEEAAAQQQQACBOQmkXhrNHxN715TmVa+MoV4bmlYFJ9W5eFN2K7jwva/duXmax2/IPQYdVXhxNvboSA/+DCGUgg6/2tHDqZdG+3aV4vJp3uZaoBWIpOsFrhOKfoxciABBR4FZB6fUUyObfniwH+6k5NhN7OnREefQ/OkBRuXubjqINgl0deAtHiRVYDpQuvUfY3Bm0JEOUg/wMNJj+LIIAggggAACCCCAwPwE0reoWMhQ+MNjK6hw5/D6w+LQLeUX7Vl72ebbHySz0fGtzt1Lf6SM1xXp/F0BShOclMrpjKtvP4+9rtOz86q5ikFHK4jo6dFh5/lnfj68zb5FxXps2PpsnvRa7rVx7oK+0aVnPf72mE7FGIHA/AQIOgq2Q0FHnN0dJNPiI4OONL9/CrMfGe8tLAQdvvx0oGwtOPtN70GrOTA1PTxKPTpmr4I5EEAAAQQQQAABBBBYmIA/Ly+eI7tgwc3bBBbdB4hW2+57dPT/odKCDf9HUn8berquSNvmtmckUrwtROFFITQoBh1ZucN/3KxnVvk+6LDhVJZuaSkHHVs3NZO7dkjLMIDA8gQIOgr26YBUmBZHuYNkmkUHL9997ZK+bup2NVnzF1Jhrcd6caRy4vdxVymvn+6HF9ajw57VUSe0VQhiBzH3QKJm4xlCAAEEEEAAAQQQQGBxAv68PIUJfvUWLJSCi71wqOWzc/jqSwd8GfWwyr+yEy7X36BYmCNUXzvb9NhI5/Bp22x7ykv3jj1u0JH1ANEtJvlzPuI6Rwcd1TM82j04zocDLZ/36uiEJb21YwICJy5A0FEg1QEphRSF6f5BRmmy73GRRtYDRwk60kGwKUTbo/sIL1+p02TrntfMcqyhoXS3uc/ufDhIB8g83NA3s4y4j+9YW8dCCCCAAAIIIIAAAgjMEMiDjjy0iO+b4MFKa3p02Jj6tXAuHv/IqHLSHy7t21XycqswxV9H+N4d1RoWGHQUw5E6qMhDiDzoyEOL+L573m8PI80UQ0jXD50pjEBgIQKTDzrSk5OLB8Wsm5oFDP6AartpTNChA+fQeq7sh4Pd/OFHrmeIW1csx7bHxg+9jrhtxZLZ5vaVusB4oNI3thQeKFQ8gA5tCNMQQAABBBBAAAEEELh3ATuPT8FCKaSIt4XngUQIraAj69VR9bh2PUBSwJFvswUeVQhysFuft/vybFl/HWDj8uKG3qdz7lKPiuY29PhtKrEc/UHSjU/D9i0pzdfH2h840zVAMaTQemcEHdrGtJ6eniNDdWQaAicoMPmg4wQtKQoBBBBAAAEEEEAAAQQQQAABBJYsQNCx5B3A6hFAAAEEEEAAAQQQQAABBBBA4OQECDpOzpKSEEAAAQQQQAABBBBAAAEEEEBgyQIEHUveAaweAQQQQAABBBBAAAEEEEAAAQROToCg4+QsKQkBBBBAAAEEEEAAAQQQQAABBJYsQNCx5B3A6hFAAAEEEEAAAQQQQAABBBBA4OQECDpOzpKSEEAAAQQQQAABBBBAAAEEEEBgyQIEHUveAaweAQQQQAABBBBAAAEEEEAAAQROToCg4+QsV6ak555/IfAPA9oAbYA2QBugDdAGaAOb1wZW5oSTDZmLAJ/ZzfvMsk+Xs08JOuZyiKJQBBBAAAEEEEAAAQQQQAABBBBYhgBBxzLUWScCCCCAAAIIIIAAAggggAACCMxFgKBjLqwUigACCCCAAAIIIIAAAggggAACyxAg6FiGOutEAAEEEEAAAQQQQAABBBBAAIG5CBB0zIWVQhFAAAEEEEAAAQQQQAABBBBAYBkCBB3LUGedCCCAAAIIIIAAAggggAACCCAwFwGCjrmwUigCCCCAAAIIIIAAAggggAACCCxDgKBjGeqsEwEEEEAAAQQQQAABBBBAAAEE5iJA0DEXVgpFAAEEEEAAAQQQQAABBBBAAIFlCBB0LEOddSKAAAIIIIAAAggggAACCCCAwFwECDrmwkqhCCCAAAIIIIAAAggggAACCCCwDAGCjmWos04EEEAAAQQQQAABBBBAAAEEEJiLAEHHXFgpFAEEEEAAAQQQQAABBBBAAAEEliFA0LEMddaJAAIIIIAAAggggAACCCCAAAJzESDomAsrhSKAAAIIIIAAAggggAACCCCAwDIECDqWoc46EUAAAQQQQAABBBBAAAEEEEBgLgIEHXNhpVAEEEAAAQQQQAABBBBAAAEEEFiGAEHHMtRZJwIIIIAAAggggAACCCCAAAIIzEWAoGMurBSKAAIIIIAAAggggAACCCCAAALLECDoWIY660QAAQQQQAABBBBAAAEEEEAAgbkIEHTMhZVCEUAAAQQQQAABBBBAAAEEEEBgGQIEHctQZ50IIIAAAggggAACCCCAAAIIIDAXAYKOubBSKAIIIIAAAggggAACCCCAAAIILEOAoGMZ6qwTAQQQQAABBBBAAAEEEEAAAQTmIkDQEQ7D9qWtcHHmv71w6HfBjb1w+eB2HHPnYCcN+1nS8I29cHG3tXRabvtGmqt3QOWPma+3gJ4JBxceCPefOh8OStNvXg2nT2n6rH9nw9bNUgGMQwABBBBAAAEEEEBgjgLufDyu5e5+uHxlP9xxqzzc3crOo2+Ha1d2wrW7IQSdo/dcA6Rz7yOfxx+G7Wwb+rbNbSaDCCBwwgIEHQXQmcFFCOFwtz5ABnewLJQVR/kDpBseG2BovuJBuBCe9G1CPv7Wztlw/5mr4dZj56vXfAYFHZqej2+9vxu2zhB0tEh4gwACCCCAAAIIILAwgU6QkZ1r2x8m0wbd2GuCDxeU+PPyVpmuvBiM1Offfv5Udhwg6Gh78A6B5QgQdBTcdeDqHBT9fD4t1sGvJwm+aGnu0AFy15a34MSvqBruP5B25509RuHEA+H+C9ebWRV25D076qDjQIFIT6+O0zvXCToaRYYQQAABBBBAAAEEFi5QBwtD5+SXtupz+8OwXQcVMczYbffQtl4co4OO4nm8DzrcH0T99cPCjVghAtMTIOgo7PNZQYemV7eiVLe9xIOiS4SbInVw87fF7IXDzkG4uiWm6SEy3I0uhSrH6c0RA40HwrnHmi1MQ/WtKqd31I8vhFDo0aFeIGl6nIkeHRUW/yOAAAIIIIAAAgiskkDr3LreMAUYrXNpd/7u/7BYBR1HP49vlR/DlcPmNhmCjlVqHmzLBAQIOgo7eTjoqJ/psXsYWvO5A2WnSOvRoQOcen90ury5tFcL2/ydguoRKueIQUd8HseFq1Vvjp4eGurVsWW3tFjQUYcjpV4d5x4j6OjbRYxHAAEEEEAAAQQQmK+A/UGx6omdBxMu1Ljkek77wKHzB8hmGevdkc7Lx57H6/l/1qvb3+Juy9c9wQd7j8+XjdIRmIQAQUdhN7cCjGx6THsPCkFD4UDZOUCqLBdixLLiw0h1YHYPO3XzZKuv3h4j6CiV0+2h4eayoMONqua/Gs6l21wIOhwPgwgggAACCCCAAAKLFuj5Y2OpR0eIX0LQPue2wKE5L9ez+NwDTP15uRtu5s/O44eCjhSALBqJ9SEwPQGCjsI+14HLDnr55MOD/XCnFDT0HGTj8u6g2Ak67N4+f+DT/H3P/bDxR+zRkddD748XdOjWluvhXHxQKUFHyZVxCCCAAAIIIIAAAgsS6DkHLwUdOsdvzrF3wrWDE3pGhz+PJ+hY0I5nNQgMCxB0FHyGgo44+0kGHenrZXVLjEuYC9t1z6MGbkOxW1PSMzjqHh1b8Stoe75iNt4Kw7eu3PN+oQAEEEAAAQQQQACB4wnUQUc7xGhuQUnBRiuMqFflQhItb72xj9ajQ2X58/jq1pXD+Ey/fZ7Rcby9ylII3LMAQUeB8LhBRzqQ5vfepR4aVXLcfUZHCEHhSX0ATut343xPEA339TgpVKd31FF7dHQLokdH14QxCCCAAAIIIIAAAgsTqM+L8x4c+fu0PTq/jufqR+jR4eafdR6fHkgae1+75/D58/q0MQwggMC8BAg6CrIpaChMi6N0oMpvHSmGD/ZQpOwBSPmyKtRub2kdBN3BsZUU695BV2bfds4YPzPo6H1oqe/hQY+OGcxMRgABBBBAAAEEEJiXQP0HxfyPgKVz5RhC+J4d6Y+R3R4g2zeOfh6v8tvb4c7lW+f488KgXAQQMIHJBx0pdbVnXwy9WkAxOugwZv9qB838gFoFF/lB2Ycu2lbrUhd7gNj2+OL7hkfcttK6faXwMNJu0fTo6JowBgEEEEAAAQQQQGBRAjpXTufHbqX5ObWb1AwW/1CZPYy0mTuE+C0q+Tm83nf/AKntynt7t95f2W+VzBsEEDhZgckHHSfLSWkIIIAAAggggAACCCCAAAIIILBMAYKOZeqzbgQQQAABBBBAAAEEEEAAAQQQOFEBgo4T5aQwBBBAAAEEEEAAAQQQQAABBBBYpgBBxzL1WTcCCCCAAAIIIIAAAggggAACCJyoAEHHiXJSGAIIIIAAAggggAACCCBwPIHnnn8h8A8D2sC9twGCjuMdg1gKAQQQQAABBBBAAAEEEEAAAQRWUICgYwV3CpuEAAIIIIAAAggggAACCCCAAALHEyDoOJ4bSyGAAAIIIIAAAggggAACCCCAwAoKEHSs4E65103inq57v6cLQwxpA7QB2gBtgDZAG1jFNnCv54ksjwACCExBgKBjCnuZOiKAAAIIIIAAAggggAACCCAwEQGCjonsaKqJAAIIIIAAAggggAACCCCAwBQECDqmsJepIwIIIIAAAggggAACCCCAAAITESDomMiOppoIIIAAAggggAACCCCAAAIITEGAoGMKe5k6IoAAAggggAACCCCAAAIIIDARAYKOiexoqokAAggggAACCCCAAAIIIIDAFAQIOqawl6kjAggggAACCCCAAAIIIIAAAhMRIOiYyI6mmggggAACCCCAAAIIIIAAAghMQYCgYwp7mToigAACCCCAAAIIIIAAAgggMBEBgo6J7GiqiQACCCCAAAIIIIAAAggggMAUBAg6prCXqSMCCCCAAAIIIIAAAggggAACExEg6JjIjqaaCCCAAAIIIIAAAggggAACCExBgKBjCnuZOiKAAAIIIIAAAggggAACCCAwEQGCjonsaKqJAAIIIIAAAggggAACCCCAwBQECDqmsJepIwIIIIAAAggggAACCCCAAAITESDomMiOppoIIIAAAggggAACCCCAAAIITEGAoGMKe5k6IoAAAggggAACCCCAAAIIIDARAYKOiexoqokAAggggAACCCCAAAIIIIDAFAQIOqawl6kjAggggAACCCCAAAIIIIAAAhMRIOiYyI6mmggggAACCCCAAAIIIIAAAghMQYCgYwp7mToigAACCCCAAAIIIIAAAgggMBEBgo6J7GiqiQACCCCAAAIIIIAAAggggMAUBAg6prCXqSMCCCCAAAIIIIAAAggggAACExEg6JjIjqaaCCCAAAIIIIAAAggggAACocom7wAAIABJREFUCExBgKBDe/nGXri4e1jt77v74fKV/XAn7f3b4dqVrbB9I40Idw52wsVLW7P/qUyVPWbeS1vh8sHtZiV+6MZeNU3bdmkv1Fvq52AYAQQQQAABBBBAAIGJCRyG7VHn2dn5s51bhxDP63vPwaOmrgV2wrW7s2kPd/31gV9ntZ3+emJ2acyBAAL3IkDQYXrFsKN8YFPQcbwDlcqzg54OeDZsG9Hz6g7GMThpBTE9yzAaAQQQQAABBBBAAIGJCeg8fTi4COFw14KL8rl+i8xfI/T8AbO7vsOw7c7XFYBcPjjs/PG0tR7eIIDAiQoQdPQcsEq9MCzc6AQd/gDY2T06gPp0t2e4PhiO7i2i9Np6oXTWyQgEEEAAAQQQQAABBKYnMDPo8L23h64D4rm5/yNlwbLT29oCDnutrgOaICR/XyiTUQggcCICBB2+t8QAqQ83/HBcZLAMf4D0w75Hhx0MezZgsPyeZRiNAAIIIIAAAggggMDEBGYFHZpe/bHQ3U7Sc67dnPNXAYX90TOSxpAk652t4EN/iIyv+709OOI2XNmf2J6huggsVoCgo/aOB5yee/xaB7X6Xr7tG9XBsdTzI45L3dWqA2PvfLbONH91r2Crt0Z+IPVJ9GLbC2tDAAEEEEAAAQQQQGBlBXRO3/SgyDezPn/fPWw/m6MYdLTP4VOZsReHelZXQYbO8dO1QivoqJ+qV+g1ksrKN4/3CCBwYgIEHX2U6SDWffRnk+7WC+cHx94gQgdXuyewb8VNmSnsqA+Q8aAYh0eWMWMVTEYAAQQQQAABBBBAYJMEhoKOeA5/UPe68JUuhBEpvNA066WhP1C6P05aEfEhpIUvISDQMCFeEVi8AEFHyVwHtMJBzGbNg478fdVdTQFJOwk+Sq8OW5d9a8vlg/3qqdID25WWYQABBBBAAAEEEEAAgQkKDAUdhwf74Y71uvA2+R8tbdqMawKbrfRaXR/oWkC3t9ir5pxxy3qpMMYhgMCRBSYfdLS/BqrnQaF2e0n98M/mSc3y1oEr62HRcwBNPTRsN8VeI9m9fTZNB0Gtt06HYyIc53fd49K8DCCAAAIIIIAAAggggMBQ0BF1es7Tu70vsj9Y6o+NhZ4f7VvW9Y0uup7YCdu71bc02h9ENV69RGZuH7sQAQRORGDyQUdR0bqoFScqgGjCCR2sOgFGZ/nb4drBnvue771wGA+UWUBSry+W6dahXh3p4FuHHel9cRsZiQACCCCAAAIIIIDA9ARmBgk9QUfe83rWuXb7D59yroIRu+XFgo3YO9tua4nP9WiuI6a3d6gxAosTIOgoWXeCCjeTm1Yltt2D1dABtgoxfM+R9vIqs3Ng9UFHvSlx3XUPE7d1DCKAAAIIIIAAAgggMFmBofPwiNITdHTOv02w/iOjemlcu2sj1XOj/b6ZUg2loMNPKJzT+8kMI4DAyQkQdDhLH0L0HezsoNYJGmIPDQsw3IGvNb4QYtgtKoVnb/jtsXTYbS6DCCCAAAIIIIAAAghMViCej9st5rNe7Q+Eo4OO+tYVO0dPgYed77dfq2sHd7vLlf1wqJ7ffdtl2zPZvUfFEZivAEHHfH0pHQEEEEAAAQQQQAABBBBAAAEEFihA0LFAbFaFAAIIIIAAAggggAACCCCAAALzFSDomK8vpSOAAAIIIIAAAggggAACCCCAwAIFCDoWiM2qEEAAAQQQQAABBBBAAAEEEEBgvgIEHfP1XUrpzz3/QuAfBrQB2gBtgDZAG6AN0AY2rw0s5eSSlS5MgM/s5n1m2afL2acEHQs7bLEiBBBAAAEEEEAAAQQQQAABBBCYtwBBx7yFKR8BBBBAAAEEEEAAAQQQQAABBBYmQNCxMGpWhAACCCCAAAIIIIAAAggggAAC8xYg6Ji3MOUjgAACCCCAAAIIIIAAAggggMDCBAg6FkbNihBAAAEEEEAAAQQQQAABBBBAYN4CBB3zFqZ8BBBAAAEEEEAAAQQQQAABBBBYmABBx8KoWRECCCCAAAIIIIAAAggggAACCMxbgKBj3sKUjwACCCCAAAIIIIAAAggggAACCxMg6FgYNStCAAEEEEAAAQQQQAABBBBAAIF5CxB0zFuY8hFAAAEEEEAAAQQQQAABBBBAYGECBB0Lo2ZFCCCAAAIIIIAAAggggAACCCAwbwGCjnkLUz4CCCCAAAIIIIAAAggggAACCCxMgKBjYdSsCAEEEEAAAQQQQAABBBBAAAEE5i1A0DFvYcpHAAEEEEAAAQQQQAABBBBAAIGFCRB0LIyaFSGAAAIIIIAAAggggAACCCCAwLwFCDrmLUz5CCCAAAIIIIAAAggggAACCCCwMAGCjoVRsyIEEEAAAQQQQAABBBBAAAEEEJi3AEHHvIUpHwEEEEAAAQQQQAABBBBAAAEEFiZA0LEwalaEAAIIIIAAAggggAACCCCAAALzFiDomLcw5SOAAAIIIIAAAggggAACCCCAwMIECDoWRs2KEEAAAQQQQAABBBBAAAEEEEBg3gIEHfMWpnwEEEAAAQQQQAABBBBAAAEEEFiYAEHHwqhZEQIIIIAAAggggAACCCCAAAIIzFuAoGPewpSPAAIIIIAAAggggAACCCCAAAILEyDoWBg1K0IAAQQQQAABBBBAAAEEEEAAgXkLEHTMW5jyEUAAAQQQQAABBBBAAAEEEEBgYQIEHQujZkUIIIAAAggggAACCCCAAAIIIDBvAYKOlvBh2L60Fw7rcXcOdsL2jdYMIdzdD5fdPCG0l8nmbr3Ny9P7ywe3W/NU5W+Fi5dm/dsJ1+62F12Vd7d2zoZzj1Vbo+HTO+0N9dPDY+fD/aceGPnvfDhYlUqyHQgggAACCCCAAAKbLXBjz52T1+feuhbYtauFEPLz+whyY697jq+y3HLzhbsTfumVXxte/it35rsaSkdghQUmH3Qc7s4KFNz0K/shHi5c2DG0/PaN2+HaFbf8rPBCBz+VbeuJDUdl5KFGadzYVnY9nDt1NmzdbM9/cKEJGyykiHPcvBpOWxBx5mq45RfzIcWF62lKK8gId8PWmXZA0Z6eFksD2pbWNqQpDCCAAAIIIIAAAgggsCCBFE7o3Lv6Y6jO/f0fQktBx+Fuc+6ehlNZc9j2R98a/tLXfO2of298dA7rp0gEVlBg8kGH7ZOqd8X+7B4dtoCS2l39axLddODrhBXVQvmBsFpnoUfHlf1weLDjEuR2WFIFKM0B1DZp1msTZmRBhwKLFFQoCLFgQiFFM2+7d4afLwQfTnSCjMfOt3p1dKZnG+7LyibxFgEEEEAAAQQQQACBxQhYOGE9NOo/dl4rnafbHypb1wGHYdvGW1nz2PJH3zqq98YH3vy1gaBjHjuAMldRYPJBh8KG7m0ie+FQB6OsB4alt7EXh8KIuxZS6PaVrXDxyk64fKmd8sadrrLsIDerFbQOjpq51HujNG5WwTa926NDwUJze4nCjbpHRezNYaFHCPE2E+vVoXDEhkMICi8sLOkGGe1eHd3ptm3VK0FH24N3CCCAAAIIIIAAAksQiOHEft2bQ+ff+uNjc5u7tqj0h8x0i0rhesKuLzq3r59U9T6xE17+NW8NH4jlPRbe+DWEGydFSznrJTD5oEO7K/XEiMN1TwlLbrP9qXnTgSkdvNoHvBiEKPhwvT3SLSkxCW730NABz0KUWfNVB9eTDDpcsFHXNQUfWZgRXPDhg424mJt3dpDR9BLJeOPbuP4zZ1tBSmk+xiGAAAIIIIAAAgggMDeBGHQcVmHGgZ7NUYce7g+T7aCj/uNnvAbIztfrsua2raEKNf7SK3eC/SnW1qWeHLq1hd4cJsLrFAQmH3SkUCLvvbHb7dHR9MqoD2LZMpbQ+qS3FYyoRbkDozWw1gGyMz07SMaFSuOstFmveY+ORQcd7d4dpa21oCWGKYXniZSWYRwCCCCAAAIIIIAAAicqkMIJuwVF5+DtZ3X483gNp1vbdU7v/+iZyjrRLYyFVUGG9eLoK58HlPbJMH4zBSYfdKTdWjgYVT03mgNamlfftNJ7K0p3/njQs29X6QQZ6lHinrcRp++F7YGHmB73GR3V9i856FCvEHfLS2PaDLVuXakfhtrcWtPMxxACCCCAAAIIIIAAAnMTSOGEfcuiO8+vp/mg4/BgP9zJryls41JZNmL86+1f+fbmQaOFHhuxpHjLytADSb89/NInyuu0Hh/xgaZvrr86sTwrYxFYG4HJBx06ODU9MeyWkuoZHdXtJO6AlnZrO+hoBRnxmRrtW1nSYhqwoEOv1iPEhyY2PS2k9TdBSBWKtMelWUcN5EFH9SDRJkhwPTzcrSqxaHd7Sut5HQPP6Ii9MlKwUZV9f3rYaXmDW0FHnEXLDd/uUi6JsQgggAACCCCAAAIIHFNA4YSdr6fbUdrn+T7oiGuxoMMva2X41yv7x9yocYspHOFWlXFWzLWZApMPOrRbD3f3wmE8KO2lb11pelnMDjp0e0p6xkZP0JEOgp0go25YdlDsTK9DjQM70OrgerJBRwwtTvBbVxRU3G9fSZvKrQKV+MBSH5gUPlfdoKMwE6MQQAABBBBAAAEEEJinQKcXRve6IJ3j23bYOb29t9dOWTZhPq8EHfNxpdT1ESDosIeOpoOSfYPKfrgT92P3gJZ2r5ZRMnvF32rSTnk1rw6A6cGknSCjLs1vh097e4ebXh5pe2YMtAIIBRF5CFGHE+d8j7X61pEYXKSeGfWKFFh0Ao2q10bTQySE6iGm7fV1Hmbqtp2gw2EwiAACCCCAAAIIILAcgU440b0uIOhYzq5hrQjMEph80HF44zB+64q6pdm3qTS9OcSXHdBa3dC6oUbQ8zvqcCL28ugcIJvpqStcnL8OLvqCkNae1DYdPehoFbGgN9UDRd1X1Kb19t+OQtCRkBhAAAEEEEAAAQQQWJZA5zzergv06m5599uX/njqR4YQOmVl0+/l7aNvbZ7h8TVDz+ngm1fuhZll10tg8kHHeu0uthYBBBBAAAEEEEAAAQQQQAABBIYECDqGdJiGAAIIIIAAAggggAACCCCAAAJrJUDQsVa7i41FAAEEEEAAAQQQQAABBBBAAIEhAYKOIR2mIYAAAggggAACCCCAAAIIIIDAWgkQdKzV7mJjEUAAAQQQQAABBBBAAAEEEEBgSICgY0iHaQgggAACCCCAAAIIIIAAAgggsFYCBB1rtbvYWAQQQAABBBBAAAEEEEAAAQQQGBIg6BjSYRoCCCCAAAIIIIAAAggggAACCKyVAEHHWu2ucRv73PMvBP5hQBugDdAGaAO0AdoAbWDz2sC4s0Hm2iQBPseb9zlmn85/nxJ0bNJRkLoggAACCCCAAAIIIIAAAgggMHEBgo6JNwCqjwACCCCAAAIIIIAAAggggMAmCRB0bNLepC4IIIAAAggggAACCCCAAAIITFyAoGPiDYDqI4AAAggggAACCCCAAAIIILBJAgQdm7Q3qQsCCCCAAAIIIIAAAggggAACExcg6Jh4A6D6CCCAAAIIIIAAAggggAACCGySAEHHJu1N6oIAAggggAACCCCAAAIIIIDAxAUIOibeAKg+AggggAACCCCAAAIIIIAAApskQNCxSXuTuiCAAAIIIIAAAggggAACCCAwcQGCjok3AKqPAAIIIIAAAggggAACCCCAwCYJEHRs0t6kLggggAACCCCAAAIIIIAAAghMXICgY+INgOojgAACCCCAAAIIIIAAAgggsEkCBB2btDepCwIIIIAAAggggAACCCCAAAITFyDomHgDoPoIIIAAAggggAACCCCAAAIIbJIAQccm7U3qggACCCCAAAIIIIAAAggggMDEBQg6Jt4AqD4CCCCAAAIIIIAAAggggAACmyRA0LFJe5O6IIAAAggggAACCCCAAAIIIDBxAYKOiTcAqo8AAggggAACCCCAAAIIIIDAJgkQdGzS3qQuCCCAAAIIIIAAAggggAACCExcgKBj4g2A6iOAAAIIIIAAAggggAACCCCwSQIEHZu0N6kLAggggAACCCCAAAIIIIAAAhMXIOiYeAOg+ggggAACCCCAAAIIIIAAAghskgBBxybtTeqCAAIIIIAAAggggAACCCCAwMQFCDom3gCoPgIIIIAAAggggAACCCCAAAKbJEDQsUl7k7oggAACCCCAAAIIIIAAAgggMHEBgo6JNwCqjwACCCCAAAIIIIAAAggggMAmCRB0bNLepC4IIIAAAggggAACCCCAAAIITFyAoGPiDYDqI4AAAggggAACCCCAAAIIILBJAgQdm7Q3qQsCCCCAAAIIIIAAAggggAACExcg6Jh4A6D6CCCAAAIIIIAAAggggAACCGySwIoHHYdh+9JOuHbXk5fGVdPvHOyEi5e2Zv/bPXQF3g7XruwFG3O4m6+vmvVwt1RueV5XeAihXX57Wv6uVDctP2Y9eVm8R+A4ArfCr37oneHxetHHbzwcfvWZbjmP33gwvPjx/F953rj0k+8szJ8vX71/9RO36hVqWzSu2p5bTzwcbJqGX/z4wPq6m8wYBBBAAAEEEEAAAQQQmIjASgcd3eBiL1wrhRl1cKH5t28cdc+5IOLufrh8ZT/cKRbRDhyqdSmYyAOQPJRw5dfl5vWybc7HX7y0E7Z3C+FNK6gpbuzAyOvh3KkHwumdVnpUz983rRp//6kHwv2nzoatm6XiS8v65brrPLig8qp/5e0JIc5z5mqIl743r4bT9fy2XHy16fVmtZbJNnVommb12zRc36zgjXnrgo5n3hte/aH3Vvad+mm+JmhQ8PDwk4+Hh48SfgTN34QqrVUcIRh5+MnWkrxBAAEEEEAAAQQQQACBiQusbtCRQgcXFNzYCxfrICL2sMgu+DtBh+bP5kn7W+XHaU355V4bW3UZpaAjhPY63TwqvxOCbMUgplmmWXew+tqrNtQNVyFI0/Mk1WP0wN2wdUahwvlw7kIeOsyeloKIx87HMg6y9d7aORtDizRfDA18KFKFHuceqxaM86eAoj0tFW3BRpovTakHqu1ulXnqgXDuwvlwf7aMbV9pWiysXpff/molpQAn344NeK9Q44b6cTRBR7nXxoPhxWm+POgIoQo8zKMdhtjY5nU46LDeG8383aH2+rrTGYMAAggggAACCCCAAALTE1jZoKO6heQwXDu4HUIo9ZywnhTNxX8TINQ78sZeuByXL+xYhQg+6FAocqkKImzu9m0sCiVsndVr7InRWsdh2LYeISmkaMIM2z57DTf2Ug8UW1d8vVH1LLlWvF2mqa9t51Ff1Wuhe0FfldKZFgOA86EJNtrhQlxK85y5GrYGytV8TdndMmIQceG6q4rmORu2drqhRZpJoUtrmXqKxmdBR2uZzjQftFTbVvUUORvrdSt0tzeVtykDedBR96jwvSXat7EoxGjfehLnffKd6faSoB4brR4hebCRv3eYdTm9YYt6jtx4PAtW3PIMIoAAAggggAACCCCAwGQFVjboiHvk7u1wqFtV+nplZM+/qAKEoVBkK/UIib0lXNChW0SuHfhgxPXOiBvTfp/CihSY1D0wbFtnBh0uFAlVz5DW80V2D4N6mNhtLVULbUKTe2mxTeDQLaUzrRAmtOdpQoD2+LxsHyZo2IcnIYQsnEjBRza+KbUOQkq30fQu011PLM/V0dchbYNmcvOkZbLbaHx4pHJat9fMuOXH5m3KqLxsfCu4sfBJ21Rvg3q1WK8VjWvKacQGh7Kg42E9m+MJH1rkvTPa71PPilROCMEPx5XnwYbet8MSex6HbauCDh+22Phu2WkKAwgggAACCCCAAAIIIDBxgRUOOhRYVL0XFCq0QoBLW3VPjfaFfwofbKe2elu0bwXJg47qYaSHYduCCvUisd4ZsTytq9Cjw4UtrfUr6Jh160oKQ2yDVefmGR/lW2kW26OjdbFfb6YPA/qGrUbVa91Lwnpf2IW6n8mHE33D+fxWnh+vYb/8iGmqY3X7SxbAqBxbh7bZD/vgItanCReimes1UgUQ/jYe26gqzOiGEtV4uyVHc8fgpLX+B5pt03b6cCNuT2l9tt7CawolFGDYczMeDw/H21Q0f947o6dHh7v1JYUfaXWloMPWlWZqDczq0dGamTcIIIAAAggggAACCCCAQAhhbYKO1i0oKcAYDjpawYN2d7H3RbsMu4VEt5W01hkDjSaE8GVXw+1ymudrNONtGXuNLdCtxwcb6smx8j06skDBhx7p05WFANX4LFDQyFSWprmL9DQ+lagdGZ834oMAP7UpqzW2elMoT9sdy9K2ZgFFCiG0XB00DIc/pW3L6mSbVdiWOKk0PjrWvWD8cFwgLz9/bysceC0GHSGk21Vat6SonJ4eHZoSH0zqAxNb79GDDlsyrtF964ofzzACCCCAAAIIIIAAAggg4AXWJugY06MjhRSxhgoYmmAijuoEHXv1t6a4XhJxHo3Plk1BR3ZrTOwBUo1rBSOpt8bIoKN+0Oo13UKzSs/o6Fx024V83Usju30j3kphYYGWzW9RiTuieyFu4UHV+yG/7UPvZ4Ufrll3tnl4mtZZBRp+uzRsvSaszlU5tq2u1MHnj4Tgy3VL9W1nabwPN/xwLC4vP3/v1tk3GIOOd9a3krheFml88+DRqggLOrLbT2IPkGpc92GiRws6Bntz2C0vrWeA9FWO8QgggAACCCCAAAIIIDAlgbUJOlohQuoF0YQI1QNLm8BCvSY6z/Zw38ISp8dbY3wZ2vV1kJFuYdE4zWO3rTS306TnZ9QPMm2tb1bQcWC3tlSByuFuVa4Pa1aiR0fee6J0EV5/Yto9OtrhQP6haocFAxfmhfU1wUReav2+sEyaszjNrV/TY3ij3hMaX4UuqWeHCorzuOAlBg/NrSvxNhMLe9TDIX4jTT1/nNeWrcpveqZcD1vxa3/z8aVbV/wzTtz2x4rm71PtewfUC6N6PkbeE6MOMtItLCpC89izNapQpHWbin01bGsZLXf0oMM/n0PraIUnCmEIOnr3KRMQQAABBBBAAAEEEJiqwNoEHTN7dLgQo7oFpAk9bOcq3GgFJnFCE3RU4UfdkyOGF3mvDiup+VrZuEz9LI84bAGJgo5Zz+hoiktDedCR1/ti/dyStMAxBtqBRLuA4rT6Qr4JANrL2Lv2stXFerWM66Fhz5moAxSb3lzsW2n1ayeYGA5Q4lKdZVyZfdNieFHfwuJm7xuswou6Xp1vnGn3djm9c7W5HacVdIQQ+mxb461nSb01cdrJBh1NPZugowo/6p4cMbzIe3W4peLtKtVtKy+uw4e4fCvsOKGgQwFH3aOjFXw0m8MQAggggAACCCCAAAIITFhgLYKO7v5xPSzqkMECghhyWNigBa23RQwdSsFFFXRs66tc/XJxpfV6OuPdt6Rk01LYkXp0NFuvaeoFYq/NlGbI6qEx8+rR0ayNobZAOZzpDWHcwu2Qx02Ig0fvYZGXsLj3VdDx8I3q61vb6617crTCi2qOKhTpLlOFHb/teoBYT5CB155eGiqLYKO9R3iHAAIIIIAAAggggAACXYEVDjq6G8sYBFZVYHOCjlUVZrsQQAABBBBAAAEEEEAAgXECBB3jnJgLgUEBgo5BHiYigAACCCCAAAIIIIAAAgsTIOhYGDUrQgABBBBAAAEEEEAAAQQQQACBeQsQdMxbmPIRQAABBBBAAAEEEEAAAQQQQGBhAgQdC6NmRQgggAACCCCAAAIIIIAAAgggMG8Bgo55C1M+AggggAACCCCAAAIIIIAAAggsTICgY2HUrAgBBBBAAAEEEEAAAQQQQAABBOYtQNAxb2HKRwABBBBAAAEEEEAAAQQQQACBhQkQdCyMenEreu75FwL/MKAN0AZoA7QB2gBtgDZAG6AN0AZoA7SBKbYBgo7F5Q+sCQEEEEAAAQQQQAABBBBAAAEE5ixA0DFnYIpHAAEEEEAAAQQQQAABBBBAAIHFCRB0LM6aNSGAAAIIIIAAAggggAACCCCAwJwFCDrmDEzxCCCAAAIIIIAAAggggAACCCCwOAGCjsVZsyYEEEAAAQQQQAABBBBAAAEEEJizAEHHnIEpHgEEEEAAAQQQQAABBBBAAAEEFidA0LE4a9aEAAIIIIAAAggggAACCCCAAAJzFiDomDMwxSOAAAIIIIAAAggggAACCCCAwOIECDoWZ82aEEAAAQQQQAABBBBAAAEEEEBgzgIEHXMGpngEEEAAAQQQQAABBBBAAAEEEFicAEHH4qxZEwIIIIAAAggggAACCCCAAAIIzFmAoGPOwBSPAAIIIIAAAggggAACCCCAAAKLEyDoWJw1a0IAAQQQQAABBBBAAAEEEEAAgTkLEHTMGZjiEUAAAQQQQAABBBBAAAEEEEBgcQIEHYuzZk0IIIAAAggggAACCCCAAAIIIDBnAYKOOQNTPAIIIIAAAggggAACCCCAAAIILE6AoGNx1qwJAQQQQAABBBBAAAEEEEAAAQTmLEDQMWdgikcAAQQQQAABBBBAAAEEEEAAgcUJEHQszpo1IYAAAggggAACCCCAAAIIIIDAnAUIOuYMTPEIIIAAAggggAACCCCAAAIIILA4AYKOxVmzJgQQQAABBBBAAAEEEEAAAQQQmLMAQcecgSkeAQQQQAABBBBAAAEEEEAAAQQWJ0DQsThr1oQAAggggAACCCCAAAIIIIAAAnMWIOiYMzDFI4AAAggggAACCCCAAAIIIIDA4gQIOhZnzZoQQAABBBBAAAEEEEAAAQQQQGDOAgQdcwameAQQQAABBBBAAAEEEEAAAQQQWJwAQcfirFkTAggggAACCCCAAAIIIIAAAgjMWYCgY87AFI8AAggggAACCCCAAAIIIIAAAosTIOhYnDVrQgABBBBAAAEEEEAAAQQQQACBOQsQdMwZmOIRQAABBBBAAAEEEEAAAQQQQGBxAgQdi7NmTQgggAACCCCAAAIIIIAAAgggMGcBgo45A1M8AggggAACCCCDnHI1AAAgAElEQVSAAAIIIIAAAggsToCgY3HWrAkBBBBAAAEEEEAAAQQQQAABBOYsQNAxZ2CKRwABBBBAAAEEEEAAAQQQQACBxQmsTdBx65GXhhe96Ks6/x76wPvDQ4XxL3rRQ+H9LcdbYetlLw1bH3cjP/5IeOmLsnFucgh12Q+2S9IscXs647WOfBsfCls9217VJ9/O1gbwBgEEEEAAAQQQQAABBBBAAAEEjiCwNkFHCFWI8NAHqtq9/8GvCi995FaowogsLIgBRjbuAw+FF73skaAlWj9x3q8KVm4zrRRa1CHGy14aXloKV1L57VClFYq0tkNBSradzQYwhAACCCCAAAIIIIAAAggggAACRxSYTNChYOShDwyEFy64UICi+VOvEIUTsedHs3wMRtL4XL0QdLjy2z1TCDpyPd4jgAACCCCAAAIIIIAAAgggcFyBtQs6fEgwukfHzFtUCnx1Tw+/vlnDTa+QQtBht7nQo6OAzSgEEEAAAQQQQAABBBBAAAEETkZg7YIOCxPG37pivTDsWRzVczesHM8Ye3FYIKGgI92K4ucqDVfraMok6CgpMQ4BBBBAAAEEEEAAAQQQQACBeQtsfNARn48Rn6lhQUffg0SzAKQOOrbiLSz5A0bd+xiGNEFHdcuLm/4iHkY670ZM+QgggAACCCCAAAIIIIAAAgiYwNoFHf72kebWFR8s2HD17Iv3P6iAQyFGE3SEeFtK9myM1i0lxhPiszqq9TTj0lDPMtWDU5v18TDSJMYAAggggAACCCCAAAIIIIAAAnMVWLugw24PGX/rivyyoCP7Bpc4R/oWl7Z3t4eGBSn1a/H2lvatK60Se8OR1ly8QQABBBBAAAEEEEAAAQQQQACBYwhsQNAxptZ50JHfvtKdbqU2gYqNGfPqg47qthbfEyUftvBmTMnMgwACCCCAAAIIIIAAAggggAAC/QJrGXTEW0Hqr2utQgIFFfr62BBCscdEIcjwt69oGXsIaWY1s0dH3I7sNpi6x0gVaGTTituXrZS3CCCAAAIIIIAAAggggAACCCBwLIG1CTp8uKFnZjQ9LVzIURNUDyB9JNxKJIWgI01rHiSaRrmBZj1upB/0gYkPOHqCk3IQ4wtkGAEEEEAAAQQQQAABBBBAAAEEjiuwNkFHXsEqgHik6cmRzdB6AGh6RkcViuS3jnTeu+duHK9HR7MxPqDprKfulfKilz3SLMAQAggggAACCCCAAAIIIIAAAggcW2Btg45j15gFEUAAAQQQQAABBBBAAAEEEEBgYwUIOjZ211IxBBBAAAEEEEAAAQQQQAABBKYnQNAxvX1OjRFAAAEEEEAAAQQQQAABBBDYWAGCjo3dtVQMAQQQQAABBBBAAAEEEEAAgekJEHRMb59TYwQQQAABBBBAAAEEEEAAAQQ2VoCgY2N3LRVDAAEEEEAAAQQQQAABBBBAYHoCBB3T2+fUGAEEEEAAAQQQQAABBBBAAIGNFSDo2NhdS8UQQAABBBBAAAEEEEAAAQQQmJ4AQcf09jk1RgABBBBAAAEEEEAAAQQQQGBjBQg6NnbXUjEEEEAAAQQQQAABBBBAAAEEpidA0DG9fU6NEUAAAQQQQAABBBBAAAEEENhYAYKOjd21VAwBBBBAAAEEEEAAAQQQQACB6QkQdExvn1NjBBBAAAEEEEAAAQQQQAABBDZWgKBjY3ctFUMAAQQQQAABBBBAAAEEEEBgegIEHdPb59QYAQQQQAABBBBAAAEEEEAAgY0VIOjY2F1LxRBAAAEEEEAAAQQQQAABBBCYngBBx/T2OTVGAAEEEEAAAQQQQAABBBBAYGMFCDo2dtdSMQQQQAABBBBAAAEEEEAAAQSmJ0DQMb19To0RQAABBBBAAAEEEEAAAQQQ2FgBgo6N3bVUDAEEEEAAAQQQQAABBBBAAIHpCRB0TG+fU2MEEEAAAQQQQAABBMYJ7O2G8PVfF8LX/Sch/OWvDuEv65V/GKxwG1Bb/W/+8xAefsu4Ns5cGylA0LGRu5VKIYAAAggggAACCCBwjwIKOb7uPyXYINhZ0zbw1SH8+I/e44eAxddVgKBjXfcc240AAggggAACCCCAwDwF/qv/bE0vcFe4twGhyWLblII6fiYpQNAxyd1OpRFAAAEEEEAAAQQQmCHgL8rPvz6Ep+7MWIDJCKyAwPt/tx2mrMAmsQmLFyDoWLw5a0QAAQQQQAABBBBAYPUF4nM56t4Rn/n06m8vW4iACaTnyXy1jeF1YgIEHRPb4VQXAQQQQAABBBBAAIFRAr5Hx6gFmAmBFRGg7a7IjljeZhB0LM+eNSOAAAIIIIAAAgggsLoCXCyu7r5hy4YFaLvDPhOYStAxgZ1MFRFAAAEEEEAAAQQQOLIAF4tHJmOBFRGg7a7IjljeZhB0LM+eNSOAAAIIIIAAAgggsLoCXCyu7r5hy4YFaLvDPhOYStAxgZ1MFRFAAAEEEEAAAQQQOLIAF4tHJmOBFRGg7a7IjljeZhB0LM+eNSOAAAIIIIAAAgggsLoCXCyu7r5hy4YFaLvDPhOYStAxgZ1MFRFAAAEEEEAAAQQQOLIAF4tHJmOBFRGg7a7IjljeZhB0LM+eNSOAAAIIIIAAAgggsLoCXCyu7r5hy4YFaLvDPhOYStAxgZ1MFRFAAAEEEEAAAQQQOLIAF4tHJmOBFRGg7a7IjljeZhB0LM+eNSOAAAIIIIAAAgggsLoCXCyu7r5hy4YFaLvDPhOYStAxgZ1MFRFAAAEEEEAAAQQQOLIAF4tHJmOBFRGg7a7IjljeZhB0LM+eNSOAAAIIIIAAAgggsLoCXCyu7r5hy4YFaLvDPhOYStAxgZ1MFRFAAAEEEEAAAQQQOLIAF4tHJmOBFRGg7a7IjljeZmxm0HF3P1zePYyqh7tb4eKl8r/tG7fDtSvZtCv74Y7tD1eOjfKvdw52wsV6PX78rGEtd/ng9qzZmuk39o61nqYAhlZT4G7YOvNAuP/M1XBrNTeQreoIVPvs3GOdCZs54rHz4f5TZ8PWzc2sHrVCAAEEEJghsPCLxcOw3XPe3j6f3wvVmX53+496nj08/2HYLp7razv7t8Fv1XD5fs5jDH/wPeG+l/9s/PfgB8cvf3D5Z0Pv/E/9XnjwvXe7hT31e+GbX/d7o85ZB8vvljyfMQtvu/OpBqUeX2Djgw6jOdzdCdfcZ1YByPaNEIILM2yecjjSXl4HrfYBtw5MfFASV774A7bV+Z5edYEz4gL84MID4f4L1+9pVX0Lq+zTO26n9c04Y/ytnbPdbbx5NZw+9UC4X/9K9YzTz4eDvGy/nK93vCCsy7Pxfl5b1ylXp5HGoW9bits2p4vSsduQb1Pn/fVwrnDhHNtRbdQNEcrLhKDxpX1YB0hxWuPh1xH3e5ye7ePOPmuWr6pyjKDjxOw6mIsZMbadLmZrWAsCCCCAwCIFFn6xeBi2O+fSeYX1h8r+kOGowcKs+W1677l/HczEP2Lqj5Ojgpr6OiSv2pHe3w3vet1AYDFQ1qwgwqbr1YKU0qvCklvv3Rqcp1luK7zrqYGNOulJC2+7J10ByrtXgY0LOvKQIoYZoZu6Dgcd9cGzEIIIPK4jPwjrwJaP69k7dsDsmdwZrfUdqQdIp4SJjvAXrRY+RApdrDYXsApCmkDFXySXLoKb5RpVXXA38+qCunuxrrn9RXJ7G5qyNneoCRoyQ11Ip/3TtaxCiWyZOuQoObf2p9pAKcgSc3YBHwMxtx+rPVGFKXn7KK13c/ecb7ebW0tqhgACCCBQEFj4xaKCjr2wvVv3sNa5uD+/jr2c913QUeidXQoaUhlHnV8mt8M1255E1L22SJOygaOe92eLD7z9SHjw5WPCA803HFjEMOLyR9y6PhIebL0PIdCjw/kwuA4CGxd0RHQXUMSD05U8KNBBru6hoXnTAbEal4clVTLrpl3Zcctkt774VLduAbMSYJXfH2TUB+Rit7kTaGI+DNBfuO2iMF0EVhc5+YWe3qcL13iR2j+fXeCfvnC+6UVhF7ZxPefDOd3Ckf2FXeVX663LLi0vgr461DydHh1x/iaYyC9442L5PCHE+jYOzj5ZVeM667NZ/Xwq36xter2OprdBHZi4bYllu+XS+ziPDOtAQOvyF+3ufdxvF84XekPUF7QXtGy1P1J93TZEr1Pnwzn15onz+RCiKsOWT9uT6qjgwM+fu9bb0Lo1pLtMr3ErTNJKu8tWm5Ktx+2PWHZd/8pQZVh7GTBSwWk/uM+St/O9ULQO+xxk+96ClP59lUCbAb9uZ5w+p6d8AFe5nLtw1u1Dt+/cdsUVqP3k45o1M4QAAgggsKkCSwk69sOdG3vx3Fjn0NsH7VvSq1vPrUeHO6ev90EnWGiFJUed3+3Y1jVD9/y/+uNqfd6eri2688XrihS8uPKPNFj15ki9JV73nvCal7d7d8TeGDGsUNDxnlYvZeuxkVapW2DyYEMT3a0xaV0pNLGQ5ThBSlrz/AYW3nbnVxVKPp7Ahgcd1cGmOvDUPTHswGPBgQtFmltXhnt0+NtdSuydA2w206zprdnjQXUnXB7ootea/0hvqgubdDHrL8TTcDZPfSFpyzQXnEPz1RdQdoEeL8j8BXlz4Vtd2FW3wmi4Ws/A8tn2lEKLZhtrnFS3+n3rQrRvXL0N6QLYti2EmeXHIqvl7QK2s4zm0XblF9S64HfbF5czx1CvO713F/WtstplVxe+duGuZewCuK6jXdD6/eS2odpOW6YKKuwiuL19bntq1m7w0HbRbM1+t4W65VR1sKDFBwb5vN3yY6lZG1B5cd+0xqusykn1arXFklHWyyTVw9mlcXEj7oatnaqtt9yy+Zs2oe1p3E2neu2Z5uvj92e9rfY5rjzrz2FrvnotGpfaWXvNvEMAAQQQ2GCBhV8sNreuVH94rM7Jq3Pn/fq2Fp3fLyLoaEKL7h8kV69HR7yFJIUVvrfHUYKOJrToPMODHh0b/EHfzKptbtARAw07CA7svFY663ptWCCSXuseICrKhSOx5Dp1trX4IKPcO6Qn3bXwxQoKIVhZ9uom3fugu6CKhfmLojRcXSjaBVHqnVE/OyNeoMWLvqH58mnuoiytp66Oe99cFA4sP1SHushmG7vriGPyMjSyM07b3AQy1fTq/czyVZ6rl95qmcY0bkV2gV/VOV58u22J63IXnO33bhu1vhSaFIIOu1BvBUVunXGT3Hu3De1Axoctbv64vNueqoqFHhb5MmOCjnwZ1546PTjyebUh+Ti9zwMNzady60DosfOtoMMCq1ZZ2T5O+9zZxUAh2RtKaXuqQKM9fzVf3m5iKfm666Kbz5BG+OXb+6bdhtvTqqKcRV02LwgggAACExBYYtARWreFV6FDFTjkQUfPeXU6h99yt5c34cXgszR8j4t4nn/Y/QIDX76Gr+yHg4EvQeisr3Def7QW5cOM+tYS67mhnhjpwaFNeNHtleFuaUkhSfXcjQc/OGK5y4/G54QMlpt6gPxs+ObSQ06PVunxcy+87Y7fNOZcjMDGBR3pW1Ts4NH7UKByr43t3Z6HjNYHsPiNLEcIOu5tNyottoBlfHI8ep3uAiwu4y+W0rC/ONJc7ffNBVJ7fHu+fJoumkp/QW8HAs1F2sDyQ3WoIZptrEekutXv8zI0ujOue/Fn2zez/M6FNUFH8y0e1b5tgoPjBB112BIDhHw/dctPAUS9+6u2ekJBh+vxE2/fUSjVakvV9titPVW92+P8tHsLOqpyfTBibTbvWdNuw+7zmYw0rg590jgGEEAAAQQ2XmDhF4vWo6M6772mW1f05QHxeXtb9bcQ5kGHnStXe6Pzx0Gdt6fgQsseZf4QFLhYjw7r/d3e77bN7bF6p23ZvtGernFjn+vXLdGPyYKO0DyctH1riuY72q0r6h1S9ehQme1l4xaod4cLRvxWHVzeCu/6YHt6cxuNn3POwwtvu3OuD8UfWWDjgo4o4IOI+NCi/Auo3AHSzdscvNoHpI6qWyZOcwdAvS8eYPPUt/W+fcC19eUPIY0HRgtwbKZ7eW1dgLVDBn8x2FwcaWXtiyd/gdQ/X3uZ6iJriUHHUL3NM5+nE1ZUdYoXqllw4k1icdl0jdM8/gJU40p+sXy/LVlZcV2ph4e7yPfLqHAtV1+oaj12q0l7f7o6xQ137315riyrS/VsFzd/XN5tT3yv/7rjeus9ehlvN2sb8unVSrQNnX3p6ixnH0pUw1rWlZftm7T5rpw0TgPJ0ZXRmqGqV3lfZTP2rLtkW7W79n5ot1lNqz1sNapDamc2klcEEEAAgY0XWPjFYnUOfi09iL95r8CjOld35/F6UOj/3975+8hxZHdc0F9w9AUCbOCES2QY/kMuuOjES5ST2QGXXkLABkiYCa3EiQxuyMUCWmzCYOkNmJg7TgQGwgJkejhAFMXEDgQQSsp4VfWqXlVXz4+d7p6emQ+B1fSP6levPlVTqvft1z0bCReblq+Fjp7skSSk5BFRrOPNjVcVTXLJ227VQkd8p8bJ80rY2FboMFkfJjuj+06PLLRIi+yvsXQeg7ltkze5bvKxu4lzlJ2CwJELHTLZ1RPWlbsRIaMQIlRBbnWJtdHzqEwljNRCSBZYsv222hvqGm6CLAOaImg2gVMRGPugrf1+iv5yIZDLgb2p19SjQaOWy0HakuvjuwY08CzaEHGWQZwcFHv5MRQ5r3WmHmgEp4Vtf15tSHvy3W7xW/3RNuX9WEMjcCzs23ZZX1JwrO0wL720IkLhXwyYNxU6bF29PthHV6rAvPIhtFxYKbfIQupJj3OULJdek5ib8VSLSOKDDdCL8Rbrlw9z3I9jycy413pJbiVKWEa2z7zp1+6RtMuwWzzJ48TWWfa9MH3sJOul+E61RMbUtpJBaplpl33cqhacfP1FH9gxHPmk88k6GxCAAAQgcOgEJg8WJZND1uZmTW1vKMqaWn6VpXhHR72Wb+wnIcKu2xvldP2fytdCR+vmZHWDNMYRJ2eajRIHiRc7WtffdhA1hA4nx76pXiwaj1mRorVtMjQ2zujwLy09dV8+0BeUhjYFsaOREXLbJm9y3eRjdxPnKDsFgeMQOnTSKj7NBBpJtwQHf6qZFZJfbqovO01pdelxk0YXGkX3657sDPvypa6FOEH3XNstv+KID9TiL2zcu9/41RW5PgRRIRU/BH8qDLQCpG65JUKFqd9fZ4Kp9YQOvTPeaIMPMM0LK22Abc+lYFHaGnzVxwfkU9tanyvEC9sO04Y6gM29UYot4bit+767ey8GmyZQlnIpEP/svvO/mpH8l37KIoKvOz5K8cj/kkoIsvuDZ1u/cMu2bLCeMxGC12Ub7Vi57+4aG9nv2CeGkz1nudrjrfGh/ZT7SHyy7TBt6AgRwX/9r68rsdSj9ae1XTGSonZc6dgx/Wf7pOBb9KvYXdVXpcDkvbRjsId7ZtsYK6k/Qh/msqHNeb9mwj4EIAABCBwsgcmDxUo0aIKVtbCu42W7FA/qG4r+3XpJuNi0vAod4UWokmnSedeGxBfRvl/Dx23xI2ShyDXqY1zHyzVbr+VbQodkVZRig/PiRyk2lI+2aCZI/nlZL3S8kMdPXvW/g8MLIyGLQ7M7/GMrP8Vj6XGZLLTwjo7mgObgSAQOTugIIoH5udamSGEnyEy2EDqqrA4VM3ymRRRM9Fi2oFtBjc6Tm50UdaILE2eeLMNxO0Gqtdanlmudu/UxCZRWBnqldQkOyyCzPL9y7xZ1LrPpA8kUsC0rOYNzS9t+i+DSBNS3a90t6lxW0db+LDM+0rlCLMiCw0i17YfZpeN0P5qAlxCAAAQgcEsCcxI67M3CJFx029UROrpFiiOryoe1fxBWilghWWmLMxqT9McLycBwG2v+MkpH6Kg88O/U8C8zFdGiFEl80eY7OlTgqIWWyvhUu5OP3akaRj3rEjg4oWPdhlOuQWCDgCbfmTap+A2TKw9tUGefreKu/4ZCTZ/NaY7H7ICmz5uIDjmLYivRKWZCbHXnvhAKbDbFNESpZWACvj/px4GpYg4CEIDA/hAgWCz6qhA6jPAy3GPlRXUb74hAMWzWRCl07Py9G5sQYexuQusgyyJ0HGS30igIQAACEIAABCAAAQhsSYBgcUuAXL4zAozdnaGfS8UIHXPpCfyAAAQgAAEIQAACEIDAnAhIsPj5r5yTT/5BYJ8IMHb3qbdG8RWhYxSsGIUABCAAAQhAAAIQgMCeE7B3xf/21z1vDO4fDYGPH4M4p+P3aBpOQy0BhA5Lg20IQAACEIAABCAAAQhAIBD47a9NwHjHbMcsDw0k+YTNrMZANVb5Ph8lAYSOo+x2Gg0BCEAAAhCAAAQgAIEVBP7yZwL4WQXwCEz+MapN+uSPv18xyDl9qAQQOg61Z2kXBCAAAQhAAAIQgAAEtiXwp3tG7KjulG8ScFLWcESw2Fiw2Hj83HHuD7/bdvRz/R4TQOjY487DdQhAAAIQgAAEIAABCEAAAhCAAARKAggdJQ/2IAABCEAAAhCAAAQgAAEIQAACENhjAggde9x5uA4BCEAAAhCAAAQgAAEIQAACEIBASQCho+TBHgQgAAEIQAACEIAABCAAAQhAAAJ7TAChY487D9chAAEIQAACEIAABCAAAQhAAAIQKAkgdJQ82IMABCAAAQhAAAIQgAAEIAABCEBgjwkgdOxx5/W5/vPHXxx/MGAMMAYYA4wBxgBjgDFweGOgb/3H8cMgwHf28L6z9Olu+hSh4zDmRFoBAQhAAAIQgAAEIAABCEAAAhCAgHMOoYNhAAEIQAACEIAABCAAgWMhcHXp3D9/7tznv3LuN3ec+4188gcDxsDOxoB8F//pH5z7j38/llloknYidEyCmUogAAEIQAACEIAABCCwYwIicnz+dwgbCDuMgVmOgTvO/du/7HiSOJzqEToOpy9pCQQgAAEIQAACEIAABPoJ/OPfE+DOMsAlm2Jn2RRzGw8iRPJvEAIIHYNgxAgEIAABCEAAAhCAAARmTsAGdY//1bmf3s/cYdyDwBEQ+J//LgXII2jyFE1E6JiCMnVAAAIQgAAEIAABCEBg1wT8ezli9sD//e+uvaF+CEBACaT35dzRI3xuSQChY0uAXA4BCEAAAhCAAAQgAIG9IGAzOvbCYZyEwJEQ4Ls5eEcjdAyOFIMQgAAEIAABCEAAAhCYIQGCqRl2Ci5BwPHoygiDAKFjBKiYhAAEIAABCEAAAhCAwOwIIHTMrktwCAKeAN/NwQcCQsfgSDEIAQhAAAIQgAAEIACBGRIgmJphp+ASBMjoGGMMIHSMQRWbEIAABCAAAQhAAAIQmBsBhI659Qj+QCAQ4Ls5+EhA6BgcKQYhAAEIQAACEIAABCAwQwIEUzPsFFyCABkdY4wBhI4xqGITAhCAAAQgAAEIQAACcyOA0DG3HsEfCAQCfDcHHwkIHYMjxSAEIAABCEAAAhCAAARmSIBgaoadgksQIKNjjDGA0DEGVWxCAAIQgAAEIAABCEBgbgQQOubWI/gDgUCA7+bgIwGhY3CkGIQABCAAAQhAAAIQgMAMCRBMzbBTcAkCZHSMMQYQOsagik0IQAACEIAABCAAAQjMjQBCx9x6BH8gEAjw3Rx8JCB0DI4UgxCAAAQgAAEIQAACEJghAYKpGXYKLkGAjI4xxgBCxxhUsQkBCEAAAhCAAAQgAIG5EUDomFuP4A8EAgG+m4OPBISOwZFiEAIQgAAEIAABCEAAAjMkQDA1w07BJQiQ0THGGEDoGIMqNiEAAQhAAAIQgAAEIDA3Aggdc+sR/IFAIMB3c/CRgNAxOFIMQgACEIAABCAAAQhAYIYECKZm2Cm4BAEyOsYYAwgdY1DFJgQgAAEIQAACEIAABOZGAKFjbj2CPxAIBPhuDj4SEDoGR4pBCEAAAhCAAAQgAAEIzJAAwdQMOwWXIEBGxxhjAKFDqH64dieXN57vzeWp+/pp++/87Y/u5Vl17uzavdeeMXb0kHt75b5+euWC9XTU+Xpinfmo2RJbT0/dyeKmW6f3r2vTXN3d/O6x+/TJa2msO733hfv0M/Pnj4dL3l3cd4++c85999jdvfjQtSNHfvjW3b332D2690Uom0q9do+s3ca2t53KR1/ufeveOeek7lCn+vjYLVLZcL7wu2H/08/sNWLnvjv9wRjx7a+PmfOm3dmfUHfpu7mm8L083r8X2rjMZnGtMC/aVpyNOxu0V8ZDw97iyRdxnLTsx77/7At39+J1dxz5/rD8nfP2GvX0WB/gcBw7ZkwPYBQTEIAABCAAgcMgsCuhI61rfwwcZX28bB3coP1+ceFOFvF6c17W1OdvzYG4KeVbx+uSfXZDuRt33vTzxp031ve1bdlfbr91xYbHfnrlvvzqG/fli7hu//65++TkzUZG3r04zdebKxcn37iH35sDcVPKd45HPz756huX/07ds5/kog/u2YPn7llVz+JEz9s6QlkbA9izdrvP71DmjXvY5PDGPfzqeRFjWJt2e7l9W3KA7V19Nwdwfa4mEDqkZxoCxc3lhXtp4vw0iZqyWqYtjpjr/eR+5V4uLnpFFBFXZPKWyTAILSpkiLii2zqM1p9c9Qr/6cWOb8vgXwJoCQpjgJ+EDheC1KbYodd0RIPX7lEULYp6444EvSmw94G2EVuaokU4r9dY4cGbTH5obRLkmkC7cz4G6p0gOAbHS3woBBYjzBTHG9cnfuJL43z3eiPCyDWGZ9n+qq2CYO32Rl7ep8fu9OJ+KXxVfkobpO7gq/Jt1O9E6NLzKork/SB6VH2ufWHHgx7Tbo1CUhDqwsHsj7Wn7EJ/6rgxZtiEAAQgAAEIHDeBiYOp7rpW8Ms6trpx+FTFiv6biv2CgVwT191mnS7lg9DRWkvnYdBvN5TR8/LZdzNU1/HhBme3ba3r1hFhspfdLQnCg6Bgg3YJ4q3QELaDKCECQnXuwatws7ESIHJtck0UI0TIiMJBFjqMKJHOv3EPvZdQ6W0AABmNSURBVF1zbRQ6Fv7Tihst0cHYzI40t1YJEXo+s6raH1l5kUgEoga71rGOyNP0bsODE383N/RuL4sfvdBRixRh0ukKCcuFjihEmMlVRZDWqPATZVMd1tK2/tbkbM/rNet+ShAoAWEMSjU4bggdPvvjybfuVO7yV8FvsZ8C0w0yOkzmxDLPJaDVgLUM9FuBvQm+beDsfQ9BcDdA1uA4emH8svVZP9Tf1jE95z+NrZAFEzJXijLVzuKJ9Uf7SguZ9omoYEQQEaqKPvlszfaq6YaYYE7FTStkWF+0pD0fhDLtOynRny2y5DovxsTxl8aZ1mc+o2iT1H/hYfmYomxCAAIQgAAEjpbAToIpu5aV7XBzL/VBvCFYZz+X57vigdwg7KzjFyEjuiss6E3DUH/3fGXfZmy7H93LS5PB7R1bfy2uQklqz6AbVhSQbZPZIfX4LAsrhFSVN7Mwgg3J5rBB/sMXIXPEHgvb0b7aOnnuHj6QP7leRQ3rZ8OHIvOiJX7INaF93fpLPz+J4k2o5YN7dhLEnFxrn/1cQrdUKNH9UT938t0ctUU7N370QofvASNQOJnM6gnYHzNKcVKhw7F6kg2Tp5zr2pKyRdqdpO6lybQ7+Q716IoEmfmxEAmCY3C5VOjoG59VkJ2K9R0PBeqMjjJToCum6HkNlrsiRfea9DiGFRlS5knXv1JYSA1Za2MdfwLztcw1C0kdTRtF++pHjVQg6WuvnNfxEKrN4yO6UQgFobwVUlY/ulKKF2K1V+go6oqPKFWihmddHbPAOv6nPrel2IYABCAAAQgcOYGJg6nWGjlnMF+5m55HvFu9ZAUDu90q239M1tpxTR8LdWxJXJDW5saSF2QqQSTFBEsyUkyZJLC07Juq1tmshQgRACQzIWQvPHcLn6GwROQwldiA3m6bIqs3ezI6Hp5o5okRJAphozbdJ0SI0KHCSbim46v4UAgd0baKMD0ZG70ZL63yLft1E26zP/F38zYu7ts1CB3SY0noCEKDppIVk7NmYKSyzmnWxs3l8owOb+fyxjyW0pgk1b744yf9042fXVw++EKw+ug7EwTLYwZNoSMHtioylLa7AXQ4L8FtS3zIx2p7awfyrfdgqO/JOfE7PipRCAGhzY+e5OwQvSQJHZ2MiOyzDfBlW9sgvuu22is+jQ8+UF/BRusphA1pYyczQfvQ1GbqCu9hue+WttcID0t9s+KCMrLHjAvFZiVeyLk+ocPXb202ru2UsZUJI/vITDwn9S3tH2uDbQhAAAIQgMAxENhFMOUFAs2oCJDfv73y76LrvKdD18CVOCBrcytI6LZ8+nW71HF25c7rd+lZO15c2EToyDcgi5uUvgkzyejwAXwpZrz7/rl/Z0fnPR09j2ZIkG8FA92WTy8AePFAMzSMWGFFAAn+m2KCChO1eGGyMzqih5TV6+yXchOhI9tP7y5Jpmpf0onOhrLonBjjwC6+m2O0Y0Y2ETqkM/wELOJDOQk3+ymVlfKrMjqaFtoH316lFybdyMuWnso7PcJfUn/tZB3f6dE2tuyoBsmrMzokuJRAsQ6E7158Wz42karrE0BCgVbgWdvWYF8+i4A/Ch1F4LpC6LC2Po2PctQ+WKGjVV/rmPqgfFLz641CfKhPth69aZRpCTwiBFhhQC5TESKJKeHRld72tqvqHv3ucRILFpJd8pm80yP8lXyzMOSZNXwUX+prpKwfA7Y9GwodYrfuJ2mI2G0d7zaSIxCAAAQgAIEjIbCDYErEiJTtvJCX9J+6r89krVtmVtgeSAKGOSg3DvVmpAodcnPQixAikNibhvImkOp9e8FUFi/61tfBP/Ooiq+j78cBzM3Ls2u3WPKjBp36Kn9NU9felEA8PMpx6p69iO+YeHDqvmwKBcFsEjBMLZIdou+dSMG9CCbygtPGy03bLxFVg/qODt2XTxEXch3pTMO2r8++XDUVzuLF0sdXbMaFb8Ob7rtJrEgj2w9euefVozpL6+iIM8nJ22/s4Lt5e2f348qjFzrSr6joZNOjJCcRRISOWFYm0PNLnbzNRKeChKalmck3Tbo6MRt7YcjcuJeL6/gm5/JNz2lSv+XYCoGf/FpGfHRFMgVULIhBuQ3e7XbIEtAXS5rMCe+L7HeD2DqoTfudDIX1GiT+JBspoK/r7c/o0F9fscF/EjrEBZ8ZUNuz+0E8UG/X8acOtAumyl4N9n6KKKV1221zQSGqqJgVzve214gRiYPa6fj22p2KwOUzJ167R0aYkDbV7fTCiykjnnihozomxz1He3wTocP3mY5LwwOho4TBHgQgAAEIQEAITB5M3bhzn2kRH1NJa+jGulnX4umdGDZroszESGviuI7WffnsCApxXR5EktKOINFr0wARm7qGl4O6Zu8VT6SNRhhJhoLt87flee9jT3lz6RqbIiiE92H4x1Ri8N16pCVnd+g7K2xWQ5kpkYQOydA4eZOyPbKo0s3q8CJJM2MkZmbIuQen7qH+Moy2riF0BNGlJZaUfoqJ5Kva89kn5p0cKtbIOrT5Cy+teoIxsf3w+/K8Z2CFFK13iM/Jv5tDOD1vG0cvdPjusWKDESVy18mkuOzxlHICy9eFLZnQOpOrTpq2bj/ZXrmXH+zELtuN/xksUcHr+nU/BLMxCL6IWQEa0C4ROhYX8hLNUtxIgbEa108feGpQHg/6Y4277hLQ9goWQWDQ7AmxZAN2b1l917qtjxqw+3Nl4G9Fm6IdYs+IMGUAX9sIAbr1L7mhG4UPcrCyEbkUDEz9asZ/mrLNOou6qnoMF9veLLqY8mqnYvtOsjj0vS7eob7HlGLfGxFF29EndHhRxLS7I3y0xJBoVGx2RBZzrslKHeITAhCAAAQgcGwEJg6mwhrYrKPju/Dy++lCB9hsDREWbOaG367Eh7y2DmtwyYaWcnq87zO8i6/MJJGyxaMpVV2l0NFak0uGSlfokDYlu+ZGajq25dgLgbgE//roSsx4qAJxm60h2RI2cyM/mpLFgWBXnAtB/iI+wqLH+z5zc0pxQI4HH6yvsbQKHUmgyAJMV5jYVujoCjQ+a6Pipf6mR16MgJOO5cYOtzXxd3M4x+drCaFD+saKDUuFDpmo6wnuyt3I9bUYYVXp9NIjI2B0hI5w7r8WMlGacmbsdCZic271ZnxUxReUwDYICXWQmIPfGMg/0cck5Jp85zyJAFYcWEO4KH4JQ4Pq6HyyafZzoFrW74tUwbgVMCR4zm0zgXy0HT6q47YtnYyAqmw8n/0rDIedwof8eEm6puN/w4YeMmzT9XpOPou6ur6Gova43TZjQ+0k38K5//Rilyln6q77LZzqlu0VOqqfpe0IWn1Ch/jYeDdHt63GWTYhAAEIQAACx0xg4mDqxq9rs9Chwb+saUO2dLihl4P/sqzPzri88b+uksvIYyn6GEsoLxnWLz+sK3TUa/nGvhUudM2+bkZHjAtOzvRGZxxwXuwoRZZthuLihYgTWTwQMUECcREiPvlKxI/wuEgOzsuyPsg/eeNFiFxGRQnxLJSXl4k++ylkT4gw0id0hHq7YkL4tZYgxkgZW5c+phL8DXWn80n8UEriT9d+5xETK1xsmtEhdcpjM5J98r3W68LjO0seBzIlb7858Xfz9o7uz5UIHdJXtdBRixZ+v/v+jvQYSt3fVizxk124Vibl9PygTpqpbpsVMoLQkQJXCXDzXfD6jngtdGRhIlwXsg/iS0zty0xTtoINoGVbxJEP7t0PMdA3d+4zNgmKRXiRdz/Ex1PsowxSUAL9+trUJrWk9WVRIWdLVFkm/pIqGBd7pg4N4H2AHv1LP1+qwfeKjJQstkhd4kNoqz/e8V/bkT/FB98Gw0P9KQQPI4SENq9or9QdRQJvT+23hI7EpOIV3VRO2euwJXatj0U9dWHrv/oiZbyfrceHwnjMfCuDrfFSFWEXAhCAAAQgcHQEdhJMZfEi85ZjIjBUgX8UCUTgCFkdQQipMyay0CEWsy0RPJZldtw+o+PaP57ysu8dHFEY8Wv9uK1ZJf5Yaqf6amKCDOUWW1m8yBerIFC90DMG8SIMhCA+CCHlz7FaoUMsZlsieCwTOkIGyHP3UH7O1WdqvErCRBYNpM7slxdH7CM31bsv/PkkXIgv+VrxriOc1OKIFzpeuYcPXrlnfe/giPZFKFIWYld89seSv8riG5cfBcrUt97ayXdza69nbeDohY4w+VSpZSkbQ/uuNUFXLzkyE3OenIOyLOKGr8faVaHDZ29EJTmdV6HDTIYt8eXsWh1c/ekDWHk/Rxl8pscp5FEWH7TnAFkfc2gF21KhHpdg1ga7GohnkUEC1WhXxQQb2LbuypvzYr8Omn2DVSiwwbAG5Rqw+4JWfAlCQ/LNBtUVRdum6pTflfM2kO+UMT7U/rcZxYD+yevwPovGC1ltHcmGtMHUlfpUxCWfLWGEgthe33daj2WQ7BhO6bwKHUFkSAxrsUf7wPdLzgKyvo+7Hfxb2jfjOoB1CEAAAhCAwDwJ7CSYyutoXXd3BI5eWnKtiiF2XWxuIpobkiouWHOl0GDPhO1VGdM5+6Ra+ydT9mZlOhjW/kmwyceH3ZLgO2RLhKBcMh5KMaC/PiscmCDeZ4NokC/2cjZGFiyCVSsEyHYQB0z9+miKdUKOJfEinLCChy0q26vOpQyQ+kK9NrXH+JXKdh+zkVPKsm5vumyMjZ18N8doyHxsHr3QMZ+uwBMIHB6BIMZMKXZEESaJM4fHlBZBAAIQgAAEbk2AYOrW6OTCIpt7hPdubOUcFy8lULzzY6r3biz1qDrJd7MCsv0uQsf2DLEAAQhAAAIQgAAEIACB+RMgmJp/H+HhcRLguzl4vyN0DI4UgxCAAAQgAAEIQAACEJghAYKpGXYKLkFgFz/9fPjUEToOv49pIQQgAAEIQAACEIAABJxD6GAUQGCeBPhuDt4vCB2DI8UgBCAAAQhAAAIQgAAEZkiAYGqGnYJLECCjY4wxgNAxBlVsQgACEIAABCAAAQhAYG4EEDrm1iP4A4FAgO/m4CMBoWNwpBiEAAQgAAEIQAACEIDADAkQTM2wU3AJAmR0jDEGEDrGoIpNCEAAAhCAAAQgAAEIzI0AQsfcegR/IBAI8N0cfCQgdAyOdPcGf/74i+MPBowBxgBjgDHAGGAMMAYObwxstdIkmNoKHxdDYDQCfDcHR4vQMThSDEIAAhCAAAQgAAEIQGCGBAimZtgpuAQBHl0ZYwwgdIxBFZsQgAAEIAABCEAAAhCYGwGEjrn1CP5AIBDguzn4SEDoGBwpBiEAAQhAAAIQgAAEIDBDAhJMff4r5+STfxCAwHwI8N0cvC8QOgZHikEIQAACEIAABCAAAQjMkIC9a/y3v87QQVyCwBES+PgxiI/6/TxCBGM0GaFjDKrYhAAEIAABCEAAAhCAwNwI/PbXJqC6Y7ZjlocGWnzChjEw4Rgov4u8RHqYl0gjdMztf0D4AwEIQAACEIAABCAAgTEI/OXPEwZviCf+ESEEA8bcJmPgj78f45t/lDYROo6y22k0BCAAAQhAAAIQgMBREvjTPRN4lneSCcwRZxgDuxoDd5z7w++Ockoaq9EIHWORxS4EIAABCEAAAhCAAAQgAAEIQAACkxNA6JgcORVCAAIQgAAEIAABCEAAAhCAAAQgMBYBhI6xyGIXAhCAAAQgAAEIQAACEIAABCAAgckJIHRMjpwKIQABCEAAAhCAAAQgAAEIQAACEBiLAELHWGSxCwEIQAACEIAABCAAAQhAAAIQgMDkBBA6JkdOhRCAAAQgAAEIQAACEIAABCAAAQiMRQChYyyy2IUABCAAAQhAAAIQgAAEIAABCEBgcgIIHZMjp0IIQAACEIAABCAAAQhAAAIQgAAExiKA0DEWWexCAAIQgAAEIAABCEAAAhCAAAQgMDkBhI7JkVMhBCAAAQhAAAIQgAAEIAABCEAAAmMRQOgYiyx2IQABCEAAAhCAAAQgAAEIQAACEJicAELH5MipEAIQgAAEIAABCEAAAhCAAAQgAIGxCCB0jEUWuxCAAAQgAAEIQAACEIAABCAAAQhMTgChY3LkVAgBCEAAAhCAAAQgAAEIQAACEIDAWAQQOsYii10IQAACEIAABCAAAQhAAAIQgAAEJieA0DE5ciqEAAQgAAEIQAACEIAABCAAAQhAYCwCCB1jkcUuBCAAAQhAAAIQgAAEIAABCEAAApMTQOiYHDkVQgACEIAABCAAAQhAAAIQgAAEIDAWAYSOschiFwIQgAAEIAABCEAAAhCAAAQgAIHJCSB0TI6cCiEAAQhAAAIQgAAEIAABCEAAAhAYiwBCx1hksQsBCEAAAhCAAAQgAAEIQAACEIDA5AQQOiZHToUQgAAEIAABCEAAAhCAAAQgAAEIjEXgcIWOD9fu5OmFe/kho7u5PHVfP81/J4sfw8m3V+7rs2v33jn3fnFRlMnlr9xNNuW3fNnL+mhVqLEr16W6G+c7h8S/W9TTscMBCEAAAhCAAAQgAAEIzJRAvVbP6/C8fk/HZG389qp/TS2xwNmVOz87dedvY4M/XLtzXf+7G3du4oJkNx5L18T4oFy7h2ttmT6kG6/7+wxxHAIQ2IjAwQkdvULF2bV7eZknOilXTE5LxQSZzEqhY1k9Ipjkf8sn0Typlvbz9UF8KSdXe5ZtCEAAAhCAAAQgAAEIHCABL1aEm5F9rRNxpLlOlmv9jcIf3cuzfPNTyhcxgDdclinr6p7zNhYipFS+STyxRDyx57o+lLWyBwEIbEfg4IQOwXFzmScz59XaICKkia2YNLsiRhdpWUbsaAZIKmuyQtKxno1NlV2przmB99jnMAQgAAEIQAACEIAABPaPwG1uEP7oXl6GG5pWSOhsp+zoUP69xAhJqCjFjBQzCMAibpA44zRlWvsbn8lum/am6/62FY5CAAKbEjhIocM5maxE3GhPWn1CSD+8LHQEkePCnaxQa60w0Zv9YWzY8qUf0oY8oZbn2IMABCAAAQhAAAIQgMChEDDiQ8rICG3L4kNely9vtbHVVzA9+mJihirL24oZVuRQk+WxuG43a/yO4CLnksCiVviEAASGJnBwQocXBZqTy5U796lqUSlO6us6k2VVppp4605ZpdyuOl/Yk7qeXvhnDDd/G0hhiR0IQAACEIAABCAAAQjMmIARJ/wauHw3R3jcQ9flWVRoPwZibPkW5/L5BqMcszdHdV8R5bhBBI18nZ4Pn1YMKc/wCHrNg30ITEXg4ISOZeCyEmwnHZ0sl15ZvqOjFjqSGhxsWCHDq7xN4aWcuL3am8SX7Iva0s98hi0IQAACEIAABCAAAQgcEgEjTlTr7byOL9fuskYWoUM+bfbEyeLaPJpiGFXr9nBGBA776Hs46m1flj8KUGSGV7a2XfcbL9mEAAS2JHCAQkdUXgtxIUxceYIUajqRlpNlm2dVppp46zc+DydKSL066VY+tB3lKAQgAAEIQAACEIAABPaUgK7P47sxzE3AvI4v18QqdIQG24wMu21wRHFipShxdu0Wi2v3vnqUZZnQYWrxm8E30yb9hUceXalRsQ+BwQkcqNBR/oKJTkh5grQvFionyzbhqsymQoeUL4SXOptDxYyydvHXpsjJZMnPzJaM2IMABCAAAQhAAAIQOBQCRhRorJ/LR1dCm1XouBFRIr2nL5zTGKCgU2VhhHPtjA5/rhA6qnJNW1q3WceLjRgL2LV94Rc7EIDAoASOT+iQ9LM40bQmyzbdSugoCsmEp8JFKbCkYpUwIhOyneRak7AXNTpqb6jLXpvqYAMCEIAABCAAAQhAAAJ7TaASOtbN6EiPl8haOa/H05pb1uK6rlZx4u2V+ZnZSsCwDAuhw/gnZdSWLR8FmpOz8EhNOuXFjvbNzVSGDQhAYDACByp0qPCgn61HV5ThMhFjeRlNecsvQBJbUueSScwoun3ZGcFunqTVi/AZhRUz8Zfn2YMABCAAAQhAAAIQgMA+EtC1tK7h+z7zOrm8ORjXyX49fuVuvOgQP3XtrGtx3feY1hM66mzrWujwa/goqIhfEiOEdb3GBsa/ov597Ct8hsC8CRyo0JEnP8GvGRMy0WRRQjumX+gIE1OcYONk5CfTIiNE7djPMEnnyc1O0jrRBRVYs0tUHLETpLVYb2u5+jj7EIAABCAAAQhAAAIQ2E8CVcZEsxHl2l3X+WmNXgkIelxjANnvZkevIXQUmR3RsVZGRzylcYTW22wKByEAgdEIHKDQMRorDEMAAhCAAAQgAAEIQAACEIAABCAwcwIIHTPvINyDAAQgAAEIQAACEIAABCAAAQhAYH0CCB3rs6IkBCAAAQhAAAIQgAAEIAABCEAAAjMngNAx8w7CPQhAAAIQgAAEIAABCEAAAhCAAATWJ4DQsT4rSkIAAhCAAAQgAAEIQAACEBiNwM8ff3H8wYAxsP0YQOgYbZranWG+GNt/MWAIQ8YAY4AxwBhgDDAG5jgGdrfCpGYIQAAC+0MAoWN/+gpPIQABCEAAAhCAAAQgAAEIQAACEFhBAKFjBSBOQwACEIAABCAAAQhAAAIQgAAEILA/BBA69qev8BQCEIAABCAAAQhAAAIQgAAEIACBFQQQOlYA4jQEIAABCEAAAhCAAAQgAAEIQAAC+0MAoWN/+gpPIQABCEAAAhCAAAQgAAEIQAACEFhBAKFjBSBOQwACEIAABCAAAQhAAAIQgAAEILA/BBA69qev8BQCEIAABCAAAQhAAAIQgAAEIACBFQT+H1XCU7e8lKkJAAAAAElFTkSuQmCC;" vertex="1" parent="1">
          <mxGeometry x="40" y="30" width="428.72" height="210" as="geometry" />
        </mxCell>
        <mxCell id="kEirQazwxM-ynIQ75gN8-5" value="" style="edgeStyle=orthogonalEdgeStyle;rounded=0;orthogonalLoop=1;jettySize=auto;html=1;" edge="1" parent="1" source="kEirQazwxM-ynIQ75gN8-2" target="kEirQazwxM-ynIQ75gN8-4">
          <mxGeometry relative="1" as="geometry" />
        </mxCell>
        <mxCell id="kEirQazwxM-ynIQ75gN8-2" value="微官网职位详情" style="rounded=0;whiteSpace=wrap;html=1;" vertex="1" parent="1">
          <mxGeometry x="60" y="550" width="100" height="40" as="geometry" />
        </mxCell>
        <mxCell id="kEirQazwxM-ynIQ75gN8-7" value="未认证" style="rounded=0;orthogonalLoop=1;jettySize=auto;html=1;exitX=1;exitY=0.5;exitDx=0;exitDy=0;entryX=0;entryY=0.5;entryDx=0;entryDy=0;" edge="1" parent="1" source="kEirQazwxM-ynIQ75gN8-4" target="kEirQazwxM-ynIQ75gN8-9">
          <mxGeometry relative="1" as="geometry">
            <mxPoint x="350" y="510" as="targetPoint" />
          </mxGeometry>
        </mxCell>
        <mxCell id="kEirQazwxM-ynIQ75gN8-11" value="已认证" style="edgeStyle=none;rounded=0;orthogonalLoop=1;jettySize=auto;html=1;exitX=1;exitY=0.5;exitDx=0;exitDy=0;entryX=0;entryY=0.5;entryDx=0;entryDy=0;" edge="1" parent="1" source="kEirQazwxM-ynIQ75gN8-4" target="kEirQazwxM-ynIQ75gN8-10">
          <mxGeometry relative="1" as="geometry" />
        </mxCell>
        <mxCell id="kEirQazwxM-ynIQ75gN8-4" value="已认证的&lt;br&gt;内部员工" style="rhombus;whiteSpace=wrap;html=1;" vertex="1" parent="1">
          <mxGeometry x="210" y="550" width="90" height="40" as="geometry" />
        </mxCell>
        <mxCell id="kEirQazwxM-ynIQ75gN8-18" value="" style="edgeStyle=none;rounded=0;orthogonalLoop=1;jettySize=auto;html=1;" edge="1" parent="1" source="kEirQazwxM-ynIQ75gN8-9" target="kEirQazwxM-ynIQ75gN8-17">
          <mxGeometry relative="1" as="geometry" />
        </mxCell>
        <mxCell id="kEirQazwxM-ynIQ75gN8-9" value="推荐码弹窗" style="rounded=0;whiteSpace=wrap;html=1;" vertex="1" parent="1">
          <mxGeometry x="400" y="490" width="100" height="40" as="geometry" />
        </mxCell>
        <mxCell id="kEirQazwxM-ynIQ75gN8-10" value="内部员工&lt;br&gt;《推荐表单》" style="rounded=0;whiteSpace=wrap;html=1;" vertex="1" parent="1">
          <mxGeometry x="400" y="640" width="100" height="40" as="geometry" />
        </mxCell>
        <mxCell id="kEirQazwxM-ynIQ75gN8-12" value="ATS-内推设置-推荐表单设置" style="shape=image;verticalLabelPosition=bottom;labelBackgroundColor=#ffffff;verticalAlign=top;aspect=fixed;imageAspect=0;image=data:image/png,iVBORw0KGgoAAAANSUhEUgAAAsUAAANBCAYAAAAIncNiAAAgAElEQVR4Aey9aXMcSZqgt/9i/o60OhKSdmdMe4xuCeovBPgpzUh+4cfhAbBstSNNYmZ3iwfAYq9WK7M1ayQJElU93a3Z4lUEEqiT9/AGAbJqumfKqqunu9j2yjzcPcI9MjwzQEZkpmc8ZeadkeEe7h5PvOl48LYj+Q9+98MbocCAGCAGiAFigBggBogBYqDJMfAPmnzz3DsffmKAGCAGiAFigBggBogBFQNIMZly/p8CYoAYIAaIAWKAGCAGGh8DSDEfgsZ/CMgQkCEgBogBYoAYIAaIAaQYKUaKiQFigBggBogBYoAYaHwMIMV8CBr/ISA7QHaAGCAGiAFigBggBpBipBgpJgaIAWKAGCAGiAFioPExgBTzIWj8h4DsANkBYoAYIAaIAWKAGECKkWKkmBggBogBYoAYIAaIgcbHAFLMh6DxHwKyA2QHiAFigBggBogBYgApRoqRYmKAGCAGiAFigBggBhofA6Wl+ONbt4UCA2JgNDFQNmPx/fffy5s3b+T3v/89BQbEADFADBADxMA7xMC+pPjb798IBQbEQL0xoH7xKCvFv/nNb5IFUPgPAhCAAAQgAIF3IoAUI/r8ojNhMYAUv9OaxsUQgAAEIACBtyKAFE+YEJGFrTcLGwNfpPit1jIuggAEIAABCLwTAaQYKSZTPGExgBS/05rGxRCAAAQgAIG3IoAUT5gQxZDJZI71ZrOR4rday7gIAhCAAAQg8E4EkGKkmEzxhMUAUvxOaxoXQwACEIAABN6KAFI8YUJEFrbeLGwMfJHit1rLuAgCEIAABCDwTgSQYqSYTPGExQBS/E5rGhdDAAIQgAAE3ooAUjxhQhRDJpM51pvNRorfai3jIghAAAIQgMA7Eahcil+83HunCXExBKaVgPpslPmFYqKkuLcrf/Anz+VHV75NH8vGj5/LH/zJjvyH3mv5kXp9mVb1Hby6spNc/6c9p6qgz7Q2qduVDXvipRpDjZcrf/ZaXtk28kv503z9wPdO/2kfHEAAAhCAQNMJVC7Ft3qfyzfffEOBATGQiwH12Yheiq2k/viXIvb4T3zJ1NKck9iBkvpc/kD158mt6dMItK5Xy7UR4CIpNue0iBtZN3PUUv+t/Ic/U/Py59v0HwLcPwQgAAEIaAK1SPHXX38tFBgQA34MxCbFeblVYpk/l8/guhlltcTsO1Mskozxp71v5dVLfexnqpFifnhBAAIQgEA9BJBiBJ5fYEYUA7FJcbLkuFsdbNY2zbSazKuXtc0tVIFscq5V4Vsr1PnMrivmWsLZPlEIkJMQgAAEILAvArVI8evXr4UCA2LAj4G4pfiXZuvB4G0Rau+wK635THLw/Y9fef3rPchaur39yGWXNyvjg4S9bF+0gwAEIACBRhCoRYpfvXolFBgQA34MxCfFWQb2R1dey0Yvvyd3cKY4leNkv3C59dRmhxMRtmIb2o/s7SEeLOt5Gc9v8yg3O1pBAAIQgMA0E0CKEXh+gRlRDMQlxUp4d2Uj3TLxXNQ+X/8P1UJSnMm03fqQCnKh4GZ/+OZJcbonOatXi7HtyxNbO88BAm6ve6vM8zT/FODeIAABCEAgIVCLFO/t7QkFBsSAHwNxSbFZId09xWKlOJyVVcJp5VNnZ32hteuuld8/yG1vsOe1uGbjpQKcZo9z/VopLpRuf75IsX0KvEIAAhCAgEugFine3d0VCgyIAT8GpkeKrZAGMsW9XT+rXEZYTYbXl2K9VGXnCiTZrmZ2DDLFlgivEIAABCCwTwK1SPHLly+FAgNiwI+BxkhxsghZgbUCna1MVnLT7G9WlX2F25XX8iObRbbCa7PA9rxzneTb2LYFr2SKXXAcQwACEICAJVCLFO/s7AgFBsSAHwPTI8X+dgTvj9jSTO1wKS6SUyvMqk9V723F+LOd9F+367vWSnE6vl3islfbV9+1WROOIAABCECgwQRqkeIXL14IBQbEgB8DsUlxJqj2n3IOi27/Gppva99boe7PIKs+EnFNMsHZH+v1Z5Szuj/IfZWbJ+gFWeK0vijb3H8TnIEABCAAgQYRqEWKnz9/LhQYEAN+DMQmxQ1aB7lVCEAAAhCAgNQixc+ePZPGle0LcnBmVlpDy3vyUY7P1soRac0ckfPbitu6LCZ9mHam34MrvRxT285elzHX/c1K/hp7Ppvje7K4MGjO/X037rnmntW73D9SzIoLAQhAAAIQmFwCSHFV0mOleGE9J6+ZrH6UCGgmxf2SOkhQdZ0WXSvE/e0XF94rFPNUkHOS7c5JH2sR9kU9u4d3kcKmX4sUT+5CyMwgAAEIQAACtUjx06dPpXFl64LMD80SK4k9JR8aPj2TIV7ZKsHL9D+/sikfJnJ9RNR1uo9ZWVwx4y+cksUZVbcpKwfVeLpd+jycftQ53ZeeU3+/uWub+FwrvGekmAUXAhCAAAQgMLkEapHiJ0+eSONK7wMtxQtXgve+nsjsKVk3fDaX9baJlSvm2qBUHxHbZn55Q55cOVWYDc62RfRnkJPr1Lhmnva9nlN/e93XEVnpNfBZ1hS/SPHkLoTMDAIQgAAEIFCLFD9+/FgaVzaHia0Vz1Oynudjrp0/t9HHbePcYWnNHJblTYfpZS3FRe3z3PX1s5K2zY21flLNS89JH+uxCsfNz5v3fc8rz999jxSz4EIAAhCAAAQml0AtUvzo0SNpXNk4rzPFJ9eC937FCOiVPB97bTBTfFiWN/JM1+RksL0VcC28drxbiWA7dfPnZdmZk56fHku3LRo3Pw/el411pHhyF0JmBgEIQAACEKhFih8+fChNKmsnHNEsJaqz0jpx6R0ZXdJSPL8inwR463ktyppb/8mKzM3MytzZm8n4g+d+WM5+0qxnWWfcIsUsuBCAAAQgAIHJJVCLFD948ECaWFLBnFuRmy6Di4vZHuATF302bt0QoT5x0eV6UU4Maa/3BS/KmjsXK8VnbvjzePBA9PyVCLvjcFxVLNchxd9//728efNGfv/731NgQAwQA8QAMUAMvEMM1CLF9+/fl6aVG2fU3t+yGePDcuamYdRdSK6bO3PdMDOyO7csNwxH2/eJrsu1v10p5jeXdaY4Ge+6nJkbNGdnng18pqV47oNLHVL87bffihLj3/zmNxQYEAPEADFADBAD7xADtUjxvXv3pFlFyeWCXMzfdyK86vx1OXO6mzC5eHxWWsf1ccLISvHp60n99dOHUrmey5073nW5duV4SQm3/STj3TBSrPq+cV2uO3NO5jZzSM7ccMfhuKpYrkOKv/76a/nmm2/kb/7mbygwIAaIAWKAGCAG3iEGapHiu3fvSqPKqs72tubOSfd9LbXHV10Gq30C69fflbu2j4Do9rW/a/qcOyfXQrxNnwfev5Y9j+vn5EA6xoJ0nWu7x1TW+JCcvu7OneOqYrkOKa5qbvRDnBMDxAAxQAw0PQZqkeI7d+5Ik0oqk9fuyJ2fnEwzvf52ikNyWtXfWZVjM4fkwPuroq/Lti8ceP9qMbe0T9uH7Se71h/LP2/7zcY7Kd07d+SqEfhB17YOnJOrDXuedcVuHVL8ux/eCAUGxAAxQAwQA8TAu8cAUozwFYs4XCrnUocUf/+bvxcKDIgBYoAYIAaIgXePgVqk+Pbt20KBATHgx0AdUrzz8qVQYEAMEAPEADFADLx7DNQixV999ZVQYEAM+DFQhxRP7rc9MjMIQAACEIBAXARqkeIvv/xSKDAgBvwYQIrjWhyZLQQgAAEINItALVL8xRdfCAUGxIAfA0hxsxZX7hYCEIAABOIiUIsUf/7550KBATHgxwBSHNfiyGwhAAEIQKBZBGqR4s8++0woMCAG/BhAipu1uHK3EIAABCAQF4FapPjTTz8VCgyIAT8GkOK4FkdmCwEIQAACzSKAFCPw/AIzohhAipu1uHK3EIAABCAQF4FapHh7e1soMCAG/BhAiuNaHJktBCAAAQg0i0AtUry1tSUUGBADfgwgxc1aXLlbCEAAAhCIiwBSjMDzC8yIYgApjmtxZLYQgAAEINAsApVL8S8+viFr6z+jwIAYyMWA+mx8+/2boeXjW7fldz+8KVWatVxxtxCAAAQgAIH6CFQuxWV+6NNmuBjBqLmMkOL6Fjx6hgAEIAABCIQIIMUlMncIanMFdRzPHikOLVechwAEIAABCNRHAClGiof+3/njEMMmj4kU17fg0TMEIAABCEAgRAApRoqR4gmLAaQ4tFxxHgIQgAAEIFAfAaR4woSoyRlS7l1vU0GK61vw6BkCEIAABCAQIlC5FL94uRcai/MQaDQB9dkoI/5IcaPDhJuHAAQgAIExEahcitV3sX7zzTcUGBADuRjge4rHtMoxLAQgAAEIQKAEgVqk+OuvvxYKDIgBPwaQ4hIrEk0gAAEIQAACYyKAFCPw/AIzohhAise0yjEsBCAAAQhAoASBWqT49evXQoEBMeDHAFJcYkWiCQQgAAEIQGBMBGqR4levXgkFBsSAHwNI8ZhWOYaFAAQgAAEIlCCAFCPw/AIzohhAikusSDSBAAQgAAEIjIlALVK8t7cnFBgQA34MIMVjWuUYFgIQgAAEIFCCQC1SvLu7KxQYEAN+DCDFJVYkmkAAAhCAAATGRKAWKX758qVQYEAM+DGAFI9plWNYCEAAAhCAQAkCtUjxzs6OUGBADPgxgBSXWJFoAgEIQAACEBgTgVqk+MWLF0KBATHgxwBSPKZVjmEhAAEIQAACJQjUIsXPnz8XCgyIAT8GkOISKxJNIAABCEAAAmMiUIsUP3v2TCg9OX9wVloz78lHg3isvyetmVk5uNJLmX20oK47IufXL8hB9bpdwDO5zul7W7VV1+XKwQuylY6/Lov5+oHvnf7TPgrmQl367AbFPVI8plWOYSEAAQhAAAIlCCDFtQndW0qxlduFdXlmj/vE2pVbI65GrlvquuSeTJsiKTbntlaOaPlW0m3G0nJecu61sZtO8UaKS6xINIEABCAAAQiMiUAtUvz06VNpVnElNZepLczEnpIPnz6VD5OMcNZ+fmWz71w+86vaWLbq+sX1TeltZX1l9ZkU99Ln4Z/rGSle2XoqT7cuyPzMrOjrN2UlyXLredrxeH23uEaKx7TKMSwEIAABCECgBIFapPjJkyfSrHJFFhL5PSXr6b2bc/MfyGZ6bkNW5pUEO+2unEq2PMwvb8gTc5zVm/ZeH/1sN5dVxjfX75Mnsu5Id9L/EzvPTMTz0u2/d+aZ3kP/+M161m9//0hxiRWJJhCAAAQgAIExEahFih8/fizNKpczKbb3vvlBknltzX8gG/bc4w1ZtlJsz102UnzusqkbLKwLl20fut3CZcVan9PH+2RfOM999mHvhdeBcY8Uj2mVY1gIQAACEIBACQK1SPGjR4+kWWVNTppM7RV772tadlszh2V5w/K4lUqxbmevm5X5c+flylq+3ryfPy+3bL/m9da5w0l2+OTaI3m0cV4LeOFWjVlpmevtNX42eLCEz5+71bBnaZ9V9a9IcYkViSYQgAAEIACBMRGoRYofPnwozSqXjBQvylpy7zflbJIRzoRz7uxNefjQnlft1PGirF1aTL8x4uQlt14xNO/nV+STHNNPzhopvqRZ6/d2fH1u7YQeX49tnokd78Sl4DOy1500fTfrWRpOOd5VMJg6Ke51kthtr+6ky9d2R8XcUen2utJWr3tpVd/B7urR5PqlnlNV0KdTmzvclKXkF8GObOdqvLdJn06bPTW37LOZ/pLY7spueqHtu6Bd0bUzTv9pH4MPNKtZcfm5V1g+oXrdtn+eLk89RmBuQdY70m3PSsvjYWZmrkmZFbLwman52HtpdTbdW+QYAhCAwEQRqEWKHzx4IM0qF+VE8sNhUdbUvV80onviojx4YOtmpTW3KCfm1A8M085pO3fmhjx4cEPOJvX+DxX3B9CJi5rtzTNaivX77DrdzwN58MmKzLlzss/Ezq3EDzM7VrOeZX2xO/VSbGVTiY89zsmiFUE3pocee/2FPxt+P1bIXWk0cmjFLhU008aTQP+cljrTp7k3LatGIHP3OWyVt5LoCmz+GtumlBSrezH35fUZFF9J2yf9WyaD1gVnjDJya5+1nY+9H/s+f7+8hwAEIDBuArVI8f3796VZxYrvgly6uaxldG5ZbqQcrsuZucNy5qZ6VT/UF+SSresuJNmyuTPX5f79fL157/Wl2d6wUtzNWGfnbD+zovvN2tw347WOXww+o0vHtXiccPpu1vN0eNnnVMHrNEmxFR4rokqs8udsnX3Ny12hJA2SuL7V0gpvIBPqtFdzW+rtyO6epPPM5uMLsL7MP6fnWpEU218YXAm35wZJaVpnhV/N1MzTEdaljs7gW+59r/aXgSDr8pni/Qnu2/0C4TxGDiEAAQjUSqAWKb537540q3TlePoDS0vvxUIGVlYXJK23Unz6uty7l6/PpPh6rr/rpw8lMn389LLMzS1LUm+F187FnnevzbexbQtej3eb9hzrvd9pkuJkVXKlKs00WkEdIFZ2SUtF0F5jK4pfh0m3K3+Z8Pp9WRFv5TK7bt/6WivcZTPT5e5BzcaO5QmlZeGIsp1rdi9WKguk2Pn82n6T65P+zHVWhp05pMw6Xb1lwuknrUvO+fdn78Fvk2flzlM/h/578p8P7yAAAQiMk0AtUnz37l1pVlk1Urwg3YH3XtBuVWeKD7x/Te7evSanh2yfaB1bTdhee19LsfqhdHz1rnSPOT+Q5g7JAfPDTdV5z8KMZ/vx6szcbV991w68t9w4tPW5370r0yvFm0OESsemkrVyMuXEsopjR+b8xdKKqy9sWRsrkdn4IvqcFcesbYmjAnEtcVWuiZ1Tbs4FffcLpL3Wlc2CTHFPn2t3Osne6Xbb7N02GeT03t1fagyX/C8Llpd/3s4jdw+5Oy18a+8z+EwLr+IkBCAAgZEQqEWK79y5I80qq3IskdCT0i24dyuZNqty7Ceaz9VUbA/J6Wvq3FU5fUD9AC/ux2Wa9HngnFy9Y8eelQPvX81xz+pax35s+s4Jh5FnO7e+12SMpj3Peu53uqTYCqn6Q7GubPfyomTeO5lPd0VL5bikHKXth8WrW2/6tnKZyKCVMrede2zma6/p+zy4bXPHWUbXvdP8seGW5zJsXt5YJaXY3dKixjMSPFiKQ+uDK8D22bvn8vcZeh+4/1BzzkMAAhAYIQGkuEBiXfnkuB5BbCLX6ZFiJbwd2U63TOj9usk3FqTbEkJSbIVKyZeWqsHCWyReWR86C+pKohrXfZ9984GVQS28fr92Dp7Y2vsbIO72Otv30LXbym9Iip3zVsyzORmm3rd6GBZqjqn06nPJdeace5zO1a3bT6bY3oMn6mVkWtGxz87nP5QbDSAAAQiMgEAtUnz79m2hwIAY8GNgeqTYrEyFUhWSIyXO+e0TxWJkZbDwK8FSebNfZeZIoVPnXmv70zJoxdJeL8FvyrCSWSZbnIrm0EXbzNeR3+QSK5rOeTvvUlLsCOqS3T6x2jVfWaeeyVHpruo/wEvnuq/nV/yswrcbuE8rxc59hvugBgIQgMBoCdQixV999ZVQYEAM+DHQDCm28hTIFPc6ybdApFllI2YDxTPN1GZCq9qnstjXh52DXkytXKYyKG72OOsz7c+uwbbfdHxbkb3uO1Ocirs/x+wr7MK/VGSMnEy4kWk/E2yzsbovK8n2+pSDvT8l1O2OLKnvJk4z/fYeLZ/cfG116LVA8pOmofOhfjgPAQhAYIQEapHiL7/8UigwIAb8GECK7coWFi0rsH2CamXKyXjqNr4AFv1Rnu1zabUrbZuhdIUwkUL3H+4w88y3cbKxVjDtayqa9hYHvBaKtL0/Oz9H3PtY2Hmptua6IilWe72XXKE316VzdfrpJv/oyhAhb3fl52XaKbEuuJ8EiRmz754G8KIKAhCAwKgI1CLFX3zxhVBgQAz4MdAMKR4gVqmgDZfiVNzMSpiIpLneSq4VUvXqSmE+2+m2V/1aKU2ubx9N/3W7/Jjp9ol03v3Lsu2r79r+ptkZK4wD+lWN7bzzAumet8fJ+Ilwqixy7heFnMynDPLj23nZPcv599kdDD+ywu2NYZ+7k+ke3hMtIAABCIyMQC1S/PnnnwsFBsSAHwPTJMVWxpK9qsk/5WyFp8z/zZ5va99boR7cRzq2k1V1V0wrqjZrnLxP2maymBfN7A/A1FfA/bTUV8y5Uq4FuyDb7E7MObZzHCzT2Xz7xjLbHBIW7a6kmd4Ak2RoI6r9Y2b8NRf9j5zI3o7+Z68LBde5meSwYK75uZh++tnn++I9BCAAgfEQqEWKP/vsM6HAgBjwY2CapHg8y9U0jZqJaL+kTtN9mnuxYp0X5Sm8VW4JAhCIl0AtUvzpp58KBQbEgB8DSHG8CyUzhwAEIACB6SeAFCPw/AIzohhAiqd/QeUOIQABCEAgXgK1SPH29rZQYEAM+DGAFMe7UDJzCEAAAhCYfgK1SPHW1pZQYEAM+DGAFE//gsodQgACEIBAvASQYgSeX2BGFANIcbwLJTOHAAQgAIHpJ1C5FP/i4xuytv4zCgyIgVwMqM/Gt9+/GVo+vnVbfvfDm1Jl+pco7hACEIAABCAwGgKVS3GZH/q0GS5GMGouI6R4NIsfo0AAAhCAAARcAkhxicwdgtpcQR3Hs0eK3SWKYwhAAAIQgMBoCCDFSPHQ/zt/HGLY5DGR4tEsfowCAQhAAAIQcAkgxUgxUjxhMYAUu0sUxxCAAAQgAIHREECKJ0yImpwh5d71NhWkeDSLH6NAAAIQgAAEXAKVS/GLl3tu/xxDAAKGgPpslBF/pJiQgQAEIAABCIyeQOVSrL6L9ZtvvqHAgBjIxQDfUzz6BY4RIQABCEAAAmUJ1CLFX3/9tVBgQAz4MYAUl12WaAcBCEAAAhAYPQGkGIHnF5gRxQBSPPoFjhEhAAEIQAACZQnUIsWvX78WCgyIAT8GkOKyyxLtIAABCEAAAqMnUIsUv3r1SigwIAb8GECKR7/AMSIEIAABCECgLAGkGIHnF5gRxQBSXHZZoh0EIAABCEBg9ARqkeK9vT2hwIAY8GMAKR79AseIEIAABCAAgbIEapHi3d1docCAGPBjACkuuyzRDgIQgAAEIDB6ArVI8cuXL4UCA2LAjwGkePQLHCNCAAIQgAAEyhKoRYp3dnaEAgNiwI8BpLjsskQ7CEAAAhCAwOgJ1CLFL168EAoMiAE/BpDi0S9wjAgBCEAAAhAoS6AWKX7+/LlQYEAM+DGAFJddlmgHAQhAAAIQGD2BWqT42bNn0ryyLoszs9IaWo7I+W3LpyfnD5a5xrZ5Tz6ybNffk9aM896e374gB9UcDl6QLXvOef1oYVZaC+vJ89laOTJ8vqbts/x4dpz8/XrjlmVScH/OnKcllpDi0S9wjAgBCEAAAhAoSwAprky+rAAWiGoyhhVgV4qtHDuvqWwOamf70jK5uF5wvSenpj7te1YOrvT6fnGxkuz1l8zd3psaz9xfIsmZYD97Ztp44/rndP/mvsxc9Dzs/YTYOfdX2fMafZ9IcdlliXYQgAAEIACB0ROoRYqfPn0qzStWHE/Jh4X3vykrSVb4iKxsDeCzdUHmk+zrkHZPn0pPZXoX1qW3tZnxttcfvCC9onkk9adkxb3GtEv6m5mVxfXi+X24oOo2pbf1VNSxyorPr9ixMwHOxvXP6f7NfZl56ustmxC74vnEFmNI8egXOEaEAAQgAAEIlCVQixQ/efJEmleuyEJ+K0Hh+yOy0hvAp/dBJsWD2oUY2+vnP5DNUJvA+c1lvZ1i4cqA+T15IrZda+aUrDt9rRtRTmR5eUOePCnLxG6f8PubthhCissuS7SDAAQgAAEIjJ5ALVL8+PFjobwlg00rxYdlebO4j/WTViJnZf7chs/68imzT/iUrHvPYUOW5+11tm97TrfdOHc4uXbhsjuubaOv1XX6nN/OvWbAsb2/+Q9kw5vfgGumpB1SPPoFjhEhAAEIQAACZQnUIsWPHj2SppVbRiiH/6HdrLROroX5bJw3meLDsrwxgOOalt/5c7f8vsz51kzx9VcSobZ1t4won5Irjx5J0T2cXNNzsHXJ+3SOVrJzr/Pn5Vagv2F8+u5nimIJKS67LNEOAhCAAAQgMHoCtUjxw4cPpWnlk7M6y3ry0oB7/2RF5tSWihOXwnxsm5nDcvaTAX1dWkyyunNnb3p92Xko+czXqWeydkIJrO37ppxNsseLsvbwodhri+4hX6ff6+vss9Z958Y18xx0z/a6onFt39PwihQPX+B2V49Ke3XHNNyRbjv3C1eyJemodPdsX6pNR7btWxFRfbQ6m8mZ7c6s05/TKHDoXhtoYk5vytKMOw+3tarz5+TWusf+/bo1+eOC8fa60g7OIX+9z6W/ljMQgAAEIFCLFD948ECaVm6e0VJ84qK99xtyds4KqDlnhffExTAf2yYRV9tXwetFI8VnbogaW4+bjTmnxp5bkZu5Z6EFVEmx6tO2X5S1Bw+SfpRMZ/eQjevfn71uVubO3ND3ks5b95U+fzPPYRni0LhpP7n7iPE8UjxswdUSvNQb1K5AOHsdabW7sptc5vexXyke2l6NVfi3AkXyrs8Nup/SUpzcY0eWCn9JyI2dslCscnWF70NyP+g5UAcBCEBg+gjUIsX379+XppUbVoq75t5vLuus8MyCXLI87LnjF8N8bJuZw3Lm5gCO3QXnh/NhOdG9LvfNubkz10XPp7+PS8fVD0l7/rqcScRdz7HvHuy87983/c3KCXt/3jnbj5Lk6/692XkOuGc9J7/vaYwfpHjIAqoyn0ro7GtR80CdktlEPpPs6SARHJTB1UKdZaqLJmDPFWRubZX0i3uSgS4U0vBcs3kMGisdtOCgzHVl2hR0zSkIQAACU0igFim+d++eNK1cP30okdTjXXXvXTne9wPwkJzpGlE+3g3zuWFl+pCcuTGAo5XNGdvOjDv5TlwAACAASURBVDm3LNcT/kZU0/e6r4uJFB+SM6cXZO50N5Xii/fuiX8P/thp3ellmbN9pnMwP9jteff559v0ccmkQLPzx52mOEKKB6+giTg6UtztZLFRmJ01WyTcXvOZ3vx7t23/sRLE2XTrRX+9e8a0DcbzIPk2/ThZ50HZZHUPrXQ7xn7GHdbW8iVT7D5ZjiEAgeYSqEWK7969K80sq44MH5LT1w2HVTer65wv4nT9nBxIftAObnftfSPhq2oMO27uGtvX3Dm5ZsbqHrM/CBfk9PVVOW0yxd27d8Xv03+Gtk7JyfHVu5L1o7ZpHDJz1nXes7f3fmw1GBO2L9Wvd20Rn4jPIcWDFlojcI4UJ9shvK0R/ddrYXSl0W+zLylOs8wlhDbJBodkUt3LkD5Mxns72UO92bcvOr2L5P6PSntYf+kF7oGaR2iOtl2ZNrYtrxCAAASmm0AtUnznzh1pUrlqBDXJZh04J1cH3L8VwAPvX/XFMphxshJrXo+tJmxVP6oPxVn3eUhOXyvgfs1IdnLdVTl9wF6njwszcO5czP0kYyTHq3LM1Nvxs2ed1bWO/TgZa2j/7ljqeAi/bKyCex3AfRKuQ4rDi2kir+2jem9wukVCb2cojiFXOo2EplKb+8zkY6wgw6xmlgh2ZzN5HZS51Xehxhw0jju/3H0n89T16Z5i55zberujpNbcn6oYeo/uuMPmaOc/TJzdGXEMAQhAYHoJIMUTLlKTIHPMoRoBR4pDC+mOdDtd2bVZYSV+7a6oLKr9FolEBtM/IMv340ijqVKCa8W2XLZY9WHk0Iyv/3AvP5Z977S3p9LX/vmkVcmWiUxCUylWDRLhzerSawr2KGd1g44GzdFeV6aNbcsrBCAAgekmUIsU3759WygwIAb8GECKhyymOSn2pHSgqOYlNPwNFMm+5YJMsc0S2xmGRDppNzBDbLOvzqvz9XDZ3mA9kifF6lQixvmvkXPvTx07feePvV8chrRNry0ScUuCVwhAAALNIVCLFH/11VdCgQEx4McAUjxkYc1J8dA/tEsF0JVGs+UirdPbIuw3ORTKbpK9dbcdqHmqPgfLohJam4125dY9tnecyHQyp0FbQuwf+Zk2qby79+ce297Nq+WXnh5+D2XuM+2OAwhAAAJTTqAWKf7yyy+FAgNiwI8BpHjIamqlriArrDO0AUlNpVZJoBVLZ6yk3mZXc32YOiu3zlUiSV2uvWpgsrnFe53tOOo1L9pe78mbIoHub+WKsHuca6nmm/4yoFmo+8rGMHxmsq0lqgdVn12X65O3EIAABBpEoBYp/uKLL4QCA2LAjwGkeMjK6kmdbWtELsma6gyqzfomLRJx7ci2fbWXlXhNZHBINliLcbadIcv4+gNk4umed+funs+Oi6/L6vWR6scKdia2hVLuZqNNpjk4RiL3pt9C9vl58B4CEIDAdBOoRYo///xzocCAGPBjACkespi6YpZIbnG2VcvsbJLd/Hny7Qym37IZXPMNE+Wzo67cDtn+kO7TtRljK7PF9x4UVq95XooDfbr83OsHcPF+wXCv4RgCEIBAAwnUIsWfffaZUGBADPgxgBQ3cIXlliEAAQhAIBoCtUjxp59+KhQYEAN+DCDF0ayLTBQCEIAABBpIAClG4PkFZkQxgBQ3cIXlliEAAQhAIBoCtUjx9va2UGBADPgxgBRHsy4yUQhAAAIQaCCBWqR4a2tLKDAgBvwYQIobuMJyyxCAAAQgEA0BpBiB5xeYEcUAUhzNushEIQABCECggQQql+JffHxD1tZ/RoEBMZCLAfXZ+Pb7N0PLx7duy+9+eFOqNHDN4pYhAAEIQAACtRCoXIrL/NCnzXAxglFzGSHFtax1dAoBCEAAAhAYSAApLpG5Q1CbK6jjePZI8cA1i0oIQAACEIBALQSQYqR46P+dPw4xbPKYSHEtax2dQgACEIAABAYSQIqRYqR4wmIAKR64ZlEJAQhAAAIQqIUAUjxhQtTkDCn3rrepIMW1rHV0CgEIQAACEBhIoHIpfvFyb+CAVEKgqQTUZ6OM+CPFTY0Q7hsCEIAABMZJoHIpVt/F+s0331BgQAzkYoDvKR7nUsfYEIAABCAAgcEEapHir7/+WigwIAb8GECKBy9G1EIAAhCAAATGSQApRuD5BWZEMYAUj3OpY2wIQAACEIDAYAK1SPHr16+FAgNiwI8BpDi8GG1ubgoFBsQAMUAMEAPjjIFapPjVq1dCgQEx4McAUjxYisO11EAAAhCAAATqJ4AUI/D8AjOiGECKwwuaygzwHwQgAAEIQGCcBGqR4r29PaHAgBjwYwApDi91SHGYDTUQgAAEIDAaArVI8e7urlBgQAz4MYAUhxc1pDjMhhoIQAACEBgNgVqk+OXLl0KBATHgxwBSHF7UkOIwG2ogAAEIQGA0BGqR4p2dHaHAgBjwYwApDi9qSHGYDTUQgAAEIDAaArVI8YsXL4QCA2LAjwGkOLyoIcVhNtRAAAIQgMBoCNQixc+fPxcKDIgBPwaQ4vCihhSH2VADAQhAAAKjIVCLFD979kyaWj5amJXWzBE5v60ZbK0ckdbMrLQW1vuZbF+Qg6rOK+ZaW1d03bNnovt9Tz4qYJ2fg/cs1t+T1oxznR3Hm8OstA5ekK2073VZzNcPfO/0n/bR3Jiw/JHi8KKGFIfZUAMBCEAAAqMhgBRXIG2p+CpRdGTSO5+TyMX1IZJoZTUgxVp8Z+XgSi+RbVeSXSnWx1ZSXbk15xJJdqXdtHHu49kz/5wey5d3PY+enD+oJN+ON+QeK2BvhTOGV6Q4vKiNXYp7HWmv7vRPcK8r7c6g71DelKWZo9Ld67+UMxCAAAQgEBeBWqT46dOn0ryyKStKCA9ekN7Tp/JhkjGelcV1h8XWBZk34qzahBjZa/0Mss5Ar2yZ62xfC+tJP70kI31KPkzHPiKqre5Ln7fjqXOL65vSS+tnZX5l08wnE+Bsjv45PZbu/6mZh77eMJjxx7PjNv0VKQ4vjuOW4t3Vo7LUc+ZnJXmgFCshzv8/Pdn7Qsl2huAQAhCAAAQmi0AtUvzkyRNpXtmQlflZac1/IJtPrsjK/BGZX96Q9USOT8n6lVN6m0RSX4JP74NEoFUfiqXu54is9Oxx9sNXjbm+bLZpFP6QPiXrBc9kM73Gr9dj6f71+FdkobBfZw5evd9f82Kh+PkixeHFb3xS3C+2So63O8WxbUVXSbT6pdUTaXt7SqTbXdm173mFAAQgAIEoCNQixY8fP5YmlfWT/T9AFy4rBpdl/aSR4ZlZmT+34XEpuk79oE3aXdbX2Wt028OyvPm2bDdkWUm7kVc9P31OH++z300t7UrINxr2vN82tpHi8Jo4PilWc9qRbkdLrM4Yb8qSldqCTHEixKZ+u5PbOtHrSMteG75daiAAAQhAYAIJ1CLFjx49ksaVtUx+WyfX5EqBKLfmz8utPJuN83pLRb7O9Dd/7lbCUvd3WJY3Hpm+T8mVR2tyUknuyVP61cvWZgKsRVv3c+vc4USMT649kkd27NB1Zk72GivUZV7tvBsXB/nn67xHisMr4Fil2BFfJblLnaPZ/mKnrnj2OtOcZpcH7j8u7oGzEIAABCAwGQRqkeKHDx9Ks8pNOetkYZU0zp29aRhcKhbWE5d0/aXFRFKz9prdJ2e1vNrzayeU5B6Ws588lIfJNepY923baOZmPNt/7lnYfk9ecsdZlDWnnR7LvQc75qy0Av2qse11tu9mxcDwmEeKw4veWKXY7h9WGeN2R7bdaQ6VYpGBWyncvjiGAAQgAIGJJlCLFD948ECaVG6eOSytuUU5MTcrrbkVOXtmRW4+eJBK4omLGY+k7cys2HNWJE+cWZE5lbGdK75Wt1uUNcX2E91WX6Pk+KKcCGV7zXk7nj/+DTmr5qwk/swN/cxM360ZM5Z9lhe1vJfJEtuxmhQDZe4VKQ6vheOUYrV/ONkrrAQ42fqwGfwDOrunWN1JaN+x/Yy4bcN3Tg0EIAABCEwKgVqk+P79+9Kkcum4ksqLciaR4mW5cXNZC+7xiz6H7oIR0OvmvJXZBbl0/76ofrSgmr5mDsuZm5qlrtPt7t/X183NqWyyOmf6OX5RbiSCviyX1KuqM2Oe6Op+knol5ea9ek7Zuev6HhJJtnM0z9L008rfk/Os7fzdvpsUB8PuFSkOL3vjlGI1q2C2tyBTbGW43Xa2WeRvLc0+5yt4DwEIQAACk0qgFim+d++eNKp0u3LxnhHKuWW57tz/RSO6Nns0d/p6xiYVza4+Z9/brO9xc972PbMgF52+r58+lEh06/iCHFfXHO9Kcm5uWS4mdQty0fR5vKufib3m+OllmbNzzY9rzztj3cu3sXMseLVjNSoGXFaBY6Q4vAyOW4pFyW8Sy+W3TyiRDmaDkeLww6YGAhCAwIQSqEWK7969K80r1+R0kik+J9ec+7/2vhHXmQXpOucVn+4x/4/hrDjb1+OrlqPp2/ThXnfg/Wty9+6qluJjq5KMN3dOusm4C9Jd1dlp21c2n1lR59y+WnOH5ICRXNs+fY6mn9ax1eCztX31XZu777TPhp1HisOr4HilWG2XMN8iob49wv1juYJMsb0Lm122n9f8a1CYbQe8QgACEIDARBGoRYrv3LkjzStX5fSBWWkdOCdXf3JSZ3CVYB5b3R8Le21y3aocczKxB96/GujLtMuPde2ckdxDcvqafiaJuKo53sn67u83q2sd+7G+L2ce+R/+he+TMZoYB+F7RorDa9/4pFj9cZ3/tWoDZdcRZjLF4edJDQQgAIEYCSDFjRT4sLg175eZ0bFAisNL5PikODwnaiAAAQhAoFkEapHi27dvCwUGxIAfA0hxeHFFisNsqIEABCAAgdEQqEWKv/rqK6HAgBjwYwApDi9qSHGYDTUQgAAEIDAaArVI8ZdffikUGBADfgwgxeFFDSkOs6EGAhCAAARGQ6AWKf7iiy+EAgNiwI8BpDi8qCHFYTbUQAACEIDAaAjUIsWff/65UGBADPgxgBSHFzWkOMyGGghAAAIQGA2BWqT4s88+EwoMiAE/BpDi8KKGFIfZUAMBCEAAAqMhUIsUf/rpp0KBATHgxwBSHF7UkOIwG2ogAAEIQGA0BJBiBJ5fYEYUA0hxeFFDisNsqIEABCAAgdEQqEWKt7e3hQIDYsCPAaQ4vKghxWE21EAAAhCAwGgI1CLFW1tbQoEBMeDHAFIcXtSUFFNgQAwQA8QAMTDOGECKEXh+gRlRDCDFg6U4XEsNBCAAAQhAoH4ClUvxLz6+IWvrP6PAgBjIxYD6bHz7/Zuh5eNbt+V3P7wpVepfIkYzgsoM8B8EIAABCEBgnAQql+IyP/RpM1yMYNRcRkjxOJdExoYABCAAgaYSQIpLZO4Q1OYK6jiePVLc1OWY+4YABCAAgXESQIqR4qH/d/44xLDJYyLF41wSGRsCEIAABJpKAClGipHiCYsBpLipyzH3DQEIQAAC4ySAFE+YEDU5Q8q9620qSPE4l0TGhgAEIACBphKoXIp/9P9+KhQYEAPFMVBG/JHipi7H3DcEIAABCIyTAFKMxPNLzAhjACkuXu4m4yvZdqTb7sh28RRzZzdlaeaodPfc0+r6/Dm3nmMIQAACEJhkArVI8f/+77eFAgNiwI8BlT1HiouXw0mV4t3Vo9KamU3LUk/PP3++NXNUljp+2+S6Dt+/XPzEOQsBCEBg8gjUIsWz/35bKDAgBvwYQIrDC+BYpXivK21HfK0EKwFW8qtF2Mkiq/btruzaV3VbzrEW5rIZ5zATaiAAAQhAYLQE6pHi/2dLZikwIAa8GECKw4vb2KVYSa5k4mtl2L5Kr2PkWGS7o7dIJK89LcjdTpZNtlLdmkGMw0+cGghAAAKTR6AWKf7f/l1PKDAgBvwYQIrDC+BkS/GmLCXSrOevM8GOBHc2Zbszm0qzbpUJdviuqYEABCAAgUkiUIsU/6//ricUGBADfgwgxeGlb+xSPGz7hLM9Qt+F/4d2SoqzDLE9JlMcfuLUQAACEJg8ArVI8f/yf28KBQbEgB8DSHF4ARy7FA/bPqGm3utIe3UnuQlXgtWeYzLF4WdLDQQgAIFYCNQixf/zv90QCgyIAT8GkOLwshiVFPc60mp3pav2FrOnOPxQqYEABCAQGYFapPh/+vGGUGBADPgxgBSHV8eJluJV++0U9g/s9LYI+wd36q7IFIefLTUQgAAEYiFQixT/jxduCQUGxIAfA0hxeFkcuxQP21NcMPW8FLOnuAASpyAAAQhERKAWKf4fPvhEKDAgBvwYQIrDK+PYpdj5dgk1S/tVbPa1aOZ5Kbb/sIduy7dPFDHjHAQgAIFJJlCLFP/3528KBQbEgB8DSHF4KRyrFIenRQ0EIAABCDSIQC1S/N+t3JDGlQffJ2Hz3e6T9N5//rfq1A/y5YO/k+/U660wlwu7PyTXv3jgtCnoM+Wa1H0vP7esb6kxCv777d/JBdtm5ZW8KGgSPuX0n/bhzI9z6bNOn8sAJkhxONKQ4jAbaiAAAQhAYDQEapHiP165Lo0rjsAm937rb7Wk/u0r+WN7LN/Lzxw2P0ukeZ8PWvXnya3p04wvSb3ibwT4t38rH6Rj+uc+SET8B/ni1vV0jkrq/3jliXzxWzUvf76Ne6Ypt2riGSkOxzpSHGZDDQQgAAEIjIZALVL8z5evSZNKXm6/230s+XP5x6nauIy0oIq8uO+wu2+zz35be50a48X9x/LBrWvpeFm/ezorrKQ4fR7+uUyKr8k/N+Kur3+cSXF6rTMvznnPzj6PYa9Icf5TkL1HijMWHEEAAhCAwHgI1CLF/+zcVWlcsQL78rH8M3OcZFoTFkYyf/u3cj7E5hOTWVbZ2VCbwPnzL/XWi2w8zd8V8+/UvM4ZKS4da/ufS+Oee+CZFHFAisOBhxSH2VADAQhAAAKjIVCLFP/Tsx9L48r9XydP7LuXe/J5svVg8AN8fv9j+cu32j7xrde/6uefnn2UnNPH+2R/81d6m8dvfyXnm/jcRnjPSHH4M4EUh9lQAwEIQAACoyFQixT/kzP/UZpVduW5eV7fvfyV/OU9Lakiv5a/TFiY97/9lawUsPnLX5mLf7VbmtuKyQ4/v/cf5Z9YsQ3FjBnXXhNqVnT+u5ePSs+pWc98/zGOFBdFmD6HFIfZUAMBCEAAAqMhUIsU/7fv/5U0p/y1fP7bX8tP7+lMsXpsz++pc+ro1/LThIV5/9tfybLHJpNp2/anVpALn7/t769keUdvmXh+T7PW77N6xd/29d3OX2fPw87zV7vZOW9O2XW27+Y8y3rjFikuDOrkJFIcZkMNBCAAAQiMhkAtUvxH/+avpHHlrtk+sfPX8kf/5q/lsyFbKJ7fzeRTP+pfy08LuJ0z8iu//ZWcc+rtedWPO54S4IT9dbMtQom5c90fmXmWCS/ddwOfpcurwmOkOBx1SHGYDTUQgAAEIDAaArVI8R/+6/9PGldSKX4of/ivHxop/rV8lLAw75XYumzu/lqe33XalhHWX+0mbDMpzlhn52yfIt/tqPlkbf7QjmH68epMu49Mtvr5Xec6tw+OfaYleSDF4UUNKQ6zoQYCEIAABEZDoBYp/sf/6hfSuHLHZIpfPJR//K8eymd/rx7gr+WjhIV5//e/lLN9bPJtM3ZnX+gtEt8lfWbnFVtb9+zFL+U726+ZQxo69rw7Zr5N2rj/4Nkdf8zGPVOXWwXHSHF/jNkzSoopMCAGiAFigBgYZwzUIsX/6C9+Lo0rqRQ/kH/0Fw+MFNsf+QWvv3ppGNm2v5aPctxS8b3Tz9PWqZ6f3fm52OxuMtLf/5D+63aqznsWVorT8XP1f5H11Xdtbn5ev9T5nAt4IMUFnwNzSi2C/AcBCEAAAhAYJ4FapPi/+fOfSZPKGZPRVf+k86dX1b0/kE+TTPF38uFQFvm29r0Ni+I+PvyliPz9L+XMn+/IM9P0uxcPctyzOvnl35k52X5LviZjNOt51hW7SHE45pDiMBtqIAABCEBgNARqkeL/+s//UigwIAb8GECKw4saUhxmQw0EIAABCIyGQC1S/F8t/VQoMCAG/BhAisOLGlIcZkMNBCAAAQiMhkAtUjzT+UgoMCAG/BhAisOLGlIcZkMNBCAAAQiMhkAtUtz6sw+FAgNiwI8BpDi8qCHFYTbUQAACEIDAaAjUIsX/5f+1LhQYEAN+DCDF4UUNKQ6zoQYCEIAABEZDoBYp/i/+z3WhwIAY8GMAKQ4vakhxmA01EIAABCAwGgK1SPF//qdXhAIDYsCPAaQ4vKhNqhTvrh6V1sysLh33u5R3pNvuyLa5Ja+dau+1VY02Zcn2U/h6VLp7YT7UQAACEIBA/QRqkeL/7F9eFgoMiAE/BpDi8II2XikOC2t7dScw6X4pXuqZpntdaRdJcbsru4W9qb6Q4kI0nIQABCAwQgK1SPE//JeXhQIDYsCPAaQ4vLKNV4r756UyvyEh3u6YzLHN+HY2RbUfKsW2feErUtz/FDgDAQhAYLQE6pHi/2NN/iEFBsSAFwNIcXhxi0mKk7tQ2eAZf/vEUCkmUxwOAGogAAEITACBWqT4P/0Xl4QCA2LAjwGkOLzijVeKw9sn0v3EKrvrSG22h1iL8fBMcfjeqYEABCAAgckgUIsU/yf/4pJQYEAM+DGAFIcXvfFKcf+8Bm2fENmRbqcjS+oP7cz+4bAUq/3Cue0WhdsnbJss+9w/K85AAAIQgECdBGqRYvXDnwIDYqA/Br79/o0MKx/fui2/++FNqVLn4jDKvmOSYi3A/h/abXecPcGFf2gnIr1OcJ/yKFkzFgQgAAEIFBOoXIqH/cCnfrgUwajZjJDi4sWqnrP7zOS2u/LzVfUtEq4Uu8cikkqx2pZhM7/Dx0n3JNdzo/QKAQhAAAJDCCDFJTJ3SGqzJXXUzx8pHrJqjaB68PYJNQFHhJUEO/uNPSl2zw+Yt/pGC6R4ACCqIAABCIyAAFKMFA/9v/NHLYVNHw8pHsHKN2SI/Uhxn9DaTLF9HTKW/oc9nO0XQ9vTAAIQgAAE6iCAFCPFSPGExQBSXMdSV6ZP/1soBmduTaY4nyVOhsn6Kfyu414n+1fyzB/dFbYrM2XaQAACEIBAZQSQ4gkToqZnSbn/N4IUV7a+0REEIAABCECgNIHKpfjFy73Sg9MQAk0ioD4bZaQfKW5SVHCvEIAABCAwKQQql+Jbvc/lm2++ocCAGMjFgPpsIMXFS9+kfSVb8Sw5CwEIQAAC00ygFin++uuvhQIDYsCPAaQ4vJQixWE21EAAAhCAwGgIIMUIPL/AjCgGkOLwooYUh9lQAwEIQAACoyFQixS/fv1aKDAgBvwYQIrDixpSHGZDDQQgAAEIjIZALVL86tUrocCAGPBjACkOL2pIcZgNNRCAAAQgMBoCSDECzy8wI4oBpDi8qCHFYTbUQAACEIDAaAjUIsV7e3tCgQEx4McAUhxe1JDiMBtqIAABCEBgNARqkeLd3V2hwIAY8GMAKQ4vakhxmA01EIAABCAwGgK1SPHLly+FAgNiwI8BpDi8qCkppsCAGCAGiAFiYJwxUIsU7+zsCAUGxIAfA0hxWIqpgQAEIAABCIybQC1S/OLFC6HAgBjwYwApHvdyx/gQgAAEIACBMIFapPj58+dCgQEx4McAUhxeiKiBAAQgAAEIjJtALVL87NkzaWrZWjkirZlZWVw3DNbfS94fXOkVMFmXxZnZpF5d45f35KNnpn5hPXytrdu+IAf7+rB9qr6eybMBbdL5Js+uJ+cPqmvNdQ1+nlXGMVI87uWO8SEAAQhAAAJhAkhxJcKn5VWJpS/FVi6tnGavWpKN9B68IFt98ygS5iNyftv+wpETZiO8vnzb8X0p9toYac/mrsbIXdc3NzsHXvcjzUhxeCGiBgIQgAAEIDBuArVI8dOnT6VRZf2CzCeZ1Ux6F9efSk9ljQ9ekJ7DIzk3c0RWthSjIvHVfcyvbKb16ti97sOFbBybXV5cuSDzM7Pit92UlWRep+RDNYetrI3u45R8uH7KZLbNfJO55a5z5t+o51rxfSPF417uGB8CEIAABCAQJlCLFD958kSaWjaX9faJhQUtm/PLV2Rl/ois9BSTK7KgtjgsXDF8zPv5D2Tzimpv2xl+vQ+06C5viO7Xrc/15bRdT6RZtd2QlXkl0KdkXT2TvjanZD0Zd1YWrjxxxshd1+DnWWUcI8XhhYgaCEAAAhCAwLgJ1CLFjx8/lqaWjXOHk8zrwuUNWT75gayb9zajmwhqyueyluT5D2TjspLiw7K86bDbNFJ8bkN0v269ufbkZc3aabt+Uomwarshy1aK1Zh9bU7JejLurCxcfuyMkbsuna8zN87tO8aR4nEvd4wPAQhAAAIQCBOoRYofPXokjStrOjNs5ffkmsPA1s2fl1semzU5qTLHJ9fkVk6e58/dkkcb53Wm+NwtU39YljduGdH1t1DMnzyVtr2SSPEpufLItlXHj7z+0jZmbmq+eg7uGOY6b87OfXF+X3GOFIcXImogAAEIQAAC4yZQixQ/fPhQmlQ+OXtYWvMr8snDh5Icz8zKyUuKwSUtven7PBdTf+KSuW5R1j5ZkbmZWZk7e1MeXlpMss6qL93vYTn7ienDtGuduKRZp9ddkrNJdnhR1h7edI4fysO0zU1ZO6GkelHWCsfIXdew51lX7CLF417uGB8CEIAABCAQJlCLFD948EAoN+TsnBHPII+LckIJ8JkbcvOM2nbhSHF6blZOXHxg6pUUG7YXtTCrzLSqf2CF98xK0meSsZ5blBPuHNI2F/Xc5lbkpunHH6PM3HnG+41xpDi8EFEDAQhAAAIQGDeBWqT4/v370qRyIxFafzuD3UYRfD1+Ue7fXE6ywie69+XS8VlpzS3LDXNu7sx1fW7msJy5eV/0GPpYsfXHzM7f7y5k33es+it6FmaMZG5qHqZNNsZ1OZPI9IJc5K/N2gAAIABJREFUKrqecykzy67MK1I87uWO8SEAAQhAAAJhArVI8b1796TJ5frpQ1pM5w4l0tuaWZCLRUwSgT0kZ2505bjaW3y8K/duaFE+3jXnzLUXlTSn/WTSevGeOXaubc0ckjkltXPLcv2e6keNYZ+JvfaQHD9u56na3RM9b9XWtgnMu+heODc05pHi8EJEDQQgAAEIQGDcBGqR4rt370oTy7X3jWTOzMqB968ZBqtaeJN/bW5Bug6b7jElrufk2qrO7ibXmOPjx0zGV9XfvStJ2xlzvWnTOraacb5+Tg4kYxyS09evyelEis/JNXs+aZvN5fiqfkbpnM04+rmZ6+14zpyb+FyrumekeNzLHeNDAAIQgAAEwgRqkeI7d+5Ik4oWVpXJPSSnr4Xu/aqcPuBssTi2KlffPyQH3r8qd64poT0kB2z9gXNyWgmzkusDmWgf+4nuW493UrqW809O6sz0sdWUezYn3Y+6Vp/rn6M6n/SdzMOfY5OeY933ihSHFyJqIAABCEAAAuMmgBRbseQ1Feq65bCp/SPFw5e77c6stNpd2c01Tc53NnNnzdteJ9tHn/y/Jc4vdkXvVT97XWl7dR3ZVt2pvrzxN2Vp5qh09/JDq/OzstQrOm/6ylfxHgIQgAAEJppALVJ8+/ZtocCAGPBjACkeshYWyu1R6fbyAmuk10pyn8gOGUdVJ1LsiHDS145027PSXt1xOghIsTemvk4LsmqPFDsAOYQABCAQDYFapPirr74SCgyIAT8GkOJB66Ijn0o4rfBKJpy7q0dzwmr68wTVOZf2UTCuI8UqC50IrepHZYVXA5lnJ4OsrknlWfWV1iHFBbQ5BQEIQCAKArVI8ZdffikUGBADfgwgxeE1UYupEuAse5tIpyfIIkqM+7YsvIsUp0KrZFZloPNbJRxZt9O38my2VCRbO7ytGP72jb752n54hQAEIACBiSJQixR/8cUXQoEBMeDHAFJcZu2zEqozxMHv+Xa3KBgp3l49Onxvsc0em0xx12Sfdea3q/cPJ9s17BYIOx87dzsvI89JP65Iq/b2WnsNrxCAAAQgEAOBWqT4888/FwoMiAE/BpDiQUtitk1iUKukzght8odx6kRBplhllLMtGLpH75ztw74mTawAu3Ox59w+utJtaxHu39KBFGtS/C8EIACB+AjUIsWfffaZUGBADPgxgBQPWiBdEbXZWH8bQstmYD2RNVJsM8BmiH5Z1VsvvH3Apr9sf7AjwKloO+dEZLujssBqfm522L0vpNilwTEEIACBmAjUIsWffvqpUGBADPgxgBQPWhrzUpyXTkc2h0qx21c2pifKbh9KgBOpdgXYHtvXrB9xpHjYfuJk+0f6R3huHxxDAAIQgMCkEUCKEXh+gRlRDCDFg5Y/V2T1cf9+YrNX1xVayWWA1RBKcm1W2Rkyywj7X8mWbasoEuCic2p+eWm3A6n27Cm2NHiFAAQgEBOBWqR4e3tbKDAgBvwYQIoHLY15Kc5LpyObnhS716n+Vbuif1RDbX1wzid92O0ZdqwiAS46hxQPepLUQQACEIiVQC1SvLW1JRQYEAN+DCDFg5ZJV271calMcbr312aIne8P9obLybIn1rZhkQAXnUOKLTFeIQABCEwTAaQYgecXmBHFAFI8aOnMS7HN3mbXJNsc7PcBmz+sS7O/yZaJ3DVeNjj3z0cPkeKisbKZIMUZC44gAAEITA+ByqX4Fx/fkLX1n1FgQAzkYkB9Nr79/s3Q8vGt2/K7H96UKtOzFHEnEIAABCAAgfESqFyKy/zQp81wMYJRcxkhxeNdFBkdAhCAAASaSQApLpG5Q1CbK6jjePZIcTMXY+4aAhCAAATGSwApRoqH/t/54xDDJo+JFI93UWR0CEAAAhBoJgGkGClGiicsBpDiZi7G3DUEIAABCIyXAFI8YULU5Awp9663qSDF410UGR0CEIAABJpJoHIpfvFyr5kkuWsIDCGgPhtlxB8pHgKSaghAAAIQgEANBCqXYvVdrN988w0FBsRALgb4nuIaVjC6hAAEIAABCFREoBYp/vrrr4UCA2LAjwGkuKJVi24gAAEIQAACNRBAihF4foEZUQwgxTWsYHQJAQhAAAIQqIhALVL8+vVrocCAGPBjACmuaNWiGwhAAAIQgEANBGqR4levXgkFBsSAHwNIcQ0rGF1CAAIQgAAEKiKAFCPw/AIzohhAiitategGAhCAAAQgUAOBWqR4b29PKDAgBvwYQIprWMHoEgIQgAAEIFARgVqkeHd3VygwIAb8GECKK1q16AYCEIAABCBQA4FapPjly5dCgQEx4McAUlzDCkaXEIAABCAAgYoI1CLFOzs7QoEBMeDHAFIcXrU2NzeFAgNigBggBoiBccZALVL84sULocCAGPBjACkeLMXhWmogAAEIQAAC9ROoRYqfP38uFBgQA34MIMXhBU1lBvgPAhCAAAQgME4CtUjxs2fPhNKT8wdnpTXznnw0iMf6e9KamZWDK72U2UcL6rojcn79ghxUr9sFPLdVnWo3rPSPv7VyRPef9Lsui0kfpp3p150Pz7KA/6BnGqhDisNLHVIcZkMNBCAAAQiMhgBSHBCYdxfBt5RiK7sL6/LMHheJta1T7QL3oOU6k2Itw8Mk2q9HjqsRYvWMkOLwooYUh9lQAwEIQAACoyFQixQ/ffpUmlVsttUXynAW95R8+PSpfJhkhLNr5lc2+87l+1BtErZbF2R+aJZY9a3HUtf0TIZ4ZavE8zH9p+M17pmWYLRPJkhxeFFDisNsqIEABCAAgdEQqEWKnzx5Is0qV2QhEdRTsp7euzk3/4Fspuc2ZGVei2ra7sqpZAvE/PKGPDHHSmR1vWnv9WHY9j7QUrxwJch6PZFu29cT2VzW2yZWrphrg1J9RGybZF7p/Jv2XKu9X6Q4vKghxWE21EAAAhCAwGgI1CLFjx8/lmaVy5kU23vfNOI5/4Fs2HOPN2TZSrE9d9lI8bnLpi7LHOezxOr9wmXD1vYfFFvbzylZt2PZV3Pt/LmNvue0ce6wtGYOy/Jm055h/feLFIcXNaQ4zIYaCEAAAhAYDYFapPjRo0fSrLImJ02m+Iq99zUtu4lgblget1Ip1u3sdbMyf+68XFnL15v38+fllu3Xvm6c15nik2tB1ldO6qx0Oqf8tUGhPizL6Zzt3Hl915hGisOLGlIcZkMNBCAAAQiMhkAtUvzw4UNpVrlkpHhR1pJ7vylnk4ywzdbOytzZm/LwoT2v2qnjRVm7tJh+g8TJS269Ymjez6/IJw7TtRNZv0XZ5MJzJy417JlMXgwixeFFDSkOs6EGAhCAAARGQ6AWKX7w4IE0q1yUE0nWdVHW1L1fNKJ74qI8eGDrZqU1tygn5pTQmnZO27kzN+TBgxtyNqkPS++JixnbVI7nVuSmy9yOr+aUzCG7Jp1bMEucje2O1azn6fByub7jMVIcXtTGL8WbsjRzVLp77hyLzun63dWj6S+zhb+E2s9XZ1Ok13HamjH2utJWdeY/1d9Sz74zr72OtFd3/JOqL+c6v5J3EIAABCDwLgRqkeL79+9Ls4oV3wW5dHNZ5tQPxLlluZFyuC5n5g7LmZvqVUnnglyydd2F5Afm3Jnrcv9+vt689/rSbG+cUXt/M4EdfKzGNs/EG0+dM3N3xrB9n+g27TnWe79IcXipGrcU90tuR7pF4muEtFBiQ7eXiuyOdNsd2RaR7c6sJ8FF/W13MklPj9O+QoNxHgIQgAAE3pZALVJ87949aVbpynFPUBfkYiGDTHrTeiupp6/LvXv5+kyKr3v9qfMFYyR9qfPX5czpbvIMLh6fldZxfZw8E2+8e3L99KFUrueSOWTnjneb9hzrvV+kOLxMjVWKVda23ZVdyaQ1ye4m57TA5rOzfRI7SFZtnc38qvFmAtJtxpR0TorZpizZ87avMEpqIAABCEDgLQnUIsV3796VZpVVI8UL0h147wXtVnWm+MD71+Tu3Wtyesj2idaxVblrrmnNnZPu+1pqj6+6zO04WSbZr7+b9eHJ/ID2A+/LHZvjUOwjxeFVapxSrLOwm9JNtiqoLRPZ58D/f2B0llfdRZEU9211sLebiGzXZImVeKv+s76K+lP9pyKurg/MKTimHZtXCEAAAhAoTaAWKb5z5440q6zKseSH1knpFtx795j/Q/bYTzSfq0ZoWzOH5PQ1de6qnD6g2hb3Y5nq/sw1PzkZ+IFp+1RzOyQH3l+V/DwOvH+1+Dmlfdo+mvY867lfpDi8Lo1TipNZ7e3ItiuifVN1ssipFA8S6Flp5bK7iUivqr3ERpCdbLAv2abfZKuGGjfbRpFksNlT3Pd0OAEBCECgCgJIcYHEWvnktR45bCpXpDi8ZI1XipWE6sxtkqHNZWV1NrZIip37sVsj7ClHeDORtdsgsr7s3mJXitVxu9PRf4in+nElmO0TljCvEIAABConUIsU3759WygwIAb8GECKw+vXJEmxtyUhld1MZNVduBJb9D7ZE2xlNhVZK99OX6bO7W97tSu7eRm26NK+7AleIQABCECgKgK1SPFXX30lFBgQA34MIMXhZWuSpDi/f7coU5x+G0RyS0pynS0O6pwrtUpkbfY53RIxeE9xer17re3DfbVbNMJoqYEABCAAgZIEapHiL7/8UigwIAb8GECKw6vSJEnx8Eyxzfjq+1FZ3vSP4uwtuhld9zipdzLFpr2bKU5OuVJt+1SvfX25lRxDAAIQgMC7EKhFir/44guhwIAY8GMAKQ4vVZMkxWlW12Rk+zLFjpiqPcH5b5JQd6kkN5Vrp70mgBSHI4EaCEAAAuMjUIsUf/7550KBATHgxwBSHF7oJkWK+2eoBNZ8e4zZqmC3TiRCbPcNqwuV/KZbG5ztFEEpdvrOfUVbun0iP6G+vvINeA8BCEAAAm9LoBYp/uyzz4QCA2LAjwGkOLxMjVeKw/OiBgIQgAAEmkOgFin+9NNPhQIDYsCPAaQ4vLAixWE21EAAAhCAwGgIIMUIPL/AjCgGkOLwooYUh9lQAwEIQAACoyFQixRvb28LBQbEgB8DSHF4UUOKw2yogQAEIACB0RCoRYq3traEAgNiwI8BpDi8qCHFYTbUQAACEIDAaAggxQg8v8CMKAaQ4vCihhSH2VADAQhAAAKjIVC5FP/i4xuytv4zCgyIgVwMqM/Gt9+/GVo+vnVbfvfDm1JlNMtE/aMgxfUzZgQIQAACEBhMoHIpLvNDnzbDxQhGzWWEFA9etKiFAAQgAAEI1EEAKS6RuUNQmyuo43j2SHEdSx19QgACEIAABAYTQIqR4qH/d/44xLDJYyLFgxctaiEAAQhAAAJ1EECKkWKkeMJioKlSrPYVU2BADBADxAAxMK4YQIonTIianCHl3vU2lSZKcR2/8dMnBCAAAQhAYD8EkGKkmEzxhMUAUryfJYy2EIAABCAAgWoIIMUTJkRkS/mjPqS4msWNXiAAAQhAAAL7IYAUI8VkiicsBpDi/SxhtIUABCAAAQhUQwApnjAhIlNMphgprmZxoxcIQAACEIDAfgggxUgxmeIJiwGkeD9LGG0hAAEIQAAC1RBAiidMiMgUkylGiqtZ3OgFAhCAAAQgsB8CSDFSTKZ4wmIAKd7PEkZbCEAAAhCAQDUEkOIJEyIyxWSKkeJqFjd6gQAEIAABCOyHAFKMFJMpnrAYQIr3s4TRFgIQgAAEIFANgX1JsfphTYEBMVB/DPzuhzdSplSzDNALBCAAAQhAAAKlpbjMD2jalBMZOMGpqhhgCYMABCAAAQhAoBoCSHHJjFxVEkM/CHGVMVDNMkAvEIAABCAAAQggxUhxqf+bvkqRo6/qfjFgCYMABCAAAQhAoBoCSDFSjBRHHAPVLAP0AgEIQAACEIAAUhyxEJFxrS7jGivL6VrCNmVppiPbzk3trh6VVmdTZK8r7Vyd08wc7ki3PStLPbdG9XlUunvuOfe4oD4Za9A17vUi6Rz907yDAAQgAIHICCDFSDGZ4ohjILL1Zsh0c1KcF+FeRwuy00sipDOz0tpPUZJt/1N9tjuy1C7RR7sru8l1ap4l2g+UcTsBXiEAAQhAYFIIIMURC1Gs2U3mXV2Ge1IWknedx3YnJ5mdbpL1HSi7qaTa0febKS7IEtuuBr6Wua5Mm4GDUAkBCEAAAiMmgBQjxWSKI46BEa8XNQ+nRFJvn7CSnG2FKBJeEVGZ3lJZ20y626s7yX3oMex2DTV21qa/T9tOXTqsre2n/BaMmsHSPQQgAAEIlCCAFEcsRGRcq8u4xsqyxGc8oiZGitW2iXZXuvnscU5ardymN2iu01sc0rPFB8m2iaMl9ikXXa7mOUx4y7Qp6ptzEIAABCAwLgJIMVJMpjjiGBjXwlHPuI4UdzZFZXKHZorTiZhr1ftkL7LN1uZezX7i7Y6S2pLXJDJOpjhFzQEEIACBKSWAFEcsRLFmN5l3dRnuaVqX7JaJltkrXF6K9dYKe10/EyW/s9Jf70hx/0UDzqjryBQPAEQVBCAAgSgJIMVIMZniiGMgylWnYNJagH1JTSU5t23C7vfV2yfMXuNVveWif+uE36c/tFunjnNZZfe990d9Q9qm1w0TZ382vIMABCAAgfESQIojFiIyrtVlXGNlOd7lo+rRXUmVUtsn0myy3U88aOuEldX0K9nc8dzj3H0l+4/t17GpOtV2mPCWaZMbh7cQgAAEIDBWAkgxUkymOOIYGOvqUfngvpimwpuME/j2CTsHK8X2ffrq95meTg7cOvfYb5V8w0WaKVbt9F5n9R3JOlutz6kMdrYH2vyjHul1uT55CwEIQAACE0cAKY5YiGLNbjLv6jLcE7eivNOEfDEdtn2i5f4Ld5VI8bDtE2bvssk0Z1Kcu+kkW23+MK8vy5xry1sIQAACEJgYAkgxUkymOOIYmJiV5B0nkv7LdE5m1c8UDxnAk2Ijr3a7hNOn34sr4e6x38rPFDt1ifwWi3Tf18U5l3EIAQhAAAKTSQApjliIyLhWl3GNleVkLivMCgIQgAAEIBAfAaQYKSZTHHEMxLfkMGMIQAACEIDAZBJAiiMWolizm8y7ugz3ZC4rzAoCEIAABCAQHwGkGCkmUxxxDMS35DBjCEAAAhCAwGQSQIojFiIyrtVlXGNlOZnLCrOCAAQgAAEIxEcAKUaKyRRHHAPxLTnMGAIQgAAEIDCZBJDiiIUo1uwm864uwz2ZywqzggAEIAABCMRHAClGiskURxwD8S05zBgCEIAABCAwmQSQ4oiFiIxrdRnXWFlO5rLCrCAAAQhAAALxEUCKkWIyxRHHQHxLDjOGAAQgAAEITCYBpDhiIYo1u8m8q8twT+aywqwgAAEIQAAC8RFAipFiMsURx0B8Sw4zhgAEIAABCEwmAaQ4YiEi41pdxjVWlpO5rDArCEAAAhCAQHwEkGKkmExxxDEQ35LDjCEAAQhAAAKTSQApjliIYs1uMu/qMtyTuawwKwhAAAIQgEB8BJBipJhMccQxEN+Sw4whAAEIQAACk0kAKY5YiMi4VpdxjZXlZC4r+5/V5uamUGBADBADxAAxMM4YQIqRYjLFEcfA/vVzMq9QiyD/QQACEIAABMZJACmOWIhizW4y7+oy3ONcPKocGymukiZ9QQACEIDA2xBAipFiMsURx8DbfOgn8RqkeBKfCnOCAAQg0CwCSHHEQkTGtbqMa6wsp2W5Qoqn5UlyHxCAAATiJYAUI8VkiiOOgXiXHn/mSLHPg3cQgAAEIDB6AkhxxEIUa3aTeVeX4R79klHPiEhxPVzpFQIQgAAEyhNAipFiMsURx0D5j/pkt0SKJ/v5MDsIQAACTSCAFEcsRGRcq8u4xspyWhYppHhaniT3AQEIQCBeAkgxUkymOOIYiHfp8WeOFPs8eAcBCEAAAqMngBRHLESxZjeZd3UZ7tEvGfWMOHYp7nWkvbqT3tzu6lFpdTZFeh39mtbkDnLXDW1vL99vv/a6va601byC/23K0sxR6e4FG1ABAQhAAAIBAkgxUkymOOIYCHyuozs9WVKsxLIj24bidmdWlnoZ0kSYZ2alVaYEBFb14Up41rs+UvXumEq2k/YDpVjNOzyvQePlx+c9BCAAgSYSQIojFiIyrtVlXGNlOS2L1vikeEe6bVckO9JVWeKQXLa7sutCt7Jqzw3LAJt2SrSLJbVfbJUcq/ZFc7J9WFH3RNrOSYl0ft62jlcIQAACEEgJIMVIMZniiGMg/SRHfjA+KTbgrNwqgZxxhXVTlnJCaQW0SFLz56y0+o/HiHggiyyyI92Olm+dMXbmUJApTuZj5rjdyW2dUJKem78/F95BAAIQgIAlgBRHLESxZjeZd3UZbvtBjv11UqRYSeVSZ0Cm2BNZJbc5CS3zIBLxPirtdrZFw7vMEV87n1SunTrvmvSNzjSn2WVvvmkjDiAAAQhAoIAAUowUkymOOAYKPtNRnpoEKdZZXr19IpVQcbK0ObLZXuP8Fgyz1SGQoVWZXdW/fc11m/xxnx5f9ZsT56FSLEm/6l4Kt1L0DcYJCEAAAhCwBJDiiIWIjGt1GddYWdoPcuyv45PiTGitCCfbEUJ7ipPMq76m3c79MZx9CAO3LKhMrs0uq+Oc9IreP5zMRQlwItb9+4ztNg07ZzV0aN9xUVs7VV4hAAEIQCAjgBQjxWSKI46B7KMc99H4pNhws3uKRWdaM9nszxTbDLGS56VeJtVWPr3X3PYFdW3Wt8nq5tqoGVkx78v2FmSKrQwrSXf79iLCuT/vPG8gAAEIQCAlgBRHLESxZjeZd3UZ7vSTHPlBTFJsUWsptu/M64Bvn0hEt29Lhck6O9+RnPSk5DfJVucyyQVSbGeg+keKLQ1eIQABCOyfAFKMFJMpjjgG9v+Rn8wrJk2KvWyvt5Uik9T9SLHO5mbX+k/BZJvTjLGzxSIv2UOkODxvP0Ptj887CEAAAhBQBJDiiIWIjGt1GddYWU7LMjZOKU63H5hs7cCMqwM8k2J/C0V+y0PSf1+G2OnIHOp2/1Z+nPtGCzVOUHZTkc5v+8j1z/aJHBDeQgACEOgngBQjxWSKI46B/o90nGfGKcVxEmPWEIAABCBQNQGkOGIhijW7ybyry3BXvSCMqz+keFzkGRcCEIAABCwBpBgpJlMccQzYD3Lsr0hx7E+Q+UMAAhCInwBSHLEQkXGtLuMaK8v4lyB9B0jxtDxJ7gMCEIBAvASQYqSYTHHEMRDv0uPPHCn2efAOAhCAAARGTwApjliIYs1uMu/qMtyjXzLqGREprocrvUIAAhCAQHkCSDFSTKY44hgo/1Gf7JZI8WQ/H2YHAQhAoAkEkOKIhYiMa3UZ11hZTssihRRPy5PkPiAAAQjESwApRorJFEccA/EuPf7MkWKfB+8gAAEIQGD0BJDiiIUo1uwm864uwz36JaOeEZHierjSKwQgAAEIlCeAFCPFZIojjoHyH/XJbqmkmAIDYoAYIAaIgXHGAFIcsRCRca0u4xory8lW3fKzU4sg/0EAAhCAAATGSQApRorJFEccA+NcPKocGymukiZ9QQACEIDA2xBAiiMWolizm8y7ugz323zoJ/EapHgSnwpzggAEINAsAkgxUkymOOIYmJblCimelifJfUAAAhCIlwBSHLEQkXGtLuMaK8t4lx5/5kixz4N3EIAABCAwegJIMVJMpjjiGBj9klHPiEhxPVzpFQIQgAAEyhNAiiMWolizm8y7ugx3+Y/6ZLdEiif7+TA7CEAAAk0ggBQjxWSKI46BaVmkkOJpeZLcBwQgAIF4CSDFEQsRGdfqMq6xsox36fFnPnYp7nWkvbqTTmp39ai0OpsivY5+TWtyB7nrhra3lw/rN2m3I912R7btNQNfN2Vp5qh099xG6vr8ObeeYwhAAAIQcAkgxUgxmeKIY8D9MMd8PFlSrAQzk9Htzqws9TK6iTDPzEqrTFFiXfCf6sOV8IImItIvxfmx7bzy51szR2Wpc7R/joH5FI/PWQhAAALNIoAURyxEsWY3mXd1Ge5pWa7GJ8VKPF3B7UhXZYlDwtvuyq4L/S0zxUq0g1K815V2wfhKgJX8ahF2hFm1V/Oyr2p+zrEW5kzy3elzDAEIQAACGQGkGCkmUxxxDGQf5biPxifFhpuVWyOkmbBuylJOhPuzsq5U+8dZP+7zMSIeytqmQpuJr5Vh+6q2adgs8XZHb5FIXntakLsdfx5a8hFj9ylwDAEIQCBPACmOWIjIuFaXcY2VZf4DHev7SZFiJZaF2w5s5tYTWSWtb7FnNxHvo9IO7RceKsW+qPdJemdT8ls+irZixBorzBsCEIBAXQSQYqSYTHHEMVDXwjDqfidBim02VW2fyDK8voC6XDLxNJlfK872NZdhttcqiVX921d7Pn012er8Fg5v+0QqzvYq/w/t1Nzy17ecfdL2Kl4hAAEIQCAjgBRHLESxZjeZd3UZ7uyjHPfR+KQ4E1orwn2ZVyu56jXJFOtr2m27vzfHXn2zRECIRVx59f+gL+0lFV41jt7yoObkSbFqbLd8iCSZYSvBql0m7LbXrC97hlcIQAACEPAJIMVIMZniiGPA/zjH+258UmyYOYLpZ3D7M8VWOLWoZlJtpdR79bZbaFm18q1GTgQ810b2K8VGwrtqbzF7iuP9EDBzCEBg7ASQ4oiFiIxrdRnXWFmOfQWpaAIxSbG9ZZu9te+T1wHfP5wIcF8G2WSdne9IHirFq/bbKewf2Olssv2DOzUPK+7Z3MgUZyw4ggAEIFBMAClGiskURxwDxR/r+M5OmhR72V53+4SzL3c/Uqz3+Ia+/cFkm23GuMye4oJHnJfi/nsIjV/QGacgAAEINJAAUhyxEMWa3WTe1WW4p2XNGqcUa2HNvjdYya67xSHEOJNifwuF/ao0e13Sf1+G2NZmr2m7dPtEVmfHsq9ZTXaUl2J/HmSKM1IcQQACECgmgBQjxWSKI46B4o91fGeuqzejAAAgAElEQVTHKcXx0WLGEIAABCBQBwGkOGIhIuNaXcY1VpZ1LArj6BMpHgd1xoQABCAAAZcAUowUkymOOAbcD3PMx0hxzE+PuUMAAhCYDgJIccRCFGt2k3lXl+GejmVIBCmelifJfUAAAhCIlwBSjBSTKY44BuJdevyZI8U+D95BAAIQgMDoCSDFEQsRGdfqMq6xshz9klHPiEhxPVzpFQIQgAAEyhNAipFiMsURx0D5j/pkt0SKJ/v5MDsIQAACTSCAFEcsRLFmN5l3dRnuaVmkkOJpeZLcBwQgAIF4CSDFSDGZ4ohjIN6lx585Uuzz4B0EIAABCIyeAFIcsRCRca0u4xory9EvGfWMiBTXw5VeIQABCECgPAGkGCkmUxxxDJT/qE92SyXFFBgQA8QAMUAMjDMGkOKIhSjW7Cbzri7DPdmqW352ahHkPwhAAAIQgMA4CSDFSDGZ4ohjYJyLR5VjI8VV0qQvCEAAAhB4GwJIccRCRMa1uoxrrCzf5kM/idcgxZP4VJgTBCAAgWYRQIqRYjLFEcfAtCxXSPG0PEnuAwIQgEC8BJDiiIUo1uwm864uwx3v0uPPHCn2efAOAhCAAARGTwApRorJFEccA6NfMuoZESmuhyu9QgACEIBAeQJIccRCRMa1uoxrrCzLf9QnuyVSPNnPh9lBAAIQaAIBpBgpJlMccQxMyyKFFE/Lk+Q+IAABCMRLACmOWIhizW4y7+oy3PEuPf7MJ0eKN2VpZlaWev78pNeR1systFd3kord1aPJe3VuUPH62etKe+aodPeyvrc7/vW2/2S8dld2RSQ8Vke2s644ggAEIACBdySAFCPFZIojjoF3/PxPzOXjleId6batnFppdc/NSqvj/+MiSlRTgQ1QVMKrpDgote2udE0b1YVq50m0EvHcuNlQSt6R4owHRxCAAATenQBSHLEQkXGtLuMaK8t3XwImo4fxS3FeMJUUW0HuZxQU3Vzm2ErudsftKxNaK86issgmMyyS1fePbM+UaWPb8goBCEAAAmUIIMVIMZniiGOgzIc8hjbjl2KbKVavSmCHS3FfprjXGZA9Vv0p8fb7tVIckubws0OKw2yogQAEIPB2BJDiiIUo1uwm864uw/12H/vJu2r8UpxlirWgKnl1RdkcO/t8Eyk2e40L9xUnbQP9JBnljiwl2yeU4LpbNMoIb5k2k/ecmREEIACBSSaAFCPFZIojjoFJXlz2M7fJlGK75cFmebM7SvcUu9lh99jbDpFdlz+ymWJ1Pu2T7RN5TLyHAAQgMBICSHHEQkTGtbqMa6wsR7JKjGCQ8UuxmxXOb58oluJkv/DQTLGCZzLB3n5jLdyuFCftkuxymSxwmTYjeHAMAQEIQGCKCCDFSDGZ4ohjYFrWovFLcX77hCud/VLsy6x5Cm6m2Hswbl+6wu4h9vpJs8v97b3ukjdl2vRfxRkIQAACEAgTQIojFqJYs5vMu7oMd/ijHVfNWKU4lVGHmfd1aHkptu+VmLoZ5v5j/cd4/QLrSXFHfwey2pesv62iv70zM3NYpk3/VZyBAAQgAIEwAaQYKSZTHHEMhD/acdWMU4qzvbyWmZJeu59YnbMSbOpTYd6UpfRr1ETUP7hh//hOvWb9Fslz0fYJO34Z4S3TxvbHKwQgAAEIlCGAFEcsRGRcq8u4xsqyzIc8hjbjlOLtTrZ1ImFl5TYF50uxzfKme4BVpjmQMQ5lfm0f3vaJdLyw8Kr26TddBP9hj7QjDiAAAQhAYB8EkGKkmExxxDGwj8/6RDcdpxRPNBgmBwEIQAACIyOAFEcsRLFmN5l3dRnuka0UNQ+EFNcMmO4hAAEIQGAoAaQYKSZTHHEMDP2ER9IAKY7kQTFNCEAAAlNMACmOWIjIuFaXcY2V5bSsTUjxtDxJ7gMCEIBAvASQYqSYTHHEMRDv0uPPHCn2efAOAhCAAARGTwApjliIYs1uMu/qMtyjXzLqGREprocrvUIAAhCAQHkCSDFSTKY44hgo/1Gf7JZI8WQ/H2YHAQhAoAkEkOKIhYiMa3UZ11hZTssihRRPy5PkPiAAAQjESwApRorJFEccA/EuPf7MkWKfB+8gAAEIQGD0BJDiiIUo1uwm864uwz36JaOeEZHierjSKwQgAAEIlCeAFCPFZIojjoHyH/XJbqmkmAIDYoAYIAaIgXHGAFIcsRCRca0u4xory8lW3fKzU4sg/0EAAhCAAATGSQApRorJFEccA+NcPKocGymukiZ9QQACEIDA2xBAiiMWolizm8y7ugz323zoJ/EapHgSnwpzggAEINAsAkgxUkymOOIYmJblCimelifJfUAAAhCIlwBSHLEQkXGtLuMaK8t4lx5/5kixz4N3EIAABCAwegJIMVJMpjjiGBj9klHPiEhxPVzpFQIQgAAEyhNAiiMWolizm8y7ugx3+Y/6ZLdEiif7+TA7CEAAAk0ggBQjxWSKI46BaVmkkOJpeZLcBwQgAIF4CSDFEQsRGdfqMq6xsox36fFnPm4p3l09Ku3VHX9SybtNWZrpSDdYrxqpNkelu1dwOacgAAEIQCAaAkgxUkymOOIYiGalGTLRSZfibRHZ7gwQ315HWh3+AZIhj5lqCEAAAhNNACmOWIhizW4y7+oy3BO9uuxjcjFIsb2d7c6stGZKFkTZYuMVAhCAwMQTQIqRYjLFEcfAxK8wJSc4PinekW7bEdx2R5bc93n5bXdlt+CewtsvChpzCgIQgAAEJpIAUhyxEJFxrS7jGivLiVxV3mJS45NiPdlMapUkd0Rtl9D/5d/rs6WyxWSJLUReIQABCERBAClGiskURxwDUawyJSY5WVKcZY7bq5vSbeu9xEqc7b5hJcVLvezGMqk25/a60kaKM0AcQQACEIiAAFIcsRDFmt1k3tVluCNYY0pNcbKkWGeKrejqP7DT30JhM8hIcanHSiMIQAACURFAipFiMsURx0BUq82AyU6CFCd/PNfpJF/BpuRXSbHKBicZ4plZ7yvbkOIBD5MqCEAAApESQIojFiIyrtVlXGNlGem60zft8Umx+UM7u9VBbXtI/7guv20i21+MFPc9Qk5AAAIQiJ4AUowUkymOOAaiX4HMDYxPin2CedlV7/XXr6ktFZuyZL59It/ObrUQ9X3FRqqL/zEQfzzeQQACEIDA5BBAiiMWolizm8y7ugz35Cwl7zaTiZDiXqdvi4T9w7pUdm1GOXe7qRTnzvMWAhCAAATiIYAUI8VkiiOOgXiWmsEznQgpHjxFaiEAAQhAYMoJIMURCxEZ1+oyrrGynJb1CSmelifJfUAAAhCIlwBSjBSTKY44BuJdevyZI8U+D95BAAIQgMDoCSDFEQtRrNlN5l1dhnv0S0Y9IyLF9XClVwhAAAIQKE8AKUaKyRRHHAPlP+qT3RIpnuznw+wgAAEINIEAUhyxEJFxrS7jGivLaVmkkOJpeZLcBwQgAIF4CSDFSDGZ4ohjIN6lx585Uuzz4B0EIAABCIyeAFIcsRDFmt1k3tVluEe/ZNQzIlJcD1d6hQAEIACB8gSQYqSYTHHEMVD+oz7ZLZHiyX4+zA4CEIBAEwggxRELERnX6jKusbKclkUKKZ6WJ8l9QAACEIiXAFKMFJMpjjgG4l16/JkrKabAgBggBogBYmCcMYAURyxEsWY3mXd1GW5fLeN9pxZB/oMABCAAAQiMkwBSjBSTKY44Bsa5eFQ5NlJcJU36ggAEIACBtyGAFEcsRGRcq8u4xsrybT70k3gNUjyJT4U5QQACEGgWAaQYKSZTHHEMTMtyhRRPy5PkPiAAAQjESwApjliIYs1uMu/qMtzxLj3+zJFinwfvIAABCEBg9ASQYqSYTHHEMTD6JaOeEZHierjSKwQgAAEIlCeAFEcsRGRcq8u4xsqy/Ed9slsixZP9fJgdBCAAgSYQQIqRYjLFEcfAtCxSSPG0PEnuAwIQgEC8BJDiiIUo1uwm864uwx3v0uPPfOxS3OtIe3UnndTu6lFpdTZFeh39mtbkDnLXDW1vLx/Wr22XvG7K0kxHtr1zzpu9riw5c3dqRGRHuu1Zac2oclS6e34t7yAAAQhAICOAFCPFZIojjoHsoxz30WRJsS+h251ZWeplfBNhTiTTyuaAVyXWBf+pPlwJ95ooYS7RvzundI57XWnnrnXbeePwBgIQgAAEPAJIccRCRMa1uoxrrCy9T3PEb8YnxW4mVcltR7oqS5wTy/R9uyu7Lue3zBQriR0oxZ5M+5KuhldS7cvujnQ7ubklWeIBGWb3PjiGAAQgAAFBipFiMsURx8C0rGHjk2JD0MqtybRmwropSzkR3k+mOOvHfVJGxD3xder7tlaUkWJ1fV7wCzLYuXtxRuUQAhCAQOMJIMURC1Gs2U3mXV2Ge1pWsEmR4u3OUVnqDMgUeyKrJPQt9ukm4n1U2u1AFndf2ycyEe4XcFUXGGNaAof7gAAEIFAhAaQYKSZTHHEMVLgWjLWrSZBivUVCb5/IBLM/U2xBpft4QxnaQFbW7ie2r7a/9PVtMsU20512og6QYg8HbyAAAQgMIYAURyxEZFyry7jGynLI5zua6vFJcX+mdeD2iCRTrK9pt/P7eg1uJbUBIRZRWyFsdrl/W0TSwztKcXD+wTlFEyZMFAIQgECtBJBipJhMccQxUOvqMMLOxyfF5iadTKufwe3PFNsMsWq31MukOv1jPPeP9LztFiL5P7BLBDbXJvlaN7ePwLH3h3bB+Zv7U1s2kOIRRjRDQQACMRJAiiMWolizm8y7ugx3jItO0ZxjkmI7fy3F9p157cvyZvWJAPeJqck6u98z3NdHIKOsRNcKdSLFm8keZ7UnOtv+YcZHirMHwREEIACBAAGkGCkmUxxxDAQ+19GdnjQpLsz6Jhnb7A/X9iPFKkOsvu6t+B/gMNlmK7h9T69YitX4qfwqkZ7RX/OWyHdRdrlPyPsG4gQEIACBRhNAiiMWIjKu1WVcY2U5LavXOKVYC2v2vcGebA4AnEmxv4XC29YgestEeI9xNkAyj4C42jn6sm73JvvfW1w4fzLFGWiOIAABCAQIIMVIMZniiGMg8LmO7vQ4pTg6WEwYAhCAAARqIYAURyxEsWY3mXd1Ge5aVoUxdIoUjwE6Q0IAAhCAgEcAKUaKyRRHHAPepzniN0hxxA+PqUMAAhCYEgJIccRCRMa1uoxrrCynZB0SpHhaniT3AQEIQCBeAkgxUkymOOIYiHfp8WeOFPs8eAcBCEAAAqMngBRHLESxZjeZd3UZ7tEvGfWMiBTXw5VeIQABCECgPAGkGCkmUxxxDJT/qP//7d3dkdu6Fqbh8OwwHIKunYY6hJkAWrdTdSLoro7CZWfBKVAEBVKURHuDIhf17Ko+kvgDLrwEUa+/g1Zv+0hSvO37ozoEEEDgFQiQ4sBCJHGtl7hGZbmXSYoU7+VO6gcCCCAQlwApJsWS4sBjIO7UM6ycFA95+IQAAggg8HwCpDiwEEVNN9VdL+F+/pSxzBVJ8TJctYoAAgggMJ8AKSbFkuLAY2D+o77tI5MU+8HAGDAGjAFjYM0xQIoDC5HEtV7iGpXltlVXdQgggAACCMQhQIpJsaQ48BiIM9WoFAEEEEAAgW0TIMWBhShquqnuegn3tqcX1SGAAAIIIBCHACkmxZLiwGMgzlSjUgQQQAABBLZNgBQHFiKJa73ENSrLbU8vqkMAAQQQQCAOAVJMiiXFgcdAnKlGpQgggAACCGybACkOLERR001110u4tz29qA4BBBBAAIE4BEgxKZYUBx4DcaYalSKAAAIIILBtAqQ4sBBJXOslrlFZbnt6UR0CCCCAAAJxCJBiUiwpDjwG4kw1KkUAAQQQQGDbBEhxYCGKmm6qu17Cve3pRXUIIIAAAgjEIUCKSbGkOPAYiDPVqBQBBBBAAIFtEyDFgYVI4lovcY3KctvTi+oQQAABBBCIQ4AUk2JJceAxEGeqUSkCCCCAAALbJkCKAwtR1HRT3fUS7m1PL6pDAAEEEEAgDgFSTIolxYHHQJypRqUIIIAAAghsmwApDixEEtd6iWtUltueXlSHAAIIIIBAHAKkmBRLigOPgThTjUoRQAABBBDYNgFSHFiIoqab6q6XcG97elEdAggggAACcQiQYlIsKQ48BuJMNSpFAAEEEEBg2wRIcWAhkrjWS1yjstz29KI6BBBAAAEE4hAgxaRYUhx4DMSZalSKAAIIIIDAtgmQ4sBCFDXdVHe9hHvb04vqEEAAAQQQiEOAFJNiSXHgMRBnqlEpAggggAAC2yZAigMLkcS1XuIaleW2pxfVIYAAAgggEIcAKSbFkuLAYyDOVKNSBBBAAAEEtk2AFAcWoqjpprrrJdzbnl5UhwACCCCAQBwCpJgUS4oDj4E4U41KEUAAAQQQ2DYBUhxYiCSu9RLXqCy3Pb2oDgEEEEAAgTgESDEplhQHHgNxphqVIoAAAgggsG0CpDiwEEVNN9VdL+He9vSiOgQQQAABBOIQIMWkWFIceAzEmWpUigACCCCAwLYJkOLAQiRxrZe4RmW57elFdQgggAACCMQhQIpJsaQ48BiIM9WoFAEEEEAAgW0TIMWBhShquqnuegn3tqcX1SGAAAIIIBCHACkmxZLiwGMgzlSjUgQQQAABBLZNgBQHFiKJa73ENSrLbU8vqkMAAQQQQCAOAVJMiiXFgcdAnKlGpQgggAACCGybACkOLERR001110u4tz29qA4BBBBAAIE4BEgxKZYUBx4DcaYalSKAAAIIILBtAqQ4sBBJXOslrlFZbnt6UR0CCCCAAAJxCJBiUiwpDjwG4kw1KkUAAQQQQGDbBEhxYCGKmm6qu17Cve3pRXUIIIAAAgjEIUCKSbGkOPAYiDPVqBQBBBBAAIFtEyDFgYVI4lovcY3KctvTi+oQQAABBBCIQ4AUk2JJceAxEGeqUSkCCCCAAALbJkCKAwtR1HRT3fUS7m1PL6pDAAEEEEAgDgFSTIolxYHHQJypRqUIIIAAAghsmwApDixEEtd6iWtUltueXlSHAAIIIIBAHAKkmBRLigOPgThTjUoRQAABBBDYNgFSHFiIoqab6q6XcM+dXj4+Pho/GBgDxoAxYAwYA7fHACkmxZLiwGNgrhQ7DgEEEEAAAQTuEyDFgYVI4lovcY3K8v7jbS8CCCCAAAIIzCVAikmxpDjwGJj7oDsOAQQQQAABBO4TIMWBhShquqnuegn3/cfbXgQQQAABBBCYS4AUk2JJceAxMPdBdxwCCCCAAAII3CdAigMLkcS1XuIaleX9x9teBBBAAAEEEJhLgBSTYklx4DEw90F3HAIIIIAAAgjcJ0CKAwtR1HRT3fUS7vuPt70IIIAAAgggMJcAKSbFkuLAY2Dug+44BBBAAAEEELhPgBQHFiKJa73ENSrL+4+3vQgggAACCCAwlwApJsWS4sBjYO6D7jgEEEAAAQQQuE+AFAcWoqjpprrrJdz3H297EUAAAQQQQGAuAVJMiiXFgcfA3AfdcQgggAACCCBwnwApDixEEtd6iWtUlvcfb3sRQAABBBBAYC4BUkyKJcWBx8DcB91xCCCAAAIIIHCfACkOLERR001110u47z/e9iKAAAIIIIDAXAKkmBRLigOPgbkPuuMQQAABBBBA4D4BUhxYiCSu9RLXqCzvP972IoAAAggggMBcAqSYFEuKA4+BuQ+64xBAAAEEEEDgPgFSHFiIoqab6q6XcN9/vO1FAAEEEEAAgbkESDEplhQHHgNzH3THIYAAAggggMB9AqQ4sBBJXOslrlFZ3n+87UUAAQQQQACBuQRIMSmWFAceA3MfdMchgAACCCCAwH0CpDiwEEVNN9VdL+G+/3jbiwACCCCAAAJzCZBiUiwpDjwG5j7ojkMAAQQQQACB+wRIcWAhkrjWS1yjsrz/eC+89/PYfPv+ozm8/+ov9HX80Xz7/rM5fZ6aQ3r90++6evP7/Wd7/ttnsWuizWLv6O1H8/Y9Xe/YfI32DD62bRbH/Em1pfNGP4dT87s/Mbc9OmZ8Tv+5aL9v4/6bM6shv9tnjOo5flwOzf3pt42OzTX2+7tTb7L+1ZwOP5pvAx7Dc67Y5WtMvKb7m+/1t3ENl154hwACCKxOgBSTYklx4DGw6gwylqpSzvL7kbBmEfwbqWpFqm9vrqRmIS8FsRPXru6LoHXHDCRwuO0sdV2bXS3nfwx0Ajnq56P7kiXx8g+C3M6t/o2k+8+vi8BnNr1wDmtvrvrbVVfev3zMhNT29yq1n4/rr3W7p/le5z5e9/n2ufYggAACaxAgxYGFKGq6qe56Cfcak0a6ZhaeLExJEMfb8r78WibKqY1JSSpF7WHnsvCOhHHivFTb2+ev5vefS+2XekYS2Z4/3FZVirPEDiR8ouiCcxbL8VFTzN8+h7XfFNmbrOcnxbfqGtd5/pzF//H9mj7fVgQQQGBZAqSYFEuKA4+BZaeHB62XUpUTxD4xvSNWudksh/05ecf065QAZuEev16Ed9hWFvHxkouy7fO5WbhvJbfj7fNFL19rjlDOOjaz79Pbx1Kc2+25HU/nJRM3k+Jh/67Onzwvp/WXe5D537o/lyO9QwABBJ5PgBQHFiKJa73ENSrL508ZxRV7Kf54IFRngUwSOE+mRsLZy15x7fZtFtehsF2Oysnk5fpNc942R0gv7XTvssTPSHivzu035JrGNefto75PyuZwvW8WzZvLQa6kuSumv39pTXi+/q26yu23ju07eftNZnjznt4+1R4EEEBgaQKkmBRLigOPgaUniNvtZyFNvyh2ar4+x6LUfb4hkL0cz5Sj/vhbkji1vWs7S2MrwlnKpo5P27p68zl9knrr+GL7vPRzlOLeBtzuyf2+LfGX+9DWmvqc+5jZ/5UU35LyUorzNcttDzrS7/67/veneYMAAgg8gQApDixEUdNNdddLuJ8wR0xcIgnvsfnKsvX9vF63/caCfinELSnOQpXk6yxVWfymBXRKvC5tHA7pGyzK/5s+Xbf8fL12+Sy8w3ZzDQOxzf27I+75vNvSOsI3FtbR7vHHh+3nGpOcHz/aJP7tvft2jVx3PiZ/zhfptp/73N2v/v7lgya25z4U/yCYvneXe5xba5p874b8L/u9QwABBNYjQIpJsaQ48BhYb+po+m8iGErVraQxifN4+cS0GPUpbU46B53Mkpa/yqyTrFb4Lvty4ptOze2dxfVyTC/AveSN6skyOUP+ZktxlsJB3y413ZbLCa6H/9v8n/ar036ev2IuS2/uT/6c+3H8OLMYbZ93/0ZsBvdk6kN3Xwb9TMfd2j7Vhm0IIIDAcwmQ4sBCJHGtl7hGZfnc6WJ0tbtJYyd6Yyn6PLbfAtGnylnY7olnlrh+3etZEHupvWpjKHBDKT734bLtIqR9e7mbud3++nnH5fVhkns5tHuXrzes8eqwbsOj9lM/biXDfX+KfrTt5f7k7Yn94di8JcGekxTfKrbcnsV8fP9vbS/P9R4BBBBYiQApJsWS4sBjYKV543zZTqqGSWOWvRtS3J55WwyzrPZClzuYZSotlXgv/2hI/r/juyQ1C18+r0yK07KCLGmlELZSWP7hju7k8TF3xH1+UnxJy+ec80iKm8+P5iuz6fp+PqdYQpL70S2v6H8hL28/nJpT+0dXJtLoss+HU/O/Occlsc41Zd75fnTXvLq/eb9XBBBAYEUCpDiwEEVNN9VdL+Fece746+UTvYz1iW8W6EsvshSPhbFMOPMx5VKDVrKy5I3SzvL41G4Wzfb8Q7f0oF0XfamjfZfbmxDtfGRua1xv3j/5moXxTrvn8/I/HgrBnWqwbG+q5mJb5phfB83ldvIa7fHnwcEPPhTXvBw5sz+XE7xDAAEEnkqAFJNiSXHgMfDU2aK42EU0s7Bl4bkW3eK07u342Pw5J5X32+ivPU4hu9azqGYJbz+3x15S5euk8rLv2/H/zfqKuVLKz4I9kTZfd77dkmuckum8L7d/Xeuo0SyvOQke/aOgX8fbpb7X17zwP1/r/EdOmvxX8yYFd1RDXis8SpYvfzZ7vAZ9fL7PCCCAwPoESHFgIZK41ktco7JcfwpRwb8RuIjotaT+W4ubPiuL9Y1/yGy6dsUhgMDLECDFpFhSHHgMvMxMpaMIIIAAAggsTIAUBxaiqOmmuusl3AvPD5pHAAEEEEDgZQiQYlIsKQ48Bl5mptJRBBBAAAEEFiZAigMLkcS1XuIaleXC84PmEUAAAQQQeBkCpJgUS4oDj4GXmal0FAEEEEAAgYUJkOLAQhQ13VR3vYR74flB8wgggAACCLwMAVJMiiXFgcfAy8xUOooAAggggMDCBEhxYCGSuNZLXKOyXHh+0DwCCCCAAAIvQ4AUk2JJceAx8DIzlY4igAACCCCwMAFSHFiIoqab6q6XcC88P2geAQQQQACBlyFAikmxpDjwGHiZmUpHEUAAAQQQWJgAKQ4sRBLXeolrVJYLzw+aRwABBBBA4GUIkGJSLCkOPAZeZqbSUQQQQAABBBYmQIoDC1HUdFPd9RLuhecHzSOAAAIIIPAyBEgxKZYUBx4DLzNT6SgCCCCAAAILEyDFgYVI4lovcY3KcuH5QfMIIIAAAgi8DAFSTIolxYHHwMvMVDqKAAIIIIDAwgRIcWAhippuqrtewr3w/KB5BBBAAAEEXoYAKSbFkuLAY+BlZiodRQABBBBAYGECpDiwEElc6yWuUVkuPD9oHgEEEEAAgZchQIpJsaQ48Bh4mZlKRxFAAAEEEFiYACkOLERR001110u4F54fNI8AAggggMDLECDFpFhSHHgMvMxMpaMIIIAAAggsTIAUBxYiiWu9xDUqy4XnB80jgAACCCDwMgRIMSmWFAceAy8zU+koAggggAACCxMgxYGFKGq6qe56CffC84PmEUAAAQQQeBkCpJgUS4oDj4GXmal0FAEEEEAAgYUJkOLAQiRxrZe4RmW58PygeQQQQAABBFaQ5wwAAB7cSURBVF6GACkmxZLiwGPgZWYqHUUAAQQQQGBhAqQ4sBBFTTfVXS/hXnh+0DwCCCCAAAIvQ4AUk2JJceAxsLeZ6vf7z+bw/qvr1q/mdPjRfPs+/vnZnP7knqdjjs1X/tg0TWrj2/Gj3fJ1/FG0Vxx042157o1Dus0fzdv3so7y6LRvWFO5t3w/7G+5Z/x+4np/Ts3hZg3j84dcrvfaggACCCBAigMLkcS1XuIaleW+prCzBL993uvVhHB+Hptvh1Pzuz1t2MbfSvHD49O1riR9LO3Dz/f6M1uK2z4em7fJfyQMr3dhkViN9k1+viX39+6DfQgggMD+CJBiUiwpDjwGdjUlpeQzyW1+nercjX1JZlv5bNPTeyJ4L8E9C/UlqZ4qIG+bSG7zruZa3NsEelJIb9d6qePetfqLTryZc96cYyaatgkBBBDYIQFSHFiIoqab6q6XcO9pTmrFsZDi0/G2MLZpbbdEomQwTnrHn8tjr98nQfzRL7243l9u6Y69Kbr35Ltrp0id76XJqQ/f+uUYf3PdR8dmvpLi8s56jwACr0uAFJNiSXHgMbCfqasTuEKK2+UQg6UR1709C2MpjcNj/kqK+5R5htC2afAtmUx9edBGl3h/tWuoP67WRfe9aPv/szk8aq8/oXyT6rhVYz5uzjH5WK8IIIDAvgmQ4sBCJHGtl7hGZbmX6amV18PP89rgfonEeTnD9BreUjo7Ce2lNiegN14nEubEsRXs40f7ei+5PTNP17zRfru9rG90l9o6z/v7NcXFtvLor2OS2q5/acfDPpbXfVRjrv+ROJcVeY8AAgjslwApJsWS4sBjYB9T06/mdDw1v3MqnMTvcGpSipq/RaKVwf6X6ca9LqSx25UEN4vtvLQ4tdHJYXf98y/uja+VPxfH503963U9/a52ycRFQnspTge0wnvZ158zsUb5su/eu3s15vPmHJOP9YoAAgjsmwApDixEUdNNdddLuHc1PY2keCCld0V1LKG3v4GiXbc8kRTnlDjzvCXS7XF3E+KcvhavxdfDXdYGn680kOK0qRXj8dfIlf1L74u2x+8H/3B4cGx/7pSIZxJeEUAAgdchQIpJsaQ48BjY1VQ1kuKHv2jXC2Apjd2Si37feVlE/iaHSdlt09ty2UGimtq8L4tJaHMaXcpt+T7fn1am25ruLQnJv+TXHdPLe9m/8n1uvXvN/PrNj/swp599c94ggAACOydAigMLkcS1XuIaleWu5qcsdROp8DmhvSGpvdQmCcxiWZBp9+d0ddRGty/LbXFW07T7RsenA7o0d3qtc75Oeh2L9qD19sOUQF8fVYpw+X50ZKq3/8fAmUXq1+UaHZ/vl6UlqYW0/3LeqE0fEUAAgRciQIpJsaQ48BjY1Vw1kLrcs07k2tT0nKDm1Lc9ohXXY/OVX/NpM15bGXyQBp/F+LKc4ZL4Di9wEc9ye1l7uf3yfvq8y/7zu9ROFuyL2E5KeZlGd0nzzWu0ct+1O8l+XIfPCCCAwL4JkOLAQhQ13VR3vYR7V9NTKWat5E6nrWeZ/dGmm/9rv52hozA3we2+YWJ+OlrK7YPlD/063ZwYZ5mdvlM3hXVw+FiKb7RZ8ivPv8Nl8A+M8hzvEUAAgRckQIpJsaQ48Bh4wTlLlxFAAAEEEFiEACkOLEQS13qJa1SWi8wKGkUAAQQQQOAFCZBiUiwpDjwGXnDO0mUEEEAAAQQWIUCKAwtR1HRT3fUS7kVmBY0igAACCCDwggRIMSmWFAceAy84Z+kyAggggAACixAgxYGFSOJaL3GNynKRWUGjCCCAAAIIvCABUkyKJcWBx8ALzlm6jAACCCCAwCIESHFgIYqabqq7XsK9yKygUQQQQAABBF6QACkmxZLiwGPgBecsXUYAAQQQQGARAqQ4sBBJXOslrlFZLjIraBQBBBBAAIEXJECKSbGkOPAYeME5S5cRQAABBBBYhAApDixEUdNNdddLuBeZFTSKAAIIIIDACxIgxaRYUhx4DLzgnKXLCCCAAAIILEKAFAcWIolrvcQ1KstFZgWNIoAAAggg8IIESDEplhQHHgMvOGfpMgIIIIAAAosQIMWBhShquqnuegn3IrOCRhFAAAEEEHhBAqSYFEuKA4+BvcxZHx8fjR8MjAFjwBgwBtYcA6Q4sBBJXOslrlFZ7kmK99IX/UAAAQQQiEmAFJNiSXHgMRBz2rmuOiUD/kMAAQQQQGBNAqQ4sBBFTTfVXS/hXnPyqHltUlyTprYQQAABBP6FACkmxZLiwGPgXx76LZ5Dird4V9SEAAIIvBYBUhxYiCSu9RLXqCz3Ml2R4r3cSf1AAAEE4hIgxaRYUhx4DMSdeoaVk+IhD58QQAABBJ5PgBQHFqKo6aa66yXcz58ylrkiKV6Gq1YRQAABBOYTIMWkWFIceAzMf9S3fSQp3vb9UR0CCCDwCgRIcWAhkrjWS1yjstzLJEWK93In9QMBBBCIS4AUk2JJceAxEHfqGVa+uhR/HpvD+69hUenTn1NzON77DuWP5u37z+b05/pUWxBAAAEEYhEgxYGFKGq6qe56CXes6eZ2tWtL8e/3n83bZ1FfluS7UpyE+Efz7cbPpGQXl/AWAQQQQGBbBEgxKZYUBx4D25pO/r2a9aT4WmyTHH8dp2U3i26S6CTDA5HO3U8ifTg1v/NnrwgggAACIQiQ4sBCJHGtl7hGZRlilplR5HpSnIr71ZyOZ4k9J8YfzVuW2omkuBXibv/XcbR04vPYfMvnzui3QxBAAAEEtkOAFJNiSXHgMbCdqeS/VbKqFBfimyT37fjzsr642Dfdw3PS3KfLd9cfT7dgKwIIIIDANgiQ4sBCFDXdVHe9hHsb08h/r2JVKc7rh1NifDg2X2V3Hkpx09xdSlG25T0CCCCAwKYJkGJSLCkOPAY2Pbv8RXFrSnFaP9yuFU4C3C59uF5nnH+ZLq8pTl27te546ti/QOFQBBBAAIGVCJDiwEIkca2XuEZludK8Uf2ya0px6szNtHciKc4yfDgUyyzGRPr0ebzDZwQQQACBrRIgxaRYUhx4DGx1YvnbutaW4vb7iNuvVpu/fCKJdJkcD/pMigc4fEAAAQQiECDFgYUoarqp7noJd4RJZk6N60pxWi7RfYtE+vaI8pflJpLi3J+cLuflEuPXm8KcG/CKAAIIILApAqSYFEuKA4+BTc0m/6GY9aQ4/XLd8GvV7spuIcyS4v9ww52KAAIIbJAAKQ4sRBLXeolrVJYbnFP+qaT1pPifynUSAggggMAOCZBiUiwpDjwG9jInkeK93En9QAABBOISIMWBhShquqnuegl33KlnWDkpHvLwCQEEEEDg+QRIMSmWFAceA8+fMpa5IilehqtWEUAAAQTmEyDFgYVI4lovcY3Kcv6jvu0jSfG274/qEEAAgVcgQIpJsaQ48BjYyyRFivdyJ/UDAQQQiEuAFAcWoqjpprrrJdxxp55h5aR4yMMnBBBAAIHnEyDFpFhSHHgMPH/KWOaKpHgZrlpFAAEEEJhPgBQHFiKJa73ENSrL+Y/6to8kxdu+P6pDAAEEXoEAKSbFkuLAY2AvkxQp3sud1A8EEEAgLgFSHFiIoqab6q6XcMedeoaVJyn2g4ExYAwYA8bAmmOAFJNiSXHgMTBUy7if0iToPwQQQAABBNYkQIoDC5HEtV7iGpXlmpNHzWuT4po0tYUAAggg8C8ESDEplhQHHgP/8tBv8RxSvMW7oiYEEEDgtQiQ4sBCFDXdVHe9hHsv0xUp3sud1A8EEEAgLgFSTIolxYHHQNypZ1g5KR7y8AkBBBBA4PkESHFgIZK41ktco7J8/pSxzBVJ8TJctYoAAgggMJ8AKSbFkuLAY2D+o77tI0nxtu+P6hBAAIFXIECKAwtR1HRT3fUS7r1MUqR4L3dSPxBAAIG4BEgxKZYUBx4DcaeeYeXbkOJfzelwbL6Gpd349NG8ff/ZnP6Uu9P5423lfu8RQAABBLZMgBQHFiKJa73ENSrLLU8uf1PbVqX49/vP5tv3H/3P2+e5V+Pt377/bN6Ow2Pb847+KMnfjAPHIoAAAmsSIMWkWFIceAysOXnUvPaqUvzn1BwK8c0SnAQ4ye9ZhIsUOR1/ODW/82sCUbw/C/PcxLkmRW0hgAACCPwXAqQ4sBBFTTfVXS/h/i8P/5bOXV2Kk+Q2F/HNMpxfm89jJ8dN83U8L5FoXz/Pgnw6XtLkLNXfvhPjLY0xtSCAAAKPCJBiUiwpDjwGHj3gUfZvW4o/mrdWms80z0lwIcHHj+br+KOX5vNRF8GOcg/UiQACCLw6AVIcWIgkrvUS16gs9zKBrS7Fj5ZPFMsjzsyHv2iXpPiSEOf3kuK9jE/9QACB1yBAikmxpDjwGNjLNLW6FD9aPpFAfx6bw/uvFnkpwWnNsaR4LyNRPxBA4JUJkOLAQhQ13VR3vYR7L5NXKCn+PDbfDqfmlNYWW1O8lyGoHwgggEBDikmxpDjwGNjLHLZpKX7P306Rf8HuvCwi/8JdugeS4r2MRP1AAIFXJkCKAwuRxLVe4hqV5V4mr9Wl+NGa4gnQYym2pngCkk0IIIBAIAKkmBRLigOPgUBzzd1SV5fi4tslUqH5q9jy61TxYynOf9jjfKxvn5hiZhsCCCCwZQKkOLAQRU031V0v4d7y5PI3ta0qxX9TqGMRQAABBHZLgBSTYklx4DGwl5mJFO/lTuoHAgggEJcAKQ4sRBLXeolrVJZxp55h5aR4yMMnBBBAAIHnEyDFpFhSHHgMPH/KWOaKpHgZrlpFAAEEEJhPgBQHFqKo6aa66yXc8x/1bR9Jird9f1SHAAIIvAIBUkyKJcWBx8BeJilSvJc7qR8IIIBAXAKkOLAQSVzrJa5RWcadeoaVk+IhD58QQAABBJ5PgBSTYklx4DHw/CljmSuS4mW4ahUBBBBAYD4BUhxYiKKmm+qul3DPf9S3fSQp3vb9UR0CCCDwCgRIMSmWFAceA3uZpEjxXu6kfiCAAAJxCZDiwEIkca2XuEZlGXfqGVaepNgPBsaAMWAMGANrjgFSTIolxYHHwFAt435Kk6D/EEAAAQQQWJMAKQ4sRFHTTXXXS7jXnDxqXpsU16SpLQQQQACBfyFAikmxpDjwGPiXh36L55DiLd4VNSGAAAKvRYAUBxYiiWu9xDUqy71MV6R4L3dSPxBAAIG4BEgxKZYUBx4DcaeeYeWkeMjDJwQQQACB5xMgxYGFKGq6qe56Cffzp4xlrkiKl+GqVQQQQACB+QRIMSmWFAceA/Mf9W0fSYq3fX9UhwACCLwCAVIcWIgkrvUS16gs9zJJkeK93En9QAABBOISIMWkWFIceAzEnXqGlW9Vin+//2y+ff9x/jmW36X8qzkdjs1X143Bcen4wbHpoI/mLbcz+fqzOf0ZMvEJAQQQQOC5BEhxYCGKmm6qu17C/dzpYrmrrSvFt4X18P7rRqevpfjtszv0z6k5TEnx4dT8nmwttUWKJ9HYiAACCDyRACkmxZLiwGPgiXPFopdaV4qvu5aS31tC/HXskuOc+B4/mnT8QynOx0++kuLru2ALAggg8FwCpDiwEElc6yWuUVk+d7pY7mqRpLilkNLg78PlEw+lWFK83ADSMgIIIFCBACkmxZLiwGOgwhywiSbWleLbyyf69cQp3S2k9rKG+CzGj5PiTWBWBAIIIIDAHQKkOLAQRU031V0v4b7zbIfata4UX6O6t3yiaX41p+OxeUu/aNetH74txWm98Gi5xeTyiXzMJX2+rsoWBBBAAIElCZBiUiwpDjwGlpwcntl2JCk+C/DwF+2+jsWa4MlftGua5vN4c53yM1m7FgIIIIDANAFSHFiIJK71EteoLKcf63hb15Piv0xyD6fmf+/pWyRKKS7fN03TS3FalpGT38fX6dckx7t9KkYAAQR2QYAUk2JJceAxsItZKH2L70f5HcDr9+r+8olUXyHCSYKL9cYDKS633+lW+kYLUnwHkF0IIIDAEwiQ4sBCFDXdVHe9hPsJc8RTLhFZiq+ENifF+fUhwZQoF8svHh7vAAQQQACBJQiQYlIsKQ48BpaYFNZocxtSPPwWivvJbZcUj1PiFt6lncnvOv48Xv5KXvdLd5PHrXEjXBMBBBB4YQKkOLAQSVzrJa5RWe5l7tqGFO+Fpn4ggAACCPwLAVJMiiXFgcfAvzz0WzyHFG/xrqgJAQQQeC0CpDiwEEVNN9VdL+Hey3RFivdyJ/UDAQQQiEuAFJNiSXHgMRB36hlWToqHPHxCAAEEEHg+AVIcWIgkrvUS16gsnz9lLHNFUrwMV60igAACCMwnQIpJsaQ48BiY/6hv+0hSvO37ozoEEEDgFQiQ4sBCFDXdVHe9hHsvkxQp3sud1A8EEEAgLgFSTIolxYHHQNypZ1g5KR7y8AkBBBBA4PkESHFgIZK41ktco7J8/pSxzBVJ8TJctYoAAgggMJ8AKSbFkuLAY2D+o77tI0nxtu+P6hBAAIFXIECKAwtR1HRT3fUS7r1MUkmK/WBgDBgDxoAxsOYYIMWkWFIceAzsRYr1AwEEEEAAgbUJkOLAQiRxrZe4RmW59gTi+ggggAACCOyFACkmxZLiwGNgLxORfiCAAAIIILA2AVIcWIiippvqrpdwrz2BuD4CCCCAAAJ7IUCKSbGkOPAY2MtEpB8IIIAAAgisTYAUBxYiiWu9xDUqy7UnENdHAAEEEEBgLwRIMSmWFAceA3uZiPQDAQQQQACBtQmQ4sBCFDXdVHe9hHvtCcT1EUAAAQQQ2AsBUkyKJcWBx8BeJiL9QAABBBBAYG0CpDiwEElc6yWuUVmuPYG4PgIIIIAAAnshQIpJsaQ48BjYy0SkHwgggAACCKxNgBQHFqKo6aa66yXca08gro8AAggggMBeCJBiUiwpDjwG9jIR6QcCCCCAAAJrEyDFgYVI4lovcY3Kcu0JxPURQAABBBDYCwFSTIolxYHHwF4mIv1AAAEEEEBgbQKkOLAQRU031V0v4V57Aql9/a/jj+bb4dT8HjXcbj9+jLZ2Hz+PzbfvP+b/pHb+nJrD4Jxj85WaS20Nrv/RvH3/2Zz+jC+dtv9o3j6ntndtjXf5jAACCCCwaQKkmBRLigOPgU3PLn9b3KTc/mxOn2OB7QQ4S/KVyM64cCvFhQi3bf1qTocfzeH9V9HADSkeXPN83lmQ0/GkuADoLQIIIBCGACkOLEQS13qJa1SWYWaah4UW8pmEMwtvcxHO3+8/R8LaNToQ1GJb38bExQspTil0K7SpnZQKv99InosEOZ3Ty3Nqq99Hiido24QAAgiEIECKSbGkOPAYCDHLzCjyLKZJgC/pbSudA0FumiTGV0sW/osU90KbZDYl0OOlEoWs535kee6WVLRLOwZLMYZLOa7qze14RQABBBDYFAFSHFiIoqab6q6XcG9qNqlSTJbQc0J8e61wsUShk+Kv95+P1xXn9LhLik9d+nxOfk/n9cPtco3cfq4ndy7X1clz204p0un4fG4+xysCCCCAQAQCpJgUS4oDj4EIk8y8Gi/LJB4e3wlt+4tx6eCJpDglypclGOcWB9tyG/m1PSQLcFlL3la2cWpOh7MIXy/pIMVnUv4XAQQQiEeAFAcWIolrvcQ1Kst4U86tiksRzWnscBnCt5zADkS2k+KcAHfNX8vqeenFYB1w195lfXAhwL1oF9uapvk6phQ41Vemw2WfSHFJw3sEEEAgEgFSTIolxYHHQKTJ5n6tYykeS2chmw+luGzrctWBKJdtJAFupboU4Pw+v17aaQopfrSeuF3+0f8SXtmG9wgggAACWyNAigMLUdR0U931Eu6tTSj/Xk8psuf31+uJu7W6pdA2owQ4FZAkN6fKRUGXRLjpvqf43N5lWcWUAE9tS/WNpT1fKB1vTXGm4RUBBBCIRIAUk2JJceAxEGmyuV/rWIrH0lnI5kCKy/PSFdJxU39UIy19KLa3beTlGflaUwI8tY0U37+X9iKAAAIxCZDiwEIkca2XuEZlGXPamaq6lNvz+1lJcb/2NyfExfcHDy4zkuWBWOcDpwR4ahspzsS8IoAAAnsiQIpJsaQ48BjYz2Q0luKc3l562C5zyN8H3P1iXZ/+tksmRucM0uDRn49+IMVT17pUQoovLLxDAAEE9kOAFAcWoqjpprrrJdz7mYr0BAEEEEAAgXUJkGJSLCkOPAbWnT5cHQEEEEAAgf0QIMWBhUjiWi9xjcpyP1ORniCAAAIIILAuAVJMiiXFgcfAutOHqyOAAAIIILAfAqQ4sBBFTTfVXS/h3s9UpCcIIIAAAgisS4AUk2JJceAxsO704eoIIIAAAgjshwApDixEEtd6iWtUlvuZivQEAQQQQACBdQmQYlIsKQ48BtadPlwdAQQQQACB/RAgxYGFKGq6qe56Cfd+piI9QQABBBBAYF0CpJgUS4oDj4F1pw9XRwABBBBAYD8ESHFgIZK41ktco7Lcz1SkJwgggAACCKxLgBSTYklx4DGw7vTh6ggggAACCOyHACkOLERR001110u49zMV6QkCCCCAAALrEiDFpFhSHHgMrDt9uDoCCCCAAAL7IUCKAwuRxLVe4hqV5X6mIj1BAAEEEEBgXQKkmBRLigOPgXWnD1dHAAEEEEBgPwRIcWAhippuqrtewr2Xqejj46Pxg4ExYAwYA8bAmmOAFJNiSXHgMbAnKd5LX/QDAQQQQCAmAVIcWIgkrvUS16gsY04711WnZMB/CCCAAAIIrEmAFJNiSXHgMbDm5FHz2qS4Jk1tIYAAAgj8CwFSHFiIoqab6q6XcP/LQ7/Fc0jxFu+KmhBAAIHXIkCKSbGkOPAY2Mt0RYr3cif1AwEEEIhLgBQHFiKJa73ENSrLuFPPsHJSPOThEwIIIIDA8wmQYlIsKQ48Bp4/ZSxzRVK8DFetIoAAAgjMJ0CKAwtR1HRT3fUS7vmP+raPJMXbvj+qQwABBF6BACkmxZLiwGNgL5MUKd7LndQPBBBAIC4BUhxYiCSu9RLXqCzjTj3DyteX4o/m7fvP5vSnrGtq23n/7/efzbfvPx7/HD+a5vNYHNdd48+pOaR93X+pvbfP/Kl7/Tw2h/dfw42preK84U6fEEAAAQT+CwFSTIolxYHHwH95+Ld07tpSfC25x+Y0Jb6dkE5K7C2gvcj+ak6HY/PVNM3X8cdAgqfa+zpeJL1/37d162K2I4AAAgj8KwFSHFiIoqab6q6XcP/rg7+181aV4pTaHk7N7+YirW262247C+w4nb2S2Huymvfl5Ddd7/sN6e6u2fQ1pTv10bzl7bmtrd1A9SCAAAI7IECKSbGkOPAY2MEc1HZhTSk+p7AfzaldqpCWTNxaFnFOeVPBU1J8tdQh35xWZE9dSpzEO7V/aWuqvdR+L+Lp/Bs13bxmvrZXBBBAAIHZBEhxYCGSuNZLXKOynP2kb/zANaW4RfPnV/NViugVryJF7qX4nkD/aL6N0t1WpN/TWuJOkIs0eCjZXbvtUo103csyijbBtqb46u7YgAACCNQgQIpJsaQ48BioMQlsoY11pThJ6Dm5bRPaUSp7TmOnpLggl5dG5E2F8F5ENi+DuLSV1xaXUpzeH47H8y/ipXZKCbZ8IhP2igACCFQnQIoDC1HUdFPd9RLu6jPCSg1uSYoHSxJ62b2IbEJUSuzU53ZNcJbZXmSzfBdtdfvK9r7eT83vsQzn+9K3lTd4RQABBBCoRYAUk2JJceAxUGsiWLudLUnxeP3uVFLcfxtECy5JbrHEIW0rpTaJbE6f+yUR99cU9+eX5+Y2yte8RGPtG+j6CCCAwA4IkOLAQiRxrZe4RmW5gzmo7cKWpPhxUpwT3zP9lPL2vxSXb0iZ6Jbv2/1FUtwdXybF7aZSqnOb6fWqrXKn9wgggAAC/4UAKSbFkuLAY+C/PPxbOndLUtynul0ie5UUF2Ka1gSPv0kicU2S28t1cfyZOSne0thTCwIIIJAJkOLAQhQ13VR3vYQ7P8jRX7cixdcck8B2X9HWLVXISydaIc7rhtOJSX77pQ3FcoqbUly0PfqKtn75xLigq7bGB/iMAAIIIPCvBEgxKZYUBx4D//rgb+28daV4azTUgwACCCCwBgFSHFiIJK71EteoLNeYNJa4Jilegqo2EUAAAQT+hgApJsWS4sBj4G8e9i0fS4q3fHfUhgACCLwGAVIcWIiippvqrpdw72WaIsV7uZP6gQACCMQlQIpJsaQ48BiIO/UMKyfFQx4+IYAAAgg8nwApDixEEtd6iWtUls+fMpa5IilehqtWEUAAAQTmEyDFpFhSHHgMzH/Ut30kKd72/VEdAggg8AoESHFgIYqabqq7XsK9l0mKFO/lTuoHAgggEJcAKSbFkuLAYyDu1DOsnBQPefiEAAIIIPB8AqQ4sBBJXOslrlFZPn/KWOaKpHgZrlpFAAEEEJhPgBSTYklx4DEw/1Hf9pFJiv1gYAwYA8aAMbDmGCDFgYUoarqp7noJ97ZVV3UIIIAAAgjEIUCKSbGkOPAYiDPVqBQBBBBAAIFtEyDFgYVI4lovcY3KctvTi+oQQAABBBCIQ+D/A5kqei7bCQGgAAAAAElFTkSuQmCC;" vertex="1" parent="1">
          <mxGeometry x="970" y="40" width="195.76" height="230" as="geometry" />
        </mxCell>
        <mxCell id="kEirQazwxM-ynIQ75gN8-13" value="微官网网申申请表（V3）" style="shape=image;verticalLabelPosition=bottom;labelBackgroundColor=#ffffff;verticalAlign=top;aspect=fixed;imageAspect=0;image=data:image/png,iVBORw0KGgoAAAANSUhEUgAAAisAAAFeCAYAAABEqV/HAAAgAElEQVR4Ae2d748c1Znv+8+Yt5Z4sUhXWtC8wdr7JpZYbVDYbOauX6ylSEHWvkCWR0LeRYt9SdhRa7XimvQO8o3A6xAC6YkX7jgzEPsahzFLsGe42J5hsBkDdgaDnQzGsww/MwSHPFfPOXV+1KlT1VXd1d2nq78jNV1ddeqcU59z6PPxc05V1wh/IAACIAACIAACIBAwgVrAdUPVQAAEQAAEQAAEQIAgK+gEIAACIAACIAACQRMoT1Y+26CNjVavTQljc40WT87R3Jk14j3zEzWq1WpUm5jXsFYP3iX3ffMQreq9XdrYbFXvFsejy0qv3Ro1t0fXuL1Ja+kJ5ZFW9flMZWDyHZtaI2KuFzfUQfl+Y472/V2d5vU58cN05gBtu3MbbbtzDx1tWTHnXDLl1/JcFxGtnTxAhxbSgem+kDO/eI2s+lh9KZ4Gn0AABEAABAaNQAFZmac6C4X3Vae6Eg7vcWegvtqkMU4XDUh6gFIDzGdztGdEnnPr9j20/+H9zutoqQKzNjWWcl1p1xvfL0Qhs+WtQTTHINyyPoqTJQtjD++nncx0ZBcdvRFV5sY07Yw41u5IEZaFenTtY9S8mnkRnoPFrksLqKrjpaNOu+6nXd+M2N62g/a57f7EPLGKbSwcSpwn+8g+2nFbdP43d6Wk2U+HFhyh81wZdoEACIAACIRDIEBZ2aT5ia0t5KFOJgbTOcyWcpAlYLUaaVlZO0p7RJSCIxXx161KGkZuTRxzIxuyPjvpwMk5aj64TbL4+wM0d/KAFBKfrEyt0uLDt4u0t0/Mi4gVk9k4sY+2qvr7hCWPrJR0XbS5SPU7pEyMfHea1nTZcfnzC7GR29Laq/OugxxAAARAAAR6QKCArHBtNmltTYXwN+jovSNycHzQDI6izmfqNCIGyD00p5LbF5MRWdlcqEeD6wjtOjhHc1N7aFvtVtr1xBzN8dSReK2If2HbWXayrQc/EfXYpI0bptIbl1Zp46a9b4NWFlZo46aJKmhZUdel5KDQu4lsyPpsoS3/bR8dOhhFfSYO0SEVdfDKyhoRR1JuuYv2TK1oWWEuq1M7RHuM3L2fFp2gwtozOyIxNOUnWJZ0XZwvt+/tzOWWHdR8l2jTmTo8+kAkLt85RCvOsc2bsmabVxetvqD6BL9P0747o/OF3NnHzPbiVdO+iWvFDhAAARAAgeAIFJIVMeiNbKN9JzZo9Rk5AOrpBbUO5eQcTU9E603++z5qasGYozm1nkINfu400PYdtCOKQIz84xxt0iYt/ksUZRmRg1s3CGpZue0uGvvGCNVu20+LoqB5qquIiFo7c+kQ3SUG2zEai+TBJyt33WtPXVnTE+70xr0Rq5qRBVmfPbTvgRERhRGRhttup9u/eZcsmyMnYiBfoUPfkYPzrmfW5JqhG7y+xh2MN2nxyJx36kxfu1V+grFqr1qNOrkume8mLR6bozUhHkb4UqMplvDVF0zNNi4a+TASm0NWVB80WWELBEAABEAgcALFZOXIHtqmBm8xiGylulosaQ1oqQOPigiotK6sPNik6Xu2kBYgAW+Vmt+VEZzayE7xr/EE0xvztP+ebbTtnv00r9ZrJBKl79AD9vb9tP8eOfjvPLJBmyf3RREi3jdC+05umqmWh6f1olmfrNgDK1lrS9Q6HV0bPRXiykqd5pbm6JCeBqrT9MK0XDc00dRl+1nXad6Sx6xolL722u20f0nXKr6h2qtWo06uK56p/NROZIXP1OucLJnxs4giLSqd6oO+yhTcJ9jp/Fi8CkxPLtTN9GFauczds8aJrz3eDp4MdL9yrp856Dp7zsMuEAABEAiQQH5ZubEiQ+9iWib6Aty+n46KyMkirV2KFs3WttBWZ73G1lui9OpLcmOeDvHiyWjB5OKj0fqORxeJNldp5V2H1GfzVP/mGO1/xZnDiJKtPGrWuGx9dMU5ufVHPWBvb9Lq0n45TXHHHtoTicvYd6Mo0vZdtEss4OSBfVULg09Wdv7I/pe/9S/+O/fRtB1t+tHOxDSMrE/E8b9FonbLVtp251baIgabHLJiCYYcxP0D6eK/RPnXarTnhBuRidhZebV9XVYeXJ+xqXnNL5dkCNkwQrf6nB25UttWBCttge1zBe4t+7BJ9ESL1VEsBaJfF5QVvjNqaiwuLK7AaFlpEYGamE/Im5GZ4vVq/X8MUoAACIBAbwnkl5Wsf6nVdtHRJSUrPChu0Eo0IK/csP4VrGSFv6if25Oy0DS+MDW2UJVlxvO3eWa/jPiM3EWHLnoStNhly8oarZq1ITxAjuyjuc8Wab+6y4T3iSkhM4D4ZCX/AKz+5WsG4hibmKxYUieuaZ72iUG8RrV7j8bX8ahFsXdsiWTIJyubNPePqvwa3f5DP19yRKPYtUXX5eQxNrVI808oycj7fojmN5LrXMwt82ZarPbA0Yxb6VOkTPeTNaLv14iON+VrR43oDX0wZSO/FNiRkfkJ1e7zVHejKFpW4kXa58eO2Okd3qbNfP0glgs+gAAIgEBwBPLLinoexzdujaZGRujWb2wjGTWp07z+cuQvQ3ObM/8LT4fsbVlp53Zh6/wyScZlhWLTP7c/LAfw1SfU2pIa8RSRPbXjk5Utd8SlK/VuIC0TatDapLUzJiozraeB+G4gtT9aYKyZ16x1Ng4ZLZm+QWqVDqkFqSw9d6Y808Yqp+3rEtNSJsKkmMXEzInIxUT1zgNmHZEStLbffSwcbvzx+BjRjrrnABFprkb2jBDY+1S7mmx8suHu0//PiGsco+aC+seAnbe5Q0rkzu2khMfe1kXnFyp9CjZAAARAIAAC+WVFVVYPXPJLWHypfqdJq3q/LSsjVD/TSlbkLbpmIFYDsnk/8PfRF3SPZIUuHqBt0UCop0bO1OlWsW8bHbrEMLIjKyYMH0/bes2Kydc/+DGLaLB9ZV8UNeF9yUFRNJkeVD0DtG4zNQDeFV2bauzo3UrX/nXFOWhZUdKadku3iiypa6ZVOuo+f+XhPTT2Z+oaond3IfPDddr5zTHaI87N8ZweFhUxBTSfLiw2JsEoydhETuT/B0reYxy5jSbmk9NCnKctH27/t49zXezP1jbLuCwPsmI3GbZBAAQGh0CHshINrPyFyl+OYjCXsiKnJyyh4WPWl62OZuhBiKGt0fS9MiKx4wmz9kT/K9M6v0zEui5iYNjQt2QLWbhnmjZog6aj9Su8Tz7HxEiFGnjt6ZJ9x+yn3lrTE+4tuceUcBjZsBedrqhbl2PTGnIaY/WgfAbL7bfJ56vIiI9DJiYrm7RysE7T0cPfTLRoJ+2MhFBFkmK56LatUSfX5RM8zd5dyxNFkXRkKdZP7Npt0NyD2/RC6K3bx6Jb363F3zdXafo+TjNCO6YKrFmxi2mxLa4j0T+5j6h2NaIQi6JYUkEiImkJj33MaoOYxCqZ4fq56aNjXDfISosGxGEQAIGgCXQoK6vU5Ftn+Utaf5nWaf7SoSgysYuObrSKrFhfzptztEdFNJ7b0M8KMbIyR5utlhu0gVsPmLzAVj0HpDZCI+LOp9upfnC/HABHRqJBcSdN38iWldiAEl1T9r5oUFOLjx/eT3v4DicVWeAFtrEpI7O2Zt+PokiQur3aZqBlZRfV/0UO6nc9sUp04yjtUreJPzBHq0eshb7uAmfdtk70osh1iTolmWn2LfOy+om6vrU5qt9tFgjfLp73s0nzD0p5q43soANT+2lMLfCu1WjL3zW9t3CrLNt7l9eloiZaXkX0Lap3FD3h/LWsCK7x6zJi4ZEPV4ZsOeGM7c/WtsnTCFN714mzQAAEQKA/BDqUlWghLT+7Qnzx8mDGDzKL1nf8GS9OzS8rG3rA5HzUv0it8x/cR/tqW+iuew/Roi0tn63Q9MN7aM/D07SS9hs4GXz1gPmdXbQresLq1h8u6tuUlWTcdXBeR1juemJO382iByfNoJNB3Vo0aw/gaprkjq20dXud5k5Edy3V9lgLgG+nfa/YYHxrK7ZS/ZUVczt4bau8ZdmWl+86A3op18UNYMnKo9N04EfztKqmgdyIU/RAOB1ZsiMrN9do7uExeWeUxUi3A989FrWjaruRb+yh5pL/brKMrpHrkOg/VoRDfBZiwWu3pIxoQVGyMsWRSNPHdUGWZCj5aPIi3LxrViIeYxN1PYVkpqIgK5ozNkAABAaKQIeykrzWjVfUE2ijAfuWnXTofHKQMAsr5cLJjfOH9APh5ABjvsj1A8Ce2x9NNe2gaetH9xZ/GP1LulajbQeLh/m1rKiBb4QFgIjUA+B4f7RPPntlC41NHKJ69OOEepC0BvX2p0s2aOW5aTq6tEYbN9Zo7d0N2ryxSM2HD9Hi2hztuWWEdjw1R4eiskce4IfnkREr95H6OrLC7cGiskpzD5hbveXD92Q7Lv7Q7N+621rXUcp1cRlGVkQbb2/SvJIVxT71PYpAvNukMftZP7dso23RnVq6HfhJy8f2RGuM+LpHaNt9TVps4xk8yR7u7BFsTF+NHbXFwzogI4XuOcwmvk9FFMUUDueVEVmJpbXKMguB43nbSbANAiAAAqETKC4rPFiIAcX58nP/tXvHTtqpQ/RbaOcT8UfAM5jNjVVaPNak+t+pO4z4Mexbon8xj9COg4u0ph+5vkpz6sm4+gmzEu/mK/uic7ZS/YwTWcjRAlpW7txFu+7eQrueU3K1QUfv20F77ruLdohfNd6gTfGLyPyjO0f1jy2aQTKtMGuQtv4FnpZ647ldVKvtpOkj/LMFu+jo1TnaN1Ijnr5Zfcr+0cUoKsIZWWI1YkVGzLqUrbTvxKJ86J4Sgtv2xX+N2YlIjHxjPy1Gj7j317XYdRFF04aq/O9YspJ7zYq6g4kFZJpWb5o8t91bpz33RM+i4We5PDpN+3UflNJy6927aP/UfPQEXf9V5d4rRND5/8A62Y24yDUpUuLlGhIrsbNeheVD96uYcMrzVcRISZ/l7jpTKTBqmim6Q88VHp0aGyAAAiAQLoH8srI5T/U7t5G+BdcKYW9ePEQ7rHUBtTv20Zz4V6yz+JH/tX5zkQ7crZ79Ef/i3bL9AC1uOM80UQOb9a6iCTGsn23QRhtTQJyHlhUWiazBOXb3jar7SOunidoRhZayEi3m5YW9G0dpV/SwNvEjhbftp7lje/T0x1brBwv5d5v0TxPcUY+mydZo+h5e02EWlhrZsRag2iAvHqK7osiFXANiH3S3C8oK/3ZR1I5b7jkkpuxi7EX26m6fQzR9rEn7lGzwHWdR8avHDtGc+n0fK+oTG8D1D0xu0MrUHrrL6p9xbu415fwsBEKJgDlHRThUXZSUyP1SbPQ1W32a02s5MdnJrUhWVF72YZGv26ciJr78RNkQFhshtkEABAaAQH5Zcf5VLH41V1/gRnQHjfrXrj4gNlandooBVg0S8bUpW2jrPXVqLph/G24uHaCdejGpkgJ+57TtPVI/XqP4Jz14uF/68WREa9O0wxlgttwzrQdRN7n5XGBQv9oU02Hylmn+qYFttJPvYLk4T0fF79pEv0rtTvdwYRwZ+cbW+LqVz+bpwKP2D03ywtwUUYkqLH5M0o26mIuxtgpcV3QW/77Utgfm9APskuzjD6qTg/4W2nnE9A+rAhziMndv3bKVdv7jIZpeWKE1V1xvbtDKsQO0614jPfF88AkEQAAEQCBUAgVkhUitHVnkdRTuFd1YoflLavrEPUi0et6eBuKFufO0subJJ3lq9/eIqR3fDwAmi7ZvK07+YGAyvdxjPejtzFqSnXvaTf4Jx6w/rmvK8azIUMop3t258il4Xb6CfOw5Sqan/zYo8buMbj43VmnF+qVs9zA+gwAIgAAIDDaBQrIy2JeK2oMACIAACIAACAwiAcjKILYa6gwCIAACIAACQ0QAsjJEjY1LBQEQAAEQAIFBJABZGcRWQ51BAARAAARAYIgIQFaGqLFxqSAAAiAAAiAwiAQgK4PYaqgzCIAACIAACAwRAcjKEDU2LhUEQAAEQAAEBpEAZGUQWw11BgEQAAEQAIEhIpAqKy8sXyG8wAB9oLM+kPe75OzZs4QXGKAPoA+gD/j7AGQFUgYp7WIfyCsrNz75nPACA/QB9AH0AX8fgKx0caBCVKKzqEQV+EFW/F88+EIGF/QB9IEifQCyAllBZKWLfQCygi/kIl/ISIv+gj7g7wOQlS4OVFWIDOAaOosOQVb8Xzz4QgYX9AH0gSJ9ALICWUFkpYt9ALKCL+QiX8hIi/6CPuDvAxWSlTP0T3/5D/RvXRx4EGXoLMowjPwgK/4vHnwhgwv6APpAkT7Qoawcoe/VavQX/3om57/OWSj+iv7pRNag56bhzzX63tO+c+SxWq1Gqa+/nKTDEJic7eNjjH2dSBZkBV/IRb6QkRb9BX3A3wc6kpV/28WiMknfq7USEDXgsdy0iH6cmKS/2PUPQoJSBaSm5MUVG1VO9M55QVYgKn2UVciK/4sHX8jggj6APlCkD7QtKywqtV1H5EDIUtBKQnjAyJGO8/VHURwREQMQIiud/Ksf5/r6VLn7QpKVY5OPUO3uR6g2ebbQM13efPagOO9bz17JPu/ycfoW53/fcXpTPTdG7bv7MB1T+zLfr9Bj98l6tiwvMx8MBEUGAqRFfwm9D7QlK0JU3IjF0/9AtVbCItJkRGHsPMS2f3rHTDshsgLhKFcuyuYZjKycPixFhWXi7kdo7+n8X855ZcWfrpV8nKW9UZ2ESGVu5xWe/NcW+hc06oe2RB+QfaCgrLhrVJxpHRE5SY+MiGmjv/yrlDUuMu+WwhML6SOyUvbgivzKlZ8wZMUIwd5JJS35B34VkckWHCUlB+mxZ1UZUSQnRUBkflHd7GhMImKi8s5fZ3zBY5BHH6hWH8gvK0JE3KiIIyvW1IyJfqgvf5VWvav90fuJSfrevx4xd/QgsoK1JjExdfrLgBzrv6wYUVHTKioCEpuuSQiC+qJTovAIqfO9g4Ca7smUDpWn/W7qh8iKzQXb3n6W2k/Bq+q88suKd3BIEQ9P2sP/+ld6jQtvJ2WGByOOlLRYgBvLG5EVRELClpj+yooRAVc08guLySNrrYuKvigB0p9ToiqmPlH+mZKjhAmRlaoPSLg+SFdaH+iNrCQW1rLkuFEaR1aiKSXfHUF+0Ql70IJUDGf79E1WVKTDWp+iBEWLgl7HcpAeu5zyJWnlU0tbJGunyZQOXxmWDKWIjYm4QFbSvsix39e3sK9K/aIHssJi4lnHYi+m1dESK7LCsqLuNtLHr5AdlVHb/C7uIFJTR9Z5xe4uGs4BFSLVvXbvi6woeXDEISErIqSuohZ+YVHnqLUu3nUrqjyWjahMRFYwUFZpoMS19L8/d1dWouhIaiREyIUdYSkgK5x3dEeSlhVLal5YNlNUEJbuDcYQnWy2fZGVlHl9JR46spKSTn8xKwkRAhJJjSNAMu1Z2jt5XN5y7D2e9UWHyIrm3ao9cDz71nnwqTSf7slKJCotn5kSS+fISsqTaRPyoyIqTvpEupjMZA8yGITBp4w+MLiy4om4qGkj73NabJlR56bfDZQlTEqqVJQGg3mW7OEY+sdw9IEOZaXsAc2RFWs6Rw0caupHfcZ72W2A/MrsU4MpK0Y23GkfNb2TlA2frHimliLh0edHn/eeji+0FcJyH98GfZy+xdEakQ5rVjAwD8fAjHZOtnNgsoKBssyBEnn1vz8NnKyoqR9rYa77xamEJR758MlKq8iKkqKDtPf0cflwOGcaSUdZ1OJb57hbN3xOfsmDCZhUoQ9AVjA1hOe5dLEPDJSsKFHJIwQq7d0qeuKTFXXMGizsyIrKI5pW0hKkxES9R/URx+87TMfS7lzCmoVKr1mowoCLa7C+Cwr+/wpZ6eJAhchG/yMb/W6DkGQFX5Ttf1GCHdihD/S3D0BWICuIrHSxD0BW+vsFhwEG/NEHqtEHICtdHKj6/a96lN//yA5kpRpflBjw0I7oA/3tA6mykvdLFulAAAQ6J4Avwv5+EYI/+KMPhN0HICudjzPIAQQ6JoAvyrC/KNE+aB/0gf72AchKx8MMMgABEAABEAABEOgmAchKN+kibxAAARAAARAAgY4JQFY6RogMQAAEQAAEQAAEukkAstJNusgbBEAABEAABECgYwKQlY4RIgMQAAEQAAEQAIFuEuhQVtaoub1O80Q0P1Gjsak1U9erTRpzfgW5VqtTc2qMau7+Cc7B8yfyGKPmVc+xxC6uS960iZOxAwRAYEgI3H///YQXGNh9YEi6/kBfZmmyQsSyUKP6guGxNjUWfTYiYfZF6RbqVItkhY8lRMYVG/7slZt5qm9vkqVLpiLYAgEQAAEiISkAAQIuARYX/IVNoICszFPdJw7efTLCYcQkn6woVEJaXPGwpCaWzlt+LSY9sYiPOhnvIAACQ0cAg9LQNXmuC0a/yIWpr4kKyIqvniwhchrIezQWKXEFJjpDSYh32iguHXbUhSM4LDWtRCRPGl/dsQ8EBpvAOs3sbtCy5yKWJ8dp5rrnQLRrfXacRid9Z6afMyhHMCgNSkv1tp7oF73l3U5pBWWFoyv2uhA59WMLA69dUVNB7URW5ifs/J1LYqGxIi5GRHxRHylRJo2TFz6CQKUJLFNj9wyt62s08pIlK0JURkdp1Pvyy48uYgA2MCgNQCP1oYroF32AXrDIgrLCuZspHbVOhRfOzkdrVuz1JGmyYkdIxLa1BoVlJ3HcnupJlRU7wsPyAlkp2BeQvCIEEsLB0nJ9hsYzBWSZGnw8JjgGyPLkKDWWzOdB3cKgNKgt1916o190l28ZubchK6pYGVWx7/BRERWdosg0UHRS+5EVyIrijvchIbA343/fpUYkFzLCsjw7rmUjGVmRoiJkhKUmNgXEEZlqiAr3CgxKQ/L/RsHLRL8oCKwPyTO+7dJrwxGTmpgOMmtWRETEinrw2b7ISnqu8kj7kRU3IoPISivWOD6gBJSkuO/W5WghEfLRoMaomcLRx6z09qaIzOhoTMb6FhGtyThuZxrINgalQBoisGqgXwTWIJ7qFJQVuTbErFExssJ5S9EwEQ4lK1JuWCaMQIgojFpc66mY3OWWJ8tQERzOV9bFTPu4WZk07hF8BoEBJsCiol6JyzDrU2ipQeOzZuUKJ20lK0TZU0K6OMiKRoGNwSYAWQm//fLLirhbx4iIvLS4rIh96kFur5mHwo1NzZsHtjmCYsuE3l6oJ+/ysc5jKWJh0ekzOOdJk3E6DoFAmASUqKjoil1LIREykqLWmiTWsej1KybiQuK8tMW1vN9Ka5c3QNsYlAaosXpYVfSLHsJus6j8shIrQEY8xEJYZ+onlkx/YKkZo+aUeQCcPhRFZOqzLDeRDLGY2Itqo20VUVHnZomIPZ3knqfOxzsIDCQBJSjue+xi0qMjiciKkpTd4zSeKiRWtCZWzmB9wKA0WO3Vq9qiX/SKdPvltCkr7ReIM0EABEoioGQlJTuOqvAtyPmngVhw0qInHlnBNFAKeeweNAKQlfBbDLISfhuhhiBQmICY9hF39bBkxBfBJiIrOvcoGqOniNwpIUdkICuaHDYGmwBkJfz2g6yE30aoIQgUI7DUcJ5AmyUhtsgUjKwUq1UQqTEoBdEMwVUC/SK4JklUCLKSQIIdIAACVSWAQamqLdvZdaFfdMavF2dDVnpBGWWAAAgEQQCDUhDNEFwl0C+Ca5JEhSArCSTYAQIgUFUCGJSq2rKdXRf6RWf8enE2ZKUXlFEGCIBAEAQwKAXRDMFVAv0iuCZJVAiykkCCHSAAAlUlgEGpqi3b2XWhX3TGrxdnQ1Z6QRllgAAIBEEAg1IQzRBcJdAvgmuSRIUgKwkk2AECIFBVAhiUqtqynV0X+kVn/HpxNmSlF5RRBgiAQDAEeGDCCwzsPhBM50RFUglAVlLR4AAIgAAIgAAIgEAIBHosK/wDiGPUvNr60vlHCuUPEEY/gpjjnNa5IgUIgAAIgAAIgMCgEWhDVlgeol9H1lfr2XeVf0W55v315OQvKrPAWL/kHPuVZc7byUf/0rPnmFumTqsriw0QAAEQAAEQAIEBItCxrKxN1am50KSxifnUy+YoSc09zjKTIRL5IiseSYrVYp7qGWXEkuIDCIAACIAACIBAkAQKycr8RDzCMTZRp/rUGtFC3YmgRFM9uaIr8SiNXYacBiISshOLmKipJERWguxVqBQIgAAIgAAIlEigkKzIclU0Q70TzU8o4TD7ctdRRVgisVGCku/8VuUhspKPI1KBAAiAAAiAQLgE8stKSpRkbKpJ9ZqSFV53orblRduRkuRalVpieqhYepaVeLQnUQamgcLtfagZCIAACIAACOQgkF9WrMx4WmaMp3/ITNGIiAgLjbM2heUjNVpSND1PNzn5W9UioqQsxY/jEwiAAAiAAAiAwKARKCArybt1atvrVN9ep2a0gNYsijUYikVKeEqpRaREy0qOqIpe5xKP9pjaYQsEQAAEQAAEQCB0AvllxV5TIrYtAYiO1TxTLt2OrPgESUPnennqpI9jAwRAAARAAARAIHgC+WVFTLEkox5qikfesWMJTHTp+SMl8oSi6WW5yXrptSuQleA7ISoIAiAAAiAAAlkECsiKyYYFQa1Z4b0sGOKziLCo24pl+m5HVrgUI0rq7iA1RZSUJ3MV2AIBEAABEAABEBgEAsVkxXqeCkdUVFRDRVfkBfPaFiMsXllx8rFBJdJbaTlaYspSQiJFSdWlFrsbSa2zgbTYjLENAiAgCVy7do1Onz5Nv/rVr8Q7f8Zf5wTAtXOGyCFOoJisxM/FJxAAgYAJLE+OUmPJreAyNXbP0Lqze312nEZHR+MvN91Sg8Zn3TOdjAbkIw+mBw8epIcffpiOHDlCJ06cEO/8mfeXJi3XZ2jc5Zr4PE4z1wcEXItq9oyrXQ/BuEHL9j5sV44AZKVyTYoLAgFJICYr/IUu5CNdVuJio9Kt08zuaDCtiKy888Xb0ckAACAASURBVM479MADD9DCwoK3q/B+Ps7pOv7T3FVOy9QYtQdWi69KMqDvPeVqMRKiPQlVsZBUchOyUslmxUWBABHLyuioFA3+QpdRESUhcUJ8fBhk5csvv6R6vU4XLlyIA3A+8XFOx+k7+huSyErPuepGqY7s6UvChpcAZMWLBTtBYAAI7E3735e/wBvUENNAy9SYbFAjMfWgpnzkv/LTp4GswaACkRVem8LTPnn+OB2n7+hvSCIrPeW61IhPV6b2bdnHqzJ12VE/rMDJad92Fbg0XAIIVJSAkhT3XV+ujJ7MRGtWOMJivrCzIiv2MbWdISsiajBY6y0ajQa99957mlTWBqfj9B39DUlkpedco0YxEUO7lVTftfdhe9AJQFYGvQVR/+EkwKKiXi4B/pfn5LKYBopP7XDCrC9y37FqyQqvRfnjH//oEvN+vnnzpli74j2Yd2cisuKeaPF1Dw3Q555zFWzc9T8RsKj/DxA+VDUHAchKDkhIAgLBEVCioqIrngrqBbZZ/7pXi269oXSeIrIG0wpMA/GgyhKS54+lhtOX+lcBhj4e/eDqj6pY/dVXUewbWAKQlYFtOlR8aAkoQXHfHSBaVmL7fdGTKEEsCqD+1Wp9+VdgoO3tdAWzU2uDst/NNF2ssQbmQ2+5Sizr19ejReRmmjM+5Tkw+FDRHAQgKzkgIQkIBElAyUpK5YrKSvxfqkpqMmRFRGwGa81KTxeCJtpFCaBzoAIS2F+uRHqBuPtsIAc1Pg4uAcjK4LYdag4CmQQKyYq4w8J6/kcsyhIV4w6qAygr/brFVg6mfrHjY8m1RZlNG9zBfnElfWdQ1HdFn+Qolp91cOBQodwEICu5USEhCAwWASkrraciGif5Kavyy57PUU+ylQNo/PxBH1S5BXv38DKOpEie8WmeONPRikQDesZVC8qoWEju/78yYlwRtv5rHK69kJXham9cLQiAAJF4nH5PHrc/ZLT78rj9IWM8rJcLWRnWlsd1gwAICGnBDxmW3xFYWsC1fK7DnGMhWTG/bFwj/gXktNfY1JrFlH8dWf3qMf8Kstq2ktib/CvLE/P2Hv/21SaNWXWwyxT13N4kuxb+TFrv5bzsvPkMkX9aHble6pjzi9GKl5tf61ogBQiAAAiAAAgML4FCspLElEM+3MFbDeTJzFgDqLl9jJpX+SBv+4QoKTssD3X1m2RCYuo0z6KQS1jcclT5qg6yPCEolhwp8RDvVjmxuvjEa6Fu5McRrnz19YLDThAAARAAARCoLIGuy8r8RC0SCVcK4iIiZMMeyD3IOS87KqHEQL2TiGRYMuN+9uQZkyJLOkTShbqWIC7DLltnxcLB57niUatRfaLujT7F87G4uOXrQrABAiAAAiAAAsNLoMuywpEXGangwV5GDnhwtoRCs5+nuhqsE1EROaDHB3mi+QmZt3ifSoukcB2UMOnCrA0lC3ZEhQ+vUXOCp5L4+BjVJ8a84hGLrLCwZEaOrGLtTSU66vrtY9gGARAAARAAgSEn0FVZEYIiZMWeLkqRFREFUdEWIzMcTalxHiwjPA1jDegxWUmdOjJ5+ds6khUrX5FOCUQkOqmRFStTWR91rUqC1DXF3/W0lTg/pQ5W3tgEARAAARAAgWEl0EVZkZGSZhT9MIA9g7gWBT6moiVycI8P6kQkJILTuPm0khJTg/hWlI8vImJNSwlZ2Z4WXeGyZQTHXstSn4qmiOwCrTzt3ULKNAf7CLZBAARAAARAYLgJdE9WrjapuWCmagxmlgOfWEhpSMiJOTFjK5pCUiKg3qM7d7LzTJMVWz7qVOe1NxNycezaVD2SJSUp9vWoyIoSq3hEhWXGnc7iC4OsZDQvDoEACIAACAw1ge7JSoRVTdUYyimyEpsG4jUmkUR47sDR8qGmaibq0XqXSFp4v4hSWOJgKuBspcmKnYzTWFNRiTpZsqLqxNNHiKzYELENAiAAAiAAAm0R6JOsuNEGa7D3XQYLgDtNYy/C1XISSYWYIpJy4YtixItQUuSrgzrG9ZW3Q3N+3siKkq3tYzSmniVjiYs9PZSsUxTFwTRQvGnwCQRAAARAAASIqE+y4hMD2R5yQW0t/mA4n6zYzadlxd7JopFejklphERHbPigEA25fkYsFGZZiqaXvLKiM7SiOXa9RH5G0mJladEp50F2uirYAAEQAAEQAIEKEMgvK85ga0cKktvmNuCi00BqENfSkphyiaIcDF8N8uKOnSg64U1v6pNsMyMrInqSSGBJj7UWhpPJu53idyiRWGhbp3mXl4qaOHnI9JHEqDSJOmAHCIAACIAACAwvgfyyUllGtqywNGSJTQkQYrLiCBZkpQTAyAIEQAAEQKBqBCArVWtRXA8IgEAqgccff5zwAgO7D6R2FhwIigBkJajmQGVAAAS6SYAHKfyBgCKA/qBIhP8OWQm/jVBDEACBkghgcCoJZEWyQX8YnIaErAxOW6GmINABgWVq7J6h9dw5rNPM7nGauZ5+wvLkKI2Opr/GZ63Srs/QuC6f827QMhGtz47H89Bp0svt5AgGp07ohXnuhZULdOW9d+ntS2/RO5fepvfeu0IrFy/Qb1Yv0ZtvvkGrq5fF9uq7l+natfeJ/vS1vhD0B40i+A3ISvBNhAqCQDsEXDnxfB6VwmBytwXF3jYp7K3lyQyZWWqQkZVlanilpkEzs+MmXUxo7JLK28bgVB7LEHL6zW9WaWl5mc6vXKTl8+fp9fMX6PXl87T4+jKdPXeOzp5bpDNnz9HZxXN0ZmmR/t/Ca/TetWu66ugPGkXwG5CV4JsIFQSBdgh45CQWtWCBcGRlqUGjOk2ZskJEMRGJR1a01MTStHPNrc/B4NSa0SClOLvyJS3/5it6deVTOnPxY1pY+ZheXlynX537hH7xyjrNzH9Ez5y8Rv/x4m9p6sQ1evLoFXri+O/0JaI/aBTBb0BWgm8iVBAEUgjszfrft6issECkT+no6Z5JnryRf/kjK5GsxKIrmAZSHPHePoFX3vgTnX/3a7rw/td04b2v6fXVm+J17LU/0M9e+pJ+9p9f0JO/+pSefOFTeuL4p/TYsU/pfz1jpichK+2z7/WZWd92va4LygMBEMhDQEmK+x47N23qxRYSE1kR6090VIUzyhNZsfNKbuuICWcXi5rkjKzwOaMZU02x6833AYNTPk6Dkmr+wuf01vs36bV3NunUhS/ojSs36cXXP6HT5z+lX1/4nI6c3qCX3tikXyx8Ss+c/pReOPMFHfiP8/ry0B80iuA3ICvBNxEqCAIeAiwq6uU5nNzlibSoaaCYSKgz88hKhkjE1qxkR1a01Lj1gKyoxsB7CoHl1Q/py6++pitrn9Ly5Ru0+Yev6dxbH9AH//UFffL5H+jsygd0c/NLeufKOl288jF99vkf6Klnfqlzg6xoFMFvQFaCbyJUEAQ8BJSoqOiKJ0l8lysr8aMykpKMjujpn2gKp7Fkzis8DaQjN/HISqwMncaUU+YWBqcyafY/r7MX1+jie+t0avEKvfjau3T+NzfoVwuX6PSFD2jlrd/SR6+eJjr3En008wS9efIVWli5Tj96ekZXHP1Bowh+A7ISfBOhgiDgEFCC4r7bydzIBiVlhW8btuXDPj3fNFDOyIqIkPhEqEGNyVFTBzeyEq9QKZ8wOJWCMZhMXn/rKn36xZf09nsf0dmL1+mz339Fr15Yo8u/+4I+/90HRAv/l77+5CP6/IVn6Prx5+n8+xt04OlZXX/0B40i+A3ISvBNhAqCQAoBJSu+wyHJiqpfVCdeHyOnfpypJldWMA2kyOE9hcDiW1fo+sbn9MY7H9DCG7+l6x99QacW36cLVz6lDy6/S19M/4g+u7BI16b/nS4dnaFzlz+iR5+CrKTgDHp3IVmZn6jTvLgc5wf43F86TvtBPvErySqPFC6cxjnf/uVm8WvMznGZk/XryClZYzcIDA2BnsiKL1pi9um1KAydb4vWdxJFkjJr73MX4ap1LhnRmzYaE/+SbgNawKecvXCFLv92g1678Ft65fWr9PaVDTr52hV69eJ/0YU3r9I7v5im9eO/oDenf04LL5+jU+ev06M/xTRQwE2aWrVCskJXmzTmiIItErFSOK0rMamfo1865nMmpA6tTY3R2NSayFIISnRufSFWivUBsmLBwOawE2A5iN0qbCTC3i+mgVKnaTLOIaLca1bciIloG7NuhXiKKqprTHC60IaQlS5A7WOWb6xcpa/++Ce69uHndPHKR/TVzT/R0jvr9Lv1L+mjT2/S6ZV1+uiLL+n8+x/T4ru/p3eufkw/wjRQH1us/aKLyQqXs1AnFgZbIGq2hDgyk7tqXrmREuMKkftZlsHRnhZRm9yVQUIQqD6B7DUr1bx+yEq12vXchffp3FvX6PjCW3Ri4TKduXidfnnqLfr161fppXNXaPbXb9GpN39Lz59+m44t/IZ+9epvaPJJRFYGsRcUlxX7Kq1IiNw9T/WYrLSYLhKSkyUYa9ScaFJzIoq8iEJUBIXfaxQTJVuarO30aIx9MdgGARCoOgHISrVa+LXld+jw8/9JPz1ygg7PztHh2ZP0s9k5avL7L16k5iy/5qLtOWrOzNFTR05oCOgPGkXwG/llRaw3YTlguWgtIe0IQjJaIyWFp4RiUhITIsXYFSXez0Jji45Ki3cQAIFhJIDBaRhbPf2a0R/S2YR2JL+siJoXnWppLTVSfiQWlhUjOQVFg6M8CYkpmEdorYP6gAAIlEoAg1OpOAc+M/SHwWnCDmQlXUSMcBQD4Y+sxIVDpvFMHXHkJ1qca0rlcz1pTQJsgQAIDBEBDE5D1Ng5LhX9IQekQJJ0JiuJSIZceGtkhWWhxboSKw9/ZCWeh8nbJijTJI8VjQTZeWIbBECgagR4cMILDOw+ULU+XtXraU9WrjapPtV0FtNKREnhyIhsOFM3eSIrXIp7N5A4LxFVESm9daxqY+K6QAAEQAAEQKCKBNqQldaLbE2EIx4ViS2SVXfr5Iqs2ItkOU8lQFH+XlGRt1m7D5irYiPimkAABEAABECgygSKyUosEuK7+8Y3DaTEwoMxlp8519z9I881n6MpJRYcPrdmL8iV+btpjTh5yscuEAABEAABEACB4AkUk5XgLwcVBAEQAAEQAAEQqBoByErVWhTXAwIgAAIgAAIVIwBZqViD4nJAAARAAARAoGoEICtVa1FcDwiAAAiAAAhUjABkpWINissBARAAARAAgaoRgKxUrUVxPSAAAiAAAiBQMQKQlYo1KC4HBEAABEAABKpGALJStRbF9YAACGQSuP/++wkvMLD7QGaHwcEgCEBWgmgGVAIEQKAXBHiAwh8IuATQL1wi4X2GrITXJqgRCIBAlwhgUOoS2AHPFv0i/AaErITfRqghCLRPYKlB47Pruc5fnx2n0cnleNqlRnJfPMVAfcKgNFDN1bPKol/0DHXbBUFW2kaHE0FgAAgkZGWZGqOjNKpeu2dIqoyzn49PNuJpxTnjNHN9AK47pYoYlFLADPlu9IvwOwBkJfw2Qg1BoDCB5UlLSGJiskwNJSiWyHD6xhKReucCzbYUmbwRmsKV7eEJGJR6CHuAikK/CL+xICvhtxFqCAJ+AnvT//fVoqGFREmKel+nmckoqnJ9hsZ5+id6F+fOztC4khzrfdCFBYOSvysN+170i/B7QPq3Xfh1Rw1BYDgJKElx3y0arWRleXZcRFLkKe4U0DjNLM3QuIrAqHy1+EQ7WG5GB2taCIOSaky82wTQL2waYW5DVsJsF9QKBLIJsKiolycly4pel6IiI0I+VGTFnuaRGcQW2AoRSeYRi6xAVjzksWsQCUBWwm81yEr4bYQagkCSgBIVFV1xUrSKrMhFtes0s7tB4v4fW05Yavhzq8iKU+YgfMSgNAit1Ps6ol/0nnnREiErRYkhPQj0m4ASFPfdqlcxWWFpGaUGr1OZXJYLa7FmxaKJzaoTgKyE38KQlfDbCDUEAT8BJSueo61kZUZNE0ULaxv8LBaOpqjnrOSJrIhoDNasePBj14ARgKyE32CQlfDbCDUEgcIE8qxZSWTqyopa62K9Y81Kghp2VIAAZCX8RoSshN9GqCEIFCagIyv6TLWwVr3rA2bDlRWsWTFssFVpApCV8JsXshJ+G6GGIAACJRHAoFQSyIplg34RfoNCVsJvI9QQBECgJAIYlEoCWbFs0C/Cb1DISvhthBqCAAiURACDUkkgK5YN+kX4DQpZCb+NUEMQAIGSCGBQKglkxbJBvwi/QSEr4bcRaggCIFASAQxKJYGsWDboF+E3KGQl/DZCDUEABEoigEGpJJAVywb9IvwGhayE30aoIQiAQEkEMCiVBLJi2aBfhN+gkJXw2wg1BAEQKJEAD0x4gYHdB0rsXsiqSwQgK10Ci2xBAARAAARAAATKIQBZKYcjcgEBEAABEAABEOgSAchKl8AiWxAAARAAARAAgXIIQFbK4YhcQAAEQAAEQAAEukQAstIlsMgWBEAABEAABECgHAKQlXI4IhcQAAEQAAEQAIEuEYCsdAkssgUBEAABEAABECiHAGSlHI7IBQRAAARAAARAoEsEICtdAotsQQAEQAAEQAAEyiEAWSmHI3IBARAAARAAARDoEgHISpfAIlsQAIEwCdiPWcc2HrvPfQB/4ROArITfRqghCIBASQQwMJUEsmLZoF+E36CQlfDbCDUEARAoiQAGpZJAViwb9IvwGxSyEn4boYYgUCKBZWqMjtKoeI3TzHUr66UGjc+uRzvsdJzeSUtE67PjUT4qP+d9ctnKPIxNDEphtENotUC/CK1FkvWBrCSZYA8IDDyBdJFoUKpCuLKye4a0ukz6ZaWxlIJqqUGjkJUUONgdGgHISmgtkqwPZCXJBHtAoIIEOFKSIirXZ2hcR1tUFGWZGjlkRUZonIiKyguyUsF+VM1LgqyE366QlfDbCDUEAT+BvUX+982QlSj35cnR+DRQDllBZMXfNNg7WAQgK+G3V5Fvu/CvBjUEgWEgoCTFfbeuPX0aKB4FMbJh1qjIdSutIytWcfk2RQQnOZ2U7+RyUmFQKodj1XJBvwi/RSEr4bcRaggCSQIsKuqVPOrZ0yKystSgxqRcYLss1qdkyAqvR1FTPTne9aJdyIqnXbArBAKQlRBaIbsOkJVsPjgKAmESUKKioista5klK5GY2AtsWSysNSdSYNxC1mlmd8o6GDdpIJ8xKAXSEIFVA/0isAbxVAey4oGCXSAQNAElKO67qnTByEfj5AzN8F09tqzY20SkZIWnl3SkpFU51poXVbV+v2NQ6ncLhFk++kWY7WLXCrJi08A2CAwSASUrueqcFVmJMrAEhRfbmvUscVmx96cWzZEZV1YwDZSKCwf6SwCy0l/+eUqHrOShhDQgMPAECsiKRzRUZEW9t8IhFvha00giPWSlFTYc7xMByEqfwBcoFrJSABaSgsCgEYjdFeRGOtyLiSIrblSFk5l8fGtUeO1K/C6j0bRnurhl9vgzBqUeAx+Q4tAvwm8oyEr4bYQaggAIlEQAg1JJICuWDfpF+A0KWQm/jVBDEACBkghgUCoJZMWyQb8Iv0EhK+G3EWoIAiBQEgEMSiWBrFg26BfhNyhkJfw2Qg1BAARKIoBBqSSQFcsG/SL8BoWshN9GqCEIgEBJBDAolQSyYtmgX4TfoJCV8NsINQQBECiJAAalkkBWLBv0i/AbFLISfhuhhiAAAiURwKBUEsiKZYN+EX6DQlbCbyPUEARAoEQCPDDhBQZ2HyixeyGrLhGArHQJLLIFARAAARAAARAohwBkpRyOyAUEQAAEQAAEQKBLBCArXQKLbEEABEAABEAABMohAFkphyNyAQEQAAEQAAEQ6BIByEqXwCJbEAABEAABEACBcghAVsrhiFxAAARAAARAAAS6RACy0iWwyBYEQAAEQAAEQKAcApCVcjgiFxAAARAAARAAgS4RgKx0CSyyBQEQAAEQAAEQKIcAZKUcjsgFBEAABEAABECgSwQgK10Ci2xBAATCJGA/Zh3b5Tx2P8yWRq2qRACyUqXWxLWAAAhkEmA5wV/5BMC1fKbIMU4AshLngU8gAAIVJoBBtTuNC67d4YpcDQHIimGBLRCoDIH12XEaHR1t+RqfXbeueZ1mdjdoWexZpsao2raSxDY5/TjNXI/t9HzgdFZdds/Qsrd+rcrzZF1wFwbVgsByJgfXnKCQrG0CkJW20eFEEBgkAjnk4/oMjU9KVaGlBo2q7bTL5DSthGj3DK2TJTVLDWJBYplqLNkZ26Jk7y93G4NquTxVbuCqSOC9WwQgK90ii3xBICgCrWVleXI0EggnEuIIiZQMj1ykCo6SFXOOP/LTn8jK2lSdmleTjbU2NUZjU2uJA/MTNapNzOv98xNj8vyFujc9J7TT1Go18r18ZelCAt+ArATeQBWoHmSlAo2ISxhSAnuL/O/bSlb4uJzSESKhIyJ+geA08SkkovRoTCQrszKqwq0VVmRlnuq1Os0Tv/tFQsoFp5F/LDJCWK42aSztHJ/Q8OkJqVmj5vZIeKL8B+0NsjJoLTZ49S3ybTd4V4cag0AVCShJcd8zrzVbVmSkg2XFTmciIfGsl6nBMpNnGkhMJanISnReXlnhaalIoOLlt/8pdVBdqFN9IZ5vWmTFpHIkIyEhROTKzPYmcaxGyw5xHrVE2aaM3m/94Ac/oI2NjUTBvO+hhx5K7OcdqVy9qbETBIoTgKwUZ4YzQKD/BFhU1CtXbWwJcU+QEjEz6S6WZcmwFsbydJCIuETnR+tPdG4tp4FMREXKkZO3u6C3l7ISXYSY4kmLlLBoLNSjKRwTZdHX75MVna8bOTFRnJCmf1hUOIp02223xYSFRYX38TFO4/5BVlwi+Fw2AchK2USRHwj0goASFRVdaVlmhqxcn6GZJaJlr6z4p4FEcW3ICk8V2QtsY2WynNgy1PKaiifwDaruFI/KNT2ywtGQOs27UZOE5BhBSa5ZMbIjoiziXJNe1aHX7ywlf/7nfx4TFltU+Bh/dv98XN00+AwCnRCArHRCD+eCQD8IKEFx3zPrkiEr0XkxcRD7UqaB8kz/WItyG0t2hMasixELdVU0RuSZIUaZ15b/oH9QjeRDR03S163IqaIovS52nurW9I47ncTJVMQmHkUx5+msAthwhUVFVNJEhavs5xrAxaAKlSEAWalMU+JCho6AkpVcF96urLSYqrHLVuJh7xPbas2KOaAW2OrpIN9t0j2bBrLkg6Ml1sJYVWOOfhgJsdJzAj4nISucZoyas2raSEVNzPSPjOhYYhTlocrs57stLFzPLFHhekJW+tlaw1E2ZGU42hlXOfQE2pWVAtGOgrIintESSQrfNh1bD8Pt1S9ZSUznSKHwywpLiVkga6QmLjR6GijWD8OMrKgqKmFpJSqcHrKiqOG9WwQgK90ii3xBoF8ExCDvRkTSPptFtbmngdKuq4CsmGe6WJmJqSBTH+tIaZv+QdUSi1yRlfitzkZi5G3JOmJiRWikrEix0cc9UhTLq7Srbj8jFhZ+tfrzc211Fo6DQH4CkJX8rJASBEBgwAn4B1UpK02e6plKf26KFAkpHGPbx6hWYNpmECMrRZraz7VIDkgLAtkEICvZfHAUBECgQgT8g6pcRyIWv7aKrNjHWy7IHaPma0p+zN0/BmfY00Cmnq23/Fxbn4cUIJCXAGQlLymkAwEQGHgCLQdVW0aiB7bJaRufbAw8jtIuoCXX0kpCRsNKALIyrC2P6waBISSAQbU7jQ6u3eGKXA0ByIphgS0QAIGKE8Cg2p0GBtfucEWuhgBkxbDAFgiAwBAQ4IEVr3IZDEG3wSX2mQBkpc8NgOJBAARAAARAAASyCUBWsvngKAiAAAiAAAiAQJ8JQFb63AAoHgRAAARAAARAIJsAZCWbD46CAAiAAAiAAAj0mQBkpc8NgOJBAARAAARAAASyCUBWsvngKAiAAAiAAAiAQJ8JQFb63AAoHgRAAARAAARAIJsAZCWbD46CAAiAAAiAAAj0mQBkpc8NgOJBAARAAARAAASyCUBWsvngKAiAAAiAAAiAQJ8JQFb63AAoHgRAoLcE/mt9nVZXV+nixYt4BcKA24PbBX8gkEYAspJGBvtBAAQqR+D6Bx/Qe++9R5ubm5W7tkG+IG4PbhduH/yBgI8AZMVHBftAAAQqSeDtt9+mmzdvVvLaBv2iuF24ffAHAj4CkBUfFewDgYEmsE4zuxu0LK6Bt0dpdDTtNU4z19XF2ufZ++w0cv/67Hgsz8ZSSjm7Zyik4P7Kyoq6MPrTn/6EVyAMVKPI9rlBp6aep4tqJ12k5x+folMf8n5+1wecDfe8Vumd01t8vHF6ip43lRKped/jjz+uX89f5DLNZ31s6hTdUPl/eIqm7M8yJ+eaVWIitwydpyo3kZc5197y1d8+Hvo2ZCX0FkL9QKAdAtdnaNwrCsvUGFUi42TM50xKxSG9zRLil5XGkjx/eXKU1DYtNWh8VunJMjW8dXDK7eFHJSsQlfBEjbuBT1Z4kJ06HQ31iYGeRcYjB959cdGREmBLUXZH9A329r6LRx83MnPxeVNnli1bKBLXwOW6omXqYpdh9qotJ2+12/OenY/nhMSuNNaGIZehZeqoY3aJ/KwdzORxi586FO3nPCErCgreQaBqBJYaRiL0taXLii0dHDmRAlJMVuw8hPAEJitvvvmmIPH1119T0deRX8xSq9f58+fp448/Lpx30bpUMT03zJtz/2EGu8cfp6nTpzJlJB7pcAf8lMjKxedFGVNHn6epx81AS9bAqAdcr/SwHEnxsQXAlhV7W+TbC1lpo/76a6HNDb5OLZKCq+IpI0z6WGr+kQBNPU/PT7myIo+pNoaspELEARCoIoE0WeH9KoKSMqUjppJkVCY5DUTEUZVRlhOOykTTTibKEgZLJSt//OMfqeiLRYUXgn7xxRf05SsnxDtvq9eLZCfWogAAFDFJREFUcydpaWmJ3njjDdrY2Cicf9H6VC099xDZPkY6eDB83BIKWw5kj0r7174v2qIG0qgvisHd2ZfRTZNlJ6doxMDKgzbLiSUPsUHb2p8lRWqQ9pVrqtnLyIopVWzxdVgSFhMXTqA4OKf5P0q5Udcs0jjnQ1b85LAXBAaXAEuDJRZ8IcuTSkT8siLlI0rD56vpIMoZWZllQUmZXlIkhcSoeqidvX2/cOGCKLCdgZ5l5fe//z1du3ZNyAq/qxcvDP1p8zB9+umn9Oqrr7YpLKdoolajWu079PSVVjJ1jZ7+WyftlafpO3z+3z5N19qQsXaYlHkON4xsn0hWeDA8+nxGZCU+rSMGx8JTD0lZuXjUyTfqoj5psPeJaMppns5I5hnr5c4gHzvm+cBlZEmNECPrvCL1t04rvCmuV8/0cJs53ISUMQsplFrYxH43ipKUFb5ufQ4RpoEKtxBOAIGBIMCSYeQhLivWYlshJVJgGpHQmLR8oTllZYnIjbYIYbKngQKSFb7zpOjrmf8zTQurN8WLIytqW72zrPAfCw1HWPhVrIxXtKw89W6L+r37VCQmT9FVdS2nJqjGsvLQKwXLbVGWyr/L78zOyIqMjMhpIDP423IgYKv/2AIgpiOSkZXYv9r5PD2YqkzUOw+uzsDLq0pSFtiqfNXg7ZULKwKRmBZSxaa8x8qNrYXhE3yRlfz1Tymy9W6bt0jtKdPma20rTvFCkrLC6SArcUr4BAIVJJAlK0ZixIVfn6GZJTv6YuMoJivxaZ/wFtjymhL+++qrrwq/WFZYRD788EMRWeF39eKHmrGsqBdHYTh9sXJ+Tf8sIit/Q0+9m12/95/+GyEm//zKV/TrH3CEJeP1P56i99u43mJ1z65vnry4Xc6/eDiKIihBkf8q90cWIqEQ0wVTsSkJ04OTg6A+Zg2gep/a8ByLSUOUzt6nBmHeZw+yCaEQeSdliq8xfp4sJB4pYR6Kjaqs5z1n/T1n5trlioRcIOwInlMH5iLa0Rv9SraTyxHTQLmaBolAYNAIRLJyfYYas+stp4H46mREhc+zIi+eW5554a0bRfHtS0RWAkDI60n47w9/+EPh1+FnntXRFDey8vyZ6+S+OH2xcl7WsvLT1az6qXT/TC/r6/Dty8ojvGPcLrJ9eOBSA3J8cLblQDQkD4giahFFGFKiKlJ2sgdTkZ/9HyeKkSg7irbYIsVRFj0o24tz7cgK19E3YDvlyarYLKLKpZ1v1523nfx89XdPyfXZkRB5TlI23DUrmovv2sXdUPGpIZHeSgtZydU6SAQCg0ZASYeMopipHf+aFb46k8a+Vn9kxU6RezuAaaDlZXlr9pdffklFXz8//Iw455NPPhGRFX5Pe/GiW5U+fzkv00MZEZKHfi3r/N5PZVSlVnuIXv71Q9lRlSg/dW7+uhTn02neog+K9rEH6BayojufbzqE83EERafPmgayE5ntsgZ7FYExOUdbjlyIvVrG4qnFQG4LUPyw91Nq/b3y4c1C7kyTJd6v6+TIiy7D2a+L8e3ntjftB1nRsLABAhUiIMTATPcYESlJVtSdP2JNi3nOCt+6LKeCpCzp568w2gBk5fXXXxeNzHf1FH01f344NbKi1q3Y75y+WBn/GcnKt+nJyyn1u/wkfVsLzUP0n+I6rtCTYzwNlHFeG9dbrO4p9S1QLjeMbB8euOzIin/KJD5t0n1Z8UqGHqDjg62ZJonvF9GGtGmchKw457pfT1y279kkbrros7f+fCxNPjLy8U1XiazE3VtqvZH1bBy7nqLeRkJkMSnXGl0jXydkJaVBsBsEKkFA3xmUPrWjhMIIjX3lvsgKC491V48tRvZ2yuJcO/deb/OiV/7jtSdFXz+b+rlYg8Ln8TRQ1vmfffYZcfqsNMljL9EPhIh8m35yKaV+l35C3659m74t5OQH9JK4DnWe+pxybhvXnKxj9/Lmdlk6NSMeDmZuV45HVtL7iyUr1gBn/qWffmbqERENsERJRw3UGfF/+ccW7OpIAqflgZgH55QBWWdnP0guivwkylSJzTtLiHrui9mrIkdZ9ZepUyMuscz6/wGy0v82QA1AAAR6RGBxcVGU1M4gzPKhIifumhW1337viqz8/iX6yZPv0ksPciQlkhMhMBkLbB98qaA0dU9Isrhzw6j26VF3QDEDRACyMkCNhaqCAAh0RuDcuXMiA/UgtyLvT/1sSj/ojWWl1TNGOH2R/L/44qSJrLxjHjbny+NkJCsnrYfSxdK99INoLcu36Sct8oqdl5ZfD/Zzw6j26ayVcXYVCUBWqtiquCYQAAEvgTNnzoj9n3/+ORV9/fSpZqHICqcvVsYcfV9MA/01PfF2dv3m/idHUr5Pc3wdbz9Bf22fd/L7kai0zqdY/bLr1Gle3DCqfbyNh51DTQCyMtTNj4sHgeEiwE+X5T9eU1L09ZOfPi1+pZl/l4cjK1m/z8M/lMjpi5VhZOXHb2XXT8uKfR1v/TiSFjkl9P2T2XkUq1v38+J2Ue0zXL0SV5uHAGQlDyWkAQEQqASB06dPi+vgx+IXfT3x5FOFIiucPrWMi3GxyHyom77756/pxxdlvV/cx0LyIL2Ydh1zD8royr4X0+uQdm6f9nPDqPapRGfDRZRKALJSKk5kBgIgEDKBl19+WVQv7fkoafsvXbpE//7jn+hL48hKqz9Oz+el5Yn98efUME/VPq3Y4vjwEYCsDF+b44pBYGgJ8C8j819RUeC7VFg+/u3R/537xen5vKJlDWt6bhfVPkPbQXHhqQQgK6locAAEQKBqBI4fPy4u6eOPPya8wmLADaPap2r9DtfTOQHISucMkQMIgMCAEPjlL38pasqPht/Y2MArEAbcHvyn2mdAuhOq2UMCkJUewkZRIAAC/SXwwgsviEfgcy34cfIQlv4LG7eDag9uH/yBgI8AZMVHBftAAAQqSeDNCxfo1KlTWlgqeZEDeFEsLNwu3D74AwEfAciKjwr2gQAIVJbAG2+8Qc/NztIzzzyDVyAMuD24XfAHAmkEICtpZLAfBEAABEAABEAgCAKQlSCaAZUAARAAARAAARBIIwBZSSOD/SAAAiAAAiAAAkEQgKwE0QyoBAiAAAiAAAiAQBoByEoaGewHARAAARAAARAIggBkJYhmQCVAAARAAARAAATSCEBW0shgPwiAAAiAAAiAQBAEICtBNAMqAQIgAAIgAAIgkEYAspJGBvtBAARAAARAAASCIABZCaIZUAkQAAEQAAEQAIE0ApCVNDLYDwI9JHD27FnCCwzQB9AH0Af8fQCy0sMBCUWBQBqBG598TniBAfoA+gD6gL8PQFbSRg/sB4EeEsAXlP8LClzABX0AfYD7AGSlhwMSigKBNAL4QsYXMvoA+gD6QHofgKykjR7YDwI9JIAvqfQvKbABG/QB9AHISg8HJBQFAmkE8GWML2P0AfQB9IH0PgBZSRs9sB8EekgAX1LpX1JgAzboA+gDkJUeDkgoCgTSCODLGF/G6APoA+gD6X0AspI2emA/CPSQAL6k0r+kwAZs0AfQByArPRyQUBQIpBHoxZfxm88epNrdj9De0/KL79jkI1SbPGue73L5OH3r7kdEGk6nX/cdpr33WZ+tY9969oo533lWjMif09plOGkS163rcJiOtUqL46nsE1zBCqwGvA9AVtJGD+wHgR4S6MXgEpOVy8dp731SXmyZkIIhRUGmP0iPXb5CjwlZsQQikgolKypvLTiW0Pj2KWFyr1vnU0RwBvxL2GWAz4gioA8k+wBkpYcDEooCgTQC5X45naW9LWQhKRAsJZ9Tu7Ki63/6sIzI3Hec3tQSoWTHRHVUeh19yVtfSAwiBLpfJQc01a/wXj02kJW00QP7QaCHBHrx5aqiFmlRDa5DUh5yRFb01I1/qigpRpzOlqOkxCR4KAmCrEBWICtD2QcgKz0ckFAUCKQRSAzOHX8hy+iKLSZKVuxpnxufyHRqOqf9yIqKnlhTRYlriCI+VtRFyZFdTy8LyMpQDlDevpDoV9WLIuC6k20KWUkbPbAfBHpIoPQvp8tX6Fi0oFbJiZaVu5VQqOmig7T3tFwo27ms5IiupMiKqZ+TB0dTICuQFUjKUPcByEoPByQUBQJpBEqXFfXFHg3yHLmIycB9B6M7f+R0jCpfRTrM1I09DeRIxN2PkIrI3Pik88iKqp+OstiCYm+ra8P7UA9eqs/iPRmFqCITyEra6IH9INBDAl39ckldUxIXFa6DP7KS58tQyUpSaIz4RMdaRFYgK3l4I01X/5+BCAcnwpCVHg5IKAoE0gh044tXRSpcWdh7Wk3/2JEROfily4qUERlJsbfTB01VvpYPzwCgIjmJyI99dxCmgYIbOLrRX5Fn+v9LYPM5QVbSRg/sB4EeEij1y8iNpER30MTlwYqEJCIdh+kxtd6FpeG+42b9C6e9fDZ6SJwVmRHTNPzZWkSr6sHn8HFRD3lcCYxPVtSxGBNMA0FYPLIb6yM4Xuk+Alnp4YCEokAgjUDZX7pCAiJJUXnbYqD23VBCwbcSv2aeYMsRFCk3B+mx09F+S2r0eWKfEh9HVj6R62RYPmTZB+mxZ6PnsESLfL118gw6SrTMGhn8K1S3oYcXjqF/VK0PQFbSRg/sB4EeEujaF4uWkeR6kVZlKlnZ++xh+lb0XBT7HHVcSY4SCSUg7vRT7K6kSY7QKInxPWdFCZC1BsaWJQzQlf5XtN3PsA3x4j4AWenhgISiQCCNAL6Q8YWMPoA+gD6Q3gcgK2mjB/aDQA8J4Esq/UsKbMAGfQB9ALLSwwEJRYFAGgF8GePLGH0AfQB9IL0PQFbSRg/sB4EeEsCXVPqXFNiADfoA+gBkpYcDEooCgTQC+DLGlzH6APoA+kB6H4CspI0e2A8CIAACIAACIBAEAchKEM2ASoAACIAACIAACKQRgKykkcF+EAABEAABEACBIAhAVoJoBlQCBEAABEAABEAgjQBkJY0M9oMACIAACIAACARBALISRDOgEiAAAr0icP/99xNeYGD3gV71PZTTPgHISvvscCYIgMCAEeABCn8g4BJAv3CJhPcZshJem6BGIDCABNZpZneDlgOvOQalwBuoT9VDv+gT+ALFQlYKwEJSEBgIAtdnaHx0lEb1q0GNSfuz2W4s2Ve0TI1RRziWGjQ+u24nIkrkb/IzZZp9dhnrs+MiP373pU2UFS+5408YlDpGWMkM0C/Cb1bISvhthBqCQFsEWAiUKCxPjuptlZl9XO7LKSsqg9h7jsgKS87uGXLUJ5ZLtz9gUOo24cHMH/0i/HaDrITfRqghCLRFwJYRLSssDJNyssY+LgtYpoYrE77ISlQbztMXHdH77LxENMaJ2rR1VZ2dhEGpM35VPRv9IvyWhayE30aoIQi0RcCWkXZlhfMYjeTGrcTy5DjNXFd73ciKLT5WxMaSJXVmL98xKPWS9uCUhX4RfltBVsJvI9QQBAoSYDmwoh67Z2hGTQNZsmDLjCzAkoqoRCErdoTE3m+X4d12IylR/iLKYtUvdq4tQAUvO0dyDEo5IA1hEvSL8BsdshJ+G6GGINAWAVtGdGTFmtaxj4sCWCJ2j9O4tchWTvW40uGrjhtZcT8TcV7+BbRJSfKVUMY+DEplUKxeHugX4bcpZCX8NkINQaAtAraMKFkRkZJRudjWPi4KUCKz1KBREU2REjFjLdQV6TIjI8mICS/yldIDWWmrIXFS1wlAVrqOuOMCICsdI0QGIBAmAVtGpKzIaAffxqzuErJrroSG9ym5EOtVRMSl1V08biTF+sznTy4T1weRFZs4tkMhAFkJpSXS6wFZSWeDIyAw0ARUFGV0VK4DUTKi3vni9CJZV0hE9MRM//A5tmiYvJORFH03kDWdxGVBVga6O1W68pCV8JsXshJ+G6GGIFCMgBANlgglGxzlMLKRlBV5XEdbovP1Z1E6Twn5IzKyclYkRexwP0NWijUiUveSAGSll7TbKwuy0h43nAUCg0FAiIdzhw2vSVF34PDaFE6jb092xMW+Sl9ekdiI/Dx3Ddmnu5GVWHRGl2+fUf42BqXymVYhR/SL8FsRshJ+G6GGIAACJRHAoFQSyIplg34RfoNCVsJvI9QQBECgJAIYlEoCWbFs0C/Cb1DISvhthBqCAAiURACDUkkgK5YN+kX4DQpZCb+NUEMQAIGSCGBQKglkxbJBvwi/QSEr4bcRaggCIFASAQxKJYGsWDboF+E3KGQl/DZCDUEABEoigEGpJJAVywb9IvwGhayE30aoIQh0RCB2y7B6pH5HOQ7uyRiUBrftullz9Itu0i0nb8hKORyRCwgESwCyEm8aHpjwAgO7D8R7CD6FSACyEmKroE4g0CEB+ym1qbLCD3Rr8SC3DquB00EABECgFAKQlVIwIhMQCIwAP6U2eipsmqzE9gdWfVQHBEAABGwCkBWbBrZBoDIE+Ld85G8DxaREr1nhx+o7j+H3PU6/MjxwISAAAoNMALIyyK2HuoNABgE1FeSVFd8UEGQlgyYOgQAI9JMAZKWf9FE2CHSTQDQV5JOV2L5u1gF5gwAIgEAJBCArJUBEFiAQJgE5FTQzO07js+uyimIaaEZPEYVZb9QKBEAABOIEICtxHvgEApUjEIui6DUrnsvENJAHCnaBAAiEQACyEkIroA4g0EUCkJUuwkXWIAACPSEAWekJZhQCAj0kwGtVRkdzvxpLPawbigIBEACBNghAVtqAhlNAAARAAARAAAR6RwCy0jvWKAkEQAAEQAAEQKANApCVNqDhFBAAARAAARAAgd4RgKz0jjVKAgEQAAEQAAEQaIMAZKUNaDgFBEAABEAABECgdwQgK71jjZJAAARAAARAAATaIABZaQMaTgEBEAABEAABEOgdAchK71ijJBAAARAAARAAgTYI/H/cwqKmbNFj1AAAAABJRU5ErkJggg==;" vertex="1" parent="1">
          <mxGeometry x="610" y="190" width="205" height="129.28" as="geometry" />
        </mxCell>
        <mxCell id="kEirQazwxM-ynIQ75gN8-14" value="网申申请表（V3）" style="shape=image;verticalLabelPosition=bottom;labelBackgroundColor=#ffffff;verticalAlign=top;aspect=fixed;imageAspect=0;image=data:image/png,iVBORw0KGgoAAAANSUhEUgAAArUAAAIqCAYAAAA6kLLXAAAgAElEQVR4Aey9348kx3XnW3/GvBLwwzWwACn0i4i9LyZgwxbgBxcwD5eAARvEPhjENGDQJlYgdEk0CguDO3BtC4SxQxOC13b19QogXa3Z8ZUpj+y1Zqp9SXFaJVIzEiWNSA3l1pC9apuSdmhT8rk4EXEiTkRG/qjq+pVZ3wYalT8i48cnc3I+fepkZI/wAwIgAAIgAAIgAAIgAAItJ9Bref/RfRAAARAAARAAARAAARCg80vtj8/o7Kzu94FF/eCEbn35Ol1//YR4y2SvR71ej3p7E38q7r74Kbvt116iu37rChZObtHLn7tMl5+/TJc/N6GzhTQ5oQGPLxljedVndPvgBbr2vbISJzS6OEt9aT2hP/2Dk3Qn1kEABEAABEAABECgtQQaSG0QISNnImnmc0ADEdNouxMv2XZxREah7o2oz9vcekFqf3ydnrpgj/3Fi09ZwWTJ9L/XliK6dz//BD0kfTWfAwqafZ5zq9gpcc/X+ICu//5DVoA/eZluEdHZ0Utq7MzhGXr8Ecf2155M9l2my1+wfwbc/YJmppefpE+5cX7iN58pHu84X/t2vofYCgIgAAIgAAIgAAKbSmCDpPYBTfYetVIXCaYW5EXJpjodH7xMT0h7Fx6jJz5zmS7//shIpSpVvfj6C/TYLz+W+X00yPIvPJrZz8e8ENq69zI97qT+0f90i+4e9Gt4aDYh4u3/WJBxzfg5OKoeLvaCAAiAAAiAAAiAwKYRaCC13OUHdHLiUgjojK79zgUjW5/4zMSkEfhBvT6gC0agnqLrUtzvJKKKSO2DowE9ao69QE++eJ2uHzxFj/V+kZ783HW6zikL5vf2gtICQqcevPqUF8f+n86Z8HA08HUUo9mJeBYEMxb1EyeyF35pQJMfEz2IUjtu00u/4er79LVC2ocgP7sjvNLPF7zAP/aZlxXXuNztDwIfLIEACIAACIAACIBAGwg0ktq7B4/ThQuP0TOvntHdzz9uxfWTVrpI8mS/fJ1e3nP5sP/nMzTyInqdrt9xGaplUnvxcR+hvPD71+kBPaBb/8lFbS88TqPSHNPzIxaJZBmdO0LppfYT9Pin81/395J0gWd+8xNOhGOpJbpLk78SeVfpCwUZTmW5T6N7wuMBnbwei6r9o6Beam/dEzWWuvAJAiAAAiAAAiAAAptPoJnUvvIUPea+FreRyEdpcOTkR0S1Srokn1TKpjm1nxnRy7/9EPVElA23uzT6TRsR7l14Ii+2H0zo8m8/Ro/99mWazBxdvEUvcMrAv3Nt9Hr00CddCsF/vkLP+HSCAU0Sz7v1h5Jq8Axd/zEReanVYsmDUFIqDNw1EWQ6ldr4opknUkukHiirOi+ZfYt8gIzTIEJ9ExpIbnU8xOwa86n9I4O5J1zt2NPzUGwi8E//ONB9Lh6HLSAAAiAAAiAAAptJoF5qP7htv6Y26QBOAC5epmsmEnuLTr7tHv7qPUSPehG00vfoL7jyIh5nE3pJzS5w67NODj97i+jBXbqdRmR/PKHBr/Xp8lfycxHc/mzIwX30s7dnJKyEM5W7vb+j658W2b2QyNWEBiL4JqqspfYxeubzOkIaIqO9//BC9HX/y595LI7UejG2zAZHFf1L++vXRZDPaCIzOfiH7DiCXP+g2EtHedZZuF8fEH2xehYFlkcrtrNJLbfHUqzFtiC6XmqrWfUPpmHWCMNKS+/s/cqywEYQAAEQAAEQAIG1EqiX2kS24pzRJ+nasUgtC9UZ3XZpB5yX6R9YEqklopMvPFXywJREPzOfLL2ZnwevX7YR5AufopfuZApUbrJ9DXLZoyf+yAkpp0scX6ZPOFm8oPoftl+gZ77sQriVjIqRwJihE9GkjsHRXboWCalOayhb5tkhHhRybcOUa9foGTem/ou3K8oloekCxwnR4z2iL47s7+N9ovcLhZINTeWRo8winbzs+HCUX58Hrp2ZpdtMlFqOT7qgyye8/TmZIZqc1I5VEAABEAABEACBNRKol1p5sv+XftE9BHaBfvGXHiMbhR3QRFIKeiwfIWLGEbas1M76RD9LWEFcFkdMfw2to4Kc2/rSrzkhfcROscWt3nre5cJecLLFG70gWTZhJoSK2Q982oOrx0TEQ2RX+uKj2UkUPLTh/gj43WvxtGlOXr2szbLeVOw+1yP6v0fZk6G5VvdBcTQ1aamVqtNtvK7/WBjQxJ8DvT25dlKpLVxXTcVb+oVPEAABEAABEACBTSFQL7XSUy+vNgpmhPU3RnTXb9dSe4EGr9dJ7RP0gn6YLLP8wn9wglKQD+nU+T+1fIlISq1nrzzhUgQ+QZePeestuuzmif3E8yp67IUqjRAGyU/FPLSrpS6Ul774PwxKpgTzKR4iopLioaO8e0/QY6nUJg+uXd57ivq/8QQNVHqIcMh+stBy6sH7o1KxjY5jRtJHv0NFYn2ENRVYImbFKQzMQriYKhJJDfm7rgG9nzfpdbU82ZPzBqn1pwYLIAACIAACINAyAnNKrYuUsaQkUmu/3lbim0Ra8zJ3Qi//jo04Pv65kBvrhW5NUksPrtMzLn/2E394S6UkPEYv6RcUsCAZaezTS2/qt6uFr/t7yRRct1+UOWgbSm2SkyvTnHnxLwijuxJ/fJte4ofwTP8u0KcufspG3PWsEme36IWLXEY9ALjgC5nPZUE6TWRfxi9CmUitkk8zJZwep97nz8HskVpI7YJPNqoDARAAARAAgTUQmFNq79KI50tl2dRS++2XXETwSbp2VhepFZnhaXCv01MukvjUF8783LdBaq/Tg7o0zznhBclOooCuvsmee2Dsl1+il190D3elr/AtEyo3puZfv1dEauvq0rLn+n725oie/GSQPDsP793w1f0nn6GXPqdntrhAj+0lcw/PyTU+jMfFf+jYP4ZCtFVENkRjo9kLmGsyriCgxchrQZq19HKH9LpaDnWG/sT9xxoIgAAIgAAIgMCmE5hTat0DYfxAlZfaZ+ilF908tf+HneoqSGl46WyQyCC14Wt+FjD5KlhJ8WeeoWd6D9GnfucluqXl9se36eXnn6Knnn+ZbvPUWnP8hP7kpTY8GPYoPeoE8YlXkhkCWJDqpLN0f+CgpwB75nMv0+VX7oa85CTSKw9/Xfu0k1Ytf2e3afS7j7kc6CC1Xia/N/LzAku/H7p4ma4vaY5acx2oaLuP2vK1Y/qto7Nu+YCZajbu5CoZtZI6sg+TlZ0D1W7Ife7RYE8eMuP2pB1I7Rz/hHAICIAACIAACGwEgTmlttj3s6/IG8GcRP3CE+ar+LRkmP3Avh727M2XEsEKUuvfjPWFy9Q3Uvg4vaxmkLr1h/ICgx499uJ8bwOrlVr9wJjpwxP0cjonrheqxaUfGNncmwSpLZXiWGoffGUQXs3b69EFfqjPHeul9uMHdOuP3B8gZt9D1H/+OvmXxqUn7Tzrho1IY1KRFlS/y0Zzi0LL0V5dj5Rz18vRoJje4OtPyvq2bITYir2uWxXAIgiAAAiAAAiAQCsINJfa78nUXUE6zQg/PqHrz/eDSH3yCXri12WO14foic/d9ukEQuTB2V269VcjGvxfMqNCj3q/8JCr4wI9/uItOvGvh71L1+VNZWoWAq7rwVeeccc8SoPXdQhXWqr/rJdaIh1JvvBpfuNZ05+QTpA+KJavYeKn3GLRuvCZCV3fc9LaNKfWp3I8RP3P3qKzj0Od/d+/TE/+emDO0WCdntDjuYZ/+yl66Qt3F/I6Ysu2XBbTCG6I+ifXGMPyUV1esZIqkq7PoUSeo08drfXgnehKhNt941BIYfDlsQACIAACIAACILDJBOql9sGEBr/8GP2ivHBApQc8uPMSPS4vWOCI3yefoesminlG1z8Tvv5+9NI1uvvxLXrh1+WBpfCVOMvHQxdfoFtnYWaBSEhUhDIrlD8+o7M5Uw+anpggtWpu2kYHzyi1r1/2Yv/YZ64bsSykcMjsBp8d0bVXXqAnJGf2M5Li8YBufX5Et1w0OY3carZGCs0fJY+r83uBHj+YL+qtkRjRFGH0OyRiKudf5FW2WwH2Y1bnnvstEuurcwtWaqUuvdfVm0qti6zn6vOpEboaLIMACIAACIAACGw8gXqpJfdQmBOMC7/5sp0P1QztjK79DkdlL9Bjv/sy3f04Hu/dgyeMpD3qHj4KcshSw1HBAY2OQj7Bg2OWtJz4ctl5XoUb92e+tfx8tc3qmlFq6QFN9h6jx18M0W0veF7M7tJLvyxS6D4vPEaXSyPVt+iyE98L/+5T9OTzI7p2fJfO0nDzgxOaHAzoib1ZItHNKKDUiggcD2lnZ6fx79BMUzdP36Y0LGvn0phOVZWnh7u0s7NL4/tEdH9Mu8l+olMaX9qhqC9cTo5RdZ1n8emnn64/PJfCUn/UUks8++yz5iUpaSOcU//cc8+lm816o7Fmj8RGEAABEGg3gQZSSyS5rbe+F2Ym8MP+4DZNvp08OOV3Et19MwgamTeOTej2SaYedcwmLN767BP01PPP0BO/JKkUF+ipV1MTrOtpeMPadX6obp4fjkRzKoaKRj/wqRl234Pkj4m0mQffu0131fHpfqx3icCUhkocWSojYUyGaqWzgQjvT5Mj49XpPtfh5NXvYvndpd1LYTuXi/pjBHZIUe2QWkOQhZa/oXjkkUciseX7AW/jfVwm/YHUpkSwDgIgsC0EGknttsDQ4/QRUhOhvkCf+sNbM+TS6pqwDAKrJFCMog73ixHc3UMbT62TXtNzlsxSqc1EWmW498c0PJzSWEktcTRZ1cXtS1/ksGV85kRvkKS36NSceLk8L3wZfZU6WV4ffvjhSGy10PI+Xk9/cmNNy2AdBEAABLpIAFJbclbP7rxML5m3a71Mt5Y01VVJ09gMAucgkI/UTvd1tDQsB6ktyjCnMpioqkitiaA2iOqa1ARpg6VXlnlY3I5EZtN95xh2zaH1osf51+uR16qup2IrEdoyoeW66sda1SL2gQAIgEB7CUBq23vu0HMQyBBwUpsI6O7h2MjkOImMRlKr0ha4Yp8qIFKbac3mxGppTQsVxbW2XtP3qjrTNurXa0VPpn+LZtmor3cVJbTYcgS5Smi5P7VjXUWn0QYIgAAIrIEApHYN0NEkCCyHgIq2OkEN0mol1UdfXQfCfnWseggsitRmO12U1rhY+X4vt/EB9oGyQn5uWmi29WrR4yitmz1jA6WWRypiWye0XLZ6rLNxQ2kQAAEQaBMBSG2bzhb6CgIzEjDS6nJq5QEtlkl5qCtIbbFi3iezKRTzXrUESzpBsQ4fyT3mGQ2qUxekf7lazrutXPTstG9+fuKM1IbXKJ+3F+c7nsWWf+t+ysdadyT2gwAIgEC7CUBq233+0HsQAIEGBPKiZ6fc80LL9RSkdjNzbauGnB9r1RHYBwIgAALdIACp7cZ5xChAAAQqCOREr69eJBMOtZHbaPaDwktEQulNXMqNdRP7iT6BAAiAwKIJQGoXTRT1gQAIbByBbRK9bRrrxl1o6BAIgMBaCRSk9q+n7xB+wQDXwPmugbX+q0bjBQLbJHrbNNbCicYGEACBrSYAqYXE44+YJVwDW31X2cDBb5PobdNYN/BSQ5dAAATWSABSuwShQZTzfFHOLvBb479pNF1CgGVvG35Lho/NIAACINB5ApBaSC0itUu4Bjp/58AAQQAEQAAEQGDDCEBqlyA0XYg0YgznizZv2L9zdAcEQAAEQAAEOk8AUgupRaR2CddA5+8cGCAIgAAIgAAIbBiBDkjt6/Qff+X36L8sQUwQrTxftHKb+W3Yv3N0BwRAAARAAAQ6T2BOqX2FfqvXo3//B683jPKxeP4q/cdXqyQpLcPrPfqtP8sdY/dFE6T3ehSt/8o+/QVEt+H5yTHGtvNIeefvHBggCIAACIAACGwYgbmk9r88yUK7T7/VqxNVESOW4Jpo6qv79O+f/D0jy5GcJrJqJTcVYGnHfXJdkFoI7Rr/qNmwf+foDgiAAAiAAAh0nsDMUstC23vyFStMLI91sspi0aAc15uPyibCakQFkdrzRBFxbO6aWuy2zt85MEAQAAEQAAEQ2DACM0mtEdo0Avpnv0e9OrE1ZSqiuroOs5ykErhobUh3QKQWYrpYCV00zw37d47ugAAIgAAIgEDnCTSU2jSHNkknMJHY8kirSVf4lV8tycG1ddeKcfRVMiK1i5Yw1LdYSe78nQMDBAEQAAEQAIENI1AvtUZY0yhrIrUqJSBEU0USpKx8ynb3+eo+/dYfvBJmMECkFrmw0R8wyfXSkn0b9u8c3QEBEAABEACBzhOol9qsRJQIaqbsX/zBr/ocXF4uSi9LC0deax4ki+pGpBaR1c2W3c7fOVo2wCtXrhB+wUBfAy27hNFdEACBBgSWK7WFB8RYhtOobyK1LpUhNwNCXog3W24gn9t5fhr820ORFRJgmcEPCAgBXA9CAp8g0C0CS5RaFthMnq1+KMxHX1WklqVWZlfw+98hHeWVZf40MyZIyoI6brbZFLZTvCDcyzvv3bpNtH80kJj2n8NFjgDXwyJpoi4Q2BwCy5FaF20tjawaCdUR2xmklut2MzB4qVXy+9fTkBoBsV2etEGIq9mu75/4KY0vDWkadWBKw0tjOo22FVdOD3dp99CVOh6G5WLR8i3HQ9rZ161Pabgj/eHlHdrJ/TboX3mj9XsgMfWM2lbirdtv0Tvvfo++9e1v0tvf/ha9++47dPvOW/Tdu9+mb3zj63T37nfM8t3vfYfee+/7RP/2cz9EXA8eBRZAoFMEFi+1Tmhr55yNyiVSm7xwQVIRCpIsEdqkfKFcJL3VMgJZA59FXAPru0s0kNqCeNre1kst162ldJfG95ORZuvWYpuU59X7Y9qF1GbAYFMZge9+9y4dT6f05u07NH3zTfram2/R16Zv0q2vTemrb7xBX33jFr3+1Tfoq7feoNePb9H/d/Qavfvee746SK1HgQUQ6BSBOaV20eKTSK1KIxDBkJQDWcfnos8B6lvkNbW+u0Qqnjs0PJZIrdunIqnTfd5ve1sqtV46tTDz8i4N93fzkdcdW+90X8Q3F6V1EVxf//KoQWKWx3YdNX/19kc0/e6/0j/c/pBev/NPdHT7n+h/3jqlL73xz/SXXzml8eRH9Pkvv0f//W9+QAevvkd/cu0d+twX/9F3FdeDR4EFEOgUgQ2RWgjVIoUKda3/elrfXUKLp/RChFIEk8jLpoqslklt2K7rtlJbF6n17ZCItfRJ1QWpFSj4bEjgK1//N3rzez+nt77/c3rr3Z/T1+5+bH7/6rV/oT//24/oz//up/QnX/qQ/uSvP6TPffFD+q9/9SH958+HBBxIbUPQKAYCLSMAqUVqAubFXcI1sL77gMiiiKyO1EqvpAyvh9SAIK9E5HNqtbzycpp+oOuyx+mc2rmkliV3Jwi49Po8n5CY89DbvGMnb/2Evvn9j+m1tx/Qjbd+Sl9/52P6m6/9M91880P6+7d+Qq/cPKO//foD+sujD+nzNz+kv379p/TCf3/TDwTXg0eBBRDoFAFI7RKEBpHS9UdK130O1neXEJmVh7O4J6mM7tCOymGVFISs1EZRVC2wvOzEk8tISoOK/HLLkdQWHhArST+A1K7v8mlJy9O779NH//pzeufkQ5p+5wN68C8/pze++UP64f/6Kf3zT/6Fvnr7h/Txg4/o7XdO6c47/0Q//sm/0J9+/n/40UFqPQosgECnCEBqIbWI1C7hGticu0SIxJb2yYloTmqjbUaORZaV1Gp5rZJaJdJWtEuktrSj8++AxMzPbhOP/OqdE7rz7induPUO/c1r36M3v/sBfeno23TzrR/S7W/+gH70DzeJ3vhb+tH4c/SNL3+Fjm7fpz/6s7EfCq4HjwILINApApDaJQjNuqOEaH/9keLNuUs0kFqXgjAuTOk1VtNx8YhKIrV6sJBaTQPLSyLwtW/eow9/+hF9690f0Vfv3Kcf/+9/pX9464S+848/pZ/84w+Jjv5f+vk//4h+8tefp/tfvEpvfv+MXvizQ98bSK1HgQUQ6BSBgtR2anQYDAhsFQFJPdB5r2XLEnENgKKorM+pDfuLaQyZvNcqqUX6gYaJ5XMQuPXNd+j+2U/o62//kI6+/gO6/6Of0o1b36e33vmQfvid79FPX/4j+vFbt+i9l/+Yvn1tTG9850f02T+F1J4DOQ4FgVYQgNS24jShkyAwL4EmkVpbdzOpFRmO0w9876qkNko/8EfYeWolJ5c3I6dWwcFijsBX33qHvvODM3rtrR/QV752j771zhl9+bV36B/u/C966xv36O2/fJlOv/iX9I2X/x86+p9v0I0379Nn/xvSD3IssQ0EukQAUtuls4mxgECBQIXUsoAWoqdlkd0wn22hCZO+EI6TeW+5XHhQLD2KpTgc499klhZb0Dq+bl4QyA2p5uu379G//uzf6L33f0J33vkR/evH/0bHb5/SP55+RD/68GO6efuUfvTTj+jN7/8T3fre/6a37/0T/RHSDzbk7KEbILA8ApDa5bFFzSAAAhtCAFK7ISdiQd14463v0xvffI++ePRNevXoO/T6nfv0P258k/7+a/fob994hw7//pt04xs/oKs3v0V/dfRd+tI/fJf2/wSR2gXhRzUgsLEEILUbe2rQMRAAgUURgNQuiuRm1PPa9G36i6t/R//tlVfpLw6v018cfpn+/PA6jfjzL/+GRof8e90tX6fR+Dr96Suv+s7jevAosAACnSIAqe3U6cRgQAAEcgQgMTkq27sN18P2nnuMvNsEILXdPr8YHQiAABFBYnAZaAK4HjQNLINAdwjMKbUnNLo4oAkRTfZ61D84CUTujajf61Ev+h3Q6KCfbOtRb49ryPyYOvo0upfZV9jEfWlatnAwNoAACGwBAUjMFpzkGYaI62EGWCgKAi0icG6pJWKp7NHgKIz65KDv1oNwhm2u3NHASy3viyU4lWK3npXgCQ0ujkhpdegIlkAABEDARWpZZPALBnIN4B8GCIBA9wg0kNoJDaKoa4lwmjI2YhoEtpnUClYjt6mgKvmNyjXoUxRBloPxCQIgAAIgAAIgAAIg0DkCDaQ2N2aWVZt+kN0bRV5T0XVHiKxm0xXKxZkjwiy/dcLapEyu79gGAiAAAiAAAiAAAiDQPgINpZajtTpv1aYcaLHk3FpJQZgnUjvZ0/UnIFl8VQQ3CGsuimxlO5RJ6sIqCIAACIAACIAACIBA5wg0lFoed0glkDzaXo8F0gqufuirTGoLebMqR5aluLBfpxiUSq2OGLPkQmo7d5ViQCAAAiAAAiAAAiBQQ2AGqZWanMT2wowGEqH1JWZJP3AHzR+phdQKd3yCAAiAAAiAAAiAwLYSmElqOQLbM2kILLZWJk2EVUVRGWQuUlsHeP5IbRrhRaS2jjX2gwAIgAAIgAAIgEDXCDSUWpu7GnJog9QyECukIWIqUmslmKUziKaJ6spDYqU00/ZsGxIR5nptX0K6QVpVKJPuwToIgAAIgAAIgAAIgEDXCNRLrZmdIAirBRBLrdkmL0x4Lbx8oX8wCS9GSERWS6dfPhoUZzVQx7E8s9j68hVno0mZisOxCwRAAARAAARAAARAoEUE6qU2GoyNoJoHupKUg6iYX2H57dPoILxowe9yEd7BIUuwk2YWWP1wmFuWCK0cWyWsOo0hPU6OxycIgAAIgAAIgAAIgEC3CMwotd0aPEYDAiAAAiAAAiAAAiDQDQKQ2m6cR4wCBEAABEAABEAABLaaAKR2q08/Bg8CIAACIAACIAAC3SAAqe3GecQoQAAEZiDw3nvv0c2bN+lLX/qS+eR1/JyfALienyFqAAEQmJ8ApHZ+djgSBDaMwCmNL+3Q7uGp69eUhju7NL5f100+Li3Hxw5pmhx6erhLOzs74ffSmKbpNt6/L0fGdU/3d2h4rCo9HtLOpTFJj80e3uaPV2UXsMjS9eKLL9Lzzz9Pr7zyCr366qvmk9d5+3LklhkUWS5gOBtTxcq43h/Trr7+ssvptbwxmNAREACBJROA1C4ZMKoHgVUTYHFksS0IaCQASrJYFFKxpHKpjaTUDY7b8jJ9PAzLZn+J2GblVZflZSXQvv+q7zPAffvtt+nTn/40HR0dZY/i7byfyy30J8t3oS2stbK1ceVRZ6+hteJA4yAAAmskAKldI3w0DQJLI2AiWs3kryC/RnDrpFbLZ1LWS22ZlGZEVaTaH5snI8Ke31u+9aOPPqLBYEBvvfVWeSEis5/Lcfn5f5hHZozZbe2OKq6Wa+aM1FwvmSOwCQRAoMMEILUdPrkY2pYRUCJrvuY/LPuqVosUi6eSX67DfPWfiKpDyfVG6QdG1OzxQY6l/qTu0tMxpaGItJLbOC3BCrKPBpfWld/BubOcbtDkh8tx+YX8dDxKuzaucnIgtUICnyAAAkQEqcVlAAKdImCjhJwi4FMCjOyGXNvpvkhn5utbLwkSbVTCOzcnqSsjxCKxXDd/leyjmaFdK9K7ND50+/UxDfs0HA7p3XffbVSay3H58//URKrnGMf5+7TYGlbLteI68teNXGPh+lnsiFEbCIDAJhOA1G7y2UHfQGBOAvmIqvyHbz+HxyxdLLgsC1Z0TYTXPMjF24Y0dUIc8mibiEW9UHhRLTzEJn0ikjGEth0M0ycl5g0Yca7sz372swYliT7++GOTW9uocEUh2/8SFh2J4K6Da0DO10oJ31AISyAAAltEAFK7RScbQ90GAloKnfj56CuPX4nA/TENeaaE+6d0ah4M21EzETipNchCnVR4gEzV58tWiQaXT2ZA8Kelap8vNNcCyxfLapMfll8uf54fGyUfV+fWdiBSu2qu0TmRh8Q68gdCNDasgAAIzEUAUjsXNhwEAptKQPJTY9lkybIRz3h7GEUqlFpqQykrtXHEN6QMyHYntS7KW9wv5fTnLo2/rNMPWHxtn3LHF6K3uouZ5ZV+Tc7jrshLNt3riA2jPpUAACAASURBVIitlGt0XvnacH+0dYRlNDysgAAIzEUAUjsXNhwEAhtKQKJXEnkt5BqKSMbRVPNVeTQ3bJXU6mNTSU7XU05KRtJdVeteFKsKle9bzwNNNakaHYjUrocrX0MhR5wyUhvljZdfFtgDAiDQMQKNpPbkoE+9Xq/2t39wovCc0OjigCZmy4QGPVlWRfTi0YB6e7a03lxYvjeivuqLbtP08+KIdC8KxzfcwHXpuvkwU39ZH7lfso/Hovooy2l9DbuCYiDQmADLaXUUM5VKKwjFlx1USa2Icdmnlt6062n76f6QSxv16ZxSu56pp8oYEuVErEhi87esnqv9QyGaBaMgtXyNVV2Dm88VPQQBEJiPQCOpLVbdQFJTyRPhK1bGukiji30a3eOdvJwT6KIUs2QOZB51I7sDmrBQNhLbtB1pX/pg2zMimxFUI6qqnagvOUE/GgRJTsS8WX+z4LARBBQB/g8/9wCVE1eJ2vqIrN0eCYKvrUzIyrbLgWVCYWXEphKUCIeb/UCkXB4Uy6Uf7GTediY9KPtc/UsCiqz0mPLcy3q/udtXxpXltcn1zdd5B6Lgm3vG0TMQ2FwCS5PayV7PCWcqj7GwGinVwpdhxXXpKKcIpHySiYwq6U3XM3VG8qzk1BQ9GnhZ5jZ0274qFlM+LhXUXo8Ge00itYpL2r5vBAsgAAKLJLCy17kustMtqAtcW3CS0EUQ2AICS5JajuTayCdLoY1EssQp8fRwJzQQqStEWa34pVI52bN1m8+Dssgs90HE2jemFkQqdYSWd5/QaI9TGHh/nwZ7FakX0m8W28pItGpWL4oQSz16H5ZBAASWRoAl7ObNm+YlC/zJ6/g5PwFwPT9D1AACIDA/gaVIrRFZI7U6TaFEak1UVaK3QXo5OtvjOlha+et/JX6R1JamLIS68nic1Kp6TTkRTSfEpZFaVantj4xVZFnGFH/6dAlzfEkfVN1YBAEQAAEQAAEQAAEQqCewBKm1kdeRi6aGLmRkzwsl75Poq5XAWP6IyMgml0nrqZPX0IN4ydWTi7CqdAgjtRfLorXcto0Iy8Ng/Dk4cKkJukFVp95s5N1z0HuwDAIgAAIgAAIgAAIg0JTA4qX23ohGR0QSTQ0dYYnMCaiVy4LEhgMrllzqggijfLqZCqrrLJNaLakDGnBu8J59yOvkYOCkWmRWj0citSLgcYSWZTdNo+CBQWorTi92gQAIgAAIgAAIgEBDAouXWtdwY6mN0g84B9bJZmbGAS+pkiKwN3D5uE5uebuJeirBLAVRJrX6AC6jUiAKfVJSK31CpFYDxDIIgAAIgAAIgAAIrITAiqU2jV4qKcwNl0UxTQ/QD5N5iXXyaVITrITmoqJxEyLPuT7IPu6vnSaM68tGakXKL/apL3PxKsHVaQnFPrmoMNIP4lODtXMQ0FNnlc0jy9tzU3+do1kcCgIgAAIgAAJrJrBiqc0JpCVgHwzrxS9gyEmtBualVm9kIS1vJ5QM4uojwLzTCKnN7zUPvLFUu7SGrNT6ClV0WPfL1BdkPmrLC/FiXhjhu4KFLSYgr8ndYgQYOgiAAAiAwFYSqJfaRMp05LG4HKbHmjX9QGTPy23hq34XNeXTJDJoZihw0c5s+dCf4tkNUmuisYUCSo5Vri4Xs7M7xDMykHlgbECTlJdEYZM6bHknu1Km0AdsAIFZCaRSyy9DQFR2VoooDwIgAAIg0D4C9VLbvjE17LGWWpbLKgFuWGVVsUhqExGH1FaRw76ZCOSktuQNXjPVi8IgAAIgAAIgsNkEtlhqN/vEoHcgMB8BK7XTw13Kv17W5tnKq2hNG6WvH52vBzgKBEAABEAABNZBAFK7DupoEwSWRqA+Ujvd3yFI7dJOACoGARAAARBYEwFI7ZrAo1kQWA6BVGrTdaLpPnJsl8MetYIACIAACKyTAKR2nfTRNggsmgCnEuxPQ63HQ9rR6wSpDXCwBAIgAAIg0CUCkNounU2MZesJnB7u0u7hqePAc9amUdnMbAjIqd366wYAQAAEQKALBCC1XTiLGAMIGAJKWI2o7ijBFUQsuslsCJBagYNPEAABEACBFhOA1Lb45KHrIBARkNSDgqSy7Kq3iyXpCFEdWAEBEAABEACBlhKA1Lb0xKHbIAACIAACIAACIAACgQCkNrDAEgiAAAiAAAiAAAiAQEsJQGpbeuLQbRAAARAAARAAARAAgUAAUhtYYAkEQAAEQAAEQAAEQKClBCC1LT1x6DYIgAAIgAAIgAAIgEAg0EhqJ3s96vUa/O5NTM1x+T6N7tkGTw761D84Ca37pRMaXewV9x0NqHdxRNERvE335eKABhdL+ub6Y5rh4/S6bztZuDeivqpf95f7X+hPcjhWQQAEQAAEQAAEQAAEVk+gsdQOjmo6p6RxsiciO6GBklKWwlw9RhaVSFpp7VM/I6tyfGiDhTjTnuoPkS5jBToSY9P2gKySh3FG/TWyO6AJ16vGFEpjCQRAAARAAARAAARAYF0EziG1WhSJSEmkF86jQRR9jSRRRmxkkaXUyqaV1gkNejZya4Q3I5G+DSOsNZHapB/StHxyZDmNyHI/fH95bD0lvem6VIRPEAABEAABEAABEACBtRBoLrUH8dfyaaRzsBe+3rfCyZKqRJCsJGp5tCMui5xmRFXJbSy1VZFaFS0uRFlt22mfpG7zeVAWmbXiLZHjtZw9NAoCIAACIAACIAACIGAINJfaJP2Aha/vv/bPRWpZ+mKpNbm2hbzWovzmz42T0yTntbc3Mvm4qWSbdW7LRFVFkEN/bN5vn0YsrZx+kBFmkVubviB1yGeoK99fbAUBEAABEAABEAABEFgVgZml1qQD9Ho0OGIZlQhpTmrTyKwt399LHvxyI5V6S+U0IRILp/Qjicp6gQ59lYfYChHWJA0i9APymqDHKgiAAAiAAAiAAAhsHIHmUsvpBS7P1Y4iiKJZ54iok8ggnEoyWRovjmhyMPCzIWgaPn9Vb+RlPs7LadgZ2gjbiFR7fjP3kyXcb5hhwdUnObny6VIp5qtzhuZRFARAAARAAARAAARAoBGB5lLrpdDmkqZf2WcfFFOSyRFSI4ElkloZqeX0gERsg9Sq/qQzKHBKQZR+IBFmSSGIP72kmqgtt8nThXFk2cmtE3OznqRWNKKNQiAAAiAAAiAAAiAAAkshMIfUlvQjidQO9vohssv7opzVYuS0NFLLzWVEWNIIYtnNRWpL+ltSr5Fz6auXWIlKu8+DeFaHihawCwRAYEMIPP3004RfMFj2NbAhlzu6AQJbSaCx1IYc0zi6GW0vpB+4XNtCVLM4c0BjqZXIq4hndNrKpTYrwRlZjqrzUqu3stgiz1YTwTIIbDoBFhn8gMAqCOBaWwVltAECeQKNpdZ/NZ+vJz9PLUthQWilAhZbecDLPlQWCXKaSpCkH/haat52Nvhjmwss/fdym9Zv1p2sijibB+Iq0htU/6U/+AQBENg8AhCNzTsnXe3R5lxrH9CNgwO68X5XSWNcIFAk0Ehqi4dhCwiAwOYROKXxpSFNTcd4eYd2dsp+d2l8X0agj9PbdBm9fYd29m0rdH9Mu7JMRKeHu2EflfdheMz7XP3HQ9o9PJUGlvK5OaKxlOGh0g0i0Pxau0NXD27QB9m+s5BeoStX3O+1O6oU77tKeovaGS1+cPOArkTHut13roa6XRtXVYV3rtXL8J1rV0gfEzVMRB/cvJoVau7Twc3iqLk+3VffhztXs+W5PV3GsxJm7jPXFlFT4dflZPkOXb2S8tHnhJfVuUv6c6VwbEoO6+chAKk9Dz0cCwKbRoAl89KYioo4peGOCG/SaS2mfllJZ1KciOvaoeExkZZaI7Tcxv3TqH3ebqVV16mWIbUFwtjQXgKLk1orTlYC71SIkgguy1aVTMk+W94L4fs36IDFlz9zx3sprqqf67T7g+jyetheJp1XTBl7vr2El/WF++f7o6SWDy/Ir0houJZM/bkxum2h7+4YYePql7Z9P0PVll/2jxThoAtjeVkEILXLIot6QWBdBI6HVjij9suldrrvBNVFWo2smihrLlIbVRpJbbLHr26q1J5UTC+YvmWQB2NSl1QalJ+BRU315wftFnSZsvSqXFtpPVhvD4HFSq2OAAqD3DbeVxX5lWPDZ05qr7oIamFfOMwv6UitibIqOQ2FrhaiuVbSi5Faf0waRS3IKhUF3MlkkE0bLU0llfen26RdPZ7itlRM8/WzWBfrT4+V2vG5DAKQ2mVQRZ0gsHEEyqSWt4u8cvS0LF2BI7Bj2i1NZ0iPG9L0eFie/nBpSMO1px9wvjzn0VflzfODseHBUDP1IIuteV6g5KHZnPjy9VCQX5lVZeMuFnToHASyUlsVeSxEDjm6ydJ0QDfuuChq1J/mUhtLnKvT5dhaEVXpDWV9NJFRFjOJ9NZ/pmIXtZXWw0Lq0yFsFDkabk5qXQEv3/6A0M9c2oGR3rR9tR712/TJ9icnvOaPiCvVKRi2W5Baf3pWsACpXQFkNAECKyHgJTKkGUz3RVjzUmtTBkJuq8+VrYnUhlQDEV1ppzjSEAlWKQe6/jT9wMhzeX3FFuq3ZEWDDzsaFF7MwuJaHT1NZLQgq24aQv0wqputxUsxcR3FqQ3rR4ISqyTw7LPP0tnZWaFJ3vbcc88VtvOG0mstLc0Smf26mgtaAb16zeWfeunLC6WVMRupvaNzVvk4/3V9HMn1Qihfsb9/g2aJ1FpBzEgod9/3t7ifj8sJpx3zVbpTJtdePkM+qx9Dpr0gsKE8b4vEVZ2TWFxFjq/SjYpjrNge0I3XJEc5jNf3zaRlhO2qSSwugQCkdglQUSUIrI8Ai2OZ1Kpoqnm4y4ru0IlvEGDuvRZQNxovzTvqwa4pDU0ObxrldVJqBFX6k6mTq16n1LqhVc6KwkLqZ0QJUVt3aCYC6/eQTz/wm0JUuFqc/QFYWBMBFlpOGXnkkUcisWWh5W28j8ukP42l1ohYEK64Homq5qKyuW18tJNWLct6OYl4RtFTFt8ymfRS7NrwclkU7FhWXT+9cBbLS56tFc10XEHCy2RUxhC3G46LmfLDaweFB+SkD/zJ/TAy+q0bdONO6E/ZcXG7obwh5R+2E0F24494pj3E+nkJQGrPSxDHg8BGEaiSWpFL1+H7YxofE8UyK4MpEVDZLZ/+wTLZoD/TOuJ1G+21om3zePWxi13OiYbNcS1Kanmk1s1RXZV6YKKzYapCL7UZKTZR26T8YkeN2s5DgOX14YcfjsRWCy3v4/X0J3etpWUkEptPL+DSLEjhQTGWrSB2Sp60tPKyEaZwrI0k2ihhiBza3vh1c9zVyvSCq6/JQ2QHdFA280IizT7yys35vsUkwphkzCqiqcYWyrmx+cio/FGQiKMWbxUND/XE/eA1E6m9piPbirMpnqxXjdfUp/umxlVsGlsWSABSu0CYqAoE1k/ASe39MQ0PT5Ww5tMPuL9Wavk4FcnN5M4OP1+RI1sonwi0ByORXb9hJQt50XCS6oWzJEfWzFfN3XTlfY/Dy15YUGUubL9bHi7r9ZJ0hnCcLovlzSOQiq1EaMuElkeQv9bisbFcSVqAl8uoSBBTETH5LMiiSBtHRF0UkMvaKKLUU4xe+naVcIY2os6oFa6vPOJaGrnkNrRoquWQDqCl0bYj+0K/dJlk9gPfy+JYS6PQqh8mYhtFUeO2fCTctRMYS8OuvEvj8HyRfiCAVvIJqV0JZjQCAqsiIHJqpTJEYeukNu1fHFVN99p129buJZmyK1Oq4cNlUaR2ZTm1SlI5+qoe8JKRxLKqynMBPkblylqp5TJ9Gh3al770/AtaQtpBYRaE7NsRpQf4XDcBLbZ87qqElvtaJ7UsQ1dERM3gOMooUT0ZrZU6+9W4jfJlxS4bzXQ5rVrQ0qhiJiWAhVS+zg9fyef6VRJ1TNsw0WZXVomzjJA/w5h4jTlweRt1FaE15XV/1bisOGpWeeGO6tIdMH28Ys7HjcK8u7HUphKbrts/Nrh9O2ZIbQR6ZSuQ2pWhRkMgsAICUQ6rRGG53UVKrYhzPBUYv+ih/iUKDSK165Ja/WCXWg4RWC21vBwe9Aryq8vwNGAhFSGcfURqA4t2LInY1gktj6Zcap18RULrxu8imSHSyWVjoWSJCrKp5M3UlxPjwDYIVtjml0qEU6dA+LIigWmE062H/vMRVgrNg1Y36yK1ls3BQSr8oeXcUn5cmUhtdLCVZssyMDbpB+oFFNJ/s8lIdSzzhfLmHIYyoW8i61EnsLIkApDaJYFFtSCwVgLqoa6yt4pJdDREc3WPM5FaVaccq4/g5ShPdqZ0hSDIaZ2LWM+LhhLQRpHaeAqwILt2FgUfgVURXyu1VoD9fiXMsi2qaxEDRh0LJ8Biy791P9lrzUlrecTQ1mojpSxaRanNtsv1stT61AMtbEp8IwkNImfqTKQ2itYWBNyKauR+0rFCpNb2xYhu0oYc4iO1er+Oykb9lvEc0I1viSQHiZQ60zQBu11zUcdEbant5iA3Vu6bzMFrlqUfaXnXg6hOKRt/1l0HYSxYmpUApHZWYigPAiDQOgJZ0XA5siPOhz0YUT8jmyydIa2gR/2LferNkC6ASG3rLpVzdzh/rZ272nZXoKU1ivaWiGG7R4ver5EApHaN8NE0CIDAagjkRcPmuZqpteoitXp/7YNlfRq9JpJcnF2B+GUPM4jxagihlUURyF9ri6od9YAACFQRmENqq75Kk/yxqjLuCWP1FZ3pIP9HkW7L9Zz/c1ERFT3Xo5kiB/9Z5KhhGwhsNYFa0dDS6l6MYFMDclK61Sgx+BoCtddazfHYDQIgMD+BeqlNJDL66i33Jh3TF5ZaEdxM5woCq8uXCXHxP5fwcIa8wWdAE64bYpuBjk0gsL0EIBrbe+5XPXJca6smjvZAIBCol1pXlt+4Iw8zlL19J0RNtaSGxvxSKrWlcmyP4PZC3UQis/LJr7rU72cvrPuGsQACILCNBCAa23jW1zNmXGvr4Y5WQYAJzC21IrgeYySmZdFWNbm5TzVQ+WWFKKutRwsttycPX5jPg7LIrM2XK/TTdxgLIAAC20SAZQO/YLDsa2Cb/k1hrCCwaQTOKbWxkAb5nCFSa6KsIrshxcBGg/s0YmnlHFqVUhBJ7T1GmpPoUNemQUd/QAAEQAAEQAAEQAAEFktg/VJrxhMkWFIbChFWk9vLebqpwEJeF3tJoDYQAAEQAAEQAAEQaB+BJUqtRF9LPn36gZXUgsQ2YukixZL6IJ8cuy15F3ujalEIBEAABEAABEAABECgVQRmklqZ4mYgD43paXCUUNp0gIazH0TpB/wwWhqJDVLsxVdmZNgbuPkendzydpOmIG/+adW5QGdBAARAAARAAARAAATmJFAvtSKQKqfVtqXk00ddpRe8r6HUyiG5Ty3Nsl8/TOYlVtpznweDaLYEORSfIAACIAACIAACIAAC3SRQL7W5cTvRlQfD+Kv+Xk9LrBJe9aIEG+l1kddEhCWXNnoBQ05qdX+81OqN3DbybDURLIMACIAACIAACIBA1wnMLLVWPnPSyF/5i9hK5LQEH0dbRWpd+oGkFni5zcqwa1elLAyO7NRdkTD7Y6U/Jf3AZhAAARAAARAAARAAgU4QmFlqOzFqDAIEQAAEQAAEQAAEQKBTBCC1nTqdGAwIgAAIgAAIgAAIbCcBSO12nneMGgRAAARAAARAAAQ6RQBS26nTicGAAAiUEVj261FRf/tewVt2rWA7CIBAOwlAatt53tBrEACBGQiwcOIHBFICuC5SIlgHgXYTgNS2+/yh9yAAAg0IQF4aQNrCIrgutvCkY8idJgCp7fTpxeC2i8ApjS8NaWoGzcs7tLNT9rtL4/tCRx+nt+kysp3o9HC3ot4d2tm3PSCa0jBpf3d/SLvJNu7j8DjUv4wlyMsyqLa/TlwX7T+HGAEIaAKQWk0DyyDQdgL3x7R7aUynhXGwYIrwJjv5GBFRv8yiWy61pRJ6PFRSK+1MaZjtk91/ejhUgi3HLPYT8rJYnl2pDddFV84kxgEClgCkFlcCCHSNwPEwE/ksl9rpfoiUchTWCmu11JZHgHWk1oFN+qPbIzql8X5Owhd7UiAvi+XZldpwXXTlTGIcIGAJQGpxJYDAVhAok1reLhHZqpSFEOUN4psBV4jUFlMbpvvSHhH5yHCmrgVugrwsEGaHqsJ10aGTiaGAABFBanEZgEBXCLBQmnzVIKBBIPNSa/NjnWRGQloeqZ0Jl+8T5/ZyvxLJPR7S7mGSLMGi60V7ptZKC0NeStFs9Q5cF1t9+jH4DhKA1HbwpGJI20wglsZYatVDYyaH1oru0EVOQ1nml5HaSFBVXZkHv1iudw+/bR9WM21Jv/gzd2wQcRO9hdRu80W8srFDaleGGg2BwEoIrEhqJzTo9Wl0r35MJwd9GhxxuRMaXWx2TH2tKAEC20JA5NGON4hqJlJ7f0zjY6JQRjPKSK3fHbfhN6cL98c05NkOIqlNC/F69YNkuSNm3QZ5mZXYdpTHdbEd5xmj3B4CM0gtS+aAJhGbzLZ7I+r3etRr9MvSysIblw9SG2/vXRzRiWmf2032JXWEslGHsQICHSfghJOF8vBUCWtGah0JK7V8XC6CGrb5GQ/qIrZ6pgOfM2v7Nc5MBzY8LJuxYXGnCvKyOJZdqgnXRZfOJsYCAjPl1MYCe3IwoNHRiPp7seZqqBx17aX7WXq9nOrSdrlZpDbuS7GWCQ0q2iiWxxYQ6AoBkVP7dX6IwtZJbTp+rkc90JXuLltnia2QWpnBNjo8dwzSDyJEWFkOAUjtcriiVhBYF4FGkdrJXhwV7e8NaHBwQnQ0SCKyLl2gUbQ2jvrqNmyklshIcRSBlXQERGrXdcGg3Q0nYB6yCvmpq5Za8+CZzHnLqEx/JNob+hVR5MhvKsKQ2ggRVpZDAFK7HK6oFQTWRaCR1NrOSXRUPokmeyKmYVvjgUjE1gmwiGyz4+vaQ6S2GUeU6iyBuhQB9RavIL6aRpNIrUSFRVr5MxFXltpsTm18rE9t0F1Y4DLkZYEwO1QVrosOnUwMBQQaTelVEnXtH4xo0BOp5bxYWbZcdeQ1m1+bpCXMVp6lNo4eF9pA+gEucBAAAUcA8oJLIUcA10WOCraBQHsJzBCptekAfU474LkJOF+217MzFbD4ZiS1NPo6a3lOc0jqj5EXpTrejzUQAIFtJgB52eazXz52XBflbLAHBNpIoIHUFmcn6F0c0ODigEbuQbDwcFdAMFvklVMZaiKvXmobRGl9Hm4cPQ69wxIIgMA2EYC8bNPZbj5WXBfNWaEkCLSBQL3U6pxXs6xE0e3LTZ/FkrrMSG1OpD1w7hfSDzwOLIDAthOAvGz7FZAfP66LPBdsBYG2EqiXWspEaiXtwKchKNF1JJpHXu0Bs5aX9IdCLq1EaSG1bb0m0W8QWDgByMvCkXaiQlwXnTiNGAQIeAINpNaXNXm0klPLW1lEzbqJ2Mp0W7b8siO13IoVWxZqmQ1BUhOKkh1GgSUQAIFtIwB52bYz3my8uC6acUIpEGgLgWZSq+aj5ZQCiZLG6QUc0Q1im5XapB4NqVBelfUPpJkDRFytUEtfetHsCxJdhtxqxlgGgW0lAHnZ1jNfPW5cF9V8sBcE2kagmdS2bVToLwiAAAgkBFhg8AsG+hpILhGsggAItJwApLblJxDdBwEQAAEQAAEQAAEQIILU4ioAARAAARAAARAAARBoPQFIbetPIQYAAiAAAiAAAiAAAiAAqcU1AAIgAAIgAAIgAAIg0HoCkNrWn0IMAARAAARAAARAAARAAFKLawAEQAAEQAAEQAAEQKD1BCC1rT+FGAAIgAAIgAAIgAAIgACkFtcACIAACIAACIAACIBA6wlAalt/CjEAEAABEAABEAABEAABSC2uARAAARAAARAAARAAgdYTgNS2/hRiACAAAk0I6NejYhmvy13GNdDkOkQZEFgWgWVc022rE1K7rKsL9YIACGwMAb4x4wcElk0A19myCaP+MgK49iyZxlI72evR4CjFeUKjiwOapJt5/WhAvYsjOlH7Jnt9Gt2zG7i+dL8qikUQAAEQWBgB3PAXhhIVVRDAdVYBB7uWSgDXnsW7HKm9N6L+nlXdk4M+9Q+s2hqR7fWo18sJ8lLPNyoHga0hcHq4Szs7O+W/+9NyFvfHtLszpPISpzS+tEvj+7aK6f4ODY9VdcdD2rk0plO/aUrDqr74faFOf+gCF3DDXyBMVFVKANdZKZoF7pjtHlR7PzT3ILn/cN0l9870vhatp8Pjevg+auvbPQx3xLTkotZx7VmS9VLLgupElGW0fzCigVrnbeG3T6PX4vJ2n43Q6kgtN5+uL+rkoh4Q2GYCfBOPRFPDYGkVqWUB9VJZciNX+0OdJf+pcH1St29zSsPKm78vuNQF3PCXiheVOwK4zlZ1KcxyD6rrU1wXl9b30Om+CK/Uw3+op9tkn3xynRIcKNYvpRb5iWvP0qyXWkd95vSD6Gyd0GhvRCOVfkBUkboQHYsVEACBWQjURiZS8czKqG1R39zJRR0aibAX2VRqV3ODT3nlbvgnBwOfDqXL62+X9HbzTZP7Boq3+z/Kjwb+2yhdPi0T/vjXgQAOFOgkrbQGrLeJQO46a1P/N7+vfP+o/wPc3KP8PYiIzDdQO8m3SDLa4j1J3/ciqTWBgCC0tfdaFRTYqRVh6c98n7lrbxvvcbNLbRK51TdquTnrNAMdqeX/LHR55NTOd/HiKBCoIqBvyIVyOlIrO2sitnGEVqIPcnDuU4usXuay/B9Ikzpy9c6/LXfDJ5rQoMfPBPBnLJrRfcqUsW2bexiLbcV9sJcTXz68IL/8h314zmD+0eHITSGQv842pXdd6EfT+0d633FjF7mNUqwaSq05Vu5d9f2IZHgF6PPX3vbd42aSWr7RG3FVObNyrnzUwkQwdM4sbtzCCJ8gsFQCcMvFOQAAIABJREFUNXKaRliDrM7aq4o8WR0dMdXa/1ymNXm+UV/Mfx4hGjJr73Ll8zd8K5rpA7BlkdpQb3JPK8gqFaXXPTTrpdh8U6Xvk6F2LG0GgWeffZbOzs4KneFtzz33XGE7byi9zrKlsXF+ArPcg+paUVLrpTcfDbb3KS6fPEuQaaJSanGPyxBbzKZ6qeVZDFwUI9z8izf1ODqRRj04GhEfY6O5JTMnLGZsqAUEtpBAHKGojNq63LFUdrPracpCQpYfGMt/vRb3JxepLTxstsobvhtH8dsldQ9jIfX3wcw9Kye1vt40EhuiwvLNVoISqxtAgIWW/9975JFHIrFloeVtvI/LpD+Q2pTI6tbL70FlfbBiPDwuRl31fTOW0zSftkSu96dRXm6hB7jHFZAsakO91LqW+KYfpNZFIvhmb76Gi2/0cVmRWf4M/1FEdS1qNKgHBLaeQPEmO9wvPhAmT+Pqm3cpOr4Bl0ptXdQildp0nSj+T6O0F+fakZMN+8d6fO/iRsojtXwPG9CkKvXABACCyPpvsDJSbKK2SflzDRIHL4wAy+vDDz8cia0WWt7H6+lP7jpLy2B90QTq7kFxe3zPs3+4l6cS6HuSXzYiKsfED5NxC4V76fGQ5D4b92A5a7lrbxvvcfNLrbv591S+mZyqYtSjGKnlsv6GLwfiEwRA4JwEYmmUG62/MVMskbKfqCjDfOM3X7eJ1Jqbev5ruWJ016UPyLEyqsxDabpvUmzRn7kbvn9Y1Qtn+KPb/mcQ1u0f4U5qfecmNFBpBbk/1OVeGEdlw3G+KixsHIFUbCVCWya0PID8dbZxQ2tvh+a5B/FoVWpWUTT53hdk1X6bFNKfsvenzH0s3EsdXu5rIR1reejz1567Z23RPW5OqXVfoflIbfwEb3mkNkQw/H8oyzvHqBkEtpCAk9rk5r97ODY37vHhbhQ9CDfiWIYZnE8LSMU0ospRkvAfQLTLRS/CfyL8n0daNnO86XtaLq15tvXKGz5XlXlOgDdzNDXIaiK1fExBarlMn0aHkrYl97yQdpAKMx6Yne1crrK0Fls+b1VCy/3KX2er7PE2tpW5hygMJi2hUi4TqU1kNJVavmfGc3HbxsK9VBqP++Xvp7wb9ziBtPDPBlIrN2N7c7aRh/xXdr1eKMP/EYSv12z5sO4iIO4/hIWPChWCwFYSUNFWdxPXN1qbcxY/4BD2q2PVNDRRpDbLNL5xx0XUPnMT34mE2pZN/kPhjeu64ZfMgJCXWpbXkJIV5DcW3/y3UYjUxtfJZq+J2NYJLY8CUruOc6nuM/M0z1FXJb2RfEbfbHE7O5m5uG2jRnb9vdP9UW4ixLyc3Odwj5vnTDU6poHUNqoHhUAABDaQgJFWl1MrMwxYubU33SC1xc7rm3SItko5LcH6qzvZ7+SUc3ELN3D3n4P8B1Car6vqOudiXjaUgDaK1PIf+PwHuv1DP8iuey24SHFhSi8rwIUIrZTHGxbPeXaXfziLLf/W/eSvs7qjsH8+Ag3uQdmKk/uP/vaI71VKcPlwidTyfbNwH6xMa7CN+/voku9z+Wtv++5xkNrsRY+NIAACXSJQdcMfcYrBQe5NiPYbJSuvVkz7F/s0S7oAIrVduorqx5K/zuqPQwkQOC+B/LVnpXab7nGQ2vNeSTgeBEBg4wnkb/g24lo29zYPyqcV6Ehu7UMX+nXhxVQt89IHpF5t/DUzTwfz19k8NeEYEJiNQP7a2757HKR2tusGpUEABFpIIH/DVwPR0upejGDTBXJSqo7DIggoArXXmSqLRRBYJIHaa29L7nGQ2kVeVagLBEBgIwnU3vA3stfoVNsI4Dpr2xnrTn9x7dlzCantzjWNkYAACJQQwA2/BAw2L5QArrOF4kRlMxDAtWdhQWpnuGhQFARAoL0E+KaPXzBY5jXQ3n8d6HkXCCzz2m5L3ZDaLlzJGAMIgAAIgAAIgAAIbDkBSO2WXwAYPgiAAAiAAAiAAAh0gQCktgtnEWMAARAAARAAARAAgS0nAKnd8gsAwwcBEAABEAABEACBLhCA1HbhLGIMIAACIAACIAACILDlBCC1W34BYPggAAIgAAIgAAIg0AUCjaR2sidv1bGvXLNv2rHvRY+Wy179aF4rKXWUYOMyyfH6vemTvV5hv63Jvtt4UlItNoMACIAACIAACIAACHSfQCOpJX69WoVwRpi4bC8jvNltfRrdIzL171kt5Xetm3exE5ERWXfc4ChqRa1AahUMLIIACIAACIAACIDAVhJoJrWM5mhALJZaNBtFaeuwZiXYyq6O1HI16bqtmqPHNVHguj5gPwiAAAiAAAiAAAiAQKsJNJdaPUwWURdZtZsnNIgiuTVpCib6WiWiJzTaG9Foz0VyTSMSkeXPZpHg8uiuHgyWQQAEQAAEQAAEQAAE2k6gXmpNPixLJEtovazOI5LF6K+VWU5FqI8Gp0LNp4TFVwtx208T+g8CIAACIAACIAACIFBFoF5qzdGzfsVfL79Wkm3XWGqDDM8opJl8X0ht1SnHPhAAARAAARAAARDoHoE5pLZcWIOYzgYqH6mN5daWyaQscCQ5SoXgtvnYTNnZuoXSINABAqc0vrRL4/sdGMoCh/Dee+/RzZs36Utf+pL55PXl/mzHeVg91+WeNdQOAiDQLgLzSW2UP2sHXIy21uS9qjqKx3LqAItpqCMvzLZMcd+skeV2nTT0FgRmIXB6uEs7+9NZDpmv7PEwbiddn6/WhR7F0vXiiy/S888/T6+88gq9+uqr5pPXefsy5XZl52GhxJpVtmqu0/0dGh6HvqXrYQ+WQAAEtonAbFJ7b0SDg1HyUJjFVRTTikhpkjJgo7BBYHs9kdo4Lzad/cAcV4jScn9yebbbdFox1u0lMKXhzg7t1P4OyWpus/K7h6cFpLGkcT1SZyh6ejjcmCjx22+/TZ/+9Kfp6Cg/PyBv5/1c7vw/zbjueGbNyufOw/n7er4aVsuViLJ/LJ3SeH9Mxau0vVzPd1ZwNAhsJ4EZpLb+YbEQMY2jrNHDXjJfbaNIrZZanVLg6s8KrZ1+LH2Rw3aeXox6+whMaXgp9597GYn68iyvRZliWZC0hnS5XKqL9ZT1a7HbP/roIxoMBvTWW29VVsz7uRyXP99PPde4/vry+fMQ17LqtZVzZaGV65uXS/94U9emlC+Bs4lcS7qKzSAAAjUEmkltFFnNR0HPG6llIQ6zHdgob1h3UVwWYe5LTz9YZkeYlg2CXUMAu0GgUwSKcsT/aYevatPczjkjWUoupvtOIO6PaddHHi3UTflamHNnOd2gyQ+X4/Ln+1nReThfJ8999Gq5BqZ8TccpNXwdF78pIJrz+j43GVQAAiCwDgLNpHYdPUObIAACcxCw//FPdXQ1+ro2iIGtPF0vNpmLZBVllWU5znPkmorlivWvYstwOKR33323UVNcjsuf72c15+F8fTz/0avnSkSZP56svJZILSK15z/RqAEEWkIAUtuSE4VugkAzAk5S+T9++c9cLx8Pk1SCnNTmtqnWM1JRjJzZ8psitZwr+7Of/UwNonzx448/Nrm15SWa7FnBeWjSjSWXWT3X/B9Ps0ltzfW9ZGaoHgRAYHkEILXLY4uaQWD1BFg4zUwHOs0gfDXrUwWkZ054ObJbnp8YR2BTgTXrnNvoZlhgkc3XJXmO0vjqPlm+WFab/LD8cvlz/azgPJyrfws6eLVcrdDytWXTaSpSC5I/6Ga5vheEBtWAAAisgQCkdg3Q0SQILI2ASjUIaQMiuJkIlZOvUJZ7FpfjfSEnl0VCyynXPaSpl7h4ZJsSqV351+RLPw8x53WtrZSrulbD9SgjD3+4yRbzqY4JDylWXd/R0VgBARBoGQFIbctOGLoLAlUEIgFVYmWOKaQeEInM8mc+umqjrl4iuE6JgumObLjUrvaBJss1YqbnCV7EedDs17i8aq481Oga92PPS+3M17evDwsgAAJtJACpbeNZQ59BIEsgjaLGhQqpByQR3CC39ojySBZHXkPES9W/4VK72qmnln8eFPm1Lq6Wqx1qc6md/fpeK0w0DgIgcG4CkNpzI0QFILAhBHxklqWqLK9Vtu/S+BuSf2ultjZSy+KanTbJPZG+PzVRtKp6slHeFeFb2UsCln0eVsSraTMr4+o6ZKWWhVWu5fzn7p/9ucsvb3h9Nx0wyoEACGwsAUjtxp4adAwENosAy4Q8DLZZPWvem1W/zrV5z9pdElzbff7QexDoCgFIbVfOJMYBAiDQmABL2M2bN81LFviT1/FzfgLgen6GqAEEQGB+ApDa+dnhSBAAARAAARAAARAAgQ0hAKndkBOBboAACIAACIAACIAACMxPAFI7PzscCQIgAAIgAAIgAAIgsCEEILUbciLQDRAAARAAARAAARAAgfkJNJbayV6PBkdJQ0cD6vUGNEk2nxz0o7KTvT6N7iWF7o2ov6eO5Lr0elI8Xp3QoNejXu1vpt24IqyBAAiAAAiAAAiAAAh0gMAcUlshlBdHdGKgnNDoYhDKILV8rJPgSGp1eV7OCauW5wkNfFsdOAsYAggsjECTOWpLXqCwsD6gIhAAARAAARBYPYF6qWX51BFRlslCVJVlNUisGYaS1lqpPRpQ/8DqcA4BR4nj/anUainO1YBtILAtBOK3geVGLa8Oze3DNhAAARAAARBoK4F6qXUjK6QfeLFlodRR1CKKaqlVgsp1RhFYG7WNhZbrV8eY5ur7UOwVtoBAFwkgUtvFs4oxgQAIgAAI1BOYWWo5X7Yql3Xwx5xny+kDQXQrpZZF1keC9TFcR59GB25/JLtWaid1fUlzgOt5oAQItJzAHJFa8/rbXRrfb/nQ0X0QAAEQAIGtJjCz1DajpXJnOa7qHxRT21V6AlFIH+CIMEtu4aE0kwYhKQ71kdpCZLlZx1EKBFpOICe1uW1qmJBaBQOLIAACIAACbSUwl9SKeIYIayqiSl6VsJq0AYngeqm1KQYFia0kmkptuq5FurIi7ASBbhFgQb00punhLu3s7JT+Do+7NWyMBgRAAARAAARmklojsRdHNMpM7xVP4+Wk9mhAgyOd76pkV6Q2Sj/gCK2V3FSYo+itHCvnz+f3ygZIbSCBpa0iwFK7P6X4YbA4Usv7ILVbdVVgsCAAAiCwFQTqpdZ87R/PPpD7ar8otT370Bcf7/NhM1JbhTmVV1eW2woPj3GdkpYglYV0BtmCTxDYBgIis/zZOFKL9INtuDQwRhAAARDoPIF6qc0gqE0/UCIbC3C51Po69QsYslKrhJX392Lhtt1V7WT6j00g0E0CpzS+ZB/4Erm146yJ1EJqu3k5YFQgAAIgsGUE5pbaNAc2jtQ6ipm0AM9XhNWlH0h9Xm79jAg2X9emIwxoIscZodUR2iRtQcuxbxQLINBhAi71gEc4U6S2w0gwNBAAARAAge0hMJfUbg8ejBQEQAAEQAAEQAAEQKANBCC1bThL6CMIgAAIgAAIgAAIgEAlAUhtJR7sBAEQAAEQAAEQAAEQaAMBSG0bzhL6CAIgAAIgAAIgAAIgUEkAUluJBztBAARAAARAAARAAATaQABS24azhD6CAAiAAAiAAAiAAAhUEoDUVuLBThAAARAAARAAARAAgTYQgNS24SyhjyAAAiAAAiAAAiAAApUEILWVeLATBEAABEAABEAABECgDQQgtW04S+gjCIAACIAACIAACIBAJQFIbSUe7AQBEAABEAABEAABEGgDAUhtG84S+ggCIAACIAACIAACIFBJAFJbiQc7QQAEQAAEQAAEQAAE2kCggdSe0OjigCZmNLzco16v7LdPo3vpsPkYvd3W0T84SQtiHQRAAASWRuDpp58m/IKBvgaWdrGhYhAAgbUQaCC1RHRvRP2LIypq6IQGPRHesv6nUmvLTfZ61Nuzqlx2JLaDAAiAwCIIsMjgBwRSArguUiJYB4F2E2gmtTzGowENjtLB5qX25KBfEc3lKK+O3KZ1Yh0EQAAEFksA8rJYnl2pDddFV84kxgEClkBzqc0Sy0ttXDSN1KbrcWmsgQAIzEng/ph2d3Zox/8Oabiv18Py8FjamNLQlw/7Qx28bZfG96W8/Zzu71CogyhdD6VPaXypeDzRlIaXxnQaCi51CfKyVLytrbzyunj/Bh0c3KAPSkd3h65W7i878AO6cXCFrt5x++9cpSvXZEUdw9uvXCXe88HNA1+el69cuZL/Le3PHbrq6lItRIt3rqk+mT11xyTjv3OVDm4GWrrPUUNuPNkxpwWxDgIzEqiX2qOBi7qGNIPJnkRa55XaUNeM/UVxEACBGgKnh7teOHOyqfc3kcvpfiqlLMJDmkb9YHlNt3EBLbV6GVIb4cPKWghUSq2RtDtGQCOJ9AKaSN1MI2CxPaAb7xORktpIWJWgfvD+Dbp6JZVOe6wWybQLLKpXTD1BUM22K65tdUBRaomoUuyT8c8gtURq/KoPWASB8xKol1rTAkdXg4jGUqseGuMcWS/BanvZg2XIqT3v+cPxIFAgoKXVSy1Hcfethur9RmpnjdQeD2n38JS4njiiqyO9IsJaZPUyS+2QhpfcMa5vhcEsaEOlvCyoDVTTPgJV18Wda0H8oqijF71E6mYevo3YBmG+SjdURLZYXRBTvy8RSbs91OujwSTH8ieL7lW6emCjvVdfu0EHOvJ77aoto7fJshJt4jr1etIXz4x5yfG1n4G5HyMWQGAGAguQ2iC7+XZL0g1YfiG1eWTYCgLnIKCltZHUpmkASoCL3WAxjVMPbJlM5PV4GEnv7uHUHKtFmOWYKtsr9mCeLVXyMk99OKYbBEqvCyNi9qt/G1WUr/sP6MYdSUtIpK4pkqjuYqQ2iKir0Et0poFEJNMSUeTXyKqMqVAyTolIdyfrXO/BzRtGam9I2oLpC0eUrZh6qU2Otasi2dmd2AgCcxOYTWrvjWhwcEJxpHZ+qcW0XnOfNxwIAhkCSX7spTGNJfdViaOW3maRWo6mutQCJ6o6n9Z2JCO1ZkeIzrJgh/xcVZ7r1JFa7msmjzcz4MabSuWlcQ0o2EUCZdeFlUEngD49gCOgV+mOl8xEao2sNow0cp0S5fT129zZELl1kdQ7brtPe1BnIie1ph8i4VWfSnD9Ma7/fl2OV2V96oAbP5flsbi+WOH9IMoDNmkMiNKqE4fFZRGYQWo5ncAK7CKklmdIgNQu67Si3m0moKXVR2pdygBz0fuzObVKgGOONpd2rHJ2w34lqWFjs5xa1TdzKKQ2IoiV5RHISy3LGn89zyLHEUV+SIsfgEokTtale0YEG0qtHMOfLLVG+HT6QTGSqdMh/OE5qZWdVfuMmAZR/eDmVTrgh9duOkHlsXiJdjIv9YrE+vHz/gO6wXXwg2Ju/x2dSuGPkUoajk+K4xMEGhJoJrU8T62aj3ZuqY3ybesivA1HgGIgAAIRAS2tIrW8jb/25wir3u+/+k9SBXSKgI/S3h/TWB9v5FPn0apln9IQIrXxQ2MswSGnthj5jYZ07pW8vJy7WlTQcgLZ6+L9G3TjjhM5I4b2YTEWvqtK2j7wUjcPhA/og/e5DRcJdQIZvrIvSl+2lSpx9bIs0db0U6TWynpII+DxV0itdCQV1aQvYSy5B86K48tKu7SFTxBoSKCZ1EplkZTmHwQrzmVbklMrdeITBEBgoQS0tFqpZbG003sV5FG++k+jpb5HxZkOdP2+WOkUXVVSG6b04jpNfm2ocKFLWXlZaAuorI0Eyq+LJDrpv3LXguYit3MNXB2r0g+C2BWlL5JEaTMRSdlsPqv26UitkXiiaPYD1SebU2wFWFILsvUn7UX9TQWY/yBIphgLY49GgRUQmInAbFI7U9UoDAIgsA4CLIg20mpnIJBorXxyn2SaLi+oS5VaF8HdH6s5a+N0Bd03Ez1GTu06Lp2ta7Ox1EaSJ5iUmPImFrfMVFlSOvrUAujr1iKdSl/SllSm65Ft8sn1VuaxSqTWHqClNhJSJcBhu40yRw+1JX0JZfUfAr5zkFpBgc+FEoDULhQnKgOBNRLw6QAyXyxHSXd8BFSLo5VajsK6qbeapB+4oXkRjoYaS6rZJXWqh8BEpqNDo7lsyc6GIP2KC869Vi4vc1eJAztAoPy6UIJpZDUWQDv0RDRnkFotkH6eWj7e57HGUhsJouaeiKTexfWWz2GrxucO8n3ifshDbGZfKOujqSzMUZninLlRnwt1yvisHEtOceYVFNGQsAICdQQgtXWEsB8E2kgg97CVSCbPS8s5r1xGhHPmSK0V5jj3VuXU7gSZjvDpPuj5caUfUeHFrZTLy+LaQE3tI1B+XTiRM6KaCK3ZFufCzjZyETr+tPUc3OS8Xf2QmZThmpU810Zf1QsaasvG47JSGwRWj4n3BfHkMrqvrmQi0ZHU6srMsh5fYSc2gMDcBCC1c6PDgSAAAm0hUC4vbRkB+rkMArgulkEVdYLA+ghAatfHHi2DAAisiADkZUWgW9YMrouWnTB0FwRqCEBqawBhNwiAQPsJQF7afw6XMQJcF8ugijpBYH0EILXrY4+WQQAEVkQA8rIi0C1rBtdFy04YugsCNQQgtTWAsBsEQKD9BCAv7T+HyxgBrotlUEWdILA+ApDa9bFHyyAAAisiAHlZEeiWNYPromUnDN0FgRoCkNoaQNgNAiDQfgKQl/afw2WMANfFMqiiThBYHwFI7frYo2UQAIEVEmCBwS8Y6GtghZcfmgIBEFgBAUjtCiCjCRAAARAAARAAARAAgeUSgNQuly9qBwEQAAEQAAEQAAEQWAGB+aT2aEC9iyM6maGDk70e9Q/Kjjih0cU+je4lFR4NisfcG1Fftc319nr538FRUh9WQQAEQAAEQAAEQAAEOkmggdSycOalsSCTIpssvSWiGW8XkVVSW3nsgCZEdHLQp94eLxGx1ObklcvktnfyLGJQIAACIAACIAACILDlBBpKrZXJalYTGiipLY/K5mqxUtu/mLSTi9S6wyd7VoghtTme2AYCIAACIAACIAAC20WggdQykAbRWhFaLm5kdKIivLGsmkhrT9IRJjTo9al/sUeDPU5r6FO/LMqr23DnCVK7XRcsRgsCIAACIAACIAACOQINpVYd2iSf1kdYVVqBFmOXOmBr5QjvgAZNc2pVV3gRObUJEKyCAAiAAAiAAAiAwBYSmEFqOaLaM7msHGmN0gtS0XVSG4RTRWq5rJZafvBrb+QfFJMobpx7G3J6JU9WcmZtpDbIs0RuZf8WnlMMGQRAAARAAARAAAS2jkADqXUy27NiaqTTRVYHe337QJiWVEboI7W8wsLJx2ZSGPxxQUopmd1Azgi3G0Ra6vR7XRvlD45JSXyCAAiAAAiAAAiAAAh0j0ADqXWDZtl0kVrJsWXJjGXTlVWR2sEBR2LtTAVmbxqpNRsTqS3JqfVSG0kzkRZhidS6nuADBEAABEAABEAABEBgCwg0kFoXqZWHtJzcGlk121wEVomr/+pfyh65abhSWZU6TRTXTe9VG6lNo7RxdFZLrcyQsAXnEUMEARCoIaBfj4plvC6XrwH8gAAIdItAA6mVAWfk1kupSCuLqYq6ckR1b0B9l7ogNRU/1TESEU4FWGZLuDeigX+JQ1GoIbVFutgCAttOAAKz7VdAfvy4LvJcsBUE2kqggdTqnFonkU445aGtaPAspXuT6AUJRFJHeODLPgiWeflCbaRWWrN98SkJbrPJ+RUhVtItR+ETBEBg+whAXrbvnDcZMa6LJpRQBgTaQ6CB1K5iMEmk1suolmgR4FX0B22AQEcIHA9pZ39aPpj7Y9rd2aGdyt8h5Wo4PdylnUtjOo1qP6XxJa4vc0xdX6J6FrsCeVksz67UhuuiK2cS4wABS2BDpBanAwRAYDkErGQOj0tqZ6ktiKkuy8crQWUxFQEWWdbbdnZpfF+On9JQyjb4LO2jVHeOT8jLOeB1+FBcFx0+uRjaVhKA1G7lacegu0tAIqXV0VcvkHNI7e5hHJulJhHY2naWe0YgL8vl29bacV209cyh3yCQJwCpzXPBVhBoKYEkspoZBacNnEdqfaSWo68crW0gtdP9ndAmEXEfCnKc6euiNkFeFkWyW/XguujW+cRoQABSi2sABDpFYPlS62WUo68itZn0Ai/OLL1JigOktlMXXWsHA6lt7alDx0EgSwBSm8WCjSDQVgIrTD/QUqvya730GoQ2r5a3mQfLMvJrIr9y/JKwQ16WBLbl1eK6aPkJRPdBICEAqU2AYBUE2k2AJVI92JUZzFLTD46HUVoBpx2wtMaii/SDzGnBpjUQgNSuATqaBIElEoDULhEuqgaB1ROY0jD5qr+yD7UPcCXpDFpaXaQ2SiWo2+86Ex1T2cHF7IS8LIZj12rBddG1M4rxbDsBSO22XwEYf7cIaKlsMrIZpTZ94IuIpVdN45VpPyewuW1NujtvGcjLvOS6fRyui26fX4xu+whAarfvnGPEnSWQCGaTcbLUluW5+u2SzpBJbUhnPoDUNqGOMhtCAFK7IScC3QCBBRGA1C4IJKoBgbUTcOkAM/Vjlkjt/TENozlqk9QEbrhMaveHtfLsZ0uYaQDNCkNemnHatlK4LrbtjGO8XScAqe36Gcb4QAAECPKCiyBHANdFjgq2gUB7CXRAak9odHFAk/aeA/QcBEBgyQQgL0sG3NLqcV209MSh2yBQQqCB1LI09qjXc797Vh8ne30a3ZNaJzS4OKITWeXPowH1D6Item9mmdvRddp2B0eZopT0SfqmP9P+5KrBNhAAga0gAHnZitM88yBxXcyMDAeAwEYTaCi1TjZFVO+NqB9JYzOpnewpOWYB1XVwnXsDGmgxzSxbyU0FOGFc6F+yH6sgAAJbRQDyslWnu/FgcV00RoWCINAKAjNILYuk/Zqf5bR/MMoK6OBoktlupZiPC5HXWITjfXXsEKmtI4T9IAACgQDkJbDAUiCA6yKwwBIIdIFAc6k9cOm6ybifAAAgAElEQVQERwOTihCnFsSCymBODvo+/UBSFWJxVceYOl1erKvfpzuoaG1oE5HaLlx8GAMIrIoA5GVVpNvVDq6Ldp0v9BYE6gg0l9p7VkJHnEvrBDdIqhJU12JzqZXI7iwPeyFSW3disX9bCZTNVTvjm8Y6hg/y0rETuqDh4LpYEEhUAwIbQmAGqbXRV5M+UMitrZLaOG2hkH5wb0SDg4lPbeAHzHJRWt6GSO2GXDXoxgYT0FKrl7dbavmEscDgFwz0NbDB/5DRNRAAgTkIzCy1RixFas0sBJwvW5TaEMWtkVrT6VCm2RgQqW3GCaW2j4AWWb3MUjuk4aUd2uE3he1Ptw8NRgwCIAACINBpAg2lVmYtSGZB8GhSqWXpdGWN+IYHzAqRWlOHklqeuUDl0eqobYjU+oaxAAIgIAT4lbX+1bY7tHs4pbFIrNu+y28Em+fNY9IGPkEABEAABEBgQwk0lFoRVDcKH6mVUSVSG02pFYQ1RG/5OH1MKENmaq/iqxR0jq4s86ekQxj5dXPomtqjmRakn/gEga4TCNHZ6T5HZXdpfJ/HrNIPWH51pJYl15frOh+MDwRAAARAoKsEliC1LKjJ1F29EKnVkdcwT+0MUquE2UttdHb4wbPQXogMR4WwAgIdJRCklkgvx1JrIrZCAFIrJPAJAiAAAiDQYgLnk1r1UJdPDeBtJmJq5VZHUBtHapumH6j2tSz7vrT4xKDrIDAfAS2yejnOqR0ez1c7jgIBEAABEACBTSXQQGpX0fUZIrWr6A7aAIHWEtAiq5dVpJaITg93KYrWtna86DgIgAAIgAAIWAIbIrU4HSAAAoshwCIrMxyMaXwpk1PLGbb7O+SjtUg/WAx61AICIAACILBWApDateJH4yCwQAIy+4F6CGy6L1Kr29ERXLKzIeBBMQ0IyyAAAiAAAi0kAKlt4UlDl0GgMQERXTXVF+apbUwPBUEABEAABFpEAFLbopOFroIACIAACIAACIAACOQJQGrzXLAVBEAABEAABEAABECgRQQgtS06WegqCIAACIAACIAACIBAngCkNs8FW0EABEAABEAABEAABFpEAFLbopOFroIACIAACIAACIAACOQJQGrzXLAVBEAABEAABEAABECgRQQgtS06WegqCIAACIAACIAACIBAngCkNs8FW0EABEAABEAABEAABFpEAFLbopOFroIACIAACIAACIAACOQJzCe1RwPq9QY0yddJJwd96vV6Nb99Gt1TFXCde2U1qnL3RtRXdfcPTvxO0+7FEYUtfhcWQAAEQAAEQAAEQAAEOkyggdSe0OhinaC6/Y2FkuvUUqvXy9orSjRL7ODInR0juwOasBw37keHzyyGBgIgAAIgAAIgAAJbRKCh1BaFsshoQgMtkxJR1dv8QVpiiehoQDri6ou5hcleL9ovMiuffHwUOU7X0wqxDgIgAAIgAAIgAAIg0CkCM0kty2V5ikAitYJJ5DZKV9BSq44rRFlt1DYV3smejfKaz4OyyOyEBr1eiORKf/AJAiAAAiAAAiAAAiDQOQINpDYZs4+CsjQ2ieAmx5tVJbWmPklvCPUZge71acTSyjm0KuIbSa3Jy7XyG+fxhrpyPcA2EACB7SLw9NNPE37BoMk1sF3/MjBaEOgOgYZS66QxepBLRVgb85DoKdenpTNIrpXZTITVRHw5QpsKrK6ncUdQEARAYIsIsMjgBwSaEsD10pQUyoHAZhFoKLWu0z5KS0QsmSp6WjUsMyuBmbFABFRLrZVU/8BXVUWFfU6sJSdXPonMDAzz1VloBBtAAARaTgCS0vITuOLu43pZMXA0BwILItBAam10Nf5qX9IF0k81o4FKK0hzYolU6oIqx20MjtJIbGjDS6rk6e4N3MNpTm69aKv6FwQK1YBAqwkcD2lnf1oYwnR/p7j9/ph2d4ZUKG2279DOTpPfXRrfD81xO8PjeH338DRsWPISJGXJgDtWPa6Xjp1QDGdrCDSQ2gwLL5X5eWVNCkFlFLehdHI7UcqDnSnB59d6iWURltQEm4dbFOnMOLAJBDpFYErDnHDuT2m6H0tmNGwW3ktjEsXUZVMZjY4jorr9p4e7RoJFaI1EZ/oo+9P6F7UOSVkUye2oB9fLdpxnjLJ7BGaTWpFZeUDMR1lVhLYJIz4ukV7JpY1mV8hJra7fS63eqFMb9HYsg8AWEdCRWV7OiGQ2Uno8pHj7lIZKeEVSc/XpbaaO+2Mammgsy/aQhvu7tHspjtjyGeE61yG1JweD+AUw7vLgdKncH8XmHqX+yJYHVqumJNRlyr7tyrW1RVfqRg4VUruRpwWdAoFaAvVS60U2noEgrtmlDCSiGsqkKQVKgp0YS2qBl1v11rDwn4HLyfUyzekKVekRqp3QGSyBQPcJiNRKyoBKPfASWUgziAVWIPnyiYDqiC5xXU5+ubyIsT32lMaXOM1hbD5TgdX1S5uL/sxLinxjVHUP4fQneRbA5uqbP7z1fTG9V+XElwekcv7t+OQbpkWPFvWdl0D+ejlvrTgeBEBg2QTqpXbZPUD9IAACCyPghVKklk7p9H4sq5GMEkdROTXBiWcmomsisEpYRUoLqQSqjEitlCk9xrUn+w0II9sV6RJz0CqVlKNBYS7rskhtaDaR0YKsugdptey6P/jNQ7NGeu0f+vLHfKgbS4sm8Oyzz9LZ2VmhWt723HPPFbbzhtLrJVsaG0EABDaFAKR2U84E+gECCyAQSa0TRhbMILI2FaDwEFhN2xJNlU8uHuokykZq749pzA+HqShuLgdX12m6sUqpdeOu/IaIhdR/OxSith5ZTmp9vem3RSEqjLQDT3BpCyy0/E3fI488EoktCy1v431cJv2B1KZEsA4C7SAAqW3HeUIvQaARgUhqVcoBSa6sj+BKdRyhdVHRktxbjtRK5FULaBOp3WWxvjSmqcublcitzr/l5ShSK11b4GdOUmxaU1FSyyO1HF0d0KQq9cBEZ4PIFnNqQ3smapuUX+CQURWREdmHH344ElsttLwvF8XNXS8ACgIgsPkEILWbf47QQxBoTKBUaknSC9Kv9VVqQkF4bbO+zkJObTK1Vyb9wNTgZFnEOERuVduNRzhfwbykOEn1UdgwfWDI47fbbJqAK++7EF5Aw4KaSyWQCHAclQ3H+aqwsDQCLK1abCVCWya03JH89bK0LqJiEACBBRGA1C4IJKoBgU0gYAV0ah/MkvxYE7GV6b6S+Wclgsudn1lqlSCrFIMgwfKA2NSmIEjk2LcZpJaP8dHalaUfKEnl6Kt6wEvOZSyrqjwX4GNUrmwQ3z6NDt3rvflV3+ZV3iHtIBXmdCYYaRufiyOgxZb5VwkttwqpXRx71AQCqyQAqV0lbbQFAssk4NMHlGxye267kUYjjOHr/ijH1R+fRGCT9IM0dSC3bqKy96c0lRcwiDBHwhqktpDKYB5eWxysvKQoSa1IKQgRWFWeeDm8zjvIry5D5NMPoqEgUhvhWNGKiG2d0HJ38tfLijqKZkAABOYmAKmdGx0OBIHNJ8ARUP1iBdtjG0HdPfyKmT/WPzQm4pkMK0Rem80pq8uLUO+wpB7yfLk6UiwpESzRenvSgQWs5iVFCWijSG08BViQXfdSGJntQEV8rdRaAS5EaKW8eZPiAgaJKmoJsNjyb91P/nqpOwr7QQAE1k0AUrvuM4D2QQAElk4gLylWakecD3swor6STC2gIa2gR/2L/cKLY6o6j0htFZ3N3Ze/Xja3v+gZCICAJQCpxZUAAiDQeQJ5SbF5ruYhrrpIrd5f+2BZn0aviSSH2Q4CZKQfBBabuZS/Xjazr+gVCIBAIACpDSywBAIg0FECtZKipdXly9pobU5KOwoJw/IEaq8XXxILIAACm0QAUrtJZwN9AQEQWAoBSMpSsHa2UlwvnT21GFjHCUBqO36CMTwQAAE8zY5rYDYCkNrZeKE0CGwKAUjtppwJ9AMEQGCpBFhU8AsGTa6BpV6IqBwEQGBpBGaU2vQBBzUlTraLMgUO79TLaWGuRyYpV/ty71Tn3Dc34bmpda/uLUCqPiyCAAiAAAiAAAiAAAh0kkC91LJElkx1o6e9sctWTHkicvtaSCWyuSeGvZwqqc2V8+3bhza4/p6bC5JfQxnNF+lOU5gMvZPnDYMCARAAARAAARAAARBQBOqlVhU20VYvoryjPFJrpVKkVj5DZUF8pZ4+9S8mTxrnIrWuCpn/EVIbmGIJBEAABEAABEAABLaVQCOpDeKoIqqKmI6chs1cllMDBjTY69PoyEZ8TVSVo7Fejll4WWh7NNjj7f3yyLA/JrQS+ha28RIitTEPrIEACIAACIAACIBAlwk0klobkWVBTfJeVX5rFHk1KQRcNo3QOtFVr5G00d8BDZrm1CZng6W2mAZht+XSEpLDsQoCIAACIAACIAACINABAs2kVvJq00ipktrAQqckOKn1ebKJFPNBXMfeyD8oZqK+Poe2KKwiqhKJtZHaEEGWyK3sD/3CEgiAAAiAAAiAAAiAQFcJ1EutTxWwUdbBEYtqUTar376jRTeHMkipkdxUnl06gX34jI9P6wvrIrW5VrANBEAABEAABEAABECgmwTqpdaMm6XR5rwGsSQiE4FNHu6KXjFZJr+yXSK3idSWSLNvO32ATEWMIbXdvFAxKhAAARAAARAAARCoIlAvtSb1wMmnSRWYuPpcdDQVzExrLJr9vUE0v2xcLJHaykita1dVoEU2XhZpVoWxCAIgAAIgAAIgAAIg0DkC9VKrh8yR2cz8sNFDYrq8EeKem7PW5c9yFDZ6UIwPSKS2KlJ7b0SDgxPXCh8X1wep1ScAyyAAAiAAAiAAAiCwHQQaSW14eKtvpufi/Fl5YEsw2TIcGXWiyWKaibia8oUHxxKpzRxXFGfbjk9JcB0Jfa1oXzqNTxAAga0h0OT1qF0oszUnFAMFARAAgYRAI6lNjlnCapnUKkFOpxNbQi9QJQiAQDcJsKxuy882jXVbzinGCQIg0IzAhkhts86iFAiAAAjMQ2CbRG+bxjrPtYBjQAAEuksAUtvdc4uRbSWBKQ0vjenUjP2Uxpd2aGcn87s/JaKK/ekxvs52Qt0m0dumsbbzakSvQQAElkUAUrsssqgXBNZB4HhIO0ZYuXGW1iGxvhJNabgjyxUduz+m3Z1dGt+vKNPCXdskets01hZeiugyCIDAEglAapcIF1WDwEoJsNCqCOvwuCoSWxTX6T5HdHdpl0XY1NVAglc6wPkby4neycGARveKdRYfSrVleGYVPXPLZM9NGVgxraEuU/Y67/Rh12KPZtuSG+tsNaA0CIAACLSTAKS2necNvQaBLIHpvpXV08NdslIbxJS37R7axAR9MG9nGR4e89Y0usuiG+rQx7VpOS967jXeVPWWRH5RTHjBjJldhackdNMVZkVVTVnopZZhFeRXPSC7QJj5sS6wAVQFAiAAAhtKAFK7oScG3QKB2QkEIbVy69ZdBHd3f0i7TlA5Kjv8Mqca7CSiG+rw7acpCem6L7i5C6WidzTITk9YHT1NZLQgq2pObplz201T6KXYvXkxnRoxJfjss8/S2dlZutlse+655wrbeUPpWLOlsREEQAAEukMAUtudc4mRbD2B8JCYlVrOo91RObZE5FMUzhF97ZLUumvGpBaIgKafLKR+bu0QtfWXW05qfb3pWw1DVLhanIlYaDkS/Mgjj0Riy5LL23gfl0l/ILUpEayDAAhsCwFI7bacaYyz+wRYNs1DYkFuJbVA59ryckhD4MhsZnYElZsbHjxrL8Kc6NnUgaKkluXU2jcfDmhSlXpghDiIrE8/yEixidom5TVhlteHH344ElsttLwvF8XNjVXXi2UQAAEQ6CoBSG1XzyzGtZUERGJFWnnd5soGHLxN9tsc2uJDY760F2W/pZULedHjNIIBTbxwcv5s/temCbjynsCEBiqtIJdKIBHgOCobjvNVlSykYisR2jKh5WryYy1pAJtBAARAoEMEILUdOpkYCgiEuWdteoFIbnWkdkap7Uz6gZJUjr6qB7zkSuJoapBVVZ4L8DEFqeUyfRodDpwgS9Q2pB0UxNnVIW2mn1ps+dgqoeVjIbUpQayDAAhsCwFI7bacaYxzCwjYVAITheXc2UtjmjaK1M6YftBVqa2M0vLlo6WWl3teeIP86jJEPv0guvqaR2rlMBHbOqHl8pBaoYZPEACBbSMAqd22M47xdpZAnFZgh7mUSG0LCeZFTwloo0htPAVYiODa6bp8BFZFfK3UWgH2+zPyHNVVwpfFln/rfvJjrTsK+0EABECg/QRml1rOP1M37TIEIXKhSpgHLJIHM8y2NI9tQKODfjG/LWnXPGiRbFOtYREEQAAEDIG86Fmp5XvN4GBE/Yxssoha4bRi2r/Yp15NuoBGvqhIra6zbjk/1rqjsB8EQAAE2k+ggdRW5IJl/hOQiENWavkLPJbVRERDWf6Pw+aghW0OcirTWRlWcpy00f5ThRGAAAjMSyAvevbeZh7iqovU6v21D5b1afSaSHLyR7wZwOzpB7OMOz/WWWpAWRAAARBoJ4EGUqsGxjf2hlGKIKVVUpwKbEOpNULbp8Fen+KnimXSc3k4Q/UdiyAAAltLoFb0tLS6FyPYdIGclG42xtqxbnb30TsQAAEQmJvATFLL09NIJJZbZHHNS6WKmDaQYK4n5JulouvG5iO1ktdmt5tjXRtm+pwG7c1NCweCAAi0ksA2id42jbWVFyM6DQIgsDQCzaWWpTIRxqzUmq5K/tmARvd4g1s/ODF7jXyq9ACuJ+St1UltzELmgfRSnPQxLo01EACBbSSwTaK3TWPdxmsZYwYBECgn0FBqQ+5ZHFVVEVnOrxVRPRqZ1IDBkZXZXi+TDmDy0lKBjdMPvKhK7i7Xn+Sz6cixGaZJTZB+ZdotZ4E9IAACHSbAsrcNvx0+hRgaCIAACFQSaCS1Eg1NUw3ykVr7EMTER1+5/SCrpjc+lcD2LRblVHRd/5Nj3FZXd/vy3kL/sQQCIAACIAACIAACIHBeAvVS6x6gyAlsbhu/ZWd0ZPNtoygqS6lJDYhzYnkAXE+aflA5sCRaW4jo6qhxZUXYCQIgAAIgAAIgAAIg0AUC9VLrRpkT2Nw2gRJEVbbw23VsWkAku0pq+RgrqDby6usojdK6Sc8l7UGaOhoUH2CTffgEARAAARAAARAAARDoHIGVSW0QVhZbleuqcmD7BxM/T63JnVWyysen6Q9GkjMPhuXKdu7MYUAgAAIgAAIgAAIgAAKewGxSuzcofeuOpABIFFairBKdjYW07AEyl3t7kH9rGdcVHj6LpxeTdnSk148SCyAAAiAAAiAAAiAAAp0m0FhqO00BgwMBEAABEAABEAABEGg1AUhtq08fOg8CIAACIAACIAACIMAEILW4DkAABEAABEAABEAABFpPAFLb+lOIAYAACIAACIAACIAACEBqcQ38/+2dy2oryxVA9UcJ6E8E/oyjYSCjBNOjTISHzlwaBhlzJsnUR4Y7MYKAIbPggPE9hkwDCeywq7u6q6qrX7LUUrWWwfSruh6r6uqus727BQEIQAACEIAABCCQPAGkNvkpZAAQgAAEIAABCEAAAkgtawACEIAABCAAAQhAIHkCSG3yU8gAIACBoQT+9a9/yY8fP+Rvf/ub2eoxP18nANevM6QGCEDgcAJI7eHsuBMCF07gU7bfVrJv6+XHVpbzucxbf5ey/bCV7GXVWlbrcsvb+0TEtNXRH6f4KXZVuv785z/Ln/70J/nLX/4if/3rX81Wj/X8aeS2xzycYrAj1jka18HrdUQINAUBCJydAFJ79imgAxA4EQEVgG9b+RxS/ctK5netGtxcm947n8vqJV7k82F5eN3xKged/cc//iG///3v5fn5OXqfntfrWu6oP4fMw1E7cNrKzsZVh/WV9XpaLNQOAQicgQBSewboNAmB0xDoE0W1UdmGaOrLSpYPgzRYRIp2W2VYo5UNbZ4Ghlfrf/7zH8myTP7+979758MDva7ltPzhP0eYh8MbH/XOcblGhnbQeo3UwykIQGASBJDaSUwjg4BAQODQ6OBgSWj503oRuW1PbbCSPT9ApoMxtxxq7qymG/T50XJa/ig/h87DURo/fSVn42qHNni92hvZQgACUySA1E5xVhnTlRNQ0axksSaVZUrCkIhiUy5si9Q6s6CpB/UI8F5WZV+cwiqCTXm5TrEhu6vVSv75z3/2ukXLafmv//Sdh6+3dK4axuV6jPV6LlK0CwEIjEFguNQ+ZzK73XX27X2zkCxMXXtby2KWSefd2kZLOa17NpsVvwtZv+Xd2d3q/k6yWXWus6MUgMDECOzvVGgbJLQ1ctghqAMjr1VurcpIpD9N+ZAnkFrNlf3f//7Xa6b/+9//mtzaXoVbCh0+Dy2VXtilc3CtEHSs16ogexCAwJUQ6CG1KolWILu3VmSjUisiRkg9KX6X9U13vUZib9byXtRh28lFNp+tal/73EOer2SSGeb1EMgjotv2NxTEoqOKyEpmq/iGLLvFIh6l1fvGy7FV+VJZ7fOj8qvlv/LzpXn4SsMj3zs2V294B61XrwYOIACBiRHoIbXOiDXSWoilcza6W0ltmxRrRFWlto+A7iTrI7XPGg22ktyn3mj3OQmB9AiojJqHtRoiozqiRmF1JLOxTAxJD6n9+JQ8alnlzepxPR0hVv9xzo36Z/IvzcNxxjtWLaNy9QZ16Hr1KuEAAhCYGIFBUru7nXkpBSqui43GTp0fk2JgpXIms04JrqRW629ObfCl1ks/2Gi6QtFmZ3tOX9mFwCQJdOQe1iK1KgiOZEakdn/XFFXtlloXsUYwTY5vrQ9OKW3/yDm153mgaeg8OAwS2T0P16+s10TA0k0IQOAgAv2lVvNcA2GMSq3pRp5SsLjJinzX4rgQ4FZ5LfNpm1MI8ihwJcN25FV02J5hC4FrJDAkUpuLlxc1rUltm7i2XXPYl/m4RW6tEVfN/Y3I8gmk9jyvnhoyDw6rhHbH5/rV9ZoQXLoKAQgMJtBTavMUAo3KqjiWUVEbHbVbmyv7vJbsVh8Uy2V2Fntwy8irfaCrKGfvN8OoIrPxUTVJrZvuYOuP18BZCEyTQF2m7J//NUpaCmyjPOaRMO+tCWFktZTUuczDaxaqW6bxHbZFW0112LqOsB3/SwJ6zsMRxnbOKkbj+pX1ek5AtA0BCIxGoJfUmsjqbFZLNYhHanMZ3XlvP1ABdQRThdYT2GK8ZZRWRFryd/MHwqwwzyTbkEc72oqhIQgkTGC0r3NNmNEhXYfrIdS4BwIQODaBbqlVubzdmQhtmD8bldq3tayf87cc2DcUmE6rsJr0hTCtwI2sOrm4NvrrbXMxrqQ2eBCs6GvZXkycj02Q+iAAgeQIqIT9+PHDfMmCbvWYn68TgOvXGVIDBCBwOIFuqS3qjgls7Jztil7zpFZEbMQ3PG/vKbf2YbMGKW2UWnEEuRDxzrbKRtmBAAQgAAEIQAACEEiVwGhSq5Jb5eI6qQguOSuz9h2zJh1Bo7d+eSO1zhsPcnF10hGKL33I5ddtgH0IQAACEIAABCAAgSkSGCa1t5nzDth4qoCNjNpIrY3O+qkLVkAXsv7FyYcN3q5QAS/K63UrvmUU16nLfLOYPe7zOrGqBfYgAAEIQAACEIAABNIl0Ftq0x0iPYcABCAAAQhAAAIQmDoBpHbqM8z4IAABCEAAAhCAwBUQQGqvYJIZIgQgAAEIQAACEJg6AaR26jPM+CAAAQhAAAIQgMAVEEBqr2CSGSIEIAABCEAAAhCYOgGkduozzPggAAEIQAACEIDAFRBAaq9gkhkiBCAAAQhAAAIQmDoBpHbqM8z4IAABCEAAAhCAwBUQQGqvYJIZIgQgAAEIQAACEJg6AaR26jPM+CAAAUPgd7/7nfD7dQYsJwhAAAKXSgCpvdSZoV8QgMDRCKjM8nMcArA8DkdqgQAEjk8AqT0+U2qEAAQujAAidrwJgeXxWFITBCBwXAJI7XF5UhsEzkvgYyvL+VzmHb+rl6qb+7ulbD+q48+HpSwfPqsTE9hDxI43ibA8HktqggAEjkugl9S+bzJZv9Ubft8sZHazlvf6Jf/Mc9avnH9XcLSTbJbJLjgbO9zdLrz+aj+z51hJzkFgYgRUar9tpU1J93dzcaVW5FO231ayNyj2smoQYv+etLghYsebL1gejyU1QQACxyXQS2pFIkL5tpbFzVrWtzNZbDq1VowA33YraWM5FePG+99lfTOT2azfb5/+HhcztUFgJAJDpLYhqrt66BbjkUZztGZiItb2j/XYZ8TuduZ9BpX/eH7OGj8D3TJNn0+xto428BNUFGN5gmaoEgIQgMBgAj2lVkTcD24V2pmNhqrw2v28XNOHd+y8H0F16jJt9JDUSKS4/B9JgYNI7eB1wQ2pEmgQ1TAdoYq67mUVRHY1khuWnwdlUsMTFzH7j3Xdtn3WVH8hKv/R3fb55Pzj2/sscj9DDUD9x7jz2ZkI1DjLRDpPNyEAgUkT6C+1FoNGTF2JNecdGbXlNLobEU4R/SCv/idRFtedpjSFpvPezeGB/R9WdR65rViwN1ECsUitnrvLkwvqo3bTDZayfVjJvCgb5tqW9xpx9vNwy2sXutMoYs9ZLTVJPyfao6eBjNZkVURC6S0+C0spNp+Ds1rbY+P7wx/+IP/+979rzeq5P/7xj7XzeqKRZbQ0JyEAAQiMR6Bbao3EahQjk53ZbxBSk6LgRx28KIUdk37YO5EMe1q3+ue9PHI7LJ3ApiWY/2FEIy4LWWh6ws1adm/dqRJun9iHQFIEYlIr9WhsOaZSeDWv1hfVq5DaAoRJLYh+duSfG+/u52AJr9iJSW1Zr/+ZmKdy5VHhdnEOGzn+sQqt/vXst7/9rSe2KrR6Tq9pmfAHqQ2JcAwBCFwKgW6pNT0Noqvhh3h4bEen/yMIBLYSV/2iFVkAAB/bSURBVFuo2JrIRkSYI3UEdzYcVpFa8z+saNS44VZOQyBVAiaKGkkfqD38VQisJ7Ur2T4s66kH5l5feFPDExOxPB2q/pnTHKktPgfDKGxNhiuRLf9hH5Hi6h/hVfkxuaq8/uY3v/HE1hVavabH4U+MZViGYwhAAALnIPBFqbW5aPp2gXgE1JXY6k9v9aE2XWuNoMwOi+yeO0JSHz1nIHAkAtFIrYi+pqvKo3XaelkVr+/SNAT7BgS9rtHdpawm8mqvuIgVkloKZ3NebfUXJFeCqxQr/fzynw/IGdvPL/8zp7rPmYmz7IZiayO0TUKrnYyzPEv3aRQCEICAR+BgqbUPfZUf5I0RVSeVIIjaVj2J5eRWV2N75n8WDfXtNrHXjFWR21h9nIPAJAg0SK2YCG4lrTa1oJJdX2rta78+H1beO2wNI1NXWpHbuIg5f4FqSIvyZdUpryD0HidXthLfhawf9NkDlWQbhbUBgIg4n/mvSK7Yap/bhFaHHWc5if96GAQEIJA4gYFSu5NMRTKWbhA7Z+A4Utv04a1C3HDNRHDLiKxWmNfnRz6cNmp/CnT/J+JGWRKfOboPgRgBK7UvqzyNwHlAzLzVwLzFwAps+H7aXHq1XPXlC/Vc21yQJyi1DZ8d5T/cvYdc888ce62SXz1ffc6U6QfeXF1OpNZ2y4ptl9BqeaTWUmMLAQhcGoEBUqtyWHxYRwS2+lAvhljmndlIhftEcPWhr6U16upLah2T/TOeRhLs/0jqpdyHzcKrRGpDIhxPkEBEZt1R2td1GWn92Jr0Ao3Wmld43e3FF1p7p4pt+IUN9loa27iIOQLaK1JrP0PyqKv3OeSmMDh/Qcqltvsf3V5dZ0KqYqu/XT9xll13cR0CEIDA6Qn0lNogslAKqxMFtZFW++Fuj6NjqP4Ulz3oO299yY3eUp4s7nX+x1FeKgTZpkbUt0PacWtlHwIQSJlAXMRyqV1rPuxGP4eczzNnPxfOXEwXNz2/RbGAlUqkdsjcxlkOqYGyEIAABE5DoKfUnqZxrdWkFzQI6ulapWYIQOCaCMRFLP8HsvkrUVek1r1u/+HuiK//D+iFrH+xkhz7h3QQJEhsIuIsExsE3YUABCZJ4OxSO0mqDAoCELgoAp0i5kprkbefi2pMSi9qaKN3ppPl6D2iQQhAAAI5AaSWlQABCEyeACJ2vCmG5fFYUhMEIHBcAkjtcXlSGwQgcIEEELHjTQosj8eSmiAAgeMSQGqPy5PaIACBCyWgMsbv1xlc6PTSLQhAAAKC1LIIIAABCEAAAhCAAASSJ4DUJj+FDAACEIAABCAAAQhAAKllDUAAAhCAAAQgAAEIJE8AqU1+ChkABCAAAQhAAAIQgABSyxqAAAQgAAEIQAACEEieAFKb/BQyAAhAAAIQgAAEIAABpJY1AAEIQAACEIAABCCQPAGkNvkpZAAQgAAEIAABCEAAAr2kdnc7k9ntztAy+7OZ5N+L7m8Xm3cR2Ul2sxbdk+csWk7vzZ7r8LVu93x47N7xvll4Ze21tntsGbYQgAAEIAABCEAAAtMi0EtqdcgqkVZs5W0ti9lMFpu1ZCq4hfCWaFRm3XNa3jmOi+dOslkmuTrbmt5lfROey68htZYRWwhAAAIQgAAEIACB3lJrURm5bY3U5iXfN5ms34q7+kjtcyYa6W2rfzZblHV6UutIdFyYbe/ZQgAC10qAr8j9+lfkTo3htf63wLghMFUCB0ltnmaQR2/tvqYalPshrU6p1Yisn3qQV+GkMtg6iyhxlf6QyQ6ptXTYQgACEQIqY/xAICTAugiJcAyBtAl0S22ZF5unAbRFUo3U2vI2r1b51KS2irgafMU9bj5tjjUitQXvtkitJ7xFeTYQgMD1EkBernfu20bOumijwzUIpEegW2rNmKrcVpVJG5F19/1IbS6jO83DraUqZJLdulKb59Kuow9+HSa1dTlOb2LoMQQOJvCykvm3rXy6FcTO2et6bT5v/g3rsvcltEVeEpqsEbvaui5+fZLN5kl+NvbnVR5brzfd+FOeNvfy+Fpcf32U++/2wLlHz98/il75+WNTltf9+/v7+G9jf17lsajLacHbff3u9Mlc6bonGP/ro2x+VLTcPnsNFeOJjjksyDEEBhI4SGrropq/BcHKrvcGBO1QLVLrpBq8rWX9nKcyGBmtpRc4b1hwor9tkVqkduAqoPh0CMQE9W4lq5q0LmX7kQ/782EpqxeL4FO236prIntZIbUWDtuJEWiVWiNpr0ZAPYksBTSQukFsVGw38vSriDhS6wmrI6g/f32Sx/tQOvN7XZEMu6Ciem/qqQTVnLsv2nZuqEutiLSKfTD+AVIr4ozf6QO7EPgqgYOk1sprV6TWvNZLexhIrRVS9357zh9QV6RWo7wLWW+qty3woJhPkKMrIvCxleV8JftiyPu7Yv9lWwqsfOxlX8isEdaa7DZFbF3RTY9pq7ykNxx6fCQCbevi9Xslfl7UsRS9QOoG9ymP2FbC/ChPTkS2Xl0lpuW1QCTz81W9ZTRY7L26VdF9lMdNHu19/OVJNm7k9/tjXsY9Z/cd0Rat0z0O+lIyU172/s5txbwcIzsQGEDg61J7m5nXe2n0toqQFjL6tpZM310bSK1NVXBF1t2v+t8gtWU0t0hj4EGxChl7V0xgX4vIrh5UdCOi6kRf/UhtEJlVUb6zmpwu2jZ5SXdU9PyrBBrXhRGx/E//eVTR/rl/I0+vNi0hkLq+nfHqrkdqKxEtKiwlOtJAIJJhCS/ya2TVjqlW0k+JCC8Hx1rv5seTkdonm7Zg+qIR5VxMS6kN7s0PrWRHL3ISAgcT6CG1+ZsJTMqB867Z9hY1gqppA8U7ZkOpLY7dqGpvqTVCG7y7Fqltnw6uXg2B/Z0rsEV01RFTX2BzLP497v3Ffii1JiKcVuS2UV6uZmUw0BiBpnWRy2AhgGV6gEZAH+W1lMxAao2s9ow0ap02ylnWn+fOVpHbIpL6Wpwv0x6ckcSk1vTDSnjb1hHc8p6i/+Wxvd8pW6YOFOPXsjqWoi+58P708oBNGgNRWmfi2D0VgW6pdYRUxbMpnzY/X4+cmo47ddiB5HVVcppLrSPQtQfMwrxdrcnKs5N3G9xXRY9ty2whMHECgcTGHwL7gpQitRNfQNczvLjUqqzpn+dV5DSiqA9p6QNQgcTZY4vLiGBPqbX36Fal1gifm35Qj2S66RDl7TGptRfbrhkxrUT1549H2ejDaz8KQdWxlBJdyLyt10psOX69vpEnrUMfFCuuv7qpFOU9tpKe47PF2UKgJ4Fuqe1ZEcUgAIEzEzCy6Udalw/bWkqCSm71YJiIRm/j4tsQqT3zMA9pPi4vh9TEPVMiEF0Xvz7J02shckYM84fFVPgeHWn7WUrdIUR+ys9ftY0iEloIZPUn+7r0RVtpE9dSlm20Ndxaqc1lvUoj0PG3SK3tSCiqQV+qscQeOKuPLyrtti22EOhJAKntCYpiEEiDgL69IJfRXFyDHFnJJTaUWvfYG6e+TSFMP/AKpHEQlZc0uk4vT0igeV0E0cnyT+6uoBWR24P659zrpB9UYleXPk8SbZuBSNrTZtt2zY3UGokX8d5+4PQpzynOBdimFkTrD9rz+hsKsP6DIHjFWDV2bxQcQGAQAaR2EC4KQ+CyCWjUdXm3kuXd1sjt6qX+8FgsUltJbSDBMakl/eCyFwG9602gt9R6kmerd8RUT6m4RV6VZUt7W1cAy7pdkQ6lL2jLVubWY8/ZrdbbmsdqI7X5Da7UekLqCHB1Po8yew+1BX2pyrr/ECg7h9RaFGyPSgCpPSpOKoPAGQmobOpbDXRbRlcDSY1Eat0eew+NlXW4JUQEqQ2AcJgqgV5Sa2TVF8B8vIFoDpBaVyDL99Tq/WUeqy+1niC6sAORdC9pvc3vsHUFuhiNfYuB9sM+xGYuVWXLaKoKs1em/s5cr8+1Ou34cjm2OcWRr6DwhsQBBLoIILVdhLgOgdQIhFIbeaWXjcx6Ehvk2orzRQ7LB+/7yVIjIs3yktxQ6PARCTSvi0LkjKgGQmvO+bmww7pkhU63eT2bH5q36z5kZstozY48d0ZfnS9o6CzrjysX7Upg3THptUo8tYzb16JkINGe1LqVmX13fLWLnIDAwQSQ2oPRcSMEIJAKgWZ5SWUE9PMUBFgXp6BKnRA4HwGk9nzsaRkCEBiJAPIyEujEmmFdJDZhdBcCHQSQ2g5AXIYABNIngLykP4enGAHr4hRUqRMC5yOA1J6PPS1DAAIjEUBeRgKdWDOsi8QmjO5CoIMAUtsBiMsQgED6BJCX9OfwFCNgXZyCKnVC4HwEkNrzsadlCEBgJALIy0igE2uGdZHYhNFdCHQQQGo7AHEZAhBInwDykv4cnmIErItTUKVOCJyPAFJ7Pva0DAEIjEhABYZfGLhrYMTlR1MQgMAIBA6U2p1ks4Ws35p6qNdnMuv6vVnLe7SKd1nfZLKLXouffN8sau0tNvHa4zVwFgIQgAAEIAABCEAgVQI9pFYFs4egqsCWkqpS2yGlb2tZmPI9BbgQ5OxZZHfr9idvR6XWk9jnzD9OdYboNwQgAAEIQAACEIBAJ4EeUlvVsbuNRGdVTm/DmGpPUS0luGoj32uP1KrUqtyKVOWQ2pAhxxCAAAQgAAEIQOB6CAySWlGB9SKwTRHZ2PlKQOt4+0lwLrJ5pDYmtWG6gxe5rTfKGQhAAAIQgAAEIACBiRDolNpYrmooj+5xLpJWattTF6ykDmVJ+sFQYpSHAAQgAAEIQAAC0ybQKbVNw69SAGIlXKm1ubV+pDa83xdVN2fW7tt6miO1XmSWnNrYxHAOAhCAAAQgAAEITJJAD6ltj7a6UdpZmZqwk8zky7bf60Zq/XxdX4BFrCTnc1AJcVUuJsWe5E5y+hgUBCAAAQhAAAIQgIAS6CG1cVCVWEaul282cK9VAuqetfsxKY0LcyxSq3UHD7ERqbVo2UIAAhCAAAQgAIHJExggtb6UllIbE9hCKLvzcW1KgR+JrVP3r/sCnMnuOXNeJ1bcjdTWMXIGAhCAAAQgAAEITJRAT6lVqbSv0cpJlFKrhyqV5ZcxVFFTldoqxcBKsd1Womrkt/ZasGbiXtsmNSGI0hZ9Iv2gmSFXIAABCEAAAhCAwJQI9JDaSlLzV3rVH9wyQOzrvnRbCKqVWj+yau8vvqwhFukdQNgXXO1rVX8l1AMqpCgEIDBJAu7Xo7LP1+XqGuAHAhCYFoEeUjutATMaCEDg+gggMNc3531GzLroQ4kyEEiHAFKbzlzRUwhA4EACyMuB4CZ+G+ti4hPM8K6OAFJ7dVPOgK+HwKdsvy1l+zFgxB9bWc5Xsh9wSwpFkZcUZmn8PrIuxmdOixA4JQGk9pR0qRsCZyDw+bCU+Xze+Lt6KTr1smosE7u/vO8MY/pqk8jLVwlO837WxTTnlVFdLwGk9nrnnpFPlIBKbZOA7u/m9Wsqt3fx2GxbXSnhQ15Smq3x+sq6GI81LUFgDAJI7RiUaQMCIxLoHam1feqI2DYJsr09hS3yksIsjd9H1sX4zGkRAqckgNSeki51Q+AMBNqiq9FI7dA+mrzbgbm6Q9s4cnnk5chAJ1Jd27r4+WMj9/f3xe+jvIqIOff9VV6/u+d/ytPGHm/k6deJwGEYEEiQAFKb4KTRZQi0EegTqd3f5VLaVbbMrXXTE5DaNvxcS4hAk9TmQpuLrDscK7qPargihdxWImuub57kp3sT+xCAwGgEkNrRUNMQBMYh0BmpvatyaNvKlr1ViXWltryQzk6TvKQzAnp6CgLxdZFHXq24uu3aSG157vVR7l2JDY/LguxAAAJjEEBqx6BMGxAYg4CJoDa/9SAWda2kdi+ryBsTTD4tUjvG7NHGGQggtWeATpMQOCEBpPaEcKkaApdBQN9XO5f5t61sg7cfeFL7bSufTofL/NtQao08k1ProGI3UQJxqS1yZ50I7M8fT15ObTncMDIbHpcF2YEABMYggNSOQZk2IDA6ATfyWgloKapFfzyp7RupRWpHn00aPA2BJqnV1qqHwe5l8yPPkiX94DTzQK0QOBaBCUjtu6xvMtkdiwj1QCBZAq7IOt8K5r2yyzkvIpXU1get12zKwvLBjeHWy176mTZ5ufS+07/TEWBdnI4tNUPgHAR6SK0rjbo/k9ms6Xch6zc7DPc+95xbxp7XrZZ3r+VtZc9uGbvf1Y+ZzG7W8m6Ls4UABK6aAPJy1dPfOHjWRSMaLkAgSQI9pFZE3tayiEriTrJZQ5RU77kt4qflfiiuDjNTJpOsUZhzkc4lt6UerbKxv0577EIAAldDAHm5mqkeNFDWxSBcFIbAxRPoJ7U6jOdM6lHTZqnd3c7K8u+bRbHfLKNu+W5qRGq7GVECAhCwBJAXS4KtS4B14dJgHwLpE+gvtdGxNkmtnrepBG0CWkR5nzOZ2Yiv2Y+nNyw2NqGgWY5NN4nURmeLkxC4VgLIy7XOfPu4WRftfLgKgdQIdEttKZlVmsHu1gprXGo1MjuzUqv32zSEWt6s4tI6VGKr+rshtolyIcTRdInumikBAQhMjwDyMr05PcaIWBfHoEgdELgcAt1Sa/qqEllJpy+1TlTVyGsuulkhvlVZrSgSYX1bS7bZVfWXEu3UW+TZEqm9nIVDTyCQEgHkJaXZGq+vrIvxWNMSBMYgcASprWTXdPhtLetnEV9m7VAiUmsu+dJsSzdvtXxder23MhCpbcbHFQhcGQHk5comvOdwWRc9QVEMAokQGCa1Jqr67ghrPP1Ax55Lbbd8Vm8zKORY82Eb3oBQRWoToUs3IQCBiyGgAsMvDNw1cDGLk45AAAJHITBAajUymotnFYXtktqwjz0itebVXvWvUtA8XSu1dr98q4JNWShzd1Wqq7cvhL3gGAIQgAAEIAABCEBgWgT6Sa2JnlZpBmeVWufNBqXUenNSiTZi64HhAAIQgAAEIAABCEyWQD+ptcO3EdGG9ADNabXvsq3E196s256R2ob6baS2rLGhP7Vy5Q3sQAACEIAABCAAAQhMkcAwqT0ZAZVdJ6fWSSOwTdqUA3vMFgIQgAAEIAABCEAAApbAhUit7Q5bCEAAAhCAAAQgAAEIDCeA1A5nxh0QgAAEIAABCEAAAhdGAKm9sAmhOxCAAAQgAAEIQAACwwkgtcOZcQcEIAABCEAAAhCAwIURQGovbELoDgQgAAEIQAACEIDAcAJI7XBm3AEBCEAAAhCAAAQgcGEEkNoLmxC6AwEInIaA+/Wo7PN1uboG+IEABKZFAKmd1nwyGghAIEIAgYlA4ZSwLlgEEJgWAaR2WvPJaCAAgQgB5CUChVNILWsAAhMjgNRObEIZDgRE9rKar2TvoPh8WMrqxTlhd19WMp/PO3+j99o6EtgitQlM0hm62LQufv7YyP331zP0iCYhAIGvEEBqv0KPeyFwiQQ+trK8c5VWpFFqa/3/lO03X4hrRRI80SQvCQ6FLh+RQNO6QGqPCJmqIDAigSuU2ndZ32SyGxEyTUFgTAL7u7msHraybI3ArmSv8ttaxo/gphytbZKXMeeFti6PQNO6QGovb67oEQT6EOglte+bhcxms87fxebdtLm7nYnd1xN6v3vc1bF+5VVOF7J+s7Xp8UyyZ3vsbvNrrWO4WUvee/c+9iGQGoF66oG8rGT5bSnLb1svJSEfWRiZ7TpOjUfe3yZ5SXM09PpYBJrWBVJ7LMLUA4FxCfSS2nqXdpLN2qOdpdi+rWXRJMQNItlLarXe20yyprqL87nkhgIcjEjrauhLUJJDCFw0AU0zmAf5tPu7lWw1p/ZuFcmrVYn1I7L1HNsgHcFEeJey/bhoFF7nmuTFK8TB1RFoWhee1P76JJv7+yrH1h7ruftHeSL/9urWDQO+XAInk1oRFclMslsnmurIo0pvPKqaR3ZjUVU32tt2fx03kdo6E85Mj4BGaTUi60hokV+b59TuZRXk2op0RWbD6yKC1E5v6VzpiLql9lUe7+/lsXxmLH7MQ2VXuoAY9sUROI3UFtHZ7Pld3ov0AJvCsLhZyKwjKtoZqX3OZGYjxWY/nhpRSTCR2otbeXTo+AQ+trJ98SV0f5dHVO2DYva4avyASG11czJ7TfKSzADo6EkINK2LPFL7GAitiLw+yv3mSX46vfGius55diEAgfEJHF9qjdDa1IQqQloJpogU0jubOVFcZ+ztUqupDyqxtg3nxsbdqh+xCLA51yHajVVzAQIXRcCRWn1dVxGZtVJroqzftvLZ2Gfn/sYy6V1okpf0RkKPj0mgaV0YUb3fyGZzL5sfjsIitcfET10QODqB40tt0UUbmW2SyFJyS8GNR1v9+xey/mUt2WZXvcGASO3RFwUVpkygkFKTIrCSfe09tHl+rZVdfYisnkNbz7FdPjgaTPpByguEvjsEWqXWvKf2pzy5Ylvk04bpCKQfOFDZhcAZCZxUaptyZuU5a30bQnukVmlp5JVI7RnXDU1fLIFcalf6Wi/nyxbKSK3pt5bxr1fD6RGpRWorXOwlTaBbanV4eR6tPhRmUms1WmseEuNBsaQnn85PksBIUhu8LaGH1JYR2mhagCO1LZHeMho8yaljUBCIEYhLqS+1xX09o7Q2kutKcqzlSz7XJC+X3Gf6dnoCx1gXr9+DFIXTd5sWIACBBgLjSK2KpyunPaS2FFJHWqvIbyC1t/WvUnCjvXZft6YOm7Lg3DfsbQoNNDkNAQhcJIFjyMtFDoxOfYnA8HXxU56+Ow+KmXSEjTz9+qVucDMEIHAkAieTWts/lUWNuma3+saCfL8UVlso2FoJDU47hwOk1hHqUmqdmkSqKDJi64HhAAKTITBcXiYzdAbSQuCgdeG9p9Z93VdLQ1yCAARGIdAttU6k1Epp81bfZqDCWT30FRNYlUtThxu9dYY7WGobvoCh1raN0Abla+WcvrALAQikT+AgeUl/2IyggwDrogMQlyGQGIFuqb3IAQ2I1F5k/+kUBCAwJgHkZUza6bTFukhnrugpBPoQSFRq+wyNMhCAAARyAsgLKyFGgHURo8I5CKRLAKlNd+7oOQQg0JMA8tIT1JUVY11c2YQz3MkTQGonP8UMEAIQQF5YAzECrIsYFc5BIF0CSG26c0fPIQCBAQRUYPiFgbsGBiwfikIAAgkQQGoTmCS6CAEIQAACEIAABCDQTgCpbefDVQhAAAIQgAAEIACBBAggtQlMEl2EAAQgAAEIQAACEGgngNS28+EqBCAAAQhAAAIQgEACBJDaBCaJLkIAAhCAAAQgAAEItBNAatv5cBUCEIAABCAAAQhAIAECSG0Ck0QXIQABCEAAAhCAAATaCSC17Xy4CgEIQAACEIAABCCQAIHeUvu+WcjsducNKXYuL7CTbDaTWefvQtZv77K+ccoWbexu9ZptbifZzVre7aHZ6n2ZBD2S9Y17n3cDBxCAAAQgAAEIQAACEyXQU2rrkrrYrCPiaoUyJqFNBFVOi/ueM1ls3kXe1rLwJDZSn5axkl3uO3U1Ncd5CEAAAhCAAAQgAIHJEegltbvbmWTPImKlU/LoqjmnQjmzMmv5hBLaJpv2mm7zyKu2F5fmoh8iUvZJRDRibPpi+hX2xfaJLQQgcM0E3K9HZZ+vy9U1wA8EIDAtAt1SW0RB3zdr86d+k3LQkFZgoqyGT0xqw1QBC7KQ2k0RpX3OTNpCVZeWC+vTyLGVV73fSV/w+tbUpm2bLQQgcA0EEJhrmOXhY2RdDGfGHRC4ZALdUlv0/v1N0w2sSEaGVEZx9VouoTvNw/Uk05dPP7qa37PWXNpCcKtorC+1uVgXfVEJtmkIRGojE8MpCEAAeWENxAiwLmJUOAeBdAn0klqVyDxyWs+tnc2KaGhEaqsHu6rUAouqEtYiUvvmpBHYujRKbHJrXanVPmSSFQ+S+Q+UVXXZdthC4JoI7O/mMp/3+L3bV1heVjL/tpXP6oxI7Jx7PbF95CWxCRupu6yLkUDTDARGInCA1Lp/0ndk1Yqo6bgroXoiPNacWBv1rUS0lOeyLnvNuf9tLetn936XlC3vnmMfAtdDQKV29dIxXhVWK7W6H0rw3UpW4bn5UrYfHfVe8GXk5YIn54xdY12cET5NQ+AEBA6QWj+FIBqpLd9GUPTYSxHIz/lSa+usUgrac2qt1KrE2nvj2zzF4QTkqBICF0ggl9p9REpt9HYleyu1H1tZzldiY7b7u2L/ZVsJ7Mde9gnLrJ0i5MWSYOsSYF24NNiHQPoEDpDa7khtGXE1fNyHuiwwN6Lq7hfXy0itLe9EaotTlRTbMrqN1OVeZh8CEydQj9Sq4FbiaoZvpVbq8rt6UNG1Auxsw/SExDgiL4lN2EjdZV2MBJpmIDASgQOkNoyIhjm1jlia133p67mq7Np8XHlebP7FCU55O2ik1pJgC4FBBHKp/ZTtN0dIXUlVOS2lVkTLV+kHRYqBRnCL9ITPh2U9ncFEeNNKR0BeBi2jqynMuriaqWagV0JgoNRGqBSv4NK3HJTvrdW3ERihtXmzep/KqyPEbW8ssFLr1B2KMZHayFxw6uoJNEVqtw9LWT4Uj4I5UmuABRJbSW5EePUGpPbq19lUACC1U5lJxgGBnEAvqQUWBCCQBoEmqdW82TLqaqXWyKkrrnNZPmyj+bidD59dOB7k5cIn6EzdY12cCTzNQuBEBJDaE4GlWgicg4CR2qa8WJOGsJTtg/P2A6lSFXJx3csqyJ8tZfgcAzpSm8jLkUBOrBrWxcQmlOFcPQGk9uqXAACmRKAeqY2MzkZqi+jt8m4ly7utycNdvdQfHtN0BC9SS/pBBCqnUiSA1KY4a/QZAs0EkNpmNlyBQHIEVGrjObHBeX0QTOVUo7K6te+t1TcidEVqkdrk1gUdjhNAauNcOAuBVAn8H7PvNxF7lCLBAAAAAElFTkSuQmCC;" vertex="1" parent="1">
          <mxGeometry x="610" y="20" width="187.63" height="150" as="geometry" />
        </mxCell>
        <mxCell id="kEirQazwxM-ynIQ75gN8-15" value="" style="endArrow=classic;html=1;entryX=0;entryY=0.5;entryDx=0;entryDy=0;" edge="1" parent="1" target="kEirQazwxM-ynIQ75gN8-14">
          <mxGeometry width="50" height="50" relative="1" as="geometry">
            <mxPoint x="390" y="190" as="sourcePoint" />
            <mxPoint x="560" y="210" as="targetPoint" />
          </mxGeometry>
        </mxCell>
        <mxCell id="kEirQazwxM-ynIQ75gN8-16" value="" style="endArrow=classic;html=1;entryX=0;entryY=0.5;entryDx=0;entryDy=0;exitX=0.816;exitY=0.857;exitDx=0;exitDy=0;exitPerimeter=0;" edge="1" parent="1" source="kEirQazwxM-ynIQ75gN8-1" target="kEirQazwxM-ynIQ75gN8-13">
          <mxGeometry width="50" height="50" relative="1" as="geometry">
            <mxPoint x="400" y="200" as="sourcePoint" />
            <mxPoint x="620" y="115" as="targetPoint" />
          </mxGeometry>
        </mxCell>
        <mxCell id="kEirQazwxM-ynIQ75gN8-20" value="不填，走 投递" style="edgeStyle=none;rounded=0;orthogonalLoop=1;jettySize=auto;html=1;exitX=1;exitY=0.5;exitDx=0;exitDy=0;entryX=0;entryY=0.5;entryDx=0;entryDy=0;" edge="1" parent="1" source="kEirQazwxM-ynIQ75gN8-17" target="kEirQazwxM-ynIQ75gN8-19">
          <mxGeometry relative="1" as="geometry" />
        </mxCell>
        <mxCell id="kEirQazwxM-ynIQ75gN8-22" value="填，走投递" style="edgeStyle=none;rounded=0;orthogonalLoop=1;jettySize=auto;html=1;exitX=1;exitY=0.5;exitDx=0;exitDy=0;entryX=0;entryY=0.5;entryDx=0;entryDy=0;" edge="1" parent="1" source="kEirQazwxM-ynIQ75gN8-17" target="kEirQazwxM-ynIQ75gN8-21">
          <mxGeometry relative="1" as="geometry" />
        </mxCell>
        <mxCell id="kEirQazwxM-ynIQ75gN8-17" value="推荐码" style="rhombus;whiteSpace=wrap;html=1;" vertex="1" parent="1">
          <mxGeometry x="550" y="490" width="90" height="40" as="geometry" />
        </mxCell>
        <mxCell id="kEirQazwxM-ynIQ75gN8-19" value="微官网网申申请表" style="rounded=0;whiteSpace=wrap;html=1;" vertex="1" parent="1">
          <mxGeometry x="740" y="440" width="100" height="40" as="geometry" />
        </mxCell>
        <mxCell id="kEirQazwxM-ynIQ75gN8-21" value="微官网网申申请表" style="rounded=0;whiteSpace=wrap;html=1;" vertex="1" parent="1">
          <mxGeometry x="740" y="520" width="100" height="40" as="geometry" />
        </mxCell>
        <mxCell id="kEirQazwxM-ynIQ75gN8-24" value="应聘者操作" style="shape=umlActor;verticalLabelPosition=bottom;verticalAlign=top;html=1;outlineConnect=0;" vertex="1" parent="1">
          <mxGeometry x="410" y="420" width="20" height="30" as="geometry" />
        </mxCell>
        <mxCell id="kEirQazwxM-ynIQ75gN8-26" value="内部员工" style="shape=umlActor;verticalLabelPosition=bottom;verticalAlign=top;html=1;outlineConnect=0;" vertex="1" parent="1">
          <mxGeometry x="410" y="580" width="20" height="30" as="geometry" />
        </mxCell>
      </root>
    </mxGraphModel>
  </diagram>
</mxfile>
